<svg width="426" height="281" viewBox="0 0 426 281" version="1.1" xmlns="http://www.w3.org/2000/svg" xmlns:xlink="http://www.w3.org/1999/xlink">
<title>&#208;&#191;&#209;&#128;&#208;&#190;&#208;&#183;&#209;&#128;&#208;&#176;&#209;&#135;&#208;&#189;&#209;&#139;&#208;&#181; &#209;&#131;&#209;&#129;&#208;&#187;&#208;&#190;&#208;&#178;&#208;&#184;&#209;&#143;</title>
<desc>Created using Figma</desc>
<g id="Canvas" transform="translate(-515 -1133)">
<clipPath id="clip-0" clip-rule="evenodd">
<path d="M 515 1133L 941 1133L 941 1414L 515 1414L 515 1133Z" fill="#FFFFFF"/>
</clipPath>
<g id="&#208;&#191;&#209;&#128;&#208;&#190;&#208;&#183;&#209;&#128;&#208;&#176;&#209;&#135;&#208;&#189;&#209;&#139;&#208;&#181; &#209;&#131;&#209;&#129;&#208;&#187;&#208;&#190;&#208;&#178;&#208;&#184;&#209;&#143;" clip-path="url(#clip-0)">
<g id="icon">
<g id="Layer 1">
<g id="Vector">
<use xlink:href="#path0_fill" transform="matrix(-1 0 0 1 922.952 1231)" fill="#FFFFFF"/>
<mask id="mask0_outline_ins">
<use xlink:href="#path0_fill" fill="white" transform="matrix(-1 0 0 1 922.952 1231)"/>
</mask>
<g mask="url(#mask0_outline_ins)">
<use xlink:href="#path1_stroke_2x" transform="matrix(-1 0 0 1 922.952 1231)" fill="#D9D2D2"/>
</g>
</g>
<g id="Vector">
<use xlink:href="#path2_fill" transform="matrix(-1 0 0 1 941.343 1374.5)" fill="#FFFFFF"/>
<mask id="mask1_outline_ins">
<use xlink:href="#path2_fill" fill="white" transform="matrix(-1 0 0 1 941.343 1374.5)"/>
</mask>
<g mask="url(#mask1_outline_ins)">
<use xlink:href="#path3_stroke_2x" transform="matrix(-1 0 0 1 941.343 1374.5)" fill="#D9D2D2"/>
</g>
</g>
<g id="Capa 1">
<g id="Group">
<g id="Group">
<g id="Vector">
<use xlink:href="#path4_fill" transform="translate(836.726 1291)" fill="#FFFFFF"/>
<mask id="mask2_outline_ins">
<use xlink:href="#path4_fill" fill="white" transform="translate(836.726 1291)"/>
</mask>
<g mask="url(#mask2_outline_ins)">
<use xlink:href="#path5_stroke_2x" transform="translate(836.726 1291)" fill="#D9D2D2"/>
</g>
</g>
</g>
</g>
</g>
<g id="money">
<g id="Group">
<g id="Rectangle 70">
<use xlink:href="#path6_fill" transform="matrix(6.12323e-17 1 -1 6.12323e-17 644 1192.49)" fill="#FFFFFF"/>
<mask id="mask3_outline_ins">
<use xlink:href="#path6_fill" fill="white" transform="matrix(6.12323e-17 1 -1 6.12323e-17 644 1192.49)"/>
</mask>
<g mask="url(#mask3_outline_ins)">
<use xlink:href="#path7_stroke_2x" transform="matrix(6.12323e-17 1 -1 6.12323e-17 644 1192.49)" fill="#EAEAEA"/>
</g>
</g>
<g id="Rectangle 70">
<use xlink:href="#path6_fill" transform="matrix(6.12323e-17 1 -1 6.12323e-17 638.785 1187.25)" fill="#FFFFFF"/>
<mask id="mask4_outline_ins">
<use xlink:href="#path6_fill" fill="white" transform="matrix(6.12323e-17 1 -1 6.12323e-17 638.785 1187.25)"/>
</mask>
<g mask="url(#mask4_outline_ins)">
<use xlink:href="#path7_stroke_2x" transform="matrix(6.12323e-17 1 -1 6.12323e-17 638.785 1187.25)" fill="#EAEAEA"/>
</g>
</g>
<g id="Rectangle 70">
<use xlink:href="#path6_fill" transform="matrix(6.12323e-17 1 -1 6.12323e-17 633.568 1182)" fill="#FFFFFF"/>
<mask id="mask5_outline_ins">
<use xlink:href="#path6_fill" fill="white" transform="matrix(6.12323e-17 1 -1 6.12323e-17 633.568 1182)"/>
</mask>
<g mask="url(#mask5_outline_ins)">
<use xlink:href="#path7_stroke_2x" transform="matrix(6.12323e-17 1 -1 6.12323e-17 633.568 1182)" fill="#D9D2D2"/>
</g>
</g>
<g id="Rectangle 70">
<use xlink:href="#path8_fill" transform="matrix(6.12323e-17 1 -1 6.12323e-17 633.568 1182)" fill="#FFFFFF"/>
<mask id="mask6_outline_ins">
<use xlink:href="#path8_fill" fill="white" transform="matrix(6.12323e-17 1 -1 6.12323e-17 633.568 1182)"/>
</mask>
<g mask="url(#mask6_outline_ins)">
<use xlink:href="#path9_stroke_2x" transform="matrix(6.12323e-17 1 -1 6.12323e-17 633.568 1182)" fill="#D9D2D2"/>
</g>
</g>
<g id="Rectangle 70">
<use xlink:href="#path8_fill" transform="matrix(-6.12323e-17 -1 -1 6.12323e-17 633.568 1242.32)" fill="#FFFFFF"/>
<mask id="mask7_outline_ins">
<use xlink:href="#path8_fill" fill="white" transform="matrix(-6.12323e-17 -1 -1 6.12323e-17 633.568 1242.32)"/>
</mask>
<g mask="url(#mask7_outline_ins)">
<use xlink:href="#path9_stroke_2x" transform="matrix(-6.12323e-17 -1 -1 6.12323e-17 633.568 1242.32)" fill="#D9D2D2"/>
</g>
</g>
<g id="Rectangle 70">
<use xlink:href="#path8_fill" transform="matrix(6.12323e-17 1 1 -6.12323e-17 511 1182)" fill="#FFFFFF"/>
<mask id="mask8_outline_ins">
<use xlink:href="#path8_fill" fill="white" transform="matrix(6.12323e-17 1 1 -6.12323e-17 511 1182)"/>
</mask>
<g mask="url(#mask8_outline_ins)">
<use xlink:href="#path9_stroke_2x" transform="matrix(6.12323e-17 1 1 -6.12323e-17 511 1182)" fill="#D9D2D2"/>
</g>
</g>
<g id="Rectangle 70">
<use xlink:href="#path8_fill" transform="matrix(-6.12323e-17 -1 1 -6.12323e-17 511 1242.32)" fill="#FFFFFF"/>
<mask id="mask9_outline_ins">
<use xlink:href="#path8_fill" fill="white" transform="matrix(-6.12323e-17 -1 1 -6.12323e-17 511 1242.32)"/>
</mask>
<g mask="url(#mask9_outline_ins)">
<use xlink:href="#path9_stroke_2x" transform="matrix(-6.12323e-17 -1 1 -6.12323e-17 511 1242.32)" fill="#D9D2D2"/>
</g>
</g>
<g id="Rectangle 66">
<use xlink:href="#path10_fill" transform="matrix(6.12323e-17 1 -1 6.12323e-17 584.019 1201.23)" fill="#FFFFFF"/>
<mask id="mask10_outline_ins">
<use xlink:href="#path10_fill" fill="white" transform="matrix(6.12323e-17 1 -1 6.12323e-17 584.019 1201.23)"/>
</mask>
<g mask="url(#mask10_outline_ins)">
<use xlink:href="#path11_stroke_2x" transform="matrix(6.12323e-17 1 -1 6.12323e-17 584.019 1201.23)" fill="#D9D2D2"/>
</g>
</g>
</g>
<g id="mean">
<g id="Group">
<g id="Vector">
<use xlink:href="#path12_stroke" transform="translate(516.041 1291)" fill="#D9D2D2"/>
</g>
<clipPath id="clip-1" clip-rule="evenodd">
<path d="M 522.836 1291L 579.959 1291L 579.959 1330.6L 522.836 1330.6L 522.836 1291Z" fill="#FFFFFF"/>
</clipPath>
<g id="Group" clip-path="url(#clip-1)">
</g>
<g id="Group">
<g id="Vector">
<use xlink:href="#path13_stroke" transform="translate(516 1371.24)" fill="#D9D2D2"/>
</g>
</g>
<g id="Vector">
<use xlink:href="#path14_stroke" transform="translate(524.232 1308.6)" fill="#D9D2D2"/>
</g>
</g>
</g>
</g>
</g>
<g id="Vector">
<use xlink:href="#path15_fill" transform="matrix(1 -5.55112e-17 5.55112e-17 1 573 1143)" fill="#FFFFFF"/>
<mask id="mask11_outline_out">
<rect id="mask11_outline_inv" fill="white" x="-2" y="-2" width="265" height="265" transform="matrix(1 -5.55112e-17 5.55112e-17 1 573 1143)"/>
<use xlink:href="#path15_fill" fill="black" transform="matrix(1 -5.55112e-17 5.55112e-17 1 573 1143)"/>
</mask>
<g mask="url(#mask11_outline_out)">
<use xlink:href="#path16_stroke_2x" transform="matrix(1 -5.55112e-17 5.55112e-17 1 573 1143)" fill="#D9D2D2"/>
</g>
</g>
<g id="manjet">
<use xlink:href="#path17_fill" transform="matrix(1 0 0 1 625 1253)" fill="#FFFFFF"/>
<use xlink:href="#path17_fill" transform="matrix(1 0 0 1 625 1253)" fill="#9493C6"/>
<mask id="mask12_outline_ins">
<use xlink:href="#path17_fill" fill="white" transform="matrix(1 0 0 1 625 1253)"/>
</mask>
<g mask="url(#mask12_outline_ins)">
<use xlink:href="#path18_stroke_2x" transform="matrix(1 0 0 1 625 1253)" fill="#4D4B87"/>
</g>
</g>
<g id="Rectangle 70">
<use xlink:href="#path6_fill" transform="translate(694.817 1203)" fill="#FFFFFF"/>
<mask id="mask13_outline_ins">
<use xlink:href="#path6_fill" fill="white" transform="translate(694.817 1203)"/>
</mask>
<g mask="url(#mask13_outline_ins)">
<use xlink:href="#path19_stroke_2x" transform="translate(694.817 1203)" fill="#4D4B87"/>
</g>
</g>
<g id="Rectangle 70">
<use xlink:href="#path6_fill" transform="translate(689.572 1208.21)" fill="#FFFFFF"/>
<mask id="mask14_outline_ins">
<use xlink:href="#path6_fill" fill="white" transform="translate(689.572 1208.21)"/>
</mask>
<g mask="url(#mask14_outline_ins)">
<use xlink:href="#path19_stroke_2x" transform="translate(689.572 1208.21)" fill="#4D4B87"/>
</g>
</g>
<g id="money">
<g id="Rectangle 70">
<use xlink:href="#path6_fill" transform="translate(684.327 1213.43)" fill="#FFFFFF"/>
<mask id="mask15_outline_ins">
<use xlink:href="#path6_fill" fill="white" transform="translate(684.327 1213.43)"/>
</mask>
<g mask="url(#mask15_outline_ins)">
<use xlink:href="#path19_stroke_2x" transform="translate(684.327 1213.43)" fill="#4D4B87"/>
</g>
</g>
<g id="Rectangle 70">
<use xlink:href="#path8_fill" transform="translate(684.327 1213.43)" fill="#FFFFFF"/>
<use xlink:href="#path8_fill" transform="translate(684.327 1213.43)" fill="#9493C6"/>
<mask id="mask16_outline_ins">
<use xlink:href="#path8_fill" fill="white" transform="translate(684.327 1213.43)"/>
</mask>
<g mask="url(#mask16_outline_ins)">
<use xlink:href="#path20_stroke_2x" transform="translate(684.327 1213.43)" fill="#4D4B87"/>
</g>
</g>
<g id="Rectangle 70">
<use xlink:href="#path8_fill" transform="matrix(-1 0 0 1 744.648 1213.43)" fill="#FFFFFF"/>
<use xlink:href="#path8_fill" transform="matrix(-1 0 0 1 744.648 1213.43)" fill="#9493C6"/>
<mask id="mask17_outline_ins">
<use xlink:href="#path8_fill" fill="white" transform="matrix(-1 0 0 1 744.648 1213.43)"/>
</mask>
<g mask="url(#mask17_outline_ins)">
<use xlink:href="#path20_stroke_2x" transform="matrix(-1 0 0 1 744.648 1213.43)" fill="#4D4B87"/>
</g>
</g>
<g id="Rectangle 70">
<use xlink:href="#path8_fill" transform="matrix(1 0 0 -1 684.327 1336)" fill="#FFFFFF"/>
<use xlink:href="#path8_fill" transform="matrix(1 0 0 -1 684.327 1336)" fill="#9493C6"/>
<mask id="mask18_outline_ins">
<use xlink:href="#path8_fill" fill="white" transform="matrix(1 0 0 -1 684.327 1336)"/>
</mask>
<g mask="url(#mask18_outline_ins)">
<use xlink:href="#path20_stroke_2x" transform="matrix(1 0 0 -1 684.327 1336)" fill="#4D4B87"/>
</g>
</g>
<g id="Rectangle 70">
<use xlink:href="#path8_fill" transform="matrix(-1 0 0 -1 744.648 1336)" fill="#FFFFFF"/>
<use xlink:href="#path8_fill" transform="matrix(-1 0 0 -1 744.648 1336)" fill="#9493C6"/>
<mask id="mask19_outline_ins">
<use xlink:href="#path8_fill" fill="white" transform="matrix(-1 0 0 -1 744.648 1336)"/>
</mask>
<g mask="url(#mask19_outline_ins)">
<use xlink:href="#path20_stroke_2x" transform="matrix(-1 0 0 -1 744.648 1336)" fill="#4D4B87"/>
</g>
</g>
<g id="Rectangle 66">
<use xlink:href="#path10_fill" transform="translate(703.56 1262.98)" fill="#FFFFFF"/>
<mask id="mask20_outline_ins">
<use xlink:href="#path10_fill" fill="white" transform="translate(703.56 1262.98)"/>
</mask>
<g mask="url(#mask20_outline_ins)">
<use xlink:href="#path21_stroke_2x" transform="translate(703.56 1262.98)" fill="#4D4B87"/>
</g>
</g>
</g>
<g id="hand">
<use xlink:href="#path22_fill" transform="translate(648.352 1245.16)" fill="#9493C6"/>
<use xlink:href="#path23_stroke" transform="translate(648.352 1245.16)" fill="#4D4B87"/>
</g>
<g id="palci">
<g id="Rectangle 68">
<use xlink:href="#path24_fill" transform="matrix(1 0 0 1 729.787 1255.16)" fill="#9493C6"/>
<use xlink:href="#path25_stroke" transform="matrix(1 0 0 1 729.787 1255.16)" fill="#4D4B87"/>
</g>
<g id="Rectangle 68">
<use xlink:href="#path26_fill" transform="matrix(1 0 0 1 722.793 1270.81)" fill="#9493C6"/>
<use xlink:href="#path27_stroke" transform="matrix(1 0 0 1 722.793 1270.81)" fill="#4D4B87"/>
</g>
<g id="Rectangle 68">
<use xlink:href="#path28_fill" transform="matrix(1 0 0 1 728 1286)" fill="#9493C6"/>
<use xlink:href="#path29_stroke" transform="matrix(1 0 0 1 728 1286)" fill="#4D4B87"/>
</g>
<g id="Rectangle 68">
<use xlink:href="#path30_fill" transform="matrix(1 0 0 1 733 1301)" fill="#9493C6"/>
<use xlink:href="#path31_stroke" transform="matrix(1 0 0 1 733 1301)" fill="#4D4B87"/>
</g>
</g>
</g>
</g>
</g>
<defs>
<path id="path0_fill" d="M 0.445541 0C -0.556797 0 0.44532 147.889 0.44532 164L 113.068 164L 112.811 164C 118.577 164 123.317 159.388 123.317 153.622L 123.317 10.5061C 123.317 4.74052 128.058 0 133.952 0L 0.445541 0Z"/>
<path id="path1_stroke_2x" d="M 0.44532 164L -1.55468 164L -1.55468 166L 0.44532 166L 0.44532 164ZM 0.44532 166L 113.068 166L 113.068 162L 0.44532 162L 0.44532 166ZM 113.068 162L 112.811 162L 112.811 166L 113.068 166L 113.068 162ZM 112.811 166C 119.649 166 125.317 160.524 125.317 153.622L 121.317 153.622C 121.317 158.251 117.504 162 112.811 162L 112.811 166ZM 125.317 153.622L 125.317 10.5061L 121.317 10.5061L 121.317 153.622L 125.317 153.622ZM 125.317 10.5061C 125.317 5.86092 129.147 2 133.952 2L 133.952 -2C 126.969 -2 121.317 3.62011 121.317 10.5061L 125.317 10.5061ZM 133.952 -2L 0.445541 -2L 0.445541 2L 133.952 2L 133.952 -2ZM 0.445541 -2C -0.390376 -2 -0.899243 -1.5111 -1.08459 -1.29487C -1.20642 -1.13854 -1.3673 -0.867068 -1.41929 -0.752874C -1.47329 -0.614681 -1.53643 -0.399132 -1.55865 -0.297293C -1.58639 -0.156786 -1.61558 0.0542055 -1.63309 0.229462C -1.66381 0.545908 -1.69301 1.01591 -1.71772 1.57709C -1.76616 2.68261 -1.80754 4.30617 -1.84197 6.35245C -1.91063 10.4372 -1.95382 16.2905 -1.97734 23.3527C -2.02436 37.4741 -1.99306 56.4702 -1.93044 75.9648C -1.80519 114.954 -1.55467 155.951 -1.55468 164L 2.44532 164C 2.44531 155.938 2.19477 114.935 2.06954 75.952C 2.00693 56.4605 1.97564 37.4774 2.02263 23.3661C 2.04612 16.3119 2.08908 10.4856 2.15747 6.4197C 2.19157 4.39067 2.23144 2.8212 2.27843 1.75251C 2.30144 1.22658 2.32351 0.864182 2.3478 0.620006C 2.35779 0.514951 2.36031 0.510011 2.35867 0.511794C 2.35831 0.513568 2.33445 0.64066 2.26412 0.806765C 2.23257 0.88129 2.14106 1.08825 1.95236 1.30838C 1.77473 1.51561 1.27363 2 0.445541 2L 0.445541 -2Z"/>
<path id="path2_fill" d="M 131.587 0L 10.124 0C -3.37463 0.000761641 -3.37469 20.5002 10.124 20.5002L 131.587 20.5002C 118.088 20.5002 118.088 0 131.587 0Z"/>
<path id="path3_stroke_2x" d="M 10.124 0L 10.124 -2L 10.1239 -2L 10.124 0ZM 131.587 -2L 10.124 -2L 10.124 2L 131.587 2L 131.587 -2ZM 10.124 22.5002L 131.587 22.5002L 131.587 18.5002L 10.124 18.5002L 10.124 22.5002ZM 131.587 18.5002C 128.763 18.5002 126.789 17.449 125.497 15.9775C 124.171 14.4673 123.463 12.3931 123.463 10.2501C 123.463 8.10707 124.171 6.03287 125.497 4.52268C 126.789 3.05112 128.763 2 131.587 2L 131.587 -2C 127.661 -2 124.573 -0.488597 122.491 1.88362C 120.442 4.21721 119.463 7.26805 119.463 10.2501C 119.463 13.2321 120.442 16.2829 122.491 18.6165C 124.573 20.9888 127.661 22.5002 131.587 22.5002L 131.587 18.5002ZM 10.1239 -2C 6.19783 -1.99978 3.11072 -0.488272 1.02804 1.88396C -1.02072 4.21757 -2 7.26838 -2 10.2504C -2 13.2323 -1.02074 16.2831 1.02806 18.6167C 3.11077 20.9888 6.19793 22.5002 10.124 22.5002L 10.124 18.5002C 7.30071 18.5002 5.32587 17.4491 4.03392 15.9776C 2.70806 14.4674 2 12.3933 2 10.2504C 2 8.10741 2.70807 6.03322 4.03397 4.52298C 5.32596 3.05136 7.30084 2.00016 10.1241 2L 10.1239 -2Z"/>
<path id="path4_fill" d="M 16.1209 32.6168L 5.71929 22.3512L 0 27.9957L 13.7263 41.5425L 13.7421 41.5269L 16.248 44L 55 5.75424L 49.1698 3.72727e-08L 16.1209 32.6168Z"/>
<path id="path5_stroke_2x" d="M 16.1209 32.6168L 14.7161 34.0403L 16.1209 35.4268L 17.5258 34.0403L 16.1209 32.6168ZM 5.71929 22.3512L 7.12416 20.9277L 5.71928 19.5412L 4.31441 20.9277L 5.71929 22.3512ZM 0 27.9957L -1.40488 26.5722L -2.84722 27.9957L -1.40487 29.4192L 0 27.9957ZM 13.7263 41.5425L 12.3214 42.966L 13.7313 44.3574L 15.1362 42.961L 13.7263 41.5425ZM 13.7421 41.5269L 15.1469 40.1034L 13.7371 38.712L 12.3322 40.1084L 13.7421 41.5269ZM 16.248 44L 14.8431 45.4235L 16.248 46.81L 17.6528 45.4235L 16.248 44ZM 55 5.75424L 56.4049 7.17772L 57.8472 5.75426L 56.4049 4.33078L 55 5.75424ZM 49.1698 3.72727e-08L 50.5747 -1.42346L 49.1698 -2.81003L 47.7649 -1.42349L 49.1698 3.72727e-08ZM 17.5258 31.1933L 7.12416 20.9277L 4.31442 23.7747L 14.7161 34.0403L 17.5258 31.1933ZM 4.31441 20.9277L -1.40488 26.5722L 1.40488 29.4192L 7.12417 23.7747L 4.31441 20.9277ZM -1.40487 29.4192L 12.3214 42.966L 15.1312 40.119L 1.40487 26.5722L -1.40487 29.4192ZM 15.1362 42.961L 15.152 42.9454L 12.3322 40.1084L 12.3164 40.124L 15.1362 42.961ZM 12.3372 42.9504L 14.8431 45.4235L 17.6528 42.5765L 15.1469 40.1034L 12.3372 42.9504ZM 17.6528 45.4235L 56.4049 7.17772L 53.5951 4.33075L 14.8431 42.5765L 17.6528 45.4235ZM 56.4049 4.33078L 50.5747 -1.42346L 47.7649 1.42346L 53.5951 7.17769L 56.4049 4.33078ZM 47.7649 -1.42349L 14.7161 31.1933L 17.5258 34.0403L 50.5747 1.42349L 47.7649 -1.42349Z"/>
<path id="path6_fill" d="M 0 0L 60.3208 0L 60.3208 122.569L 0 122.569L 0 0Z"/>
<path id="path7_stroke_2x" d="M 0 0L 0 -2L -2 -2L -2 0L 0 0ZM 60.3208 0L 62.3208 0L 62.3208 -2L 60.3208 -2L 60.3208 0ZM 60.3208 122.569L 60.3208 124.569L 62.3208 124.569L 62.3208 122.569L 60.3208 122.569ZM 0 122.569L -2 122.569L -2 124.569L 0 124.569L 0 122.569ZM 0 2L 60.3208 2L 60.3208 -2L 0 -2L 0 2ZM 58.3208 0L 58.3208 122.569L 62.3208 122.569L 62.3208 0L 58.3208 0ZM 60.3208 120.569L 0 120.569L 0 124.569L 60.3208 124.569L 60.3208 120.569ZM 2 122.569L 2 0L -2 0L -2 122.569L 2 122.569Z"/>
<path id="path8_fill" d="M 0 0L 13.1132 0L 13.1132 4.27241C 13.1132 11.5146 7.24222 17.3856 0 17.3856L 0 17.3856L 0 0Z"/>
<path id="path9_stroke_2x" d="M 0 0L 0 -2L -2 -2L -2 0L 0 0ZM 13.1132 0L 15.1132 0L 15.1132 -2L 13.1132 -2L 13.1132 0ZM 0 2L 13.1132 2L 13.1132 -2L 0 -2L 0 2ZM 11.1132 0L 11.1132 4.27241L 15.1132 4.27241L 15.1132 0L 11.1132 0ZM 2 17.3856L 2 0L -2 0L -2 17.3856L 2 17.3856ZM 11.1132 4.27241C 11.1132 10.4101 6.13766 15.3856 0 15.3856L 0 19.3856C 8.34679 19.3856 15.1132 12.6192 15.1132 4.27241L 11.1132 4.27241Z"/>
<path id="path10_fill" d="M 0 11.3007C 0 5.05947 5.05947 0 11.3007 0L 11.4289 0C 17.6701 0 22.7296 5.05947 22.7296 11.3007L 22.7296 11.3007C 22.7296 17.5418 17.6701 22.6013 11.4289 22.6013L 11.3007 22.6013C 5.05947 22.6013 0 17.5418 0 11.3007L 0 11.3007Z"/>
<path id="path11_stroke_2x" d="M 11.3007 2L 11.4289 2L 11.4289 -2L 11.3007 -2L 11.3007 2ZM 11.4289 20.6013L 11.3007 20.6013L 11.3007 24.6013L 11.4289 24.6013L 11.4289 20.6013ZM 11.3007 -2C 3.95491 -2 -2 3.95491 -2 11.3007L 2 11.3007C 2 6.16404 6.16404 2 11.3007 2L 11.3007 -2ZM 11.4289 2C 16.5655 2 20.7296 6.16404 20.7296 11.3007L 24.7296 11.3007C 24.7296 3.95491 18.7747 -2 11.4289 -2L 11.4289 2ZM 20.7296 11.3007C 20.7296 16.4373 16.5655 20.6013 11.4289 20.6013L 11.4289 24.6013C 18.7747 24.6013 24.7296 18.6464 24.7296 11.3007L 20.7296 11.3007ZM 11.3007 20.6013C 6.16404 20.6013 2 16.4373 2 11.3007L -2 11.3007C -2 18.6464 3.95491 24.6013 11.3007 24.6013L 11.3007 20.6013Z"/>
<path id="path12_stroke" d="M 70.6222 106.762L 69.6276 106.866L 69.7343 107.888L 70.7534 107.753L 70.6222 106.762ZM 69.0081 91.3032L 70.0027 91.1994L 70.0027 91.1993L 69.0081 91.3032ZM 64.039 84.0462L 63.6683 84.975L 63.6683 84.975L 64.039 84.0462ZM 55.0702 80.4668L 54.6994 81.3955L 54.6995 81.3956L 55.0702 80.4668ZM 51.5378 81.2572L 51.1671 82.186L 51.7857 82.4328L 52.2519 81.9571L 51.5378 81.2572ZM 48.8958 80.2028L 48.5252 81.1316L 48.5252 81.1316L 48.8958 80.2028ZM 46.383 68.933L 45.9366 68.0382L 45.383 68.3144L 45.383 68.933L 46.383 68.933ZM 54.2984 64.9843L 53.8521 64.0894L 53.852 64.0895L 54.2984 64.9843ZM 61.0833 50.6001L 61.0833 49.6001L 60.0833 49.6001L 60.0833 50.6001L 61.0833 50.6001ZM 63.0037 37.8126L 62.0048 37.7662L 61.9732 38.4485L 62.5971 38.7262L 63.0037 37.8126ZM 63.8963 18.5766L 62.8974 18.5302L 62.8974 18.5302L 63.8963 18.5766ZM 6.81932 18.5763L 5.82039 18.6226L 5.82039 18.6226L 6.81932 18.5763ZM 7.7119 37.8123L 8.11864 38.7259L 8.74248 38.4481L 8.71082 37.766L 7.7119 37.8123ZM 9.63235 50.6001L 10.6324 50.6001L 10.6324 49.6001L 9.63235 49.6001L 9.63235 50.6001ZM 16.417 64.9848L 15.9705 65.8797L 15.9706 65.8797L 16.417 64.9848ZM 24.3326 68.9336L 25.3326 68.9336L 25.3326 68.3149L 24.779 68.0387L 24.3326 68.9336ZM 21.8198 80.2031L 22.1904 81.1319L 22.1905 81.1319L 21.8198 80.2031ZM 19.1779 81.2575L 18.4637 81.9574L 18.9299 82.4331L 19.5485 82.1862L 19.1779 81.2575ZM 15.6454 80.4671L 16.0161 81.3959L 16.0162 81.3958L 15.6454 80.4671ZM 6.67668 84.0465L 7.04734 84.9753L 7.04735 84.9753L 6.67668 84.0465ZM 1.70753 91.3035L 0.712937 91.1996L 0.712934 91.1997L 1.70753 91.3035ZM 0.0934841 106.762L -0.0377454 107.754L 0.981329 107.889L 1.08808 106.866L 0.0934841 106.762ZM 70.5844 105.758L 70.4909 105.771L 70.7534 107.753L 70.8469 107.741L 70.5844 105.758ZM 71.6167 106.658L 70.0027 91.1994L 68.0135 91.4071L 69.6276 106.866L 71.6167 106.658ZM 70.0027 91.1993C 69.6208 87.543 67.5056 84.353 64.4096 83.1175L 63.6683 84.975C 65.943 85.8828 67.693 88.338 68.0135 91.4071L 70.0027 91.1993ZM 64.4096 83.1175L 55.4409 79.5381L 54.6995 81.3956L 63.6683 84.975L 64.4096 83.1175ZM 55.441 79.5381C 53.8135 78.8884 52.0394 79.3166 50.8236 80.5572L 52.2519 81.9571C 52.9356 81.2595 53.8637 81.0619 54.6994 81.3955L 55.441 79.5381ZM 51.9084 80.3284L 49.2665 79.2741L 48.5252 81.1316L 51.1671 82.186L 51.9084 80.3284ZM 49.2665 79.2741C 48.2228 78.8575 47.383 77.6032 47.383 76.0286L 45.383 76.0286C 45.383 78.2419 46.5673 80.3502 48.5252 81.1316L 49.2665 79.2741ZM 47.383 76.0286L 47.383 68.933L 45.383 68.933L 45.383 76.0286L 47.383 76.0286ZM 46.8294 69.8279L 54.7448 65.8791L 53.852 64.0895L 45.9366 68.0382L 46.8294 69.8279ZM 54.7447 65.8792C 59.2549 63.63 62.0833 58.4334 62.0833 52.8001L 60.0833 52.8001C 60.0833 57.8247 57.5594 62.2406 53.8521 64.0894L 54.7447 65.8792ZM 62.0833 52.8001L 62.0833 50.6001L 60.0833 50.6001L 60.0833 52.8001L 62.0833 52.8001ZM 61.0833 51.6001C 64.8412 51.6001 67.5959 48.0214 67.5959 44.0001L 65.5959 44.0001C 65.5959 47.2691 63.4145 49.6001 61.0833 49.6001L 61.0833 51.6001ZM 67.5959 44.0001C 67.5959 40.8382 65.928 38.0196 63.4104 36.899L 62.5971 38.7262C 64.2746 39.4728 65.5959 41.4898 65.5959 44.0001L 67.5959 44.0001ZM 64.0027 37.8589L 64.8953 18.6229L 62.8974 18.5302L 62.0048 37.7662L 64.0027 37.8589ZM 64.8953 18.6229C 65.3813 8.15257 58.4011 -1 49.2188 -1L 49.2188 1C 56.9156 1 63.348 8.82322 62.8974 18.5302L 64.8953 18.6229ZM 49.2188 -1L 21.4971 -1L 21.4971 1L 49.2188 1L 49.2188 -1ZM 21.4971 -1C 12.3152 -1 5.33457 8.15253 5.82039 18.6226L 7.81824 18.5299C 7.36784 8.82326 13.8007 1 21.4971 1L 21.4971 -1ZM 5.82039 18.6226L 6.71297 37.8587L 8.71082 37.766L 7.81824 18.5299L 5.82039 18.6226ZM 7.30516 36.8988C 4.78765 38.0196 3.11975 40.8382 3.11975 44.0001L 5.11975 44.0001C 5.11975 41.4899 6.44105 39.4728 8.11864 38.7259L 7.30516 36.8988ZM 3.11975 44.0001C 3.11975 48.0214 5.87445 51.6001 9.63235 51.6001L 9.63235 49.6001C 7.30112 49.6001 5.11975 47.2691 5.11975 44.0001L 3.11975 44.0001ZM 8.63235 50.6001L 8.63235 52.8001L 10.6324 52.8001L 10.6324 50.6001L 8.63235 50.6001ZM 8.63235 52.8001C 8.63235 58.4332 11.4608 63.6296 15.9705 65.8797L 16.8634 64.09C 13.1562 62.2404 10.6324 57.8244 10.6324 52.8001L 8.63235 52.8001ZM 15.9706 65.8797L 23.8862 69.8284L 24.779 68.0387L 16.8634 64.09L 15.9706 65.8797ZM 23.3326 68.9336L 23.3326 76.0289L 25.3326 76.0289L 25.3326 68.9336L 23.3326 68.9336ZM 23.3326 76.0289C 23.3326 77.6034 22.4926 78.8578 21.4491 79.2744L 22.1905 81.1319C 24.1481 80.3505 25.3326 78.2422 25.3326 76.0289L 23.3326 76.0289ZM 21.4491 79.2743L 18.8072 80.3287L 19.5485 82.1862L 22.1904 81.1319L 21.4491 79.2743ZM 19.8921 80.5575C 18.6762 79.3169 16.9021 78.8886 15.2747 79.5384L 16.0162 81.3958C 16.852 81.0622 17.78 81.2598 18.4637 81.9574L 19.8921 80.5575ZM 15.2748 79.5383L 6.30601 83.1178L 7.04735 84.9753L 16.0161 81.3959L 15.2748 79.5383ZM 6.30602 83.1177C 3.21007 84.3533 1.0948 87.5433 0.712937 91.1996L 2.70212 91.4074C 3.02265 88.3383 4.77263 85.8831 7.04734 84.9753L 6.30602 83.1177ZM 0.712934 91.1997L -0.90111 106.659L 1.08808 106.866L 2.70212 91.4073L 0.712934 91.1997ZM 0.224713 105.771L 0.131229 105.759L -0.131229 107.741L -0.0377454 107.754L 0.224713 105.771Z"/>
<path id="path13_stroke" d="M 69.0479 11.0671L 70.0424 10.9632L 70.0424 10.9632L 69.0479 11.0671ZM 64.0787 3.81007L 63.708 4.73884L 63.708 4.73884L 64.0787 3.81007ZM 55.1099 0.230668L 54.7392 1.15942L 54.7393 1.15943L 55.1099 0.230668ZM 50.9086 1.93732L 50.0251 1.46896L 50.0251 1.46898L 50.9086 1.93732ZM 19.8869 1.93705L 19.0034 2.40541L 19.0034 2.40541L 19.8869 1.93705ZM 15.6856 0.230391L 16.0563 1.15916L 16.0564 1.15914L 15.6856 0.230391ZM 6.71688 3.8098L 7.08753 4.73857L 7.08754 4.73857L 6.71688 3.8098ZM 1.74772 11.0668L 0.753134 10.9629L 0.753131 10.9629L 1.74772 11.0668ZM 71.9946 29.6602L 70.0424 10.9632L 68.0533 11.1709L 70.0054 29.8679L 71.9946 29.6602ZM 70.0424 10.9632C 69.6606 7.30687 67.5453 4.11686 64.4494 2.8813L 63.708 4.73884C 65.9827 5.64665 67.7327 8.10185 68.0533 11.1709L 70.0424 10.9632ZM 64.4494 2.88131L 55.4806 -0.698098L 54.7393 1.15943L 63.708 4.73884L 64.4494 2.88131ZM 55.4806 -0.698083C 53.4 -1.52857 51.1234 -0.602975 50.0251 1.46896L 51.7922 2.40568C 52.4583 1.14901 53.6961 0.743051 54.7392 1.15942L 55.4806 -0.698083ZM 50.0251 1.46898C 46.9025 7.35987 41.48 11.1638 35.398 11.1638L 35.398 13.1638C 42.3731 13.1638 48.4007 8.804 51.7922 2.40566L 50.0251 1.46898ZM 35.398 11.1638C 29.316 11.1638 23.8932 7.35961 20.7705 1.46869L 19.0034 2.40541C 22.3951 8.80372 28.423 13.1638 35.398 13.1638L 35.398 11.1638ZM 20.7705 1.46869C 19.6721 -0.603238 17.3956 -1.52885 15.3149 -0.69836L 16.0564 1.15914C 17.0995 0.742776 18.3372 1.14873 19.0034 2.40541L 20.7705 1.46869ZM 15.315 -0.698375L 6.34621 2.88104L 7.08754 4.73857L 16.0563 1.15916L 15.315 -0.698375ZM 6.34622 2.88104C 3.25027 4.11659 1.135 7.30659 0.753134 10.9629L 2.74231 11.1707C 3.06285 8.10157 4.81283 5.64638 7.08753 4.73857L 6.34622 2.88104ZM 0.753131 10.9629L -0.994594 27.7028L 0.994594 27.9105L 2.74232 11.1706L 0.753131 10.9629Z"/>
<path id="path14_stroke" d="M 52.8912 11L 51.8912 11L 51.8912 11.1034L 51.9123 11.2046L 52.8912 11ZM 1.44026 11L 2.42887 11.1505L 2.44026 11.0757L 2.44026 11L 1.44026 11ZM 20.0979 53.3078L 20.5443 52.4129L 20.5443 52.4129L 20.0979 53.3078ZM 34.2331 53.3078L 34.6795 54.2026L 34.6795 54.2026L 34.2331 53.3078ZM 55.8482 20.2597L 53.87 10.7954L 51.9123 11.2046L 53.8905 20.6689L 55.8482 20.2597ZM 53.8912 11C 53.8912 4.54886 49.491 -1 43.7035 -1L 43.7035 1C 48.0643 1 51.8912 5.30111 51.8912 11L 53.8912 11ZM 43.7035 -1L 10.6279 -1L 10.6279 1L 43.7035 1L 43.7035 -1ZM 10.6279 -1C 4.84047 -1 0.440255 4.54886 0.440255 11L 2.44026 11C 2.44026 5.30111 6.26714 1 10.6279 1L 10.6279 -1ZM 0.451637 10.8496L -0.988618 20.3139L 0.988618 20.6147L 2.42887 11.1505L 0.451637 10.8496ZM 7.77849 48.2796L 19.6515 54.2026L 20.5443 52.4129L 8.67128 46.49L 7.77849 48.2796ZM 19.6515 54.2026C 21.9958 55.3649 24.6225 55.9932 27.1657 56.0001L 27.1657 54.0001C 24.8569 54.007 22.6794 53.4853 20.5443 52.4129L 19.6515 54.2026ZM 27.1657 56.0001C 29.709 55.9932 32.3355 55.3646 34.6795 54.2026L 33.7868 52.4129C 31.6518 53.4851 29.4745 54.007 27.1657 54.0001L 27.1657 56.0001ZM 34.6795 54.2026L 46.5532 48.2794L 45.6604 46.4897L 33.7867 52.4129L 34.6795 54.2026Z"/>
<path id="path15_fill" d="M 130.5 261C 202.573 261 261 202.573 261 130.5C 261 58.4268 202.573 0 130.5 0C 58.4268 0 0 58.4268 0 130.5C 0 202.573 58.4268 261 130.5 261Z"/>
<path id="path16_stroke_2x" d="M 262 130.5C 262 129.636 261.992 128.769 261.975 127.909L 259.975 127.948C 259.992 128.798 260 129.646 260 130.5L 262 130.5ZM 261.776 122.754C 261.676 121.032 261.542 119.31 261.376 117.607L 259.385 117.801C 259.549 119.484 259.68 121.168 259.779 122.87L 261.776 122.754ZM 260.775 112.474C 260.54 110.766 260.272 109.058 259.973 107.372L 258.003 107.721C 258.299 109.389 258.562 111.057 258.793 112.746L 260.775 112.474ZM 258.971 102.308C 258.603 100.625 258.201 98.9454 257.77 97.2879L 255.834 97.7916C 256.261 99.43 256.653 101.071 257.017 102.734L 258.971 102.308ZM 256.37 92.3151C 255.87 90.6664 255.336 89.0221 254.774 87.4016L 252.885 88.0568C 253.44 89.6586 253.962 91.2653 254.456 92.895L 256.37 92.3151ZM 252.986 82.5566C 252.358 80.9542 251.696 79.358 251.008 77.787L 249.176 78.5895C 249.857 80.1424 250.504 81.7021 251.124 83.286L 252.986 82.5566ZM 248.844 73.0997C 248.092 71.5521 247.306 70.0126 246.495 68.4996L 244.732 69.444C 245.534 70.9396 246.302 72.4439 247.045 73.9739L 248.844 73.0997ZM 243.968 63.9954C 243.096 62.5124 242.192 61.0397 241.265 59.5947L 239.582 60.6745C 240.498 62.103 241.382 63.5423 242.243 65.0083L 243.968 63.9954ZM 238.392 55.3038C 237.408 53.8943 236.391 52.4971 235.354 51.1288L 233.76 52.3371C 234.786 53.6898 235.78 55.0553 236.753 56.4488L 238.392 55.3038ZM 232.154 47.0756C 231.063 45.7475 229.94 44.4339 228.799 43.1501L 227.304 44.4792C 228.433 45.7483 229.53 47.0322 230.609 48.3452L 232.154 47.0756ZM 225.292 39.359C 224.101 38.1206 222.879 36.8986 221.641 35.7076L 220.255 37.1491C 221.479 38.3266 222.673 39.5209 223.851 40.7453L 225.292 39.359ZM 217.85 32.2014C 216.566 31.0599 215.252 29.9368 213.924 28.8456L 212.655 30.3909C 213.968 31.4697 215.252 32.5673 216.521 33.696L 217.85 32.2014ZM 209.871 25.646C 208.503 24.6087 207.106 23.5918 205.696 22.6076L 204.551 24.2474C 205.945 25.2203 207.31 26.2142 208.663 27.2398L 209.871 25.646ZM 201.405 19.7349C 199.96 18.808 198.488 17.9035 197.005 17.0324L 195.992 18.757C 197.458 19.618 198.897 20.5019 200.325 21.4183L 201.405 19.7349ZM 192.5 14.5046C 190.987 13.6943 189.448 12.9082 187.9 12.1561L 187.026 13.955C 188.556 14.6983 190.06 15.4665 191.556 16.2676L 192.5 14.5046ZM 183.213 9.99167C 181.642 9.30357 180.046 8.64151 178.443 8.01377L 177.714 9.87599C 179.298 10.4964 180.858 11.1433 182.411 11.8236L 183.213 9.99167ZM 173.598 6.22561C 171.978 5.66375 170.334 5.12964 168.685 4.63009L 168.105 6.54417C 169.735 7.03786 171.341 7.55974 172.943 8.11524L 173.598 6.22561ZM 163.712 3.23032C 162.055 2.79904 160.375 2.39699 158.693 2.02945L 158.266 3.98337C 159.929 4.34658 161.57 4.73943 163.208 5.16586L 163.712 3.23032ZM 153.628 1.02743C 151.942 0.728227 150.234 0.459649 148.526 0.225416L 148.254 2.20688C 149.943 2.43833 151.611 2.70079 153.279 2.99667L 153.628 1.02743ZM 143.393 -0.375902C 141.69 -0.541599 139.968 -0.675547 138.246 -0.775608L 138.13 1.22103C 139.832 1.31985 141.516 1.45078 143.199 1.61469L 143.393 -0.375902ZM 133.091 -0.974983C 132.231 -0.991593 131.364 -0.999988 130.5 -1L 130.5 1C 131.354 0.999988 132.202 1.0082 133.052 1.02464L 133.091 -0.974983ZM 130.5 -1C 129.636 -0.999988 128.769 -0.991593 127.909 -0.974983L 127.948 1.02464C 128.798 1.0082 129.646 0.999988 130.5 1L 130.5 -1ZM 122.754 -0.775608C 121.032 -0.675547 119.31 -0.541599 117.607 -0.375902L 117.801 1.61469C 119.484 1.45078 121.168 1.31985 122.87 1.22103L 122.754 -0.775608ZM 112.474 0.225416C 110.766 0.459648 109.058 0.728226 107.372 1.02743L 107.721 2.99667C 109.389 2.70079 111.057 2.43833 112.746 2.20688L 112.474 0.225416ZM 102.308 2.02944C 100.625 2.39699 98.9454 2.79904 97.2879 3.23032L 97.7916 5.16586C 99.43 4.73943 101.071 4.34658 102.734 3.98337L 102.308 2.02944ZM 92.3151 4.63009C 90.6664 5.12964 89.0221 5.66375 87.4016 6.22561L 88.0568 8.11523C 89.6586 7.55974 91.2653 7.03785 92.895 6.54417L 92.3151 4.63009ZM 82.5566 8.01376C 80.9542 8.6415 79.358 9.30357 77.787 9.99167L 78.5895 11.8236C 80.1424 11.1433 81.7021 10.4964 83.286 9.87599L 82.5566 8.01376ZM 73.0997 12.1561C 71.5521 12.9082 70.0126 13.6943 68.4996 14.5046L 69.4439 16.2676C 70.9396 15.4665 72.4439 14.6983 73.9738 13.955L 73.0997 12.1561ZM 63.9954 17.0324C 62.5124 17.9035 61.0397 18.808 59.5947 19.7349L 60.6745 21.4183C 62.103 20.5019 63.5423 19.618 65.0083 18.7569L 63.9954 17.0324ZM 55.3038 22.6076C 53.8943 23.5918 52.4971 24.6087 51.1288 25.646L 52.3371 27.2398C 53.6898 26.2142 55.0553 25.2203 56.4488 24.2474L 55.3038 22.6076ZM 47.0756 28.8456C 45.7475 29.9368 44.4339 31.0599 43.1501 32.2014L 44.4792 33.6959C 45.7482 32.5673 47.0322 31.4696 48.3452 30.3909L 47.0756 28.8456ZM 39.359 35.7076C 38.1206 36.8986 36.8986 38.1206 35.7076 39.359L 37.1491 40.7453C 38.3266 39.5209 39.5209 38.3266 40.7453 37.1491L 39.359 35.7076ZM 32.2014 43.1501C 31.0599 44.4339 29.9368 45.7475 28.8456 47.0756L 30.3909 48.3452C 31.4697 47.0322 32.5673 45.7482 33.6959 44.4792L 32.2014 43.1501ZM 25.646 51.1288C 24.6087 52.4971 23.5918 53.8943 22.6076 55.3038L 24.2474 56.4487C 25.2203 55.0553 26.2142 53.6898 27.2398 52.3371L 25.646 51.1288ZM 19.7349 59.5947C 18.808 61.0397 17.9035 62.5124 17.0324 63.9954L 18.757 65.0083C 19.618 63.5423 20.5019 62.103 21.4183 60.6745L 19.7349 59.5947ZM 14.5046 68.4996C 13.6943 70.0126 12.9082 71.552 12.1561 73.0997L 13.955 73.9738C 14.6983 72.4439 15.4665 70.9395 16.2676 69.4439L 14.5046 68.4996ZM 9.99167 77.787C 9.30357 79.358 8.64151 80.9541 8.01377 82.5566L 9.87599 83.286C 10.4964 81.702 11.1433 80.1424 11.8236 78.5894L 9.99167 77.787ZM 6.22561 87.4015C 5.66375 89.0221 5.12964 90.6664 4.63009 92.3151L 6.54417 92.895C 7.03786 91.2653 7.55974 89.6586 8.11524 88.0568L 6.22561 87.4015ZM 3.23032 97.2879C 2.79904 98.9454 2.39699 100.625 2.02945 102.308L 3.98337 102.734C 4.34658 101.071 4.73943 99.43 5.16586 97.7916L 3.23032 97.2879ZM 1.02744 107.372C 0.728228 109.058 0.459651 110.766 0.225418 112.474L 2.20688 112.746C 2.43833 111.057 2.7008 109.389 2.99668 107.721L 1.02744 107.372ZM -0.375901 117.607C -0.541598 119.31 -0.675546 121.032 -0.775608 122.754L 1.22103 122.87C 1.31986 121.168 1.45078 119.484 1.61469 117.801L -0.375901 117.607ZM -0.974982 127.909C -0.991593 128.769 -0.999988 129.636 -1 130.5L 1 130.5C 0.999988 129.646 1.0082 128.798 1.02464 127.948L -0.974982 127.909ZM -1 130.5C -0.999988 131.364 -0.991593 132.231 -0.974983 133.091L 1.02464 133.052C 1.0082 132.202 0.999988 131.354 1 130.5L -1 130.5ZM -0.775608 138.246C -0.675547 139.968 -0.541599 141.69 -0.375902 143.393L 1.61469 143.199C 1.45078 141.516 1.31985 139.832 1.22103 138.13L -0.775608 138.246ZM 0.225416 148.526C 0.459649 150.234 0.728226 151.942 1.02743 153.628L 2.99667 153.279C 2.70079 151.611 2.43833 149.943 2.20688 148.254L 0.225416 148.526ZM 2.02945 158.693C 2.39699 160.375 2.79904 162.055 3.23032 163.712L 5.16586 163.208C 4.73943 161.57 4.34658 159.929 3.98337 158.266L 2.02945 158.693ZM 4.63009 168.685C 5.12964 170.334 5.66375 171.978 6.22561 173.598L 8.11523 172.943C 7.55974 171.341 7.03786 169.735 6.54417 168.105L 4.63009 168.685ZM 8.01377 178.443C 8.64151 180.046 9.30357 181.642 9.99167 183.213L 11.8236 182.411C 11.1433 180.858 10.4964 179.298 9.87599 177.714L 8.01377 178.443ZM 12.1561 187.9C 12.9082 189.448 13.6943 190.987 14.5046 192.5L 16.2676 191.556C 15.4665 190.06 14.6983 188.556 13.955 187.026L 12.1561 187.9ZM 17.0324 197.005C 17.9035 198.488 18.808 199.96 19.7349 201.405L 21.4183 200.325C 20.5019 198.897 19.618 197.458 18.757 195.992L 17.0324 197.005ZM 22.6076 205.696C 23.5918 207.106 24.6087 208.503 25.646 209.871L 27.2398 208.663C 26.2142 207.31 25.2203 205.945 24.2474 204.551L 22.6076 205.696ZM 28.8456 213.924C 29.9368 215.252 31.0599 216.566 32.2014 217.85L 33.6959 216.521C 32.5673 215.252 31.4697 213.968 30.3909 212.655L 28.8456 213.924ZM 35.7076 221.641C 36.8986 222.879 38.1206 224.101 39.359 225.292L 40.7453 223.851C 39.5209 222.673 38.3266 221.479 37.1491 220.255L 35.7076 221.641ZM 43.1501 228.799C 44.4339 229.94 45.7475 231.063 47.0756 232.154L 48.3452 230.609C 47.0322 229.53 45.7482 228.433 44.4792 227.304L 43.1501 228.799ZM 51.1288 235.354C 52.4971 236.391 53.8943 237.408 55.3038 238.392L 56.4488 236.753C 55.0553 235.78 53.6898 234.786 52.3371 233.76L 51.1288 235.354ZM 59.5947 241.265C 61.0397 242.192 62.5124 243.096 63.9954 243.968L 65.0083 242.243C 63.5423 241.382 62.103 240.498 60.6745 239.582L 59.5947 241.265ZM 68.4996 246.495C 70.0126 247.306 71.5521 248.092 73.0997 248.844L 73.9738 247.045C 72.4439 246.302 70.9395 245.534 69.4439 244.732L 68.4996 246.495ZM 77.787 251.008C 79.358 251.696 80.9542 252.358 82.5566 252.986L 83.286 251.124C 81.7021 250.504 80.1424 249.857 78.5895 249.176L 77.787 251.008ZM 87.4016 254.774C 89.0221 255.336 90.6664 255.87 92.3151 256.37L 92.895 254.456C 91.2653 253.962 89.6586 253.44 88.0568 252.885L 87.4016 254.774ZM 97.2879 257.77C 98.9454 258.201 100.625 258.603 102.308 258.971L 102.734 257.017C 101.071 256.653 99.43 256.261 97.7916 255.834L 97.2879 257.77ZM 107.372 259.973C 109.058 260.272 110.766 260.54 112.474 260.775L 112.746 258.793C 111.057 258.562 109.389 258.299 107.721 258.003L 107.372 259.973ZM 117.607 261.376C 119.31 261.542 121.032 261.676 122.754 261.776L 122.87 259.779C 121.168 259.68 119.484 259.549 117.801 259.385L 117.607 261.376ZM 127.909 261.975C 128.769 261.992 129.636 262 130.5 262L 130.5 260C 129.646 260 128.798 259.992 127.948 259.975L 127.909 261.975ZM 130.5 262C 131.364 262 132.231 261.992 133.091 261.975L 133.052 259.975C 132.202 259.992 131.354 260 130.5 260L 130.5 262ZM 138.246 261.776C 139.968 261.676 141.69 261.542 143.393 261.376L 143.199 259.385C 141.516 259.549 139.832 259.68 138.13 259.779L 138.246 261.776ZM 148.526 260.775C 150.234 260.54 151.942 260.272 153.628 259.973L 153.279 258.003C 151.611 258.299 149.943 258.562 148.254 258.793L 148.526 260.775ZM 158.693 258.971C 160.375 258.603 162.055 258.201 163.712 257.77L 163.208 255.834C 161.57 256.261 159.929 256.653 158.266 257.017L 158.693 258.971ZM 168.685 256.37C 170.334 255.87 171.978 255.336 173.598 254.774L 172.943 252.885C 171.341 253.44 169.735 253.962 168.105 254.456L 168.685 256.37ZM 178.443 252.986C 180.046 252.358 181.642 251.696 183.213 251.008L 182.411 249.176C 180.858 249.857 179.298 250.504 177.714 251.124L 178.443 252.986ZM 187.9 248.844C 189.448 248.092 190.987 247.306 192.5 246.495L 191.556 244.732C 190.06 245.534 188.556 246.302 187.026 247.045L 187.9 248.844ZM 197.005 243.968C 198.488 243.096 199.96 242.192 201.405 241.265L 200.325 239.582C 198.897 240.498 197.458 241.382 195.992 242.243L 197.005 243.968ZM 205.696 238.392C 207.106 237.408 208.503 236.391 209.871 235.354L 208.663 233.76C 207.31 234.786 205.945 235.78 204.551 236.753L 205.696 238.392ZM 213.924 232.154C 215.252 231.063 216.566 229.94 217.85 228.799L 216.521 227.304C 215.252 228.433 213.968 229.53 212.655 230.609L 213.924 232.154ZM 221.641 225.292C 222.879 224.101 224.101 222.879 225.292 221.641L 223.851 220.255C 222.673 221.479 221.479 222.673 220.255 223.851L 221.641 225.292ZM 228.799 217.85C 229.94 216.566 231.063 215.252 232.154 213.924L 230.609 212.655C 229.53 213.968 228.433 215.252 227.304 216.521L 228.799 217.85ZM 235.354 209.871C 236.391 208.503 237.408 207.106 238.392 205.696L 236.753 204.551C 235.78 205.945 234.786 207.31 233.76 208.663L 235.354 209.871ZM 241.265 201.405C 242.192 199.96 243.096 198.488 243.968 197.005L 242.243 195.992C 241.382 197.458 240.498 198.897 239.582 200.325L 241.265 201.405ZM 246.495 192.5C 247.306 190.987 248.092 189.448 248.844 187.9L 247.045 187.026C 246.302 188.556 245.534 190.06 244.732 191.556L 246.495 192.5ZM 251.008 183.213C 251.696 181.642 252.358 180.046 252.986 178.443L 251.124 177.714C 250.504 179.298 249.857 180.858 249.176 182.411L 251.008 183.213ZM 254.774 173.598C 255.336 171.978 255.87 170.334 256.37 168.685L 254.456 168.105C 253.962 169.735 253.44 171.341 252.885 172.943L 254.774 173.598ZM 257.77 163.712C 258.201 162.055 258.603 160.375 258.971 158.693L 257.017 158.266C 256.653 159.929 256.261 161.57 255.834 163.208L 257.77 163.712ZM 259.973 153.628C 260.272 151.942 260.54 150.234 260.775 148.526L 258.793 148.254C 258.562 149.943 258.299 151.611 258.003 153.279L 259.973 153.628ZM 261.376 143.393C 261.542 141.69 261.676 139.968 261.776 138.246L 259.779 138.13C 259.68 139.832 259.549 141.516 259.385 143.199L 261.376 143.393ZM 261.975 133.091C 261.992 132.231 262 131.364 262 130.5L 260 130.5C 260 131.354 259.992 132.202 259.975 133.052L 261.975 133.091ZM 263 130.5C 263 129.631 262.991 128.755 262.975 127.89L 258.976 127.967C 258.992 128.813 259 129.651 259 130.5L 263 130.5ZM 262.774 122.696C 262.673 120.965 262.538 119.223 262.371 117.51L 258.39 117.898C 258.553 119.572 258.682 121.236 258.781 122.928L 262.774 122.696ZM 261.765 112.338C 261.53 110.62 261.258 108.893 260.957 107.197L 257.019 107.896C 257.313 109.554 257.572 111.203 257.802 112.881L 261.765 112.338ZM 259.948 102.094C 259.578 100.402 259.171 98.7031 258.737 97.0361L 254.866 98.0434C 255.29 99.6723 255.679 101.295 256.04 102.948L 259.948 102.094ZM 257.327 92.0251C 256.824 90.367 256.284 88.7038 255.719 87.0739L 251.94 88.3844C 252.492 89.9769 253.008 91.5648 253.499 93.1849L 257.327 92.0251ZM 253.917 82.1918C 253.286 80.5802 252.616 78.9658 251.924 77.3858L 248.26 78.9907C 248.937 80.5346 249.576 82.076 250.193 83.6508L 253.917 82.1918ZM 249.743 72.6627C 248.987 71.1061 248.192 69.5491 247.377 68.0275L 243.851 69.9161C 244.647 71.403 245.407 72.8898 246.146 74.4109L 249.743 72.6627ZM 244.83 63.4889C 243.954 61.9975 243.039 60.508 242.107 59.0548L 238.74 61.2145C 239.651 62.6347 240.525 64.0572 241.381 65.5148L 244.83 63.4889ZM 239.212 54.7313C 238.222 53.3138 237.194 51.9008 236.151 50.5247L 232.963 52.9412C 233.983 54.2861 234.965 55.6358 235.933 57.0213L 239.212 54.7313ZM 232.927 46.4408C 231.83 45.1052 230.694 43.7767 229.546 42.4856L 226.557 45.1437C 227.679 46.4054 228.764 47.6746 229.836 48.9801L 232.927 46.4408ZM 226.013 38.6658C 224.815 37.4204 223.58 36.1847 222.334 34.9868L 219.562 37.8699C 220.779 39.0405 221.959 40.2211 223.13 41.4385L 226.013 38.6658ZM 218.514 31.4541C 217.223 30.3062 215.895 29.1704 214.559 28.073L 212.02 31.1636C 213.325 32.2361 214.595 33.3211 215.856 34.4432L 218.514 31.4541ZM 210.475 24.8492C 209.099 23.806 207.686 22.7776 206.269 21.7877L 203.979 25.0673C 205.364 26.0346 206.714 27.0169 208.059 28.0367L 210.475 24.8492ZM 201.945 18.8932C 200.492 17.9611 199.003 17.0463 197.511 16.1702L 195.485 19.6192C 196.943 20.4752 198.365 21.3489 199.786 22.26L 201.945 18.8932ZM 192.973 13.6231C 191.451 12.8082 189.894 12.0131 188.337 11.2567L 186.589 14.8544C 188.11 15.5934 189.597 16.3526 191.084 17.1491L 192.973 13.6231ZM 183.614 9.0757C 182.034 8.38369 180.42 7.71406 178.808 7.08266L 177.349 10.8071C 178.924 11.4239 180.465 12.0632 182.009 12.7396L 183.614 9.0757ZM 173.926 5.2808C 172.296 4.71576 170.633 4.17553 168.975 3.67305L 167.815 7.50121C 169.435 7.99197 171.023 8.50773 172.616 9.06005L 173.926 5.2808ZM 163.964 2.26256C 162.297 1.82884 160.598 1.42219 158.906 1.05248L 158.052 4.96033C 159.706 5.32137 161.328 5.70963 162.957 6.13362L 163.964 2.26256ZM 153.803 0.0428146C 152.107 -0.258057 150.38 -0.529692 148.662 -0.765316L 148.119 3.19761C 149.797 3.42767 151.446 3.68708 153.104 3.98129L 153.803 0.0428146ZM 143.49 -1.3712C 141.777 -1.53779 140.035 -1.67325 138.304 -1.77392L 138.072 2.21934C 139.764 2.31756 141.428 2.44697 143.102 2.60999L 143.49 -1.3712ZM 133.11 -1.9748C 132.245 -1.99149 131.369 -1.99998 130.5 -2L 130.5 2C 131.349 1.99998 132.187 2.00809 133.033 2.02446L 133.11 -1.9748ZM 130.5 -2C 129.631 -1.99998 128.755 -1.99149 127.89 -1.9748L 127.967 2.02446C 128.813 2.00809 129.651 1.99998 130.5 2L 130.5 -2ZM 122.696 -1.77392C 120.965 -1.67325 119.223 -1.53779 117.51 -1.3712L 117.898 2.60999C 119.572 2.44697 121.236 2.31756 122.928 2.21934L 122.696 -1.77392ZM 112.338 -0.765317C 110.62 -0.529693 108.893 -0.258058 107.197 0.0428135L 107.896 3.98129C 109.554 3.68708 111.203 3.42767 112.881 3.19761L 112.338 -0.765317ZM 102.094 1.05248C 100.402 1.42219 98.7031 1.82884 97.0361 2.26255L 98.0434 6.13362C 99.6723 5.70963 101.295 5.32137 102.948 4.96033L 102.094 1.05248ZM 92.0251 3.67305C 90.3669 4.17553 88.7038 4.71575 87.0739 5.2808L 88.3844 9.06004C 89.9769 8.50773 91.5648 7.99196 93.1849 7.50121L 92.0251 3.67305ZM 82.1918 7.08265C 80.5802 7.71406 78.9658 8.38369 77.3858 9.07569L 78.9907 12.7396C 80.5346 12.0632 82.076 11.4239 83.6508 10.8071L 82.1918 7.08265ZM 72.6627 11.2567C 71.1061 12.0131 69.5491 12.8082 68.0275 13.6231L 69.9161 17.1491C 71.403 16.3526 72.8898 15.5934 74.4109 14.8544L 72.6627 11.2567ZM 63.4889 16.1702C 61.9975 17.0463 60.508 17.9611 59.0548 18.8932L 61.2145 22.26C 62.6347 21.3489 64.0572 20.4752 65.5148 19.6192L 63.4889 16.1702ZM 54.7313 21.7877C 53.3138 22.7776 51.9008 23.806 50.5246 24.8492L 52.9412 28.0367C 54.2861 27.0169 55.6358 26.0346 57.0213 25.0673L 54.7313 21.7877ZM 46.4407 28.073C 45.1052 29.1704 43.7767 30.3062 42.4856 31.4541L 45.1437 34.4432C 46.4054 33.3211 47.6746 32.2361 48.9801 31.1636L 46.4407 28.073ZM 38.6658 34.9868C 37.4204 36.1846 36.1846 37.4204 34.9868 38.6658L 37.8699 41.4385C 39.0405 40.2211 40.2211 39.0405 41.4385 37.8699L 38.6658 34.9868ZM 31.4541 42.4856C 30.3062 43.7767 29.1704 45.1052 28.073 46.4407L 31.1636 48.98C 32.2361 47.6746 33.3211 46.4054 34.4432 45.1437L 31.4541 42.4856ZM 24.8492 50.5246C 23.806 51.9008 22.7776 53.3138 21.7877 54.7313L 25.0673 57.0212C 26.0346 55.6358 27.0169 54.2861 28.0367 52.9412L 24.8492 50.5246ZM 18.8932 59.0547C 17.9611 60.508 17.0463 61.9975 16.1702 63.4889L 19.6192 65.5148C 20.4752 64.0572 21.3489 62.6346 22.26 61.2144L 18.8932 59.0547ZM 13.6231 68.0275C 12.8082 69.5491 12.0131 71.1061 11.2567 72.6627L 14.8544 74.4109C 15.5934 72.8898 16.3526 71.403 17.1491 69.9161L 13.6231 68.0275ZM 9.0757 77.3857C 8.38369 78.9658 7.71406 80.5802 7.08266 82.1918L 10.8071 83.6507C 11.4239 82.076 12.0632 80.5346 12.7396 78.9907L 9.0757 77.3857ZM 5.2808 87.0739C 4.71576 88.7038 4.17553 90.3669 3.67305 92.0251L 7.50121 93.1849C 7.99197 91.5648 8.50773 89.9769 9.06005 88.3844L 5.2808 87.0739ZM 2.26255 97.0361C 1.82884 98.7031 1.42219 100.402 1.05248 102.094L 4.96033 102.948C 5.32137 101.295 5.70963 99.6723 6.13362 98.0434L 2.26255 97.0361ZM 0.0428157 107.197C -0.258056 108.893 -0.52969 110.62 -0.765315 112.338L 3.19762 112.881C 3.42767 111.203 3.68708 109.554 3.9813 107.896L 0.0428157 107.197ZM -1.3712 117.51C -1.53779 119.223 -1.67325 120.965 -1.77392 122.696L 2.21934 122.928C 2.31756 121.236 2.44697 119.572 2.60999 117.898L -1.3712 117.51ZM -1.9748 127.89C -1.99149 128.755 -1.99998 129.631 -2 130.5L 2 130.5C 1.99998 129.651 2.00809 128.813 2.02446 127.967L -1.9748 127.89ZM -2 130.5C -1.99998 131.369 -1.99149 132.245 -1.9748 133.11L 2.02446 133.033C 2.00809 132.187 1.99998 131.349 2 130.5L -2 130.5ZM -1.77392 138.304C -1.67325 140.035 -1.53779 141.777 -1.3712 143.49L 2.60999 143.102C 2.44697 141.428 2.31756 139.764 2.21934 138.072L -1.77392 138.304ZM -0.765317 148.662C -0.529692 150.38 -0.258057 152.107 0.0428143 153.803L 3.98129 153.104C 3.68708 151.446 3.42767 149.797 3.19761 148.119L -0.765317 148.662ZM 1.05248 158.906C 1.42219 160.598 1.82884 162.297 2.26255 163.964L 6.13362 162.957C 5.70963 161.328 5.32137 159.706 4.96033 158.052L 1.05248 158.906ZM 3.67305 168.975C 4.17553 170.633 4.71576 172.296 5.2808 173.926L 9.06004 172.616C 8.50773 171.023 7.99197 169.435 7.50121 167.815L 3.67305 168.975ZM 7.08265 178.808C 7.71406 180.42 8.38369 182.034 9.07569 183.614L 12.7396 182.009C 12.0632 180.465 11.4239 178.924 10.8071 177.349L 7.08265 178.808ZM 11.2567 188.337C 12.0131 189.894 12.8082 191.451 13.6231 192.973L 17.1491 191.084C 16.3526 189.597 15.5934 188.11 14.8544 186.589L 11.2567 188.337ZM 16.1702 197.511C 17.0463 199.003 17.9611 200.492 18.8932 201.945L 22.26 199.786C 21.3489 198.365 20.4752 196.943 19.6192 195.485L 16.1702 197.511ZM 21.7877 206.269C 22.7776 207.686 23.806 209.099 24.8492 210.475L 28.0367 208.059C 27.0169 206.714 26.0346 205.364 25.0673 203.979L 21.7877 206.269ZM 28.073 214.559C 29.1704 215.895 30.3062 217.223 31.4541 218.514L 34.4432 215.856C 33.3211 214.595 32.2361 213.325 31.1636 212.02L 28.073 214.559ZM 34.9868 222.334C 36.1846 223.58 37.4204 224.815 38.6658 226.013L 41.4385 223.13C 40.2211 221.959 39.0405 220.779 37.8699 219.562L 34.9868 222.334ZM 42.4856 229.546C 43.7767 230.694 45.1052 231.83 46.4408 232.927L 48.9801 229.836C 47.6746 228.764 46.4054 227.679 45.1437 226.557L 42.4856 229.546ZM 50.5246 236.151C 51.9008 237.194 53.3138 238.222 54.7313 239.212L 57.0213 235.933C 55.6358 234.965 54.2861 233.983 52.9412 232.963L 50.5246 236.151ZM 59.0548 242.107C 60.508 243.039 61.9975 243.954 63.4889 244.83L 65.5148 241.381C 64.0572 240.525 62.6347 239.651 61.2145 238.74L 59.0548 242.107ZM 68.0275 247.377C 69.5491 248.192 71.1061 248.987 72.6627 249.743L 74.4109 246.146C 72.8898 245.407 71.403 244.647 69.9161 243.851L 68.0275 247.377ZM 77.3858 251.924C 78.9658 252.616 80.5802 253.286 82.1918 253.917L 83.6508 250.193C 82.076 249.576 80.5346 248.937 78.9907 248.26L 77.3858 251.924ZM 87.0739 255.719C 88.7038 256.284 90.3669 256.824 92.0251 257.327L 93.1849 253.499C 91.5648 253.008 89.9769 252.492 88.3844 251.94L 87.0739 255.719ZM 97.0361 258.737C 98.7031 259.171 100.402 259.578 102.094 259.948L 102.948 256.04C 101.295 255.679 99.6723 255.29 98.0434 254.866L 97.0361 258.737ZM 107.197 260.957C 108.893 261.258 110.62 261.53 112.338 261.765L 112.881 257.802C 111.203 257.572 109.554 257.313 107.896 257.019L 107.197 260.957ZM 117.51 262.371C 119.223 262.538 120.965 262.673 122.696 262.774L 122.928 258.781C 121.236 258.682 119.572 258.553 117.898 258.39L 117.51 262.371ZM 127.89 262.975C 128.755 262.991 129.631 263 130.5 263L 130.5 259C 129.651 259 128.813 258.992 127.967 258.976L 127.89 262.975ZM 130.5 263C 131.369 263 132.245 262.991 133.11 262.975L 133.033 258.976C 132.187 258.992 131.349 259 130.5 259L 130.5 263ZM 138.304 262.774C 140.035 262.673 141.777 262.538 143.49 262.371L 143.102 258.39C 141.428 258.553 139.764 258.682 138.072 258.781L 138.304 262.774ZM 148.662 261.765C 150.38 261.53 152.107 261.258 153.803 260.957L 153.104 257.019C 151.446 257.313 149.797 257.572 148.119 257.802L 148.662 261.765ZM 158.906 259.948C 160.598 259.578 162.297 259.171 163.964 258.737L 162.957 254.866C 161.328 255.29 159.706 255.679 158.052 256.04L 158.906 259.948ZM 168.975 257.327C 170.633 256.824 172.296 256.284 173.926 255.719L 172.616 251.94C 171.023 252.492 169.435 253.008 167.815 253.499L 168.975 257.327ZM 178.808 253.917C 180.42 253.286 182.034 252.616 183.614 251.924L 182.009 248.26C 180.465 248.937 178.924 249.576 177.349 250.193L 178.808 253.917ZM 188.337 249.743C 189.894 248.987 191.451 248.192 192.973 247.377L 191.084 243.851C 189.597 244.647 188.11 245.407 186.589 246.146L 188.337 249.743ZM 197.511 244.83C 199.003 243.954 200.492 243.039 201.945 242.107L 199.786 238.74C 198.365 239.651 196.943 240.525 195.485 241.381L 197.511 244.83ZM 206.269 239.212C 207.686 238.222 209.099 237.194 210.475 236.151L 208.059 232.963C 206.714 233.983 205.364 234.965 203.979 235.933L 206.269 239.212ZM 214.559 232.927C 215.895 231.83 217.223 230.694 218.514 229.546L 215.856 226.557C 214.595 227.679 213.325 228.764 212.02 229.836L 214.559 232.927ZM 222.334 226.013C 223.58 224.815 224.815 223.58 226.013 222.334L 223.13 219.562C 221.959 220.779 220.779 221.959 219.562 223.13L 222.334 226.013ZM 229.546 218.514C 230.694 217.223 231.83 215.895 232.927 214.559L 229.836 212.02C 228.764 213.325 227.679 214.595 226.557 215.856L 229.546 218.514ZM 236.151 210.475C 237.194 209.099 238.222 207.686 239.212 206.269L 235.933 203.979C 234.965 205.364 233.983 206.714 232.963 208.059L 236.151 210.475ZM 242.107 201.945C 243.039 200.492 243.954 199.003 244.83 197.511L 241.381 195.485C 240.525 196.943 239.651 198.365 238.74 199.786L 242.107 201.945ZM 247.377 192.973C 248.192 191.451 248.987 189.894 249.743 188.337L 246.146 186.589C 245.407 188.11 244.647 189.597 243.851 191.084L 247.377 192.973ZM 251.924 183.614C 252.616 182.034 253.286 180.42 253.917 178.808L 250.193 177.349C 249.576 178.924 248.937 180.465 248.26 182.009L 251.924 183.614ZM 255.719 173.926C 256.284 172.296 256.824 170.633 257.327 168.975L 253.499 167.815C 253.008 169.435 252.492 171.023 251.94 172.616L 255.719 173.926ZM 258.737 163.964C 259.171 162.297 259.578 160.598 259.948 158.906L 256.04 158.052C 255.679 159.706 255.29 161.328 254.866 162.957L 258.737 163.964ZM 260.957 153.803C 261.258 152.107 261.53 150.38 261.765 148.662L 257.802 148.119C 257.572 149.797 257.313 151.446 257.019 153.104L 260.957 153.803ZM 262.371 143.49C 262.538 141.777 262.673 140.035 262.774 138.304L 258.781 138.072C 258.682 139.764 258.553 141.428 258.39 143.102L 262.371 143.49ZM 262.975 133.11C 262.991 132.245 263 131.369 263 130.5L 259 130.5C 259 131.349 258.992 132.187 258.976 133.033L 262.975 133.11Z"/>
<path id="path17_fill" d="M 0 0L 25 0L 25 71L 0 71L 0 0Z"/>
<path id="path18_stroke_2x" d="M 0 0L 0 -4L -4 -4L -4 0L 0 0ZM 25 0L 29 0L 29 -4L 25 -4L 25 0ZM 25 71L 25 75L 29 75L 29 71L 25 71ZM 0 71L -4 71L -4 75L 0 75L 0 71ZM 0 4L 25 4L 25 -4L 0 -4L 0 4ZM 21 0L 21 71L 29 71L 29 0L 21 0ZM 25 67L 0 67L 0 75L 25 75L 25 67ZM 4 71L 4 0L -4 0L -4 71L 4 71Z"/>
<path id="path19_stroke_2x" d="M 0 0L 0 -4L -4 -4L -4 0L 0 0ZM 60.3208 0L 64.3208 0L 64.3208 -4L 60.3208 -4L 60.3208 0ZM 60.3208 122.569L 60.3208 126.569L 64.3208 126.569L 64.3208 122.569L 60.3208 122.569ZM 0 122.569L -4 122.569L -4 126.569L 0 126.569L 0 122.569ZM 0 4L 60.3208 4L 60.3208 -4L 0 -4L 0 4ZM 56.3208 0L 56.3208 122.569L 64.3208 122.569L 64.3208 0L 56.3208 0ZM 60.3208 118.569L 0 118.569L 0 126.569L 60.3208 126.569L 60.3208 118.569ZM 4 122.569L 4 0L -4 0L -4 122.569L 4 122.569Z"/>
<path id="path20_stroke_2x" d="M 0 0L 0 -4L -4 -4L -4 0L 0 0ZM 13.1132 0L 17.1132 0L 17.1132 -4L 13.1132 -4L 13.1132 0ZM 0 4L 13.1132 4L 13.1132 -4L 0 -4L 0 4ZM 9.11321 0L 9.11321 4.27241L 17.1132 4.27241L 17.1132 0L 9.11321 0ZM 4 17.3856L 4 0L -4 0L -4 17.3856L 4 17.3856ZM 9.11321 4.27241C 9.11321 9.3055 5.03309 13.3856 0 13.3856L 0 21.3856C 9.45136 21.3856 17.1132 13.7238 17.1132 4.27241L 9.11321 4.27241Z"/>
<path id="path21_stroke_2x" d="M 11.3007 4L 11.4289 4L 11.4289 -4L 11.3007 -4L 11.3007 4ZM 11.4289 18.6013L 11.3007 18.6013L 11.3007 26.6013L 11.4289 26.6013L 11.4289 18.6013ZM 11.3007 -4C 2.85034 -4 -4 2.85034 -4 11.3007L 4 11.3007C 4 7.26861 7.26861 4 11.3007 4L 11.3007 -4ZM 11.4289 4C 15.4609 4 18.7296 7.26861 18.7296 11.3007L 26.7296 11.3007C 26.7296 2.85034 19.8792 -4 11.4289 -4L 11.4289 4ZM 18.7296 11.3007C 18.7296 15.3327 15.4609 18.6013 11.4289 18.6013L 11.4289 26.6013C 19.8792 26.6013 26.7296 19.751 26.7296 11.3007L 18.7296 11.3007ZM 11.3007 18.6013C 7.26861 18.6013 4 15.3327 4 11.3007L -4 11.3007C -4 19.751 2.85034 26.6013 11.3007 26.6013L 11.3007 18.6013Z"/>
<path id="path22_fill" d="M 21.9874 19.3431L 0 19.3431L 0 66.9346L 37.7233 66.9346L 37.7233 20.8627L 46.4654 20.8627C 60.4528 20.8627 63.9497 13.4739 63.9497 8.69281C 63.9497 4.86797 62.7841 3.622 62.2013 3.47712C 55.2076 2.31808 39.4717 0 32.478 0C 25.4843 0 22.5702 14.5621 21.9874 19.3431Z"/>
<path id="path23_stroke" d="M 0 19.3431L 0 17.3431L -2 17.3431L -2 19.3431L 0 19.3431ZM 21.9874 19.3431L 21.9874 21.3431L 23.7584 21.3431L 23.9727 19.5851L 21.9874 19.3431ZM 62.2013 3.47712L 62.6838 1.5362L 62.6066 1.51703L 62.5283 1.50404L 62.2013 3.47712ZM 37.7233 20.8627L 37.7233 18.8627L 35.7233 18.8627L 35.7233 20.8627L 37.7233 20.8627ZM 37.7233 66.9346L 37.7233 68.9346L 39.7233 68.9346L 39.7233 66.9346L 37.7233 66.9346ZM 0 66.9346L -2 66.9346L -2 68.9346L 0 68.9346L 0 66.9346ZM 0 21.3431L 21.9874 21.3431L 21.9874 17.3431L 0 17.3431L 0 21.3431ZM 23.9727 19.5851C 24.2563 17.2516 25.0764 12.6651 26.6885 8.614C 27.4837 6.59475 28.3517 4.92432 29.4724 3.67051C 30.5104 2.48973 31.5005 2 32.478 2L 32.478 -2C 29.9586 -2 27.9618 -0.669471 26.4682 1.02955C 25.0574 2.65554 23.8491 4.92444 22.9687 7.14335C 21.2296 11.5686 20.3013 16.6536 20.0021 19.1011L 23.9727 19.5851ZM 32.478 2C 39.2751 2 54.8387 4.28424 61.8743 5.45021L 62.5283 1.50404C 55.5764 0.351929 39.6683 -2 32.478 -2L 32.478 2ZM 61.7188 5.41805C 61.1473 5.27599 61.2174 4.96515 61.4709 5.52719C 61.6839 5.99958 61.9497 6.96529 61.9497 8.69281L 65.9497 8.69281C 65.9497 6.59549 65.6327 5.0258 65.1172 3.88277C 64.6422 2.8294 63.838 1.82314 62.6838 1.5362L 61.7188 5.41805ZM 61.9497 8.69281C 61.9497 10.6172 61.2453 13.0977 59.0891 15.1077C 56.9393 17.1118 53.1132 18.8627 46.4654 18.8627L 46.4654 22.8627C 53.8051 22.8627 58.7211 20.9192 61.8166 18.0336C 64.9056 15.154 65.9497 11.5494 65.9497 8.69281L 61.9497 8.69281ZM 46.4654 18.8627L 37.7233 18.8627L 37.7233 22.8627L 46.4654 22.8627L 46.4654 18.8627ZM 35.7233 20.8627L 35.7233 66.9346L 39.7233 66.9346L 39.7233 20.8627L 35.7233 20.8627ZM 37.7233 64.9346L 0 64.9346L 0 68.9346L 37.7233 68.9346L 37.7233 64.9346ZM 2 66.9346L 2 19.3431L -2 19.3431L -2 66.9346L 2 66.9346Z"/>
<path id="path24_fill" d="M 0 7.82353C 0 3.50271 3.50271 0 7.82353 0L 28.0192 0C 32.3401 0 35.8428 3.50271 35.8428 7.82353L 35.8428 7.82353C 35.8428 12.1443 32.3401 15.6471 28.0192 15.6471L 7.82353 15.6471C 3.50271 15.6471 0 12.1443 0 7.82353L 0 7.82353Z"/>
<path id="path25_stroke" d="M 7.82353 2L 28.0192 2L 28.0192 -2L 7.82353 -2L 7.82353 2ZM 28.0192 13.6471L 7.82353 13.6471L 7.82353 17.6471L 28.0192 17.6471L 28.0192 13.6471ZM 7.82353 -2C 2.39814 -2 -2 2.39814 -2 7.82353L 2 7.82353C 2 4.60728 4.60728 2 7.82353 2L 7.82353 -2ZM 28.0192 2C 31.2355 2 33.8428 4.60728 33.8428 7.82353L 37.8428 7.82353C 37.8428 2.39814 33.4446 -2 28.0192 -2L 28.0192 2ZM 33.8428 7.82353C 33.8428 11.0398 31.2355 13.6471 28.0192 13.6471L 28.0192 17.6471C 33.4446 17.6471 37.8428 13.2489 37.8428 7.82353L 33.8428 7.82353ZM 7.82353 13.6471C 4.60728 13.6471 2 11.0398 2 7.82353L -2 7.82353C -2 13.2489 2.39814 17.6471 7.82353 17.6471L 7.82353 13.6471Z"/>
<path id="path26_fill" d="M 0 7.38889C 0 3.30812 3.30812 0 7.38889 0L 38.0702 0C 42.151 0 45.4591 3.30812 45.4591 7.38889L 45.4591 7.38889C 45.4591 11.4697 42.151 14.7778 38.0702 14.7778L 7.38889 14.7778C 3.30812 14.7778 0 11.4697 0 7.38889L 0 7.38889Z"/>
<path id="path27_stroke" d="M 7.38889 2L 38.0702 2L 38.0702 -2L 7.38889 -2L 7.38889 2ZM 38.0702 12.7778L 7.38889 12.7778L 7.38889 16.7778L 38.0702 16.7778L 38.0702 12.7778ZM 7.38889 -2C 2.20355 -2 -2 2.20355 -2 7.38889L 2 7.38889C 2 4.41269 4.41269 2 7.38889 2L 7.38889 -2ZM 38.0702 2C 41.0464 2 43.4591 4.41269 43.4591 7.38889L 47.4591 7.38889C 47.4591 2.20355 43.2556 -2 38.0702 -2L 38.0702 2ZM 43.4591 7.38889C 43.4591 10.3651 41.0464 12.7778 38.0702 12.7778L 38.0702 16.7778C 43.2556 16.7778 47.4591 12.5742 47.4591 7.38889L 43.4591 7.38889ZM 7.38889 12.7778C 4.41269 12.7778 2 10.3651 2 7.38889L -2 7.38889C -2 12.5742 2.20355 16.7778 7.38889 16.7778L 7.38889 12.7778Z"/>
<path id="path28_fill" d="M 0 7.5C 0 3.35786 3.35786 0 7.5 0L 34.5 0C 38.6421 0 42 3.35786 42 7.5L 42 7.5C 42 11.6421 38.6421 15 34.5 15L 7.5 15C 3.35786 15 0 11.6421 0 7.5L 0 7.5Z"/>
<path id="path29_stroke" d="M 7.5 2L 34.5 2L 34.5 -2L 7.5 -2L 7.5 2ZM 34.5 13L 7.5 13L 7.5 17L 34.5 17L 34.5 13ZM 7.5 -2C 2.2533 -2 -2 2.2533 -2 7.5L 2 7.5C 2 4.46243 4.46243 2 7.5 2L 7.5 -2ZM 34.5 2C 37.5376 2 40 4.46243 40 7.5L 44 7.5C 44 2.2533 39.7467 -2 34.5 -2L 34.5 2ZM 40 7.5C 40 10.5376 37.5376 13 34.5 13L 34.5 17C 39.7467 17 44 12.7467 44 7.5L 40 7.5ZM 7.5 13C 4.46243 13 2 10.5376 2 7.5L -2 7.5C -2 12.7467 2.2533 17 7.5 17L 7.5 13Z"/>
<path id="path30_fill" d="M 0 7.5C 0 3.35786 3.35786 0 7.5 0L 22.5 0C 26.6421 0 30 3.35786 30 7.5L 30 7.5C 30 11.6421 26.6421 15 22.5 15L 7.5 15C 3.35786 15 0 11.6421 0 7.5L 0 7.5Z"/>
<path id="path31_stroke" d="M 7.5 2L 22.5 2L 22.5 -2L 7.5 -2L 7.5 2ZM 22.5 13L 7.5 13L 7.5 17L 22.5 17L 22.5 13ZM 7.5 -2C 2.2533 -2 -2 2.2533 -2 7.5L 2 7.5C 2 4.46243 4.46243 2 7.5 2L 7.5 -2ZM 22.5 2C 25.5376 2 28 4.46243 28 7.5L 32 7.5C 32 2.2533 27.7467 -2 22.5 -2L 22.5 2ZM 28 7.5C 28 10.5376 25.5376 13 22.5 13L 22.5 17C 27.7467 17 32 12.7467 32 7.5L 28 7.5ZM 7.5 13C 4.46243 13 2 10.5376 2 7.5L -2 7.5C -2 12.7467 2.2533 17 7.5 17L 7.5 13Z"/>
</defs>
</svg>
