<svg width="426" height="281" viewBox="0 0 426 281" version="1.1" xmlns="http://www.w3.org/2000/svg" xmlns:xlink="http://www.w3.org/1999/xlink">
<title>&#208;&#159;&#208;&#190;&#209;&#129;&#209;&#130;&#208;&#190;&#209;&#143;&#208;&#189;&#209;&#129;&#209;&#130;&#208;&#178;&#208;&#190; &#226;&#128;&#148; &#208;&#190;&#209;&#129;&#208;&#189;&#208;&#190;&#208;&#178;&#208;&#176;  &#208;&#191;&#208;&#176;&#209;&#128;&#209;&#130;&#208;&#189;&#208;&#181;&#209;&#128;&#209;&#129;&#208;&#186;&#208;&#184;&#209;&#133; &#208;&#190;&#209;&#130;&#208;&#189;&#208;&#190;&#209;&#136;&#208;&#181;&#208;&#189;&#208;&#184;&#208;&#185;</title>
<desc>Created using Figma</desc>
<g id="Canvas" transform="translate(-515 -1624)">
<clipPath id="clip-0" clip-rule="evenodd">
<path d="M 515 1624L 941 1624L 941 1905L 515 1905L 515 1624Z" fill="#FFFFFF"/>
</clipPath>
<g id="&#208;&#159;&#208;&#190;&#209;&#129;&#209;&#130;&#208;&#190;&#209;&#143;&#208;&#189;&#209;&#129;&#209;&#130;&#208;&#178;&#208;&#190; &#226;&#128;&#148; &#208;&#190;&#209;&#129;&#208;&#189;&#208;&#190;&#208;&#178;&#208;&#176;  &#208;&#191;&#208;&#176;&#209;&#128;&#209;&#130;&#208;&#189;&#208;&#181;&#209;&#128;&#209;&#129;&#208;&#186;&#208;&#184;&#209;&#133; &#208;&#190;&#209;&#130;&#208;&#189;&#208;&#190;&#209;&#136;&#208;&#181;&#208;&#189;&#208;&#184;&#208;&#185;" clip-path="url(#clip-0)">
<g id="Group">
<g id="piggybank">
<g id="Vector">
<mask id="mask0_outline_ins">
<use xlink:href="#path0_fill" fill="white" transform="translate(807 1700)"/>
</mask>
<g mask="url(#mask0_outline_ins)">
<use xlink:href="#path1_stroke_2x" transform="translate(807 1700)" fill="#D9D2D2"/>
</g>
</g>
<g id="Vector">
<use xlink:href="#path2_stroke" transform="translate(900.66 1745.71)" fill="#D9D2D2"/>
</g>
<g id="Ellipse 5">
<use xlink:href="#path3_fill" transform="translate(845 1693)" fill="#FFFFFF"/>
<mask id="mask1_outline_ins">
<use xlink:href="#path3_fill" fill="white" transform="translate(845 1693)"/>
</mask>
<g mask="url(#mask1_outline_ins)">
<use xlink:href="#path4_stroke_2x" transform="translate(845 1693)" fill="#D9D2D2"/>
</g>
</g>
</g>
<g id="calendar">
<g id="Group">
<g id="Rectangle 23">
<use xlink:href="#path5_fill" transform="translate(522 1794)" fill="#FFFFFF"/>
<mask id="mask2_outline_ins">
<use xlink:href="#path5_fill" fill="white" transform="translate(522 1794)"/>
</mask>
<g mask="url(#mask2_outline_ins)">
<use xlink:href="#path6_stroke_2x" transform="translate(522 1794)" fill="#D9D2D2"/>
</g>
</g>
<g id="Vector">
<use xlink:href="#path7_stroke" transform="translate(515 1781)" fill="#D9D2D2"/>
</g>
<g id="Vector">
<use xlink:href="#path8_stroke" transform="translate(567.483 1781)" fill="#D9D2D2"/>
</g>
<g id="Vector">
<use xlink:href="#path9_fill" transform="translate(560.621 1831.04)" fill="#FFFFFF"/>
<mask id="mask3_outline_ins">
<use xlink:href="#path9_fill" fill="white" transform="translate(560.621 1831.04)"/>
</mask>
<g mask="url(#mask3_outline_ins)">
<use xlink:href="#path10_stroke_2x" transform="translate(560.621 1831.04)" fill="#D9D2D2"/>
</g>
</g>
<g id="Vector">
<use xlink:href="#path9_fill" transform="translate(575.828 1831.04)" fill="#FFFFFF"/>
<mask id="mask4_outline_ins">
<use xlink:href="#path9_fill" fill="white" transform="translate(575.828 1831.04)"/>
</mask>
<g mask="url(#mask4_outline_ins)">
<use xlink:href="#path10_stroke_2x" transform="translate(575.828 1831.04)" fill="#D9D2D2"/>
</g>
</g>
<g id="Vector">
<use xlink:href="#path9_fill" transform="translate(591.034 1831.04)" fill="#FFFFFF"/>
<mask id="mask5_outline_ins">
<use xlink:href="#path9_fill" fill="white" transform="translate(591.034 1831.04)"/>
</mask>
<g mask="url(#mask5_outline_ins)">
<use xlink:href="#path10_stroke_2x" transform="translate(591.034 1831.04)" fill="#D9D2D2"/>
</g>
</g>
<g id="Vector">
<use xlink:href="#path9_fill" transform="translate(606.241 1831.04)" fill="#FFFFFF"/>
<mask id="mask6_outline_ins">
<use xlink:href="#path9_fill" fill="white" transform="translate(606.241 1831.04)"/>
</mask>
<g mask="url(#mask6_outline_ins)">
<use xlink:href="#path10_stroke_2x" transform="translate(606.241 1831.04)" fill="#D9D2D2"/>
</g>
</g>
<g id="Vector">
<use xlink:href="#path9_fill" transform="translate(621.448 1831.04)" fill="#FFFFFF"/>
<mask id="mask7_outline_ins">
<use xlink:href="#path9_fill" fill="white" transform="translate(621.448 1831.04)"/>
</mask>
<g mask="url(#mask7_outline_ins)">
<use xlink:href="#path10_stroke_2x" transform="translate(621.448 1831.04)" fill="#D9D2D2"/>
</g>
</g>
<g id="Vector">
<use xlink:href="#path9_fill" transform="translate(530.207 1848.44)" fill="#FFFFFF"/>
<mask id="mask8_outline_ins">
<use xlink:href="#path9_fill" fill="white" transform="translate(530.207 1848.44)"/>
</mask>
<g mask="url(#mask8_outline_ins)">
<use xlink:href="#path10_stroke_2x" transform="translate(530.207 1848.44)" fill="#D9D2D2"/>
</g>
</g>
<g id="Vector">
<use xlink:href="#path9_fill" transform="translate(545.414 1848.44)" fill="#FFFFFF"/>
<mask id="mask9_outline_ins">
<use xlink:href="#path9_fill" fill="white" transform="translate(545.414 1848.44)"/>
</mask>
<g mask="url(#mask9_outline_ins)">
<use xlink:href="#path10_stroke_2x" transform="translate(545.414 1848.44)" fill="#D9D2D2"/>
</g>
</g>
<g id="Vector">
<use xlink:href="#path9_fill" transform="translate(560.621 1848.44)" fill="#FFFFFF"/>
<mask id="mask10_outline_ins">
<use xlink:href="#path9_fill" fill="white" transform="translate(560.621 1848.44)"/>
</mask>
<g mask="url(#mask10_outline_ins)">
<use xlink:href="#path10_stroke_2x" transform="translate(560.621 1848.44)" fill="#D9D2D2"/>
</g>
</g>
<g id="Vector">
<use xlink:href="#path9_fill" transform="translate(575.828 1848.44)" fill="#FFFFFF"/>
<mask id="mask11_outline_ins">
<use xlink:href="#path9_fill" fill="white" transform="translate(575.828 1848.44)"/>
</mask>
<g mask="url(#mask11_outline_ins)">
<use xlink:href="#path10_stroke_2x" transform="translate(575.828 1848.44)" fill="#D9D2D2"/>
</g>
</g>
<g id="Vector">
<use xlink:href="#path9_fill" transform="translate(591.034 1848.44)" fill="#FFFFFF"/>
<mask id="mask12_outline_ins">
<use xlink:href="#path9_fill" fill="white" transform="translate(591.034 1848.44)"/>
</mask>
<g mask="url(#mask12_outline_ins)">
<use xlink:href="#path10_stroke_2x" transform="translate(591.034 1848.44)" fill="#D9D2D2"/>
</g>
</g>
<g id="Vector">
<use xlink:href="#path9_fill" transform="translate(606.241 1848.44)" fill="#FFFFFF"/>
<mask id="mask13_outline_ins">
<use xlink:href="#path9_fill" fill="white" transform="translate(606.241 1848.44)"/>
</mask>
<g mask="url(#mask13_outline_ins)">
<use xlink:href="#path10_stroke_2x" transform="translate(606.241 1848.44)" fill="#D9D2D2"/>
</g>
</g>
<g id="Vector">
<use xlink:href="#path9_fill" transform="translate(621.448 1848.44)" fill="#FFFFFF"/>
<mask id="mask14_outline_ins">
<use xlink:href="#path9_fill" fill="white" transform="translate(621.448 1848.44)"/>
</mask>
<g mask="url(#mask14_outline_ins)">
<use xlink:href="#path10_stroke_2x" transform="translate(621.448 1848.44)" fill="#D9D2D2"/>
</g>
</g>
<g id="Vector">
<use xlink:href="#path9_fill" transform="translate(530.207 1863.67)" fill="#FFFFFF"/>
<mask id="mask15_outline_ins">
<use xlink:href="#path9_fill" fill="white" transform="translate(530.207 1863.67)"/>
</mask>
<g mask="url(#mask15_outline_ins)">
<use xlink:href="#path10_stroke_2x" transform="translate(530.207 1863.67)" fill="#D9D2D2"/>
</g>
</g>
<g id="Vector">
<use xlink:href="#path9_fill" transform="translate(545.414 1863.67)" fill="#FFFFFF"/>
<mask id="mask16_outline_ins">
<use xlink:href="#path9_fill" fill="white" transform="translate(545.414 1863.67)"/>
</mask>
<g mask="url(#mask16_outline_ins)">
<use xlink:href="#path10_stroke_2x" transform="translate(545.414 1863.67)" fill="#D9D2D2"/>
</g>
</g>
<g id="Vector">
<use xlink:href="#path9_fill" transform="translate(560.621 1863.67)" fill="#FFFFFF"/>
<mask id="mask17_outline_ins">
<use xlink:href="#path9_fill" fill="white" transform="translate(560.621 1863.67)"/>
</mask>
<g mask="url(#mask17_outline_ins)">
<use xlink:href="#path10_stroke_2x" transform="translate(560.621 1863.67)" fill="#D9D2D2"/>
</g>
</g>
<g id="Vector">
<use xlink:href="#path9_fill" transform="translate(575.828 1863.67)" fill="#FFFFFF"/>
<mask id="mask18_outline_ins">
<use xlink:href="#path9_fill" fill="white" transform="translate(575.828 1863.67)"/>
</mask>
<g mask="url(#mask18_outline_ins)">
<use xlink:href="#path10_stroke_2x" transform="translate(575.828 1863.67)" fill="#D9D2D2"/>
</g>
</g>
<g id="Vector">
<use xlink:href="#path9_fill" transform="translate(591.034 1863.67)" fill="#FFFFFF"/>
<mask id="mask19_outline_ins">
<use xlink:href="#path9_fill" fill="white" transform="translate(591.034 1863.67)"/>
</mask>
<g mask="url(#mask19_outline_ins)">
<use xlink:href="#path10_stroke_2x" transform="translate(591.034 1863.67)" fill="#D9D2D2"/>
</g>
</g>
<g id="Vector">
<use xlink:href="#path9_fill" transform="translate(606.241 1863.67)" fill="#FFFFFF"/>
<mask id="mask20_outline_ins">
<use xlink:href="#path9_fill" fill="white" transform="translate(606.241 1863.67)"/>
</mask>
<g mask="url(#mask20_outline_ins)">
<use xlink:href="#path10_stroke_2x" transform="translate(606.241 1863.67)" fill="#D9D2D2"/>
</g>
</g>
<g id="Vector">
<use xlink:href="#path9_fill" transform="translate(621.448 1863.67)" fill="#FFFFFF"/>
<mask id="mask21_outline_ins">
<use xlink:href="#path9_fill" fill="white" transform="translate(621.448 1863.67)"/>
</mask>
<g mask="url(#mask21_outline_ins)">
<use xlink:href="#path10_stroke_2x" transform="translate(621.448 1863.67)" fill="#D9D2D2"/>
</g>
</g>
<g id="Vector">
<use xlink:href="#path9_fill" transform="translate(530.207 1881.07)" fill="#FFFFFF"/>
<mask id="mask22_outline_ins">
<use xlink:href="#path9_fill" fill="white" transform="translate(530.207 1881.07)"/>
</mask>
<g mask="url(#mask22_outline_ins)">
<use xlink:href="#path10_stroke_2x" transform="translate(530.207 1881.07)" fill="#D9D2D2"/>
</g>
</g>
<g id="Vector">
<use xlink:href="#path9_fill" transform="translate(545.414 1881.07)" fill="#FFFFFF"/>
<mask id="mask23_outline_ins">
<use xlink:href="#path9_fill" fill="white" transform="translate(545.414 1881.07)"/>
</mask>
<g mask="url(#mask23_outline_ins)">
<use xlink:href="#path10_stroke_2x" transform="translate(545.414 1881.07)" fill="#D9D2D2"/>
</g>
</g>
<g id="Vector">
<use xlink:href="#path9_fill" transform="translate(560.621 1881.07)" fill="#FFFFFF"/>
<mask id="mask24_outline_ins">
<use xlink:href="#path9_fill" fill="white" transform="translate(560.621 1881.07)"/>
</mask>
<g mask="url(#mask24_outline_ins)">
<use xlink:href="#path10_stroke_2x" transform="translate(560.621 1881.07)" fill="#D9D2D2"/>
</g>
</g>
<g id="Vector">
<use xlink:href="#path9_fill" transform="translate(575.828 1881.07)" fill="#FFFFFF"/>
<mask id="mask25_outline_ins">
<use xlink:href="#path9_fill" fill="white" transform="translate(575.828 1881.07)"/>
</mask>
<g mask="url(#mask25_outline_ins)">
<use xlink:href="#path10_stroke_2x" transform="translate(575.828 1881.07)" fill="#D9D2D2"/>
</g>
</g>
<g id="Vector">
<use xlink:href="#path9_fill" transform="translate(591.034 1881.07)" fill="#FFFFFF"/>
<mask id="mask26_outline_ins">
<use xlink:href="#path9_fill" fill="white" transform="translate(591.034 1881.07)"/>
</mask>
<g mask="url(#mask26_outline_ins)">
<use xlink:href="#path10_stroke_2x" transform="translate(591.034 1881.07)" fill="#D9D2D2"/>
</g>
</g>
</g>
</g>
<g id="Vector">
<use xlink:href="#path11_fill" transform="matrix(1 -5.55112e-17 5.55112e-17 1 579 1636)" fill="#FFFFFF"/>
<mask id="mask27_outline_out">
<rect id="mask27_outline_inv" fill="white" x="-2" y="-2" width="261" height="261" transform="matrix(1 -5.55112e-17 5.55112e-17 1 579 1636)"/>
<use xlink:href="#path11_fill" fill="black" transform="matrix(1 -5.55112e-17 5.55112e-17 1 579 1636)"/>
</mask>
<g mask="url(#mask27_outline_out)">
<use xlink:href="#path12_stroke_2x" transform="matrix(1 -5.55112e-17 5.55112e-17 1 579 1636)" fill="#D9D2D2"/>
</g>
</g>
<g id="Group">
<g id="Vector">
<use xlink:href="#path13_fill" transform="matrix(-0.707884 -0.706328 0.707909 -0.706304 792.211 1760.87)" fill="#9493C6"/>
<use xlink:href="#path14_stroke" transform="matrix(-0.707884 -0.706328 0.707909 -0.706304 792.211 1760.87)" fill="#4D4B87"/>
</g>
<g id="Vector">
<use xlink:href="#path15_fill" transform="translate(662.054 1722.96)" fill="#FFFFFF"/>
<use xlink:href="#path16_stroke" transform="translate(662.054 1722.96)" fill="#4D4B87"/>
</g>
<g id="Group">
<g id="Group">
<g id="Rectangle 68">
<use xlink:href="#path17_fill" transform="matrix(0.72092 -0.693018 0.695574 0.718455 645.391 1785.84)" fill="#FFFFFF"/>
</g>
<g id="Rectangle 68">
<use xlink:href="#path18_fill" transform="matrix(0.72092 -0.693018 0.695574 0.718455 678.966 1814.62)" fill="#FFFFFF"/>
</g>
<g id="Rectangle 68">
<use xlink:href="#path19_fill" transform="matrix(0.72092 -0.693018 0.695574 0.718455 664.344 1808.7)" fill="#FFFFFF"/>
</g>
<g id="Rectangle 68">
<use xlink:href="#path20_fill" transform="matrix(0.72092 -0.693018 0.695574 0.718455 649.401 1802.82)" fill="#FFFFFF"/>
</g>
</g>
<g id="Rectangle 68">
<use xlink:href="#path21_stroke" transform="matrix(0.72092 -0.693018 0.695574 0.718455 645.391 1785.84)" fill="#4D4B87"/>
</g>
<g id="Rectangle 68">
<use xlink:href="#path22_stroke" transform="matrix(0.72092 -0.693018 0.695574 0.718455 649.267 1802.68)" fill="#4D4B87"/>
</g>
<g id="Rectangle 68">
<use xlink:href="#path23_stroke" transform="matrix(0.72092 -0.693018 0.695574 0.718455 663.711 1808.04)" fill="#4D4B87"/>
</g>
<g id="Rectangle 68">
<use xlink:href="#path24_stroke" transform="matrix(0.72092 -0.693018 0.695574 0.718455 678.573 1814.21)" fill="#4D4B87"/>
</g>
</g>
<g id="Vector">
<use xlink:href="#path25_fill" transform="translate(701.632 1798.33)" fill="#9493C6"/>
<use xlink:href="#path26_stroke" transform="translate(701.632 1798.33)" fill="#4D4B87"/>
</g>
<g id="Vector">
<use xlink:href="#path27_fill" transform="translate(641.316 1714.34)" fill="#9493C6"/>
<use xlink:href="#path28_stroke" transform="translate(641.316 1714.34)" fill="#4D4B87"/>
</g>
<g id="Vector">
<use xlink:href="#path29_fill" transform="translate(663.522 1770.09)" fill="#8DCAFF"/>
</g>
<g id="Vector">
<use xlink:href="#path30_fill" transform="matrix(0.707884 -0.706328 0.707909 0.706304 621 1739.3)" fill="#9493C6"/>
<use xlink:href="#path31_stroke" transform="matrix(0.707884 -0.706328 0.707909 0.706304 621 1739.3)" fill="#4D4B87"/>
</g>
</g>
</g>
</g>
</g>
<defs>
<path id="path0_fill" d="M 129.591 50.2856C 130.769 50.2856 131.875 50.7461 132.708 51.5824C 133.541 52.419 134 53.5311 134 54.7146L 134 73.0005C 134 75.4425 132.022 77.429 129.59 77.429L 121.148 77.429C 115.598 90.2508 104.322 100.131 90.2985 103.561L 89.2034 108.693C 88.5473 111.768 85.798 114 82.6662 114L 72.6903 114C 69.0037 114 66.0044 110.988 66.0044 107.286L 66.0044 104.857L 45.3781 104.857C 43.0407 104.857 40.7059 104.675 38.4077 104.32L 38.4077 107.286C 38.4077 110.988 35.4085 114 31.7219 114L 22.64 114C 20.469 114 18.4294 112.941 17.1842 111.168C 13.1527 105.43 0 84.7284 0 59.2858C 0 47.9506 4.17101 37.0861 11.7446 28.693C 18.9471 20.712 28.5623 14.5157 39.2042 14.1356C 51 13.7143 54.5 13.7143 69.6407 13.7143L 77.3845 13.7143L 77.3845 2.14278C 77.3845 1.52144 77.6527 0.931112 78.1202 0.523982C 78.5876 0.116852 79.2087 -0.0660806 79.82 0.0214432C 80.0056 0.0482523 84.4197 0.713748 88.8025 4.17212C 93.3294 7.7443 95.625 12.4963 96.7121 17.1054C 103.452 19.8801 109.497 24.2979 114.216 29.9151C 119.099 35.7269 122.475 42.7189 123.981 50.1355C 123.995 50.208 124.043 50.2864 124.112 50.2864L 129.591 50.2856Z"/>
<path id="path1_stroke_2x" d="M 38.5499 28.1428L 70.4141 28.1428L 70.4141 26.1428L 38.5499 26.1428L 38.5499 28.1428ZM 132.708 51.5824L 131.291 52.9936L 131.291 52.9938L 132.708 51.5824ZM 129.591 50.2856L 129.591 48.2856L 129.59 48.2856L 129.591 50.2856ZM 124.112 50.2864L 124.112 52.2864L 124.113 52.2864L 124.112 50.2864ZM 123.981 50.1355L 125.941 49.7394L 125.941 49.7376L 123.981 50.1355ZM 114.216 29.9151L 115.747 28.6287L 115.747 28.6286L 114.216 29.9151ZM 96.7121 17.1054L 94.7656 17.5646L 95.0013 18.5639L 95.9508 18.9548L 96.7121 17.1054ZM 88.8025 4.17212L 90.0414 2.60206L 90.0414 2.60206L 88.8025 4.17212ZM 79.82 0.0214432L 80.106 -1.95801L 80.1035 -1.95837L 79.82 0.0214432ZM 77.3845 13.7143L 77.3845 15.7143L 79.3845 15.7143L 79.3845 13.7143L 77.3845 13.7143ZM 39.2042 14.1356L 39.2755 16.1344L 39.2755 16.1344L 39.2042 14.1356ZM 11.7446 28.693L 10.2599 27.353L 10.2598 27.3531L 11.7446 28.693ZM 17.1842 111.168L 18.8208 110.019L 18.8207 110.019L 17.1842 111.168ZM 38.4077 104.32L 38.7134 102.343L 36.4077 101.987L 36.4077 104.32L 38.4077 104.32ZM 66.0044 104.857L 68.0044 104.857L 68.0044 102.857L 66.0044 102.857L 66.0044 104.857ZM 89.2034 108.693L 87.2475 108.275L 87.2475 108.275L 89.2034 108.693ZM 90.2985 103.561L 89.8233 101.618L 88.6044 101.916L 88.3425 103.144L 90.2985 103.561ZM 121.148 77.429L 121.148 75.429L 119.834 75.429L 119.312 76.6345L 121.148 77.429ZM 134.125 50.1712C 132.918 48.9589 131.302 48.2856 129.591 48.2856L 129.591 52.2856C 130.235 52.2856 130.833 52.5333 131.291 52.9936L 134.125 50.1712ZM 129.59 48.2856L 124.112 48.2864L 124.113 52.2864L 129.591 52.2856L 129.59 48.2856ZM 124.112 48.2864C 124.903 48.2864 125.396 48.7441 125.601 49.0059C 125.806 49.2681 125.899 49.5336 125.941 49.7394L 122.02 50.5316C 122.075 50.7541 122.276 51.2166 122.451 51.4704C 122.7 51.7895 123.252 52.2864 124.112 52.2864L 124.112 48.2864ZM 125.941 49.7376C 124.37 42.0801 120.778 34.6404 115.747 28.6287L 112.685 31.2016C 117.419 36.8134 120.58 43.3576 122.021 50.5334L 125.941 49.7376ZM 115.747 28.6286C 110.862 22.8367 104.43 18.1355 97.4735 15.256L 95.9508 18.9548C 102.474 21.6248 108.131 25.759 112.685 31.2017L 115.747 28.6286ZM 98.6587 16.6462C 97.5099 11.8278 94.8891 6.49236 90.0414 2.60206L 87.5636 5.74218C 91.7697 8.99624 93.74 13.1649 94.7656 17.5646L 98.6587 16.6462ZM 90.0414 2.60206C 85.266 -1.16615 80.4553 -1.90753 80.106 -1.958L 79.534 2.00089C 79.4471 1.98834 80.5733 2.1471 82.0607 2.69202C 83.6483 3.26046 85.5603 4.14462 87.5636 5.74218L 90.0414 2.60206ZM 80.1035 -1.95837C 78.9165 -2.1283 77.7125 -1.77319 76.8066 -0.98416L 79.4338 2.03212C 79.4627 2.0069 79.5008 1.99614 79.5366 2.00126L 80.1035 -1.95837ZM 76.8066 -0.98416C 75.9018 -0.196119 75.3845 0.944773 75.3845 2.14278L 79.3845 2.14278C 79.3845 2.0981 79.4037 2.05834 79.4338 2.03212L 76.8066 -0.98416ZM 75.3845 2.14278L 75.3845 13.7143L 79.3845 13.7143L 79.3845 2.14278L 75.3845 2.14278ZM 77.3845 11.7143L 69.6407 11.7143L 69.6407 15.7143L 77.3845 15.7143L 77.3845 11.7143ZM 39.1328 12.1369C 27.7544 12.5433 17.6686 19.1435 10.2599 27.353L 13.2294 30.0329C 20.2256 22.2805 29.3701 16.4882 39.2755 16.1344L 39.1328 12.1369ZM 10.2598 27.3531C 2.46632 36.0401 -1.9665 47.5861 -2 59.2858L 2 59.2858C 1.9665 48.3151 5.87571 38.132 13.2295 30.0328L 10.2598 27.3531ZM -2 59.2858C -1.92044 85.2869 11.4899 106.541 15.5477 112.318L 18.8207 110.019C 14.8154 104.319 1.92044 84.1699 2 59.2858L -2 59.2858ZM 15.5476 112.318C 17.1681 114.625 19.819 116 22.64 116L 22.64 112C 21.1191 112 19.6908 111.257 18.8208 110.019L 15.5476 112.318ZM 22.64 116L 31.7219 116L 31.7219 112L 22.64 112L 22.64 116ZM 31.7219 116C 36.521 116 40.4077 112.084 40.4077 107.286L 36.4077 107.286C 36.4077 109.891 34.2959 112 31.7219 112L 31.7219 116ZM 40.4077 107.286L 40.4077 104.32L 36.4077 104.32L 36.4077 107.286L 40.4077 107.286ZM 38.1021 106.296C 40.4752 106.662 42.9629 106.856 45.3781 106.857L 45.3781 102.857C 43.1185 102.859 40.9367 102.688 38.7134 102.343L 38.1021 106.296ZM 45.3781 106.857L 66.0044 106.857L 66.0044 102.857L 45.3781 102.857L 45.3781 106.857ZM 64.0044 104.857L 64.0044 107.286L 68.0044 107.286L 68.0044 104.857L 64.0044 104.857ZM 64.0044 107.286C 64.0044 112.084 67.8911 116 72.6903 116L 72.6903 112C 70.1163 112 68.0044 109.891 68.0044 107.286L 64.0044 107.286ZM 72.6903 116L 82.6662 116L 82.6662 112L 72.6903 112L 72.6903 116ZM 82.6662 116C 86.7474 116 90.3075 113.102 91.1594 109.11L 87.2475 108.275C 86.7871 110.433 84.8485 112 82.6662 112L 82.6662 116ZM 91.1594 109.11L 92.2544 103.978L 88.3425 103.144L 87.2475 108.275L 91.1594 109.11ZM 90.7736 105.504C 105.424 101.921 117.192 91.6027 122.983 78.2234L 119.312 76.6345C 114.004 88.899 103.221 98.3417 89.8233 101.618L 90.7736 105.504ZM 121.148 79.429L 129.59 79.429L 129.59 75.429L 121.148 75.429L 121.148 79.429ZM 129.59 79.429C 133.135 79.429 136 76.539 136 73.0005L 132 73.0005C 132 74.346 130.909 75.429 129.59 75.429L 129.59 79.429ZM 136 73.0005L 136 54.7146L 132 54.7146L 132 73.0005L 136 73.0005ZM 136 54.7146C 136 53.0036 135.333 51.3836 134.125 50.171L 131.291 52.9938C 131.75 53.4545 132 54.0585 132 54.7146L 136 54.7146ZM 69.6407 11.7143C 54.5 11.7143 50.9643 11.7146 39.1328 12.1369L 39.2755 16.1344C 51.0357 15.714 54.5 15.7143 69.6407 15.7143L 69.6407 11.7143Z"/>
<path id="path2_stroke" d="M 18.3826 5.61786C 16.9085 1.6458 13.0204 -1 8.72283 -1L 8.72283 1C 12.2098 1 15.3332 3.14934 16.5076 6.31375L 18.3826 5.61786ZM 8.72283 -1C 4.42494 -1 0.537507 1.64557 -0.937456 5.61771L 0.937456 6.31391C 2.11266 3.14905 5.23563 1 8.72283 1L 8.72283 -1Z"/>
<path id="path3_fill" d="M 30 15C 30 23.2843 23.2843 30 15 30C 6.71573 30 0 23.2843 0 15C 0 6.71573 6.71573 0 15 0C 23.2843 0 30 6.71573 30 15Z"/>
<path id="path4_stroke_2x" d="M 28 15C 28 22.1797 22.1797 28 15 28L 15 32C 24.3888 32 32 24.3888 32 15L 28 15ZM 15 28C 7.8203 28 2 22.1797 2 15L -2 15C -2 24.3888 5.61116 32 15 32L 15 28ZM 2 15C 2 7.8203 7.8203 2 15 2L 15 -2C 5.61116 -2 -2 5.61116 -2 15L 2 15ZM 15 2C 22.1797 2 28 7.8203 28 15L 32 15C 32 5.61116 24.3888 -2 15 -2L 15 2Z"/>
<path id="path5_fill" d="M 0 0L 114 0L 114 24L 0 24L 0 0Z"/>
<path id="path6_stroke_2x" d="M 0 0L 0 -2L -2 -2L -2 0L 0 0ZM 114 0L 116 0L 116 -2L 114 -2L 114 0ZM 114 24L 114 26L 116 26L 116 24L 114 24ZM 0 24L -2 24L -2 26L 0 26L 0 24ZM 0 2L 114 2L 114 -2L 0 -2L 0 2ZM 112 0L 112 24L 116 24L 116 0L 112 0ZM 114 22L 0 22L 0 26L 114 26L 114 22ZM 2 24L 2 0L -2 0L -2 24L 2 24Z"/>
<path id="path7_stroke" d="M 93.1944 8.70175L 92.2145 8.90141L 92.3776 9.70175L 93.1944 9.70175L 93.1944 8.70175ZM 93.1944 13.0526L 93.1944 12.0526L 92.3776 12.0526L 92.2145 12.853L 93.1944 13.0526ZM 121.655 13.0526L 122.655 13.0526L 122.655 12.0526L 121.655 12.0526L 121.655 13.0526ZM 32.8056 8.70175L 32.8056 9.70175L 33.6224 9.70175L 33.7855 8.90141L 32.8056 8.70175ZM 0 8.70175L 0 7.70175L -1 7.70175L -1 8.70175L 0 8.70175ZM 0 124L -1 124L -1 125L 0 125L 0 124ZM 126 124L 126 125L 127 125L 127 124L 126 124ZM 126 8.70175L 127 8.70175L 127 7.70175L 126 7.70175L 126 8.70175ZM 94.1742 8.5021C 93.0715 3.08997 88.285 -1 82.5517 -1L 82.5517 1C 87.3112 1 91.2969 4.39789 92.2145 8.90141L 94.1742 8.5021ZM 82.5517 -1C 80.7968 -1 79.3793 0.421448 79.3793 2.17544L 81.3793 2.17544C 81.3793 1.52339 81.904 1 82.5517 1L 82.5517 -1ZM 79.3793 2.17544C 79.3793 3.92943 80.7968 5.35088 82.5517 5.35088L 82.5517 3.35088C 81.904 3.35088 81.3793 2.82748 81.3793 2.17544L 79.3793 2.17544ZM 82.5517 5.35088C 85.5913 5.35088 88.069 7.82999 88.069 10.8772L 90.069 10.8772C 90.069 6.72805 86.6985 3.35088 82.5517 3.35088L 82.5517 5.35088ZM 88.069 10.8772C 88.069 13.9244 85.5913 16.4035 82.5517 16.4035L 82.5517 18.4035C 86.6985 18.4035 90.069 15.0263 90.069 10.8772L 88.069 10.8772ZM 82.5517 16.4035C 80.7968 16.4035 79.3793 17.825 79.3793 19.5789L 81.3793 19.5789C 81.3793 18.9269 81.904 18.4035 82.5517 18.4035L 82.5517 16.4035ZM 79.3793 19.5789C 79.3793 21.3329 80.7968 22.7544 82.5517 22.7544L 82.5517 20.7544C 81.904 20.7544 81.3793 20.231 81.3793 19.5789L 79.3793 19.5789ZM 82.5517 22.7544C 88.2827 22.7544 93.0715 18.6645 94.1742 13.2523L 92.2145 12.853C 91.2969 17.3564 87.3091 20.7544 82.5517 20.7544L 82.5517 22.7544ZM 93.1944 14.0526L 121.655 14.0526L 121.655 12.0526L 93.1944 12.0526L 93.1944 14.0526ZM 120.655 13.0526L 120.655 32.6316L 122.655 32.6316L 122.655 13.0526L 120.655 13.0526ZM 43.4483 22.7544C 49.9912 22.7544 55.3103 17.4259 55.3103 10.8772L 53.3103 10.8772C 53.3103 16.3239 48.884 20.7544 43.4483 20.7544L 43.4483 22.7544ZM 55.3103 10.8772C 55.3103 4.32854 49.9912 -1 43.4483 -1L 43.4483 1C 48.884 1 53.3103 5.43048 53.3103 10.8772L 55.3103 10.8772ZM 43.4483 -1C 37.7173 -1 32.9285 3.08985 31.8258 8.5021L 33.7855 8.90141C 34.7031 4.39801 38.6909 1 43.4483 1L 43.4483 -1ZM 32.8056 7.70175L 0 7.70175L 0 9.70175L 32.8056 9.70175L 32.8056 7.70175ZM -1 8.70175L -1 36.9825L 1 36.9825L 1 8.70175L -1 8.70175ZM -1 36.9825L -1 124L 1 124L 1 36.9825L -1 36.9825ZM 0 125L 126 125L 126 123L 0 123L 0 125ZM 127 124L 127 36.9825L 125 36.9825L 125 124L 127 124ZM 127 36.9825L 127 8.70175L 125 8.70175L 125 36.9825L 127 36.9825ZM 126 7.70175L 93.1944 7.70175L 93.1944 9.70175L 126 9.70175L 126 7.70175Z"/>
<path id="path8_stroke" d="M 0 22.7544C 6.54294 22.7544 11.8621 17.4259 11.8621 10.8772L 9.86207 10.8772C 9.86207 16.3239 5.43575 20.7544 0 20.7544L 0 22.7544ZM 11.8621 10.8772C 11.8621 4.32854 6.54294 -1 0 -1L 0 1C 5.43575 1 9.86207 5.43048 9.86207 10.8772L 11.8621 10.8772Z"/>
<path id="path9_fill" d="M 2.17241 4.35088C 3.37221 4.35088 4.34483 3.3769 4.34483 2.17544C 4.34483 0.973977 3.37221 0 2.17241 0C 0.972623 0 0 0.973977 0 2.17544C 0 3.3769 0.972623 4.35088 2.17241 4.35088Z"/>
<path id="path10_stroke_2x" d="M 2.34483 2.17544C 2.34483 2.27496 2.26501 2.35088 2.17241 2.35088L 2.17241 6.35088C 4.4794 6.35088 6.34483 4.47885 6.34483 2.17544L 2.34483 2.17544ZM 2.17241 2.35088C 2.07982 2.35088 2 2.27496 2 2.17544L -2 2.17544C -2 4.47885 -0.13457 6.35088 2.17241 6.35088L 2.17241 2.35088ZM 2 2.17544C 2 2.07592 2.07981 2 2.17241 2L 2.17241 -2C -0.134569 -2 -2 -0.127968 -2 2.17544L 2 2.17544ZM 2.17241 2C 2.26501 2 2.34483 2.07592 2.34483 2.17544L 6.34483 2.17544C 6.34483 -0.127968 4.4794 -2 2.17241 -2L 2.17241 2Z"/>
<path id="path11_fill" d="M 128.5 257C 199.469 257 257 199.469 257 128.5C 257 57.5314 199.469 0 128.5 0C 57.5314 0 0 57.5314 0 128.5C 0 199.469 57.5314 257 128.5 257Z"/>
<path id="path12_stroke_2x" d="M 258 128.5C 258 127.649 257.992 126.795 257.975 125.949L 255.976 125.987C 255.992 126.824 256 127.659 256 128.5L 258 128.5ZM 257.779 120.872C 257.68 119.176 257.549 117.48 257.385 115.803L 255.395 115.997C 255.556 117.655 255.685 119.312 255.782 120.988L 257.779 120.872ZM 256.793 110.748C 256.563 109.066 256.298 107.385 256.003 105.724L 254.034 106.073C 254.325 107.715 254.584 109.357 254.812 111.02L 256.793 110.748ZM 255.017 100.736C 254.655 99.0796 254.259 97.4253 253.834 95.793L 251.898 96.2967C 252.318 97.9099 252.705 99.5259 253.063 101.163L 255.017 100.736ZM 252.456 90.8958C 251.964 89.2723 251.438 87.6529 250.884 86.0571L 248.995 86.7123C 249.542 88.2894 250.055 89.8712 250.541 91.4757L 252.456 90.8958ZM 249.123 81.2857C 248.505 79.7078 247.853 78.1358 247.176 76.5887L 245.344 77.3912C 246.013 78.9202 246.65 80.4557 247.261 82.0152L 249.123 81.2857ZM 245.044 71.9727C 244.303 70.4486 243.529 68.9325 242.731 67.4426L 240.968 68.3869C 241.757 69.8595 242.513 71.3405 243.245 72.8468L 245.044 71.9727ZM 240.242 63.0069C 239.384 61.5465 238.493 60.0961 237.58 58.6731L 235.897 59.7529C 236.799 61.1594 237.67 62.5763 238.517 64.0198L 240.242 63.0069ZM 234.751 54.4474C 233.782 53.0594 232.781 51.6834 231.759 50.3359L 230.165 51.5442C 231.175 52.8761 232.154 54.2204 233.112 55.5924L 234.751 54.4474ZM 228.608 46.3444C 227.534 45.0366 226.428 43.7428 225.304 42.4786L 223.809 43.8077C 224.92 45.0572 226.001 46.3213 227.063 47.614L 228.608 46.3444ZM 221.851 38.7451C 220.678 37.5256 219.474 36.3222 218.255 35.1493L 216.869 36.5908C 218.074 37.7501 219.25 38.926 220.409 40.1315L 221.851 38.7451ZM 214.521 31.6964C 213.257 30.5723 211.963 29.4663 210.656 28.3917L 209.386 29.937C 210.679 30.9991 211.943 32.0798 213.192 33.191L 214.521 31.6964ZM 206.664 25.2408C 205.317 24.2193 203.941 23.2178 202.553 22.2486L 201.408 23.8884C 202.78 24.8463 204.124 25.8248 205.456 26.8345L 206.664 25.2408ZM 198.327 19.4195C 196.904 18.5068 195.454 17.616 193.993 16.7582L 192.98 18.4827C 194.424 19.3305 195.841 20.2007 197.247 21.103L 198.327 19.4195ZM 189.557 14.2688C 188.068 13.4708 186.551 12.6967 185.027 11.956L 184.153 13.7549C 185.66 14.4868 187.141 15.243 188.613 16.0318L 189.557 14.2688ZM 180.411 9.8245C 178.864 9.14689 177.292 8.49485 175.714 7.87668L 174.985 9.73891C 176.544 10.3498 178.08 10.9866 179.609 11.6565L 180.411 9.8245ZM 170.943 6.11572C 169.347 5.56242 167.728 5.0364 166.104 4.54446L 165.524 6.45854C 167.129 6.94462 168.711 7.45841 170.288 8.00534L 170.943 6.11572ZM 161.207 3.16598C 159.575 2.74127 157.92 2.34531 156.264 1.98337L 155.837 3.93729C 157.474 4.2949 159.09 4.68167 160.703 5.10152L 161.207 3.16598ZM 151.276 0.996598C 149.616 0.70195 147.934 0.437442 146.252 0.206777L 145.98 2.18824C 147.643 2.41612 149.285 2.67452 150.927 2.96584L 151.276 0.996598ZM 141.197 -0.385395C 139.52 -0.548566 137.824 -0.680485 136.128 -0.779022L 136.012 1.21761C 137.688 1.31492 139.345 1.44381 141.003 1.6052L 141.197 -0.385395ZM 131.051 -0.975363C 130.205 -0.99172 129.351 -0.999988 128.5 -1L 128.5 1C 129.341 0.999988 130.176 1.00807 131.013 1.02426L 131.051 -0.975363ZM 128.5 -1C 127.649 -0.999988 126.795 -0.99172 125.949 -0.975363L 125.987 1.02426C 126.824 1.00807 127.659 0.999988 128.5 1L 128.5 -1ZM 120.872 -0.779021C 119.176 -0.680484 117.48 -0.548566 115.803 -0.385395L 115.997 1.6052C 117.655 1.44382 119.312 1.31492 120.988 1.21761L 120.872 -0.779021ZM 110.748 0.206777C 109.066 0.437442 107.385 0.70195 105.724 0.996598L 106.073 2.96584C 107.715 2.67452 109.357 2.41612 111.02 2.18824L 110.748 0.206777ZM 100.736 1.98337C 99.0796 2.34531 97.4253 2.74127 95.793 3.16598L 96.2967 5.10152C 97.9099 4.68167 99.5258 4.2949 101.163 3.93729L 100.736 1.98337ZM 90.8958 4.54446C 89.2723 5.0364 87.6529 5.56242 86.057 6.11572L 86.7123 8.00534C 88.2894 7.45841 89.8712 6.94462 91.4757 6.45854L 90.8958 4.54446ZM 81.2857 7.87668C 79.7078 8.49485 78.1358 9.14689 76.5887 9.8245L 77.3912 11.6565C 78.9202 10.9866 80.4556 10.3498 82.0152 9.7389L 81.2857 7.87668ZM 71.9727 11.956C 70.4486 12.6967 68.9325 13.4708 67.4426 14.2688L 68.3869 16.0318C 69.8595 15.243 71.3405 14.4868 72.8468 13.7549L 71.9727 11.956ZM 63.0069 16.7582C 61.5465 17.616 60.0961 18.5068 58.6731 19.4195L 59.7529 21.103C 61.1594 20.2007 62.5763 19.3305 64.0198 18.4827L 63.0069 16.7582ZM 54.4474 22.2486C 53.0594 23.2178 51.6834 24.2193 50.3359 25.2408L 51.5442 26.8345C 52.8761 25.8248 54.2204 24.8463 55.5924 23.8884L 54.4474 22.2486ZM 46.3444 28.3917C 45.0366 29.4663 43.7428 30.5723 42.4786 31.6964L 43.8077 33.191C 45.0572 32.0798 46.3213 30.9991 47.614 29.937L 46.3444 28.3917ZM 38.7451 35.1493C 37.5256 36.3222 36.3222 37.5256 35.1493 38.7451L 36.5908 40.1315C 37.7501 38.926 38.926 37.7501 40.1315 36.5908L 38.7451 35.1493ZM 31.6964 42.4786C 30.5723 43.7428 29.4663 45.0366 28.3917 46.3444L 29.937 47.614C 30.9991 46.3213 32.0798 45.0572 33.191 43.8077L 31.6964 42.4786ZM 25.2408 50.3359C 24.2193 51.6834 23.2178 53.0594 22.2486 54.4474L 23.8884 55.5924C 24.8463 54.2204 25.8248 52.8761 26.8345 51.5442L 25.2408 50.3359ZM 19.4195 58.6731C 18.5068 60.0961 17.616 61.5465 16.7582 63.0069L 18.4827 64.0198C 19.3305 62.5763 20.2007 61.1594 21.103 59.7529L 19.4195 58.6731ZM 14.2688 67.4426C 13.4708 68.9325 12.6967 70.4486 11.956 71.9727L 13.7549 72.8468C 14.4868 71.3405 15.243 69.8595 16.0318 68.3869L 14.2688 67.4426ZM 9.8245 76.5887C 9.14689 78.1358 8.49485 79.7077 7.87668 81.2857L 9.73891 82.0152C 10.3498 80.4556 10.9866 78.9202 11.6565 77.3912L 9.8245 76.5887ZM 6.11572 86.057C 5.56242 87.6529 5.0364 89.2723 4.54446 90.8958L 6.45854 91.4757C 6.94462 89.8712 7.45841 88.2894 8.00534 86.7123L 6.11572 86.057ZM 3.16598 95.793C 2.74127 97.4253 2.34531 99.0796 1.98337 100.736L 3.93729 101.163C 4.2949 99.5258 4.68167 97.9099 5.10152 96.2967L 3.16598 95.793ZM 0.996599 105.724C 0.701951 107.385 0.437442 109.066 0.206778 110.748L 2.18824 111.02C 2.41612 109.357 2.67452 107.715 2.96584 106.073L 0.996599 105.724ZM -0.385394 115.803C -0.548566 117.48 -0.680484 119.176 -0.779022 120.872L 1.21761 120.988C 1.31492 119.312 1.44382 117.655 1.6052 115.997L -0.385394 115.803ZM -0.975363 125.949C -0.99172 126.795 -0.999988 127.649 -1 128.5L 1 128.5C 0.999988 127.659 1.00807 126.824 1.02426 125.987L -0.975363 125.949ZM -1 128.5C -0.999988 129.351 -0.99172 130.205 -0.975363 131.051L 1.02426 131.013C 1.00807 130.176 0.999988 129.341 1 128.5L -1 128.5ZM -0.779021 136.128C -0.680484 137.824 -0.548566 139.52 -0.385394 141.197L 1.6052 141.003C 1.44382 139.345 1.31492 137.688 1.21761 136.012L -0.779021 136.128ZM 0.206778 146.252C 0.437442 147.934 0.70195 149.616 0.996598 151.276L 2.96584 150.927C 2.67452 149.285 2.41612 147.643 2.18824 145.98L 0.206778 146.252ZM 1.98337 156.264C 2.34531 157.92 2.74127 159.575 3.16598 161.207L 5.10152 160.703C 4.68167 159.09 4.2949 157.474 3.93729 155.837L 1.98337 156.264ZM 4.54446 166.104C 5.0364 167.728 5.56242 169.347 6.11572 170.943L 8.00534 170.288C 7.45841 168.711 6.94462 167.129 6.45854 165.524L 4.54446 166.104ZM 7.87668 175.714C 8.49486 177.292 9.14689 178.864 9.8245 180.411L 11.6565 179.609C 10.9866 178.08 10.3498 176.544 9.73891 174.985L 7.87668 175.714ZM 11.956 185.027C 12.6967 186.551 13.4708 188.068 14.2688 189.557L 16.0318 188.613C 15.243 187.141 14.4868 185.66 13.7549 184.153L 11.956 185.027ZM 16.7582 193.993C 17.616 195.454 18.5068 196.904 19.4195 198.327L 21.103 197.247C 20.2007 195.841 19.3305 194.424 18.4827 192.98L 16.7582 193.993ZM 22.2486 202.553C 23.2178 203.941 24.2193 205.317 25.2408 206.664L 26.8345 205.456C 25.8248 204.124 24.8463 202.78 23.8884 201.408L 22.2486 202.553ZM 28.3917 210.656C 29.4663 211.963 30.5723 213.257 31.6964 214.521L 33.191 213.192C 32.0798 211.943 30.9991 210.679 29.937 209.386L 28.3917 210.656ZM 35.1493 218.255C 36.3222 219.474 37.5256 220.678 38.7451 221.851L 40.1315 220.409C 38.926 219.25 37.7501 218.074 36.5909 216.869L 35.1493 218.255ZM 42.4786 225.304C 43.7428 226.428 45.0366 227.534 46.3444 228.608L 47.614 227.063C 46.3213 226.001 45.0572 224.92 43.8077 223.809L 42.4786 225.304ZM 50.336 231.759C 51.6834 232.781 53.0594 233.782 54.4474 234.751L 55.5924 233.112C 54.2204 232.154 52.8761 231.175 51.5442 230.165L 50.336 231.759ZM 58.6731 237.58C 60.0961 238.493 61.5465 239.384 63.0069 240.242L 64.0198 238.517C 62.5763 237.67 61.1594 236.799 59.7529 235.897L 58.6731 237.58ZM 67.4426 242.731C 68.9325 243.529 70.4486 244.303 71.9727 245.044L 72.8469 243.245C 71.3405 242.513 69.8595 241.757 68.3869 240.968L 67.4426 242.731ZM 76.5887 247.176C 78.1358 247.853 79.7078 248.505 81.2857 249.123L 82.0152 247.261C 80.4557 246.65 78.9202 246.013 77.3912 245.344L 76.5887 247.176ZM 86.0571 250.884C 87.6529 251.438 89.2723 251.964 90.8958 252.456L 91.4757 250.541C 89.8712 250.055 88.2894 249.542 86.7123 248.995L 86.0571 250.884ZM 95.7931 253.834C 97.4253 254.259 99.0797 254.655 100.736 255.017L 101.163 253.063C 99.5259 252.705 97.9099 252.318 96.2967 251.898L 95.7931 253.834ZM 105.724 256.003C 107.385 256.298 109.066 256.563 110.748 256.793L 111.02 254.812C 109.357 254.584 107.715 254.325 106.073 254.034L 105.724 256.003ZM 115.803 257.385C 117.48 257.549 119.176 257.68 120.872 257.779L 120.988 255.782C 119.312 255.685 117.655 255.556 115.997 255.395L 115.803 257.385ZM 125.949 257.975C 126.795 257.992 127.649 258 128.5 258L 128.5 256C 127.659 256 126.824 255.992 125.987 255.976L 125.949 257.975ZM 128.5 258C 129.351 258 130.205 257.992 131.051 257.975L 131.013 255.976C 130.176 255.992 129.341 256 128.5 256L 128.5 258ZM 136.128 257.779C 137.824 257.68 139.52 257.549 141.197 257.385L 141.003 255.395C 139.345 255.556 137.688 255.685 136.012 255.782L 136.128 257.779ZM 146.252 256.793C 147.934 256.563 149.616 256.298 151.276 256.003L 150.927 254.034C 149.285 254.325 147.643 254.584 145.98 254.812L 146.252 256.793ZM 156.264 255.017C 157.92 254.655 159.575 254.259 161.207 253.834L 160.703 251.898C 159.09 252.318 157.474 252.705 155.837 253.063L 156.264 255.017ZM 166.104 252.456C 167.728 251.964 169.347 251.438 170.943 250.884L 170.288 248.995C 168.711 249.542 167.129 250.055 165.524 250.541L 166.104 252.456ZM 175.714 249.123C 177.292 248.505 178.864 247.853 180.411 247.176L 179.609 245.344C 178.08 246.013 176.544 246.65 174.985 247.261L 175.714 249.123ZM 185.027 245.044C 186.551 244.303 188.068 243.529 189.557 242.731L 188.613 240.968C 187.141 241.757 185.66 242.513 184.153 243.245L 185.027 245.044ZM 193.993 240.242C 195.454 239.384 196.904 238.493 198.327 237.58L 197.247 235.897C 195.841 236.799 194.424 237.67 192.98 238.517L 193.993 240.242ZM 202.553 234.751C 203.941 233.782 205.317 232.781 206.664 231.759L 205.456 230.165C 204.124 231.175 202.78 232.154 201.408 233.112L 202.553 234.751ZM 210.656 228.608C 211.963 227.534 213.257 226.428 214.521 225.304L 213.192 223.809C 211.943 224.92 210.679 226.001 209.386 227.063L 210.656 228.608ZM 218.255 221.851C 219.474 220.678 220.678 219.474 221.851 218.255L 220.409 216.869C 219.25 218.074 218.074 219.25 216.869 220.409L 218.255 221.851ZM 225.304 214.521C 226.428 213.257 227.534 211.963 228.608 210.656L 227.063 209.386C 226.001 210.679 224.92 211.943 223.809 213.192L 225.304 214.521ZM 231.759 206.664C 232.781 205.317 233.782 203.941 234.751 202.553L 233.112 201.408C 232.154 202.78 231.175 204.124 230.165 205.456L 231.759 206.664ZM 237.58 198.327C 238.493 196.904 239.384 195.454 240.242 193.993L 238.517 192.98C 237.67 194.424 236.799 195.841 235.897 197.247L 237.58 198.327ZM 242.731 189.557C 243.529 188.068 244.303 186.551 245.044 185.027L 243.245 184.153C 242.513 185.66 241.757 187.141 240.968 188.613L 242.731 189.557ZM 247.176 180.411C 247.853 178.864 248.505 177.292 249.123 175.714L 247.261 174.985C 246.65 176.544 246.013 178.08 245.344 179.609L 247.176 180.411ZM 250.884 170.943C 251.438 169.347 251.964 167.728 252.456 166.104L 250.541 165.524C 250.055 167.129 249.542 168.711 248.995 170.288L 250.884 170.943ZM 253.834 161.207C 254.259 159.575 254.655 157.92 255.017 156.264L 253.063 155.837C 252.705 157.474 252.318 159.09 251.898 160.703L 253.834 161.207ZM 256.003 151.276C 256.298 149.616 256.563 147.934 256.793 146.252L 254.812 145.98C 254.584 147.643 254.325 149.285 254.034 150.927L 256.003 151.276ZM 257.385 141.197C 257.549 139.52 257.68 137.824 257.779 136.128L 255.782 136.012C 255.685 137.688 255.556 139.345 255.395 141.003L 257.385 141.197ZM 257.975 131.051C 257.992 130.205 258 129.351 258 128.5L 256 128.5C 256 129.341 255.992 130.176 255.976 131.013L 257.975 131.051ZM 259 128.5C 259 127.644 258.992 126.781 258.975 125.929L 254.976 126.007C 254.992 126.839 255 127.664 255 128.5L 259 128.5ZM 258.777 120.814C 258.678 119.109 258.545 117.393 258.381 115.706L 254.4 116.094C 254.56 117.742 254.687 119.38 254.784 121.046L 258.777 120.814ZM 257.784 110.612C 257.552 108.92 257.284 107.219 256.988 105.549L 253.05 106.248C 253.339 107.88 253.595 109.503 253.821 111.156L 257.784 110.612ZM 255.994 100.523C 255.629 98.8565 255.229 97.1829 254.802 95.5412L 250.931 96.5486C 251.348 98.1522 251.73 99.749 252.086 101.377L 255.994 100.523ZM 253.413 90.6059C 252.918 88.9728 252.386 87.3346 251.829 85.7294L 248.05 87.0399C 248.594 88.6077 249.101 90.1707 249.584 91.7657L 253.413 90.6059ZM 250.054 80.921C 249.433 79.3338 248.773 77.7436 248.091 76.1875L 244.428 77.7924C 245.093 79.3124 245.723 80.8296 246.33 82.3799L 250.054 80.921ZM 245.943 71.5357C 245.198 70.0027 244.415 68.469 243.613 66.9704L 240.087 68.8591C 240.871 70.3229 241.618 71.7864 242.346 73.2839L 245.943 71.5357ZM 241.104 62.5004C 240.241 61.0316 239.34 59.5644 238.422 58.1332L 235.055 60.2929C 235.952 61.691 236.812 63.0913 237.655 64.5262L 241.104 62.5004ZM 235.571 53.8749C 234.596 52.4789 233.583 51.0871 232.556 49.7318L 229.369 52.1484C 230.373 53.4724 231.339 54.8009 232.292 56.1649L 235.571 53.8749ZM 229.381 45.7096C 228.3 44.3942 227.181 43.0856 226.051 41.8141L 223.062 44.4722C 224.167 45.7144 225.234 46.9636 226.29 48.2489L 229.381 45.7096ZM 222.571 38.052C 221.392 36.8255 220.175 35.6082 218.948 34.4285L 216.175 37.3116C 217.374 38.4641 218.536 39.6262 219.688 40.8247L 222.571 38.052ZM 215.186 30.9492C 213.914 29.8186 212.606 28.6999 211.29 27.6191L 208.751 30.7097C 210.036 31.7655 211.286 32.8335 212.528 33.9383L 215.186 30.9492ZM 207.268 24.4439C 205.913 23.4165 204.521 22.4035 203.125 21.4287L 200.835 24.7083C 202.199 25.6606 203.528 26.6275 204.852 27.6314L 207.268 24.4439ZM 198.867 18.5778C 197.436 17.6598 195.968 16.7588 194.5 15.8959L 192.474 19.345C 193.909 20.1877 195.309 21.0477 196.707 21.9447L 198.867 18.5778ZM 190.03 13.3873C 188.531 12.5847 186.997 11.8016 185.464 11.0566L 183.716 14.6543C 185.214 15.3819 186.677 16.1291 188.141 16.9133L 190.03 13.3873ZM 180.813 8.90852C 179.256 8.22701 177.666 7.56741 176.079 6.94557L 174.62 10.67C 176.17 11.2772 177.688 11.9065 179.208 12.5724L 180.813 8.90852ZM 171.271 5.17091C 169.665 4.61443 168.027 4.08229 166.394 3.58742L 165.234 7.41558C 166.829 7.89873 168.392 8.4064 169.96 8.95015L 171.271 5.17091ZM 161.459 2.19822C 159.817 1.77108 158.143 1.37052 156.477 1.00641L 155.623 4.91425C 157.251 5.2697 158.848 5.65186 160.451 6.06929L 161.459 2.19822ZM 151.451 0.0119775C 149.781 -0.284334 148.08 -0.551899 146.388 -0.783955L 145.844 3.17898C 147.497 3.40547 149.12 3.6608 150.752 3.95046L 151.451 0.0119775ZM 141.294 -1.38069C 139.607 -1.54476 137.891 -1.67819 136.186 -1.77734L 135.954 2.21593C 137.62 2.31262 139.258 2.44001 140.906 2.6005L 141.294 -1.38069ZM 131.071 -1.97518C 130.219 -1.99161 129.356 -1.99998 128.5 -2L 128.5 2C 129.336 1.99998 130.161 2.00796 130.993 2.02408L 131.071 -1.97518ZM 128.5 -2C 127.644 -1.99998 126.781 -1.99161 125.929 -1.97518L 126.007 2.02408C 126.839 2.00796 127.664 1.99998 128.5 2L 128.5 -2ZM 120.814 -1.77734C 119.109 -1.67819 117.393 -1.54476 115.706 -1.38069L 116.094 2.6005C 117.742 2.44001 119.38 2.31262 121.046 2.21593L 120.814 -1.77734ZM 110.612 -0.783955C 108.92 -0.551899 107.219 -0.284334 105.549 0.0119775L 106.248 3.95046C 107.88 3.6608 109.503 3.40547 111.156 3.17898L 110.612 -0.783955ZM 100.523 1.00641C 98.8565 1.37052 97.1829 1.77108 95.5412 2.19822L 96.5486 6.06928C 98.1522 5.65186 99.749 5.2697 101.377 4.91425L 100.523 1.00641ZM 90.6059 3.58742C 88.9728 4.08229 87.3346 4.61442 85.7294 5.17091L 87.0399 8.95015C 88.6077 8.4064 90.1707 7.89873 91.7657 7.41558L 90.6059 3.58742ZM 80.921 6.94557C 79.3338 7.5674 77.7436 8.22701 76.1875 8.90852L 77.7924 12.5724C 79.3124 11.9065 80.8296 11.2772 82.3799 10.67L 80.921 6.94557ZM 71.5357 11.0566C 70.0027 11.8016 68.469 12.5847 66.9704 13.3873L 68.8591 16.9133C 70.3229 16.1291 71.7864 15.3819 73.2839 14.6543L 71.5357 11.0566ZM 62.5004 15.8959C 61.0315 16.7588 59.5644 17.6598 58.1331 18.5778L 60.2928 21.9447C 61.691 21.0477 63.0913 20.1877 64.5262 19.345L 62.5004 15.8959ZM 53.8749 21.4287C 52.4789 22.4035 51.0871 23.4165 49.7318 24.4439L 52.1484 27.6314C 53.4724 26.6275 54.8009 25.6605 56.1649 24.7083L 53.8749 21.4287ZM 45.7096 27.619C 44.3942 28.6999 43.0856 29.8186 41.8141 30.9492L 44.4722 33.9383C 45.7144 32.8335 46.9636 31.7655 48.2489 30.7097L 45.7096 27.619ZM 38.052 34.4285C 36.8255 35.6082 35.6082 36.8255 34.4285 38.052L 37.3116 40.8247C 38.4641 39.6262 39.6262 38.4641 40.8247 37.3116L 38.052 34.4285ZM 30.9492 41.8141C 29.8186 43.0856 28.6999 44.3942 27.619 45.7096L 30.7097 48.2489C 31.7655 46.9636 32.8335 45.7144 33.9383 44.4722L 30.9492 41.8141ZM 24.4439 49.7318C 23.4165 51.0871 22.4035 52.4789 21.4287 53.8749L 24.7083 56.1649C 25.6605 54.8009 26.6275 53.4724 27.6314 52.1484L 24.4439 49.7318ZM 18.5778 58.1331C 17.6598 59.5644 16.7588 61.0315 15.8959 62.5004L 19.345 64.5262C 20.1877 63.0913 21.0477 61.691 21.9447 60.2928L 18.5778 58.1331ZM 13.3873 66.9704C 12.5847 68.469 11.8016 70.0027 11.0566 71.5357L 14.6543 73.2839C 15.3819 71.7864 16.1291 70.3229 16.9133 68.8591L 13.3873 66.9704ZM 8.90852 76.1875C 8.22701 77.7436 7.56741 79.3338 6.94557 80.921L 10.67 82.3799C 11.2772 80.8296 11.9065 79.3124 12.5724 77.7924L 8.90852 76.1875ZM 5.17091 85.7294C 4.61443 87.3346 4.08229 88.9728 3.58742 90.6059L 7.41558 91.7657C 7.89873 90.1707 8.4064 88.6077 8.95015 87.0399L 5.17091 85.7294ZM 2.19822 95.5412C 1.77108 97.1829 1.37052 98.8565 1.00641 100.523L 4.91426 101.377C 5.2697 99.7489 5.65186 98.1522 6.06929 96.5486L 2.19822 95.5412ZM 0.0119785 105.549C -0.284333 107.219 -0.551899 108.92 -0.783955 110.612L 3.17898 111.156C 3.40547 109.503 3.6608 107.88 3.95046 106.248L 0.0119785 105.549ZM -1.38069 115.706C -1.54476 117.393 -1.67819 119.109 -1.77734 120.814L 2.21593 121.046C 2.31262 119.38 2.44001 117.742 2.6005 116.094L -1.38069 115.706ZM -1.97518 125.929C -1.99161 126.781 -1.99998 127.644 -2 128.5L 2 128.5C 1.99998 127.664 2.00796 126.839 2.02408 126.007L -1.97518 125.929ZM -2 128.5C -1.99998 129.356 -1.99161 130.219 -1.97518 131.071L 2.02408 130.993C 2.00796 130.161 1.99998 129.336 2 128.5L -2 128.5ZM -1.77734 136.186C -1.67819 137.891 -1.54476 139.607 -1.38069 141.294L 2.6005 140.906C 2.44001 139.258 2.31262 137.62 2.21593 135.954L -1.77734 136.186ZM -0.783955 146.388C -0.551899 148.08 -0.284333 149.781 0.0119783 151.451L 3.95046 150.752C 3.6608 149.12 3.40547 147.497 3.17898 145.844L -0.783955 146.388ZM 1.00641 156.477C 1.37052 158.143 1.77108 159.817 2.19822 161.459L 6.06928 160.451C 5.65186 158.848 5.2697 157.251 4.91426 155.623L 1.00641 156.477ZM 3.58742 166.394C 4.08229 168.027 4.61443 169.665 5.17091 171.271L 8.95015 169.96C 8.4064 168.392 7.89873 166.829 7.41558 165.234L 3.58742 166.394ZM 6.94557 176.079C 7.56741 177.666 8.22701 179.256 8.90853 180.813L 12.5724 179.208C 11.9065 177.688 11.2772 176.17 10.67 174.62L 6.94557 176.079ZM 11.0566 185.464C 11.8016 186.997 12.5847 188.531 13.3873 190.03L 16.9133 188.141C 16.1291 186.677 15.3819 185.214 14.6543 183.716L 11.0566 185.464ZM 15.8959 194.5C 16.7588 195.968 17.6598 197.436 18.5778 198.867L 21.9447 196.707C 21.0477 195.309 20.1877 193.909 19.345 192.474L 15.8959 194.5ZM 21.4287 203.125C 22.4035 204.521 23.4165 205.913 24.4439 207.268L 27.6314 204.852C 26.6275 203.528 25.6606 202.199 24.7083 200.835L 21.4287 203.125ZM 27.6191 211.29C 28.6999 212.606 29.8186 213.914 30.9492 215.186L 33.9383 212.528C 32.8335 211.286 31.7655 210.036 30.7097 208.751L 27.6191 211.29ZM 34.4285 218.948C 35.6082 220.175 36.8255 221.392 38.052 222.571L 40.8247 219.688C 39.6262 218.536 38.4641 217.374 37.3116 216.175L 34.4285 218.948ZM 41.8141 226.051C 43.0856 227.181 44.3942 228.3 45.7096 229.381L 48.2489 226.29C 46.9636 225.235 45.7144 224.167 44.4722 223.062L 41.8141 226.051ZM 49.7318 232.556C 51.0871 233.583 52.4789 234.596 53.8749 235.571L 56.1649 232.292C 54.801 231.339 53.4724 230.373 52.1484 229.369L 49.7318 232.556ZM 58.1332 238.422C 59.5644 239.34 61.0316 240.241 62.5004 241.104L 64.5262 237.655C 63.0913 236.812 61.691 235.952 60.2929 235.055L 58.1332 238.422ZM 66.9704 243.613C 68.469 244.415 70.0027 245.198 71.5357 245.943L 73.2839 242.346C 71.7864 241.618 70.3229 240.871 68.8591 240.087L 66.9704 243.613ZM 76.1875 248.091C 77.7436 248.773 79.3338 249.433 80.921 250.054L 82.3799 246.33C 80.8296 245.723 79.3124 245.093 77.7924 244.428L 76.1875 248.091ZM 85.7294 251.829C 87.3346 252.386 88.9728 252.918 90.6059 253.413L 91.7657 249.584C 90.1707 249.101 88.6077 248.594 87.0399 248.05L 85.7294 251.829ZM 95.5412 254.802C 97.183 255.229 98.8566 255.629 100.523 255.994L 101.377 252.086C 99.749 251.73 98.1522 251.348 96.5486 250.931L 95.5412 254.802ZM 105.549 256.988C 107.219 257.284 108.92 257.552 110.612 257.784L 111.156 253.821C 109.503 253.595 107.88 253.339 106.248 253.05L 105.549 256.988ZM 115.706 258.381C 117.393 258.545 119.109 258.678 120.814 258.777L 121.046 254.784C 119.38 254.687 117.742 254.56 116.094 254.4L 115.706 258.381ZM 125.929 258.975C 126.781 258.992 127.644 259 128.5 259L 128.5 255C 127.664 255 126.839 254.992 126.007 254.976L 125.929 258.975ZM 128.5 259C 129.356 259 130.219 258.992 131.071 258.975L 130.993 254.976C 130.161 254.992 129.336 255 128.5 255L 128.5 259ZM 136.186 258.777C 137.891 258.678 139.607 258.545 141.294 258.381L 140.906 254.4C 139.258 254.56 137.62 254.687 135.954 254.784L 136.186 258.777ZM 146.388 257.784C 148.08 257.552 149.781 257.284 151.451 256.988L 150.752 253.05C 149.12 253.339 147.497 253.595 145.844 253.821L 146.388 257.784ZM 156.477 255.994C 158.143 255.629 159.817 255.229 161.459 254.802L 160.451 250.931C 158.848 251.348 157.251 251.73 155.623 252.086L 156.477 255.994ZM 166.394 253.413C 168.027 252.918 169.665 252.386 171.271 251.829L 169.96 248.05C 168.392 248.594 166.829 249.101 165.234 249.584L 166.394 253.413ZM 176.079 250.054C 177.666 249.433 179.256 248.773 180.813 248.091L 179.208 244.428C 177.688 245.093 176.17 245.723 174.62 246.33L 176.079 250.054ZM 185.464 245.943C 186.997 245.198 188.531 244.415 190.03 243.613L 188.141 240.087C 186.677 240.871 185.214 241.618 183.716 242.346L 185.464 245.943ZM 194.5 241.104C 195.968 240.241 197.436 239.34 198.867 238.422L 196.707 235.055C 195.309 235.952 193.909 236.812 192.474 237.655L 194.5 241.104ZM 203.125 235.571C 204.521 234.596 205.913 233.583 207.268 232.556L 204.852 229.369C 203.528 230.373 202.199 231.339 200.835 232.292L 203.125 235.571ZM 211.29 229.381C 212.606 228.3 213.914 227.181 215.186 226.051L 212.528 223.062C 211.286 224.167 210.036 225.234 208.751 226.29L 211.29 229.381ZM 218.948 222.571C 220.175 221.392 221.392 220.175 222.571 218.948L 219.688 216.175C 218.536 217.374 217.374 218.536 216.175 219.688L 218.948 222.571ZM 226.051 215.186C 227.181 213.914 228.3 212.606 229.381 211.29L 226.29 208.751C 225.234 210.036 224.167 211.286 223.062 212.528L 226.051 215.186ZM 232.556 207.268C 233.583 205.913 234.596 204.521 235.571 203.125L 232.292 200.835C 231.339 202.199 230.373 203.528 229.369 204.852L 232.556 207.268ZM 238.422 198.867C 239.34 197.436 240.241 195.968 241.104 194.5L 237.655 192.474C 236.812 193.909 235.952 195.309 235.055 196.707L 238.422 198.867ZM 243.613 190.03C 244.415 188.531 245.198 186.997 245.943 185.464L 242.346 183.716C 241.618 185.214 240.871 186.677 240.087 188.141L 243.613 190.03ZM 248.091 180.813C 248.773 179.256 249.433 177.666 250.054 176.079L 246.33 174.62C 245.723 176.17 245.093 177.688 244.428 179.208L 248.091 180.813ZM 251.829 171.271C 252.386 169.665 252.918 168.027 253.413 166.394L 249.584 165.234C 249.101 166.829 248.594 168.392 248.05 169.96L 251.829 171.271ZM 254.802 161.459C 255.229 159.817 255.629 158.143 255.994 156.477L 252.086 155.623C 251.73 157.251 251.348 158.848 250.931 160.451L 254.802 161.459ZM 256.988 151.451C 257.284 149.781 257.552 148.08 257.784 146.388L 253.821 145.844C 253.595 147.497 253.339 149.12 253.05 150.752L 256.988 151.451ZM 258.381 141.294C 258.545 139.607 258.678 137.891 258.777 136.186L 254.784 135.954C 254.687 137.62 254.56 139.258 254.4 140.906L 258.381 141.294ZM 258.975 131.071C 258.992 130.219 259 129.356 259 128.5L 255 128.5C 255 129.336 254.992 130.161 254.976 130.993L 258.975 131.071Z"/>
<path id="path13_fill" d="M 0 0L 62.724 0L 62.724 20.8908L 0 20.8908L 0 0Z"/>
<path id="path14_stroke" d="M 0 0L 0 -2.5L -2.5 -2.5L -2.5 0L 0 0ZM 62.724 0L 65.224 0L 65.224 -2.5L 62.724 -2.5L 62.724 0ZM 62.724 20.8908L 62.724 23.3908L 65.224 23.3908L 65.224 20.8908L 62.724 20.8908ZM 0 20.8908L -2.5 20.8908L -2.5 23.3908L 0 23.3908L 0 20.8908ZM 0 2.5L 62.724 2.5L 62.724 -2.5L 0 -2.5L 0 2.5ZM 60.224 0L 60.224 20.8908L 65.224 20.8908L 65.224 0L 60.224 0ZM 62.724 18.3908L 0 18.3908L 0 23.3908L 62.724 23.3908L 62.724 18.3908ZM 2.5 20.8908L 2.5 0L -2.5 0L -2.5 20.8908L 2.5 20.8908Z"/>
<path id="path15_fill" d="M 89.7489 0C 89.7489 0 83.7025 4.85585 77.5011 10.7417C 62.3594 -3.77678 51.972 1.56958 46.8041 5.54255C 27.4686 20.3987 20.5611 26.5507 2.91405 43.2615C -10.5702 56.0596 25.951 103.911 46.8558 84.0701L 51.972 89.8088L 88.0435 62.047C 88.0435 62.047 120.963 29.6256 121.583 30.2142L 89.7489 0Z"/>
<path id="path16_stroke" d="M 89.7489 0L 91.47 -1.8133L 89.8861 -3.31657L 88.1835 -1.94922L 89.7489 0ZM 77.5011 10.7417L 75.7709 12.5463L 77.4923 14.1968L 79.2222 12.555L 77.5011 10.7417ZM 46.8041 5.54255L 48.3273 7.52497L 48.3279 7.52453L 46.8041 5.54255ZM 2.91405 43.2615L 1.19509 41.4462L 1.19301 41.4482L 2.91405 43.2615ZM 46.8558 84.0701L 48.7219 82.4064L 47.0055 80.4812L 45.1348 82.2568L 46.8558 84.0701ZM 51.972 89.8088L 50.1059 91.4724L 51.6536 93.2085L 53.4968 91.79L 51.972 89.8088ZM 88.0435 62.047L 89.5683 64.0282L 89.6891 63.9352L 89.7978 63.8282L 88.0435 62.047ZM 89.7489 0C 88.1835 -1.94922 88.1834 -1.94913 88.1833 -1.94902C 88.1832 -1.94896 88.183 -1.94884 88.1829 -1.94872C 88.1826 -1.94852 88.1822 -1.94816 88.1817 -1.94777C 88.1808 -1.94709 88.1794 -1.94592 88.1777 -1.94456C 88.1745 -1.94201 88.1694 -1.93791 88.1632 -1.93285C 88.151 -1.9231 88.1322 -1.90794 88.1084 -1.88866C 88.0616 -1.85086 87.9906 -1.79338 87.8999 -1.7196C 87.7203 -1.57361 87.4533 -1.35556 87.117 -1.07829C 86.4484 -0.527082 85.4829 0.277097 84.3286 1.26126C 82.0285 3.22234 78.9168 5.95202 75.7801 8.92844L 79.2222 12.555C 82.2869 9.64557 85.299 7.00438 87.5725 5.06607C 88.7049 4.10053 89.6387 3.32288 90.2976 2.77968C 90.625 2.50975 90.8788 2.30245 91.0541 2.15989C 91.1408 2.0894 91.2058 2.0368 91.2506 2.0006C 91.2726 1.98288 91.2885 1.97005 91.2996 1.96107C 91.305 1.95676 91.3086 1.95381 91.3113 1.95164C 91.3126 1.95065 91.3133 1.95004 91.3139 1.94955C 91.3142 1.94935 91.3143 1.94926 91.3144 1.94916C 91.3144 1.94913 91.3144 1.94915 91.3144 1.94914C 91.3144 1.94917 91.3143 1.94922 89.7489 0ZM 79.2314 8.93722C 71.3431 1.37364 64.369 -1.31352 58.4035 -1.29215C 52.606 -1.18208 47.9814 1.48933 45.2804 3.56057L 48.3279 7.52453C 50.7947 5.6228 53.9477 3.63454 58.4214 3.70782C 62.7269 3.6924 68.5174 5.59131 75.7709 12.5463L 79.2314 8.93722ZM 44.9897 85.7337L 50.1059 91.4724L 53.8381 88.1451L 48.7219 82.4064L 44.9897 85.7337ZM 53.4968 91.79L 89.5683 64.0282L 86.5188 60.0659L 50.4472 87.8276L 53.4968 91.79ZM 88.0435 62.047C 89.7978 63.8282 89.7979 63.8281 89.7981 63.8279C 89.7984 63.8276 89.7987 63.8273 89.7992 63.8268C 89.8002 63.8258 89.8017 63.8244 89.8037 63.8224C 89.8076 63.8185 89.8135 63.8127 89.8214 63.805C 89.8372 63.7894 89.8606 63.7663 89.8917 63.7357C 89.9539 63.6745 90.0461 63.5838 90.1665 63.4653C 90.4076 63.2282 90.7609 62.8808 91.2111 62.4386C 92.112 61.5537 93.3988 60.291 94.9456 58.777C 98.0401 55.748 102.169 51.7191 106.318 47.7072C 110.468 43.6953 114.624 39.7138 117.785 36.7689C 119.361 35.2999 120.664 34.1126 121.599 33.3036C 122.057 32.9074 122.372 32.6467 122.598 32.4791C 122.689 32.4107 122.613 32.4604 122.633 32.4463C 122.612 32.4581 122.436 32.5569 122.17 32.6274C 122.133 32.637 120.9 33.0129 119.862 32.0275L 123.304 28.4009C 122.246 27.3971 120.978 27.7707 120.891 27.7937C 120.679 27.8578 120.367 27.9896 120.231 28.0612C 120.05 28.1634 119.794 28.3336 119.61 28.4703C 119.286 28.713 118.83 29.0885 118.328 29.5225C 117.344 30.3739 115.973 31.6229 114.376 33.1107C 111.19 36.0793 107.001 40.0927 102.843 44.1126C 98.6851 48.1325 94.5453 52.1721 91.4481 55.2038C 89.8991 56.72 88.6092 57.9857 87.7073 58.8716C 87.2562 59.3147 86.9017 59.6633 86.6602 59.9008C 86.5394 60.0197 86.4467 60.1109 86.3843 60.1723C 86.353 60.2031 86.3293 60.2265 86.3134 60.2421C 86.3055 60.2499 86.2994 60.2559 86.2954 60.2598C 86.2934 60.2618 86.2919 60.2633 86.2909 60.2643C 86.2903 60.2648 86.29 60.2652 86.2897 60.2654C 86.2894 60.2657 86.2893 60.2659 88.0435 62.047ZM 123.304 28.4009L 91.47 -1.8133L 88.0279 1.8133L 119.862 32.0275L 123.304 28.4009ZM 1.19301 41.4482C -3.25292 45.6679 -3.17044 52.3345 -1.23616 58.5681C 0.724753 64.8261 4.95436 71.8566 10.1377 77.5856C 15.3484 83.3271 21.8138 88.1811 28.5383 90.2531C 35.3926 92.3651 42.5816 91.5735 48.5768 85.8833L 45.1348 82.2568C 40.6776 86.4872 35.4621 87.1546 30.0106 85.4748C 24.4294 83.755 18.6875 79.5665 13.8403 74.2254C 8.96581 68.8719 5.28687 62.7799 3.53923 57.0863C 1.76495 51.3683 2.33888 47.2541 4.63508 45.0748L 1.19301 41.4482ZM 45.281 3.56013C 25.8746 18.4728 18.8701 24.7094 1.19509 41.4462L 4.633 45.0767C 22.2522 28.392 29.0626 22.3247 48.3273 7.52497L 45.281 3.56013Z"/>
<path id="path17_fill" d="M 0 7.51203C 0 3.36325 3.36325 0 7.51203 0L 38.2667 0C 42.4154 0 45.7787 3.36325 45.7787 7.51203L 45.7787 7.51203C 45.7787 11.6608 42.4154 15.0241 38.2667 15.0241L 7.51203 15.0241C 3.36325 15.0241 0 11.6608 0 7.51203L 0 7.51203Z"/>
<path id="path18_fill" d="M 0 7.20138C 0 3.22417 3.22417 0 7.20138 0L 31.1149 0C 35.0921 0 38.3163 3.22417 38.3163 7.20138L 38.3163 7.20138C 38.3163 11.1786 35.0921 14.4028 31.1149 14.4028L 7.20138 14.4028C 3.22417 14.4028 0 11.1786 0 7.20138L 0 7.20138Z"/>
<path id="path19_fill" d="M 0 7.20138C 0 3.22417 3.22417 0 7.20138 0L 46.4414 0C 50.4186 0 53.6428 3.22417 53.6428 7.20138L 53.6428 10.3951C 53.6428 12.6085 51.8485 14.4028 49.6351 14.4028L 49.6351 14.4028L 49.6351 14.4028L 7.20138 14.4028C 3.22417 14.4028 0 11.1786 0 7.20138L 0 7.20138Z"/>
<path id="path20_fill" d="M 0 7.09469C 0 3.1764 3.1764 0 7.09469 0L 50.9661 0C 54.8844 0 58.0608 3.1764 58.0608 7.09469L 58.0608 12.1763C 58.0608 13.2881 57.1595 14.1894 56.0477 14.1894L 56.0477 14.1894L 56.0477 14.1894L 7.09469 14.1894C 3.1764 14.1894 0 11.013 0 7.09469L 0 7.09469Z"/>
<path id="path21_stroke" d="M 45.7787 2C 46.8833 2 47.7787 1.10457 47.7787 0C 47.7787 -1.10457 46.8833 -2 45.7787 -2L 45.7787 2ZM 42.6337 16.8312C 43.7383 16.8312 44.6337 15.9358 44.6337 14.8312C 44.6337 13.7266 43.7383 12.8312 42.6337 12.8312L 42.6337 16.8312ZM 7.41559 2L 45.7787 2L 45.7787 -2L 7.41559 -2L 7.41559 2ZM 42.6337 12.8312L 7.41559 12.8312L 7.41559 16.8312L 42.6337 16.8312L 42.6337 12.8312ZM 7.41559 -2C 2.2155 -2 -2 2.21551 -2 7.41559L 2 7.41559C 2 4.42464 4.42464 2 7.41559 2L 7.41559 -2ZM -2 7.41559C -2 12.6157 2.2155 16.8312 7.41559 16.8312L 7.41559 12.8312C 4.42464 12.8312 2 10.4065 2 7.41559L -2 7.41559Z"/>
<path id="path22_stroke" d="M 58.0608 2C 59.1653 2 60.0608 1.10457 60.0608 0C 60.0608 -1.10457 59.1653 -2 58.0608 -2L 58.0608 2ZM 55.0826 16.0072C 56.1871 16.0072 57.0826 15.1118 57.0826 14.0072C 57.0826 12.9027 56.1871 12.0072 55.0826 12.0072L 55.0826 16.0072ZM 7.00362 2L 58.0608 2L 58.0608 -2L 7.00362 -2L 7.00362 2ZM 55.0826 12.0072L 7.00362 12.0072L 7.00362 16.0072L 55.0826 16.0072L 55.0826 12.0072ZM 7.00362 -2C 2.03106 -2 -2 2.03106 -2 7.00362L 2 7.00362C 2 4.2402 4.2402 2 7.00362 2L 7.00362 -2ZM -2 7.00362C -2 11.9762 2.03106 16.0072 7.00362 16.0072L 7.00362 12.0072C 4.2402 12.0072 2 9.76704 2 7.00362L -2 7.00362Z"/>
<path id="path23_stroke" d="M 53.6428 2C 54.7473 2 55.6428 1.10457 55.6428 0C 55.6428 -1.10457 54.7473 -2 53.6428 -2L 53.6428 2ZM 49.2865 16.7474C 50.391 16.7474 51.2865 15.8519 51.2865 14.7474C 51.2865 13.6428 50.391 12.7474 49.2865 12.7474L 49.2865 16.7474ZM 7.37368 2L 53.6428 2L 53.6428 -2L 7.37368 -2L 7.37368 2ZM 49.2865 12.7474L 7.37368 12.7474L 7.37368 16.7474L 49.2865 16.7474L 49.2865 12.7474ZM 7.37368 -2C 2.19674 -2 -2 2.19674 -2 7.37368L 2 7.37368C 2 4.40588 4.40588 2 7.37368 2L 7.37368 -2ZM -2 7.37368C -2 12.5506 2.19674 16.7474 7.37368 16.7474L 7.37368 12.7474C 4.40588 12.7474 2 10.3415 2 7.37368L -2 7.37368Z"/>
<path id="path24_stroke" d="M 38.3163 16.2179C 39.4208 16.2179 40.3163 15.3224 40.3163 14.2179C 40.3163 13.1133 39.4208 12.2179 38.3163 12.2179L 38.3163 16.2179ZM 32.793 2C 33.8976 2 34.793 1.10457 34.793 0C 34.793 -1.10457 33.8976 -2 32.793 -2L 32.793 2ZM 38.3163 12.2179L 7.10893 12.2179L 7.10893 16.2179L 38.3163 16.2179L 38.3163 12.2179ZM 7.10893 2L 32.793 2L 32.793 -2L 7.10893 -2L 7.10893 2ZM 2 7.10893C 2 4.28735 4.28735 2 7.10893 2L 7.10893 -2C 2.07821 -2 -2 2.07821 -2 7.10893L 2 7.10893ZM 7.10893 12.2179C 4.28735 12.2179 2 9.93052 2 7.10893L -2 7.10893C -2 12.1397 2.07821 16.2179 7.10893 16.2179L 7.10893 12.2179Z"/>
<path id="path25_fill" d="M 13.0132 2.16403L 27.2659 16.3848C 30.1577 19.2702 30.1577 24.0105 27.2659 26.8958L 26.956 27.205C 24.0642 30.0904 19.3133 30.0904 16.4215 27.205L 2.16887 12.9842C -0.722965 10.0988 -0.722965 5.35856 2.16887 2.47318L 2.47871 2.16403C 5.42219 -0.721344 10.1214 -0.721344 13.0132 2.16403Z"/>
<path id="path26_stroke" d="M 13.0132 2.16403L 11.2475 3.93377L 13.0132 2.16403ZM 27.2659 16.3848L 29.0317 14.6151L 27.2659 16.3848ZM 27.2659 26.8958L 25.5001 25.1261L 27.2659 26.8958ZM 26.956 27.205L 28.7218 28.9747L 26.956 27.205ZM 16.4215 27.205L 14.6557 28.9747L 16.4215 27.205ZM 2.16887 12.9842L 3.93466 11.2145L 2.16887 12.9842ZM 2.47871 2.16403L 0.728651 0.378734L 0.720752 0.386478L 0.712922 0.394291L 2.47871 2.16403ZM 11.2475 3.93377L 25.5001 18.1546L 29.0317 14.6151L 14.779 0.394291L 11.2475 3.93377ZM 25.5001 18.1546C 27.413 20.0632 27.413 23.2175 25.5001 25.1261L 29.0317 28.6656C 32.9024 24.8034 32.9024 18.4772 29.0317 14.6151L 25.5001 18.1546ZM 25.5001 25.1261L 25.1902 25.4352L 28.7218 28.9747L 29.0317 28.6656L 25.5001 25.1261ZM 25.1902 25.4352C 23.2743 27.3469 20.1032 27.3469 18.1873 25.4352L 14.6557 28.9747C 18.5234 32.8338 24.8541 32.8338 28.7218 28.9747L 25.1902 25.4352ZM 18.1873 25.4352L 3.93466 11.2145L 0.403079 14.7539L 14.6557 28.9747L 18.1873 25.4352ZM 3.93466 11.2145C 2.02177 9.30584 2.02177 6.15154 3.93466 4.24292L 0.403079 0.703441C -3.4677 4.56558 -3.4677 10.8918 0.403079 14.7539L 3.93466 11.2145ZM 3.93466 4.24292L 4.2445 3.93377L 0.712922 0.394291L 0.403079 0.703441L 3.93466 4.24292ZM 4.22877 3.94933C 6.20882 2.00837 9.34002 2.0306 11.2475 3.93377L 14.779 0.394291C 10.9028 -3.47329 4.63555 -3.45105 0.728651 0.378734L 4.22877 3.94933Z"/>
<path id="path27_fill" d="M 79.5771 71.0524L 101.782 93.208C 104.777 96.1964 104.777 101.04 101.782 103.977C 98.7871 106.965 93.933 106.965 90.9895 103.977L 68.7843 81.821C 65.7892 78.8326 65.7892 73.9893 68.7843 71.0524C 71.7278 68.064 76.582 68.064 79.5771 71.0524ZM 90.06 59.7685L 111.387 81.0482C 114.382 84.0366 114.382 88.8799 111.387 91.8168C 108.392 94.8052 103.538 94.8052 100.595 91.8168L 79.2672 70.5372C 76.2721 67.5487 76.2721 62.7054 79.2672 59.7685C 82.2107 56.7801 87.1165 56.7801 90.06 59.7685ZM 107.153 55.1313L 118.875 66.8274C 121.87 69.8158 121.87 74.6591 118.875 77.596C 115.88 80.5844 111.026 80.5844 108.082 77.596L 96.36 65.8999C 93.3649 62.9115 93.3649 58.0682 96.36 55.1313C 99.3551 52.1944 104.209 52.1944 107.153 55.1313ZM 1.57592e-06 33.8001L 20.8625 54.616L 51.2268 24.7318L 68.9909 42.4563C 76.427 49.8758 86.1353 45.1355 88.6141 41.838C 91.0928 38.5404 70.8499 14.633 63.4138 8.03783C 55.9776 1.44268 46.0628 12.572 46.0628 12.572L 33.4627 1.57241e-06L 1.57592e-06 33.8001L 1.57592e-06 33.8001Z"/>
<path id="path28_stroke" d="M 79.5771 71.0524L 77.8113 72.8221L 79.5771 71.0524ZM 101.782 93.208L 100.016 94.9777L 101.782 93.208ZM 101.782 103.977L 100.032 102.192L 100.024 102.199L 100.016 102.207L 101.782 103.977ZM 90.9895 103.977L 92.7706 102.222L 92.763 102.215L 92.7553 102.207L 90.9895 103.977ZM 68.7843 81.821L 70.5501 80.0513L 68.7843 81.821ZM 68.7843 71.0524L 70.5347 72.8374L 70.5502 72.8222L 70.5654 72.8067L 68.7843 71.0524ZM 90.06 59.7685L 88.2789 61.5228L 88.2865 61.5306L 88.2942 61.5382L 90.06 59.7685ZM 111.387 81.0482L 109.621 82.8179L 109.621 82.8179L 111.387 81.0482ZM 111.387 91.8168L 109.637 90.0318L 109.629 90.0394L 109.621 90.0471L 111.387 91.8168ZM 100.595 91.8168L 102.376 90.0625L 102.368 90.0547L 102.36 90.0471L 100.595 91.8168ZM 79.2672 70.5372L 77.5014 72.3069L 77.5014 72.3069L 79.2672 70.5372ZM 79.2672 59.7685L 81.0176 61.5535L 81.0331 61.5383L 81.0483 61.5228L 79.2672 59.7685ZM 107.153 55.1313L 105.387 56.901L 107.153 55.1313ZM 118.875 66.8274L 117.109 68.5971L 118.875 66.8274ZM 118.875 77.596L 117.125 75.811L 117.117 75.8186L 117.109 75.8263L 118.875 77.596ZM 108.082 77.596L 109.863 75.8417L 109.856 75.8339L 109.848 75.8263L 108.082 77.596ZM 96.36 65.8999L 94.5942 67.6697L 94.5942 67.6697L 96.36 65.8999ZM 20.8625 54.616L 19.0967 56.3858L 20.8505 58.1356L 22.6162 56.3978L 20.8625 54.616ZM 51.2268 24.7318L 52.9926 22.9621L 51.2388 21.2122L 49.4731 22.95L 51.2268 24.7318ZM 68.9909 42.4563L 67.2251 44.226L 67.2251 44.226L 68.9909 42.4563ZM 63.4138 8.03783L 61.755 9.9082L 63.4138 8.03783ZM 46.0628 12.572L 44.297 14.3417L 46.1697 16.2103L 47.9295 14.235L 46.0628 12.572ZM 33.4627 1.57241e-06L 35.2284 -1.76974L 33.4518 -3.54243L 31.686 -1.75887L 33.4627 1.57241e-06ZM 77.8113 72.8221L 100.016 94.9777L 103.548 91.4382L 81.3429 69.2827L 77.8113 72.8221ZM 100.016 94.9777C 102.041 96.998 102.019 100.243 100.032 102.192L 103.533 105.762C 107.536 101.836 107.513 95.3948 103.548 91.4382L 100.016 94.9777ZM 100.016 102.207C 97.9886 104.23 94.7264 104.208 92.7706 102.222L 89.2084 105.731C 93.1396 109.722 99.5856 109.7 103.548 105.746L 100.016 102.207ZM 92.7553 102.207L 70.5501 80.0513L 67.0185 83.5908L 89.2237 105.746L 92.7553 102.207ZM 70.5501 80.0513C 68.5254 78.031 68.5477 74.7858 70.5347 72.8374L 67.034 69.2674C 63.0307 73.1928 63.0531 79.6342 67.0185 83.5908L 70.5501 80.0513ZM 70.5654 72.8067C 72.5212 70.8211 75.7834 70.7988 77.8113 72.8221L 81.3429 69.2827C 77.3805 65.3291 70.9344 65.3069 67.0032 69.2981L 70.5654 72.8067ZM 88.2942 61.5382L 109.621 82.8179L 113.153 79.2784L 91.8258 57.9988L 88.2942 61.5382ZM 109.621 82.8179C 111.646 84.8382 111.624 88.0834 109.637 90.0318L 113.138 93.6018C 117.141 89.6764 117.118 83.235 113.153 79.2784L 109.621 82.8179ZM 109.621 90.0471C 107.594 92.0704 104.331 92.0481 102.376 90.0625L 98.8134 93.5711C 102.745 97.5623 109.191 97.5401 113.153 93.5865L 109.621 90.0471ZM 102.36 90.0471L 81.033 68.7674L 77.5014 72.3069L 98.8287 93.5865L 102.36 90.0471ZM 81.033 68.7674C 79.0082 66.7472 79.0306 63.5019 81.0176 61.5535L 77.5169 57.9835C 73.5136 61.9089 73.536 68.3503 77.5014 72.3069L 81.033 68.7674ZM 81.0483 61.5228C 83.0125 59.5286 86.3147 59.5286 88.2789 61.5228L 91.8411 58.0142C 87.9183 54.0315 81.4089 54.0315 77.4861 58.0142L 81.0483 61.5228ZM 105.387 56.901L 117.109 68.5971L 120.641 65.0576L 108.919 53.3616L 105.387 56.901ZM 117.109 68.5971C 119.134 70.6174 119.112 73.8626 117.125 75.811L 120.625 79.381C 124.629 75.4556 124.606 69.0142 120.641 65.0576L 117.109 68.5971ZM 117.109 75.8263C 115.081 77.8496 111.819 77.8273 109.863 75.8417L 106.301 79.3503C 110.232 83.3416 116.678 83.3193 120.641 79.3658L 117.109 75.8263ZM 109.848 75.8263L 98.1258 64.1302L 94.5942 67.6697L 106.317 79.3658L 109.848 75.8263ZM 98.1258 64.1302C 96.1011 62.11 96.1234 58.8647 98.1104 56.9163L 94.6097 53.3463C 90.6064 57.2717 90.6288 63.7131 94.5942 67.6697L 98.1258 64.1302ZM 98.1104 56.9163C 100.142 54.9243 103.428 54.9462 105.387 56.901L 108.919 53.3616C 104.991 49.4426 98.5685 49.4644 94.6097 53.3463L 98.1104 56.9163ZM -1.76579 35.5699L 19.0967 56.3858L 22.6283 52.8463L 1.76579 32.0304L -1.76579 35.5699ZM 22.6162 56.3978L 52.9804 26.5136L 49.4731 22.95L 19.1089 52.8343L 22.6162 56.3978ZM 49.461 26.5015L 67.2251 44.226L 70.7567 40.6865L 52.9926 22.9621L 49.461 26.5015ZM 67.2251 44.226C 71.6111 48.6023 76.7672 49.4189 81.1108 48.6253C 85.2831 47.8631 88.9319 45.5758 90.6124 43.3401L 86.6157 40.3358C 85.8175 41.3977 83.3728 43.1293 80.2122 43.7067C 77.2229 44.2528 73.8068 43.7298 70.7567 40.6865L 67.2251 44.226ZM 90.6124 43.3401C 91.2418 42.5028 91.3455 41.564 91.3193 40.8902C 91.2871 40.3122 91.1225 39.533 90.9171 38.9114C 90.5248 37.7658 89.7947 36.2986 88.9182 34.8177C 87.1932 31.914 84.568 28.2757 81.6961 24.6278C 75.9605 17.3467 68.8895 9.55761 65.0726 6.16747L 61.755 9.9082C 65.3742 13.1132 72.1427 20.5754 77.7679 27.7212C 80.5763 31.2867 83.0119 34.6557 84.6176 37.3682C 85.4066 38.6954 85.9093 39.6885 86.1787 40.5073C 86.304 40.8679 86.3187 41.2223 86.3231 41.0846C 86.3214 41.0661 86.3238 41.0354 86.325 41.0357C 86.3227 41.0446 86.3549 40.857 86.3502 40.8853C 86.3829 40.7492 86.4568 40.5471 86.6157 40.3358L 90.6124 43.3401ZM 65.0726 6.16747C 60.1145 1.77009 54.4107 3.5348 50.7044 5.66398C 48.8347 6.74691 47.1535 8.09199 46.0566 9.07714C 45.4931 9.5846 45.0202 10.0485 44.7179 10.3568C 44.56 10.518 44.428 10.6573 44.3467 10.7446C 44.3029 10.7916 44.2649 10.833 44.2428 10.8573C 44.2302 10.8711 44.2184 10.8841 44.2121 10.8911C 44.2083 10.8954 44.2042 10.8999 44.2023 10.9021C 44.2009 10.9036 44.1994 10.9053 44.1987 10.9061C 44.1982 10.9067 44.1976 10.9074 44.1973 10.9077C 44.1967 10.9084 44.1961 10.909 46.0628 12.572C 47.9295 14.235 47.929 14.2356 47.9285 14.2361C 47.9284 14.2362 47.928 14.2367 47.9277 14.2369C 47.9278 14.2368 47.9268 14.238 47.9269 14.2379C 47.9264 14.2384 47.9269 14.2378 47.9278 14.2368C 47.9311 14.2331 47.9337 14.2303 47.9401 14.2232C 47.956 14.2058 47.9746 14.1855 48.0052 14.1527C 48.0727 14.0801 48.161 13.9868 48.2888 13.8566C 48.5577 13.582 48.9175 13.2279 49.3998 12.7951C 50.3942 11.8996 51.6566 10.8745 53.195 9.9995C 56.3052 8.2128 59.2769 7.71043 61.755 9.9082L 65.0726 6.16747ZM 47.8286 10.8023L 35.2284 -1.76974L 31.6969 1.76974L 44.297 14.3417L 47.8286 10.8023ZM 31.686 -1.75887L -1.77661 32.0412L 1.77662 35.559L 35.2393 1.75888L 31.686 -1.75887Z"/>
<path id="path29_fill" d="M 34.9086 26.8443L 22.2051 40.0861Z"/>
<path id="path30_fill" d="M 0 1.57417e-06L 62.724 1.57417e-06L 62.724 20.8908L 0 20.8908L 0 1.57417e-06Z"/>
<path id="path31_stroke" d="M 0 1.57417e-06L 0 -2.5L -2.5 -2.5L -2.5 1.57417e-06L 0 1.57417e-06ZM 62.724 1.57417e-06L 65.224 1.57417e-06L 65.224 -2.5L 62.724 -2.5L 62.724 1.57417e-06ZM 62.724 20.8908L 62.724 23.3908L 65.224 23.3908L 65.224 20.8908L 62.724 20.8908ZM 0 20.8908L -2.5 20.8908L -2.5 23.3908L 0 23.3908L 0 20.8908ZM 0 2.5L 62.724 2.5L 62.724 -2.5L 0 -2.5L 0 2.5ZM 60.224 1.57417e-06L 60.224 20.8908L 65.224 20.8908L 65.224 1.57417e-06L 60.224 1.57417e-06ZM 62.724 18.3908L 0 18.3908L 0 23.3908L 62.724 23.3908L 62.724 18.3908ZM 2.5 20.8908L 2.5 1.57417e-06L -2.5 1.57417e-06L -2.5 20.8908L 2.5 20.8908Z"/>
</defs>
</svg>
