<svg width="426" height="281" viewBox="0 0 426 281" version="1.1" xmlns="http://www.w3.org/2000/svg" xmlns:xlink="http://www.w3.org/1999/xlink">
<title>&#208;&#158;&#209;&#132;&#208;&#190;&#209;&#128;&#208;&#188;&#208;&#184;&#209;&#130;&#209;&#140; &#208;&#191;&#209;&#128;&#208;&#190;&#209;&#129;&#209;&#130;&#208;&#190;</title>
<desc>Created using Figma</desc>
<g id="Canvas" transform="translate(-515 -2115)">
<clipPath id="clip-0" clip-rule="evenodd">
<path d="M 515 2115L 941 2115L 941 2396L 515 2396L 515 2115Z" fill="#FFFFFF"/>
</clipPath>
<g id="&#208;&#158;&#209;&#132;&#208;&#190;&#209;&#128;&#208;&#188;&#208;&#184;&#209;&#130;&#209;&#140; &#208;&#191;&#209;&#128;&#208;&#190;&#209;&#129;&#209;&#130;&#208;&#190;" clip-path="url(#clip-0)">
<g id="Group 2">
<g id="Vector">
<use xlink:href="#path0_fill" transform="matrix(1 -5.55112e-17 5.55112e-17 1 578 2126)" fill="#FFFFFF"/>
<mask id="mask0_outline_ins">
<use xlink:href="#path0_fill" fill="white" transform="matrix(1 -5.55112e-17 5.55112e-17 1 578 2126)"/>
</mask>
<g mask="url(#mask0_outline_ins)">
<use xlink:href="#path1_stroke_2x" transform="matrix(1 -5.55112e-17 5.55112e-17 1 578 2126)" fill="#EAEAEA"/>
</g>
</g>
<g id="icon">
<g id="money 2">
<g id="Group">
<g id="Group">
<g id="credit-card">
<g id="XMLID 69">
<g id="XMLID 115">
<mask id="mask1_outline_ins">
<use xlink:href="#path2_fill" fill="white" transform="translate(517 2287)"/>
</mask>
<g mask="url(#mask1_outline_ins)">
<use xlink:href="#path3_stroke_2x" transform="translate(517 2287)" fill="#D9D2D2"/>
</g>
</g>
<g id="XMLID 114">
<mask id="mask2_outline_ins">
<use xlink:href="#path4_fill" fill="white" transform="translate(517 2296.05)"/>
</mask>
<g mask="url(#mask2_outline_ins)">
<use xlink:href="#path5_stroke_2x" transform="translate(517 2296.05)" fill="#D9D2D2"/>
</g>
</g>
<g id="001-coin">
<g id="XMLID 20">
<g id="XMLID 122">
<mask id="mask3_outline_ins">
<use xlink:href="#path6_fill" fill="white" transform="matrix(0.714584 -0.69955 0.69955 0.714584 538.345 2247.2)"/>
</mask>
<g mask="url(#mask3_outline_ins)">
<use xlink:href="#path7_stroke_2x" transform="matrix(0.714584 -0.69955 0.69955 0.714584 538.345 2247.2)" fill="#D9D2D2"/>
</g>
</g>
<g id="XMLID 121">
<mask id="mask4_outline_ins">
<use xlink:href="#path8_fill" fill="white" transform="matrix(0.714584 -0.69955 0.69955 0.714584 542.207 2247.28)"/>
</mask>
<g mask="url(#mask4_outline_ins)">
<use xlink:href="#path9_stroke_2x" transform="matrix(0.714584 -0.69955 0.69955 0.714584 542.207 2247.28)" fill="#D9D2D2"/>
</g>
</g>
<g id="XMLID 120">
<mask id="mask5_outline_ins">
<use xlink:href="#path10_fill" fill="white" transform="matrix(0.714584 -0.69955 0.69955 0.714584 549.135 2254.36)"/>
</mask>
<g mask="url(#mask5_outline_ins)">
<use xlink:href="#path11_stroke_2x" transform="matrix(0.714584 -0.69955 0.69955 0.714584 549.135 2254.36)" fill="#D9D2D2"/>
</g>
</g>
<g id="XMLID 117">
<mask id="mask6_outline_ins">
<use xlink:href="#path12_fill" fill="white" transform="matrix(0.714584 -0.69955 0.69955 0.714584 534 2251.45)"/>
</mask>
<g mask="url(#mask6_outline_ins)">
<use xlink:href="#path13_stroke_2x" transform="matrix(0.714584 -0.69955 0.69955 0.714584 534 2251.45)" fill="#D9D2D2"/>
</g>
</g>
<g id="XMLID 116">
<mask id="mask7_outline_ins">
<use xlink:href="#path14_fill" fill="white" transform="matrix(0.714584 -0.69955 0.69955 0.714584 538.412 2250.03)"/>
</mask>
<g mask="url(#mask7_outline_ins)">
<use xlink:href="#path15_stroke_2x" transform="matrix(0.714584 -0.69955 0.69955 0.714584 538.412 2250.03)" fill="#D9D2D2"/>
</g>
</g>
<g id="XMLID 115">
<mask id="mask8_outline_ins">
<use xlink:href="#path16_fill" fill="white" transform="matrix(0.714584 -0.69955 0.69955 0.714584 562.535 2274.67)"/>
</mask>
<g mask="url(#mask8_outline_ins)">
<use xlink:href="#path17_stroke_2x" transform="matrix(0.714584 -0.69955 0.69955 0.714584 562.535 2274.67)" fill="#D9D2D2"/>
</g>
</g>
<g id="XMLID 114">
<mask id="mask9_outline_ins">
<use xlink:href="#path18_fill" fill="white" transform="matrix(0.714584 -0.69955 0.69955 0.714584 539.244 2253.07)"/>
</mask>
<g mask="url(#mask9_outline_ins)">
<use xlink:href="#path19_stroke_2x" transform="matrix(0.714584 -0.69955 0.69955 0.714584 539.244 2253.07)" fill="#D9D2D2"/>
</g>
</g>
<g id="XMLID 113">
<mask id="mask10_outline_ins">
<use xlink:href="#path20_fill" fill="white" transform="matrix(0.714584 -0.69955 0.69955 0.714584 559.508 2273.77)"/>
</mask>
<g mask="url(#mask10_outline_ins)">
<use xlink:href="#path21_stroke_2x" transform="matrix(0.714584 -0.69955 0.69955 0.714584 559.508 2273.77)" fill="#D9D2D2"/>
</g>
</g>
<g id="XMLID 112">
<mask id="mask11_outline_ins">
<use xlink:href="#path22_fill" fill="white" transform="matrix(0.714584 -0.69955 0.69955 0.714584 540.429 2255.78)"/>
</mask>
<g mask="url(#mask11_outline_ins)">
<use xlink:href="#path23_stroke_2x" transform="matrix(0.714584 -0.69955 0.69955 0.714584 540.429 2255.78)" fill="#D9D2D2"/>
</g>
</g>
<g id="XMLID 111">
<mask id="mask12_outline_ins">
<use xlink:href="#path24_fill" fill="white" transform="matrix(0.714584 -0.69955 0.69955 0.714584 556.833 2272.53)"/>
</mask>
<g mask="url(#mask12_outline_ins)">
<use xlink:href="#path25_stroke_2x" transform="matrix(0.714584 -0.69955 0.69955 0.714584 556.833 2272.53)" fill="#D9D2D2"/>
</g>
</g>
<g id="XMLID 110">
<mask id="mask13_outline_ins">
<use xlink:href="#path26_fill" fill="white" transform="matrix(0.714584 -0.69955 0.69955 0.714584 541.843 2258.25)"/>
</mask>
<g mask="url(#mask13_outline_ins)">
<use xlink:href="#path27_stroke_2x" transform="matrix(0.714584 -0.69955 0.69955 0.714584 541.843 2258.25)" fill="#D9D2D2"/>
</g>
</g>
<g id="XMLID 109">
<mask id="mask14_outline_ins">
<use xlink:href="#path28_fill" fill="white" transform="matrix(0.714584 -0.69955 0.69955 0.714584 554.387 2271.06)"/>
</mask>
<g mask="url(#mask14_outline_ins)">
<use xlink:href="#path29_stroke_2x" transform="matrix(0.714584 -0.69955 0.69955 0.714584 554.387 2271.06)" fill="#D9D2D2"/>
</g>
</g>
<g id="XMLID 108">
<mask id="mask15_outline_ins">
<use xlink:href="#path30_fill" fill="white" transform="matrix(0.714584 -0.69955 0.69955 0.714584 543.848 2261.11)"/>
</mask>
<g mask="url(#mask15_outline_ins)">
<use xlink:href="#path31_stroke_2x" transform="matrix(0.714584 -0.69955 0.69955 0.714584 543.848 2261.11)" fill="#D9D2D2"/>
</g>
</g>
<g id="XMLID 107">
<mask id="mask16_outline_ins">
<use xlink:href="#path32_fill" fill="white" transform="matrix(0.714584 -0.69955 0.69955 0.714584 551.568 2269)"/>
</mask>
<g mask="url(#mask16_outline_ins)">
<use xlink:href="#path33_stroke_2x" transform="matrix(0.714584 -0.69955 0.69955 0.714584 551.568 2269)" fill="#D9D2D2"/>
</g>
</g>
<g id="XMLID 106">
<mask id="mask17_outline_ins">
<use xlink:href="#path34_fill" fill="white" transform="matrix(0.714584 -0.69955 0.69955 0.714584 546.079 2263.76)"/>
</mask>
<g mask="url(#mask17_outline_ins)">
<use xlink:href="#path35_stroke_2x" transform="matrix(0.714584 -0.69955 0.69955 0.714584 546.079 2263.76)" fill="#D9D2D2"/>
</g>
</g>
<g id="XMLID 105">
<mask id="mask18_outline_ins">
<use xlink:href="#path36_fill" fill="white" transform="matrix(0.714584 -0.69955 0.69955 0.714584 548.974 2266.71)"/>
</mask>
<g mask="url(#mask18_outline_ins)">
<use xlink:href="#path37_stroke_2x" transform="matrix(0.714584 -0.69955 0.69955 0.714584 548.974 2266.71)" fill="#D9D2D2"/>
</g>
</g>
</g>
</g>
<g id="001-coin">
<g id="XMLID 20">
<g id="XMLID 122">
<mask id="mask19_outline_ins">
<use xlink:href="#path6_fill" fill="white" transform="matrix(0.714584 -0.69955 0.69955 0.714584 568.769 2216.23)"/>
</mask>
<g mask="url(#mask19_outline_ins)">
<use xlink:href="#path7_stroke_2x" transform="matrix(0.714584 -0.69955 0.69955 0.714584 568.769 2216.23)" fill="#D9D2D2"/>
</g>
</g>
<g id="XMLID 121">
<mask id="mask20_outline_ins">
<use xlink:href="#path8_fill" fill="white" transform="matrix(0.714584 -0.69955 0.69955 0.714584 572.63 2216.32)"/>
</mask>
<g mask="url(#mask20_outline_ins)">
<use xlink:href="#path9_stroke_2x" transform="matrix(0.714584 -0.69955 0.69955 0.714584 572.63 2216.32)" fill="#D9D2D2"/>
</g>
</g>
<g id="XMLID 120">
<mask id="mask21_outline_ins">
<use xlink:href="#path10_fill" fill="white" transform="matrix(0.714584 -0.69955 0.69955 0.714584 579.558 2223.39)"/>
</mask>
<g mask="url(#mask21_outline_ins)">
<use xlink:href="#path11_stroke_2x" transform="matrix(0.714584 -0.69955 0.69955 0.714584 579.558 2223.39)" fill="#D9D2D2"/>
</g>
</g>
<g id="XMLID 117">
<mask id="mask22_outline_ins">
<use xlink:href="#path12_fill" fill="white" transform="matrix(0.714584 -0.69955 0.69955 0.714584 564.423 2220.49)"/>
</mask>
<g mask="url(#mask22_outline_ins)">
<use xlink:href="#path13_stroke_2x" transform="matrix(0.714584 -0.69955 0.69955 0.714584 564.423 2220.49)" fill="#D9D2D2"/>
</g>
</g>
<g id="XMLID 116">
<mask id="mask23_outline_ins">
<use xlink:href="#path14_fill" fill="white" transform="matrix(0.714584 -0.69955 0.69955 0.714584 568.835 2219.06)"/>
</mask>
<g mask="url(#mask23_outline_ins)">
<use xlink:href="#path15_stroke_2x" transform="matrix(0.714584 -0.69955 0.69955 0.714584 568.835 2219.06)" fill="#D9D2D2"/>
</g>
</g>
<g id="XMLID 115">
<mask id="mask24_outline_ins">
<use xlink:href="#path16_fill" fill="white" transform="matrix(0.714584 -0.69955 0.69955 0.714584 592.958 2243.71)"/>
</mask>
<g mask="url(#mask24_outline_ins)">
<use xlink:href="#path17_stroke_2x" transform="matrix(0.714584 -0.69955 0.69955 0.714584 592.958 2243.71)" fill="#D9D2D2"/>
</g>
</g>
<g id="XMLID 114">
<mask id="mask25_outline_ins">
<use xlink:href="#path18_fill" fill="white" transform="matrix(0.714584 -0.69955 0.69955 0.714584 569.668 2222.11)"/>
</mask>
<g mask="url(#mask25_outline_ins)">
<use xlink:href="#path19_stroke_2x" transform="matrix(0.714584 -0.69955 0.69955 0.714584 569.668 2222.11)" fill="#D9D2D2"/>
</g>
</g>
<g id="XMLID 113">
<mask id="mask26_outline_ins">
<use xlink:href="#path20_fill" fill="white" transform="matrix(0.714584 -0.69955 0.69955 0.714584 589.931 2242.81)"/>
</mask>
<g mask="url(#mask26_outline_ins)">
<use xlink:href="#path21_stroke_2x" transform="matrix(0.714584 -0.69955 0.69955 0.714584 589.931 2242.81)" fill="#D9D2D2"/>
</g>
</g>
<g id="XMLID 112">
<mask id="mask27_outline_ins">
<use xlink:href="#path22_fill" fill="white" transform="matrix(0.714584 -0.69955 0.69955 0.714584 570.852 2224.81)"/>
</mask>
<g mask="url(#mask27_outline_ins)">
<use xlink:href="#path23_stroke_2x" transform="matrix(0.714584 -0.69955 0.69955 0.714584 570.852 2224.81)" fill="#D9D2D2"/>
</g>
</g>
<g id="XMLID 111">
<mask id="mask28_outline_ins">
<use xlink:href="#path24_fill" fill="white" transform="matrix(0.714584 -0.69955 0.69955 0.714584 587.256 2241.57)"/>
</mask>
<g mask="url(#mask28_outline_ins)">
<use xlink:href="#path25_stroke_2x" transform="matrix(0.714584 -0.69955 0.69955 0.714584 587.256 2241.57)" fill="#D9D2D2"/>
</g>
</g>
<g id="XMLID 110">
<mask id="mask29_outline_ins">
<use xlink:href="#path26_fill" fill="white" transform="matrix(0.714584 -0.69955 0.69955 0.714584 572.266 2227.29)"/>
</mask>
<g mask="url(#mask29_outline_ins)">
<use xlink:href="#path27_stroke_2x" transform="matrix(0.714584 -0.69955 0.69955 0.714584 572.266 2227.29)" fill="#D9D2D2"/>
</g>
</g>
<g id="XMLID 109">
<mask id="mask30_outline_ins">
<use xlink:href="#path28_fill" fill="white" transform="matrix(0.714584 -0.69955 0.69955 0.714584 584.81 2240.1)"/>
</mask>
<g mask="url(#mask30_outline_ins)">
<use xlink:href="#path29_stroke_2x" transform="matrix(0.714584 -0.69955 0.69955 0.714584 584.81 2240.1)" fill="#D9D2D2"/>
</g>
</g>
<g id="XMLID 108">
<mask id="mask31_outline_ins">
<use xlink:href="#path30_fill" fill="white" transform="matrix(0.714584 -0.69955 0.69955 0.714584 574.272 2230.15)"/>
</mask>
<g mask="url(#mask31_outline_ins)">
<use xlink:href="#path31_stroke_2x" transform="matrix(0.714584 -0.69955 0.69955 0.714584 574.272 2230.15)" fill="#D9D2D2"/>
</g>
</g>
<g id="XMLID 107">
<mask id="mask32_outline_ins">
<use xlink:href="#path32_fill" fill="white" transform="matrix(0.714584 -0.69955 0.69955 0.714584 581.991 2238.03)"/>
</mask>
<g mask="url(#mask32_outline_ins)">
<use xlink:href="#path33_stroke_2x" transform="matrix(0.714584 -0.69955 0.69955 0.714584 581.991 2238.03)" fill="#D9D2D2"/>
</g>
</g>
<g id="XMLID 106">
<mask id="mask33_outline_ins">
<use xlink:href="#path34_fill" fill="white" transform="matrix(0.714584 -0.69955 0.69955 0.714584 576.502 2232.79)"/>
</mask>
<g mask="url(#mask33_outline_ins)">
<use xlink:href="#path35_stroke_2x" transform="matrix(0.714584 -0.69955 0.69955 0.714584 576.502 2232.79)" fill="#D9D2D2"/>
</g>
</g>
<g id="XMLID 105">
<mask id="mask34_outline_ins">
<use xlink:href="#path36_fill" fill="white" transform="matrix(0.714584 -0.69955 0.69955 0.714584 579.397 2235.75)"/>
</mask>
<g mask="url(#mask34_outline_ins)">
<use xlink:href="#path37_stroke_2x" transform="matrix(0.714584 -0.69955 0.69955 0.714584 579.397 2235.75)" fill="#D9D2D2"/>
</g>
</g>
</g>
</g>
</g>
</g>
</g>
</g>
</g>
<g id="Rectangle 26">
<use xlink:href="#path38_stroke" transform="translate(808 2140)" fill="#D9D2D2"/>
</g>
<g id="Vector">
<use xlink:href="#path39_fill" transform="matrix(0.248732 -0.968572 -0.968572 -0.248732 927.68 2262.06)" fill="#FFFFFF"/>
<mask id="mask35_outline_ins">
<use xlink:href="#path39_fill" fill="white" transform="matrix(0.248732 -0.968572 -0.968572 -0.248732 927.68 2262.06)"/>
</mask>
<g mask="url(#mask35_outline_ins)">
<use xlink:href="#path40_stroke_2x" transform="matrix(0.248732 -0.968572 -0.968572 -0.248732 927.68 2262.06)" fill="#D9D2D2"/>
</g>
</g>
<g id="Rectangle 27">
<mask id="mask36_outline_ins">
<use xlink:href="#path41_fill" fill="white" transform="translate(817 2167)"/>
</mask>
<g mask="url(#mask36_outline_ins)">
<use xlink:href="#path42_stroke_2x" transform="translate(817 2167)" fill="#D9D2D2"/>
</g>
</g>
<g id="Rectangle 27">
<mask id="mask37_outline_ins">
<use xlink:href="#path41_fill" fill="white" transform="translate(817 2185)"/>
</mask>
<g mask="url(#mask37_outline_ins)">
<use xlink:href="#path42_stroke_2x" transform="translate(817 2185)" fill="#D9D2D2"/>
</g>
</g>
<g id="Rectangle 27">
<mask id="mask38_outline_ins">
<use xlink:href="#path41_fill" fill="white" transform="translate(817 2203)"/>
</mask>
<g mask="url(#mask38_outline_ins)">
<use xlink:href="#path42_stroke_2x" transform="translate(817 2203)" fill="#EAEAEA"/>
</g>
</g>
<g id="Rectangle 27">
<mask id="mask39_outline_ins">
<use xlink:href="#path41_fill" fill="white" transform="translate(817 2222)"/>
</mask>
<g mask="url(#mask39_outline_ins)">
<use xlink:href="#path42_stroke_2x" transform="translate(817 2222)" fill="#D9D2D2"/>
</g>
</g>
<g id="Rectangle 27">
<mask id="mask40_outline_ins">
<use xlink:href="#path43_fill" fill="white" transform="translate(824 2254)"/>
</mask>
<g mask="url(#mask40_outline_ins)">
<use xlink:href="#path44_stroke_2x" transform="translate(824 2254)" fill="#D9D2D2"/>
</g>
</g>
<g id="Vector">
<use xlink:href="#path0_fill" transform="matrix(1 -5.55112e-17 5.55112e-17 1 579 2125)" fill="#FFFFFF"/>
<mask id="mask41_outline_out">
<rect id="mask41_outline_inv" fill="white" x="-2" y="-2" width="265" height="265" transform="matrix(1 -5.55112e-17 5.55112e-17 1 579 2125)"/>
<use xlink:href="#path0_fill" fill="black" transform="matrix(1 -5.55112e-17 5.55112e-17 1 579 2125)"/>
</mask>
<g mask="url(#mask41_outline_out)">
<use xlink:href="#path45_stroke_2x" transform="matrix(1 -5.55112e-17 5.55112e-17 1 579 2125)" fill="#D9D2D2"/>
</g>
</g>
</g>
<g id="Group">
<g id="passport">
<g id="Group">
<clipPath id="clip-1" clip-rule="evenodd">
<path d="M 651.001 2184.72L 764.271 2184.72L 764.271 2329L 651.001 2329L 651.001 2184.72Z" fill="#FFFFFF"/>
</clipPath>
<g id="Group" clip-path="url(#clip-1)">
</g>
</g>
<g id="Group">
<clipPath id="clip-2" clip-rule="evenodd">
<path d="M 651 2184.72L 669.063 2184.72L 669.063 2272.33L 651 2272.33L 651 2184.72Z" fill="#FFFFFF"/>
</clipPath>
<g id="Group" clip-path="url(#clip-2)">
</g>
</g>
</g>
<g id="Group">
<g id="Group">
<g id="Vector">
<use xlink:href="#path46_fill" transform="translate(673.718 2282.6)"/>
</g>
</g>
</g>
<g id="Group">
<g id="Group">
<g id="Vector">
<use xlink:href="#path47_fill" transform="translate(673.718 2292.76)"/>
</g>
</g>
</g>
<g id="Rectangle 26">
<use xlink:href="#path48_fill" transform="translate(662.241 2189.87)" fill="#FFFFFF"/>
<use xlink:href="#path49_stroke" transform="translate(662.241 2189.87)" fill="#4D4B87"/>
</g>
<g id="Rectangle 26">
<use xlink:href="#path48_fill" transform="translate(651 2183)" fill="#9493C6"/>
<use xlink:href="#path49_stroke" transform="translate(651 2183)" fill="#4D4B87"/>
</g>
<g id="Group">
<g id="Group">
<g id="Group">
<g id="Group">
<g id="Group">
<g id="Group">
<g id="Vector">
<use xlink:href="#path50_fill" transform="translate(671.752 2214.78)" fill="#4D4B87"/>
<use xlink:href="#path51_stroke" transform="translate(671.752 2214.78)" fill="#4D4B87"/>
</g>
</g>
</g>
</g>
<g id="Vector">
<use xlink:href="#path52_fill" transform="translate(678.796 2227.78)" fill="#FFFFFF"/>
</g>
<g id="Vector">
<use xlink:href="#path53_fill" transform="matrix(-1 0 0 1 730.579 2227.76)" fill="#FFFFFF"/>
</g>
</g>
</g>
</g>
</g>
</g>
</g>
</g>
<defs>
<path id="path0_fill" d="M 130.5 261C 202.573 261 261 202.573 261 130.5C 261 58.4268 202.573 0 130.5 0C 58.4268 0 0 58.4268 0 130.5C 0 202.573 58.4268 261 130.5 261Z"/>
<path id="path1_stroke_2x" d="M 259 130.5C 259 201.469 201.469 259 130.5 259L 130.5 263C 203.678 263 263 203.678 263 130.5L 259 130.5ZM 130.5 259C 59.5314 259 2 201.469 2 130.5L -2 130.5C -2 203.678 57.3223 263 130.5 263L 130.5 259ZM 2 130.5C 2 59.5314 59.5314 2 130.5 2L 130.5 -2C 57.3223 -2 -2 57.3223 -2 130.5L 2 130.5ZM 130.5 2C 201.469 2 259 59.5314 259 130.5L 263 130.5C 263 57.3223 203.678 -2 130.5 -2L 130.5 2Z"/>
<path id="path2_fill" d="M 99.1761 76L 5.82388 76C 2.6069 76 0 73.3943 0 70.1788L 0 5.82124C 0 2.60571 2.6069 0 5.82388 0L 99.1761 0C 102.393 0 105 2.60571 105 5.82124L 105 70.1788C 105 73.3943 102.393 76 99.1761 76Z"/>
<path id="path3_stroke_2x" d="M 99.1761 74L 5.82388 74L 5.82388 78L 99.1761 78L 99.1761 74ZM 5.82388 74C 3.71061 74 2 72.2889 2 70.1788L -2 70.1788C -2 74.4997 1.50318 78 5.82388 78L 5.82388 74ZM 2 70.1788L 2 5.82124L -2 5.82124L -2 70.1788L 2 70.1788ZM 2 5.82124C 2 3.71114 3.71061 2 5.82388 2L 5.82388 -2C 1.50318 -2 -2 1.50029 -2 5.82124L 2 5.82124ZM 5.82388 2L 99.1761 2L 99.1761 -2L 5.82388 -2L 5.82388 2ZM 99.1761 2C 101.289 2 103 3.71114 103 5.82124L 107 5.82124C 107 1.50029 103.497 -2 99.1761 -2L 99.1761 2ZM 103 5.82124L 103 70.1788L 107 70.1788L 107 5.82124L 103 5.82124ZM 103 70.1788C 103 72.2889 101.289 74 99.1761 74L 99.1761 78C 103.497 78 107 74.4997 107 70.1788L 103 70.1788Z"/>
<path id="path4_fill" d="M 105 0L 0 0L 0 14.4762L 105 14.4762L 105 0Z"/>
<path id="path5_stroke_2x" d="M 0 0L 0 -2L -2 -2L -2 0L 0 0ZM 105 0L 107 0L 107 -2L 105 -2L 105 0ZM 105 14.4762L 105 16.4762L 107 16.4762L 107 14.4762L 105 14.4762ZM 0 14.4762L -2 14.4762L -2 16.4762L 0 16.4762L 0 14.4762ZM 0 2L 105 2L 105 -2L 0 -2L 0 2ZM 103 0L 103 14.4762L 107 14.4762L 107 0L 103 0ZM 105 12.4762L 0 12.4762L 0 16.4762L 105 16.4762L 105 12.4762ZM 2 14.4762L 2 0L -2 0L -2 14.4762L 2 14.4762Z"/>
<path id="path6_fill" d="M 9.45946 40C 4.23514 40 0 31.0455 0 20C 0 8.95448 4.23514 0 9.45946 0C 14.6838 0 18.9189 8.95448 18.9189 20C 18.9189 31.0455 14.6838 40 9.45946 40Z"/>
<path id="path7_stroke_2x" d="M 9.45946 38C 8.07168 38 6.21062 36.7376 4.57858 33.287C 2.95394 29.8837 1.98912 25.3145 2 20L -2 20C -1.98912 25.7311 -0.836369 31.1618 0.962633 34.9972C 2.75425 38.7852 5.62291 42 9.45946 42L 9.45946 38ZM 2 20C 1.98912 14.6855 2.95394 10.1163 4.57858 6.71305C 6.21062 3.26244 8.07168 2 9.45946 2L 9.45946 -2C 5.62291 -2 2.75425 1.2148 0.962633 5.00281C -0.836369 8.83818 -1.98912 14.2689 -2 20L 2 20ZM 9.45946 2C 10.8472 2 12.7083 3.26244 14.3403 6.71305C 15.965 10.1163 16.9298 14.6855 16.9189 20L 20.9189 20C 20.908 14.2689 19.7553 8.83818 17.9563 5.00281C 16.1647 1.2148 13.296 -2 9.45946 -2L 9.45946 2ZM 16.9189 20C 16.9298 25.3145 15.965 29.8837 14.3403 33.287C 12.7083 36.7376 10.8472 38 9.45946 38L 9.45946 42C 13.296 42 16.1647 38.7852 17.9563 34.9972C 19.7553 31.1618 20.908 25.7311 20.9189 20L 16.9189 20Z"/>
<path id="path8_fill" d="M 0 17.2414C 0 6.71655 4.00203 0 6.75676 0C 9.51149 0 13.5135 6.71655 13.5135 17.2414C 13.5135 27.7662 9.51149 34.4828 6.75676 34.4828C 4.00203 34.4828 0 27.7662 0 17.2414Z"/>
<path id="path9_stroke_2x" d="M 2 17.2414C 1.98701 12.2065 2.89576 8.30739 4.16983 5.4932C 4.77397 4.13348 5.34337 3.25072 5.98144 2.59918C 6.51709 2.00793 6.94969 2.06242 6.75676 2L 6.75676 -2C 5.2726 -2 4.01693 -1.1301 3.09628 -0.171352C 2.20921 0.765356 1.26159 2.21954 0.520877 3.85456C -0.894744 7.02985 -1.98701 11.7514 -2 17.2414L 2 17.2414ZM 6.75676 2C 6.56382 2.06242 6.99643 2.00793 7.53207 2.59918C 8.17015 3.25072 8.73954 4.13348 9.34368 5.4932C 10.6178 8.30739 11.5265 12.2065 11.5135 17.2414L 15.5135 17.2414C 15.5005 11.7514 14.4083 7.02985 12.9926 3.85456C 12.2519 2.21954 11.3043 0.765356 10.4172 -0.171352C 9.49658 -1.1301 8.24092 -2 6.75676 -2L 6.75676 2ZM 11.5135 17.2414C 11.5265 22.2762 10.6178 26.1754 9.34368 28.9896C 8.73954 30.3493 8.17015 31.232 7.53207 31.8836C 6.99643 32.4748 6.56382 32.4203 6.75676 32.4828L 6.75676 36.4828C 8.24092 36.4828 9.49658 35.6129 10.4172 34.6541C 11.3043 33.7174 12.2519 32.2632 12.9926 30.6282C 14.4083 27.4529 15.5005 22.7314 15.5135 17.2414L 11.5135 17.2414ZM 6.75676 32.4828C 6.94969 32.4203 6.51709 32.4748 5.98144 31.8836C 5.34337 31.232 4.77397 30.3493 4.16983 28.9896C 2.89576 26.1754 1.98701 22.2762 2 17.2414L -2 17.2414C -1.98701 22.7314 -0.894744 27.4529 0.520877 30.6282C 1.26159 32.2632 2.20921 33.7174 3.09628 34.6541C 4.01693 35.6129 5.2726 36.4828 6.75676 36.4828L 6.75676 32.4828Z"/>
<path id="path10_fill" d="M 6.275 13.2276C 6.41757 13.9152 6.83311 14.3186 7.30743 14.1697L 7.81351 14.0117C 8.18513 13.8945 8.49594 13.4407 8.65 12.8848C 10.2331 12.1297 10.8061 10.2014 10.8061 7.33793C 10.8061 7.20207 10.8034 7.06897 10.798 6.93862C 10.7581 5.96138 10.8514 4.9869 11.1236 4.22552C 11.2345 3.91586 11.3507 3.66345 11.4716 3.49655C 11.5257 3.42138 11.4912 3.23862 11.4216 3.23862C 11.302 3.23862 11.1595 3.24759 11.002 3.27448C 10.3885 3.37862 10.4811 3.25448 9.86892 2.63586C 9.51351 2.27655 9.1027 1.99103 8.64865 1.78414C 8.49392 1.23103 8.18378 0.78 7.81351 0.664138L 7.30743 0.505517C 6.83311 0.356552 6.41757 0.75931 6.275 1.4469C 5.06351 1.64345 3.99797 2.48345 3.41216 4.31724L 2.56013 4.21655C 2.33311 4.19035 2.1223 3.98966 2.01892 3.69724L 0.711486 4.20932e-08C 0.268243 2.15862 0 4.62 0 7.33724C 0 10.0159 0.260135 12.4462 0.691892 14.5841L 2.01689 10.9669C 2.12162 10.6807 2.33041 10.4848 2.55405 10.4586L 3.41216 10.3579C 3.99797 12.191 5.06351 13.031 6.275 13.2276Z"/>
<path id="path11_stroke_2x" d="M 6.275 13.2276L 8.23335 12.8215L 7.9539 11.4738L 6.59529 11.2534L 6.275 13.2276ZM 7.30743 14.1697L 6.71163 12.2605L 6.70817 12.2615L 7.30743 14.1697ZM 7.81351 14.0117L 8.40931 15.9209L 8.41525 15.9191L 7.81351 14.0117ZM 8.65 12.8848L 7.78891 11.0797L 6.96612 11.4722L 6.72265 12.3507L 8.65 12.8848ZM 10.798 6.93862L 8.79963 7.02014L 8.79969 7.02149L 10.798 6.93862ZM 11.1236 4.22552L 9.24059 3.55166L 9.24046 3.55202L 11.1236 4.22552ZM 11.4716 3.49655L 13.0911 4.67015L 13.0954 4.66416L 11.4716 3.49655ZM 11.002 3.27448L 11.3367 5.24628L 11.3388 5.24592L 11.002 3.27448ZM 9.86892 2.63586L 8.447 4.04233L 8.4473 4.04264L 9.86892 2.63586ZM 8.64865 1.78414L 6.72259 2.32295L 6.97312 3.21851L 7.81935 3.6041L 8.64865 1.78414ZM 7.81351 0.664138L 7.21535 2.57259L 7.21625 2.57287L 7.81351 0.664138ZM 7.30743 0.505517L 6.70817 2.41363L 6.70927 2.41397L 7.30743 0.505517ZM 6.275 1.4469L 6.59529 3.42108L 7.9539 3.20066L 8.23335 1.85295L 6.275 1.4469ZM 3.41216 4.31724L 3.17744 6.30342L 4.81541 6.49699L 5.31731 4.92585L 3.41216 4.31724ZM 2.56013 4.21655L 2.79486 2.23037L 2.78948 2.22975L 2.56013 4.21655ZM 2.01892 3.69724L 3.90455 3.03061L 3.9045 3.03046L 2.01892 3.69724ZM 0.711486 4.20932e-08L 2.59706 -0.666785L 0.199088 -7.44793L -1.24764 -0.402279L 0.711486 4.20932e-08ZM 0.691892 14.5841L -1.26853 14.98L 0.133607 21.923L 2.56987 15.272L 0.691892 14.5841ZM 2.01689 10.9669L 3.89487 11.6548L 3.8951 11.6542L 2.01689 10.9669ZM 2.55405 10.4586L 2.78682 12.445L 2.78713 12.445L 2.55405 10.4586ZM 3.41216 10.3579L 5.31725 9.74912L 4.81565 8.17953L 3.17908 8.37156L 3.41216 10.3579ZM 4.31665 13.6336C 4.44311 14.2435 4.72996 14.9427 5.30538 15.4774C 5.94714 16.0738 6.90233 16.3932 7.90669 16.0778L 6.70817 12.2615C 6.92842 12.1924 7.19293 12.1756 7.46206 12.2445C 7.72271 12.3112 7.91079 12.4381 8.02824 12.5472C 8.24166 12.7455 8.24946 12.8992 8.23335 12.8215L 4.31665 13.6336ZM 7.90323 16.0789L 8.40931 15.9209L 7.21772 12.1025L 6.71164 12.2605L 7.90323 16.0789ZM 8.41525 15.9191C 9.78425 15.4872 10.37 14.167 10.5773 13.419L 6.72265 12.3507C 6.69707 12.443 6.67295 12.468 6.69475 12.438C 6.70768 12.4202 6.74674 12.3698 6.82235 12.3087C 6.89865 12.2471 7.02737 12.1626 7.21178 12.1044L 8.41525 15.9191ZM 9.51108 14.69C 10.8819 14.0361 11.7247 12.8909 12.2004 11.5879C 12.6081 10.4324 12.8025 8.8886 12.8061 7.33793L 8.80608 7.33793C 8.80962 8.65071 8.71759 9.50282 8.44299 10.2161C 8.23644 10.7819 8.00125 10.9784 7.78891 11.0797L 9.51108 14.69ZM 12.8061 7.33793C 12.806 7.18176 12.8024 7.00722 12.7963 6.85575L 8.79969 7.02149C 8.80433 7.13071 8.80618 7.22238 8.80608 7.33793L 12.8061 7.33793ZM 12.7963 6.8571C 12.7574 6.016 12.8034 5.42224 13.0068 4.89902L 9.24046 3.55202C 8.89931 4.55155 8.75885 5.90676 8.79963 7.02014L 12.7963 6.8571ZM 13.0067 4.89938C 13.0466 4.78792 13.079 4.7109 13.1018 4.66266C 13.1272 4.609 13.1264 4.62138 13.0911 4.67014L 9.85215 2.32296C 9.62434 2.65361 9.3828 3.15999 9.24059 3.55166L 13.0067 4.89938ZM 13.0954 4.66416C 13.5915 3.97424 13.5109 3.24315 13.4572 2.96293C 13.4159 2.78082 13.264 2.38545 13.1319 2.16101C 12.9505 1.88816 12.4051 1.23862 11.4216 1.23862L 11.4216 5.23862C 10.473 5.23862 9.95799 4.61193 9.80092 4.37569C 9.62093 4.10497 9.55551 3.85554 9.52874 3.71586C 9.49615 3.54581 9.40579 2.94369 9.84784 2.32894L 13.0954 4.66416ZM 11.4216 1.23862C 11.2392 1.23961 10.928 1.26103 10.6652 1.30305L 11.3388 5.24592C 11.3721 5.24023 11.401 5.23862 11.4216 5.23862L 11.4216 1.23862ZM 10.6673 1.30269C 10.6155 1.31165 10.6082 1.31111 10.6162 1.31099C 10.6292 1.30977 10.7 1.30344 10.8046 1.31144C 10.9181 1.32011 11.0659 1.3451 11.2295 1.40565C 11.3939 1.46647 11.5238 1.54455 11.6174 1.61317C 11.7022 1.67537 11.7523 1.72644 11.7568 1.73098C 11.7627 1.73631 11.746 1.71962 11.7069 1.67598C 11.6259 1.58565 11.4838 1.4256 11.2905 1.22909L 8.4473 4.04264C 8.56011 4.15543 8.63603 4.24288 8.72899 4.34657C 8.82633 4.45502 9.03852 4.67097 9.25255 4.83924C 9.54072 5.02881 10.1245 5.24984 10.4999 5.29981C 10.8519 5.32671 11.1717 5.27428 11.3367 5.24628L 10.6673 1.30269ZM 11.2908 1.2294C 10.8006 0.745729 10.0921 0.25288 9.47794 -0.0358266L 7.81935 3.6041C 8.11335 3.72919 8.22643 3.80738 8.447 4.04233L 11.2908 1.2294ZM 10.5747 1.24533C 10.3666 0.501356 9.77975 -0.81623 8.41078 -1.2446L 7.21625 2.57287C 7.03121 2.51497 6.90179 2.43049 6.82486 2.3686C 6.74863 2.30728 6.70905 2.25657 6.69576 2.23833C 6.67323 2.20743 6.69699 2.23144 6.72259 2.32295L 10.5747 1.24533ZM 8.41168 -1.24432L 7.9056 -1.40294L 6.70927 2.41397L 7.21535 2.57259L 8.41168 -1.24432ZM 7.90669 -1.40259C 6.90355 -1.71764 5.94858 -1.39967 5.30613 -0.803293C 4.73015 -0.268624 4.44314 0.430806 4.31665 1.04084L 8.23335 1.85295C 8.24942 1.7754 8.24147 1.92966 8.02749 2.12829C 7.90976 2.23758 7.72152 2.36432 7.46096 2.43087C 7.19203 2.49956 6.92792 2.48264 6.70817 2.41363L 7.90669 -1.40259ZM 5.95471 -0.52729C 3.86432 -0.188145 2.27688 1.29867 1.50701 3.70864L 5.31731 4.92585C 5.53093 4.25715 5.78804 3.90551 5.98224 3.72209C 6.16498 3.5495 6.36056 3.45917 6.59529 3.42108L 5.95471 -0.52729ZM 3.64688 2.33106L 2.79485 2.23037L 2.32541 6.20273L 3.17744 6.30342L 3.64688 2.33106ZM 2.78948 2.22975C 3.19101 2.2761 3.47012 2.46258 3.62628 2.61209C 3.78395 2.76305 3.86441 2.91708 3.90455 3.03061L 0.13329 4.36388C 0.389512 5.08862 1.08257 6.05927 2.33079 6.20336L 2.78948 2.22975ZM 3.9045 3.03046L 2.59706 -0.666785L -1.17409 0.666785L 0.133343 4.36403L 3.9045 3.03046ZM -1.24764 -0.402279C -1.70761 1.8488 -1.99705 4.5115 -2 7.33724L 2 7.33724C 1.99705 4.7285 2.2441 2.46844 2.67061 0.40228L -1.24764 -0.402279ZM -2 7.33724C -1.99716 10.1224 -1.71652 12.7509 -1.26853 14.98L 2.65231 14.1882C 2.23679 12.1415 1.99716 9.90928 2 7.33724L -2 7.33724ZM 2.56987 15.272L 3.89487 11.6548L 0.138918 10.279L -1.18608 13.8962L 2.56987 15.272ZM 3.8951 11.6542C 3.8533 11.7684 3.77121 11.921 3.61375 12.0696C 3.45792 12.2167 3.18203 12.3987 2.78682 12.445L 2.32129 8.47221C 1.09353 8.61608 0.401168 9.56231 0.138689 10.2796L 3.8951 11.6542ZM 2.78713 12.445L 3.64524 12.3443L 3.17908 8.37156L 2.32098 8.47225L 2.78713 12.445ZM 1.50708 10.9667C 2.27703 13.3761 3.86451 14.8627 5.95471 15.2018L 6.59529 11.2534C 6.36054 11.2153 6.16489 11.125 5.98211 10.9524C 5.78788 10.7689 5.53082 10.4174 5.31725 9.74912L 1.50708 10.9667Z"/>
<path id="path12_fill" d="M 6.08108 20C 6.08108 8.95448 10.3162 0 15.5405 0L 9.45946 0C 4.23514 0 0 8.95448 0 20C 0 31.0455 4.23514 40 9.45946 40L 15.5405 40C 10.3162 40 6.08108 31.0455 6.08108 20Z"/>
<path id="path13_stroke_2x" d="M 8.08108 20C 8.0702 14.6855 9.03502 10.1163 10.6597 6.71305C 12.2917 3.26244 14.1528 2 15.5405 2L 15.5405 -2C 11.704 -2 8.83533 1.2148 7.04371 5.00281C 5.24471 8.83818 4.09196 14.2689 4.08108 20L 8.08108 20ZM 15.5405 -2L 9.45946 -2L 9.45946 2L 15.5405 2L 15.5405 -2ZM 9.45946 -2C 5.62291 -2 2.75425 1.2148 0.962633 5.00281C -0.836369 8.83818 -1.98912 14.2689 -2 20L 2 20C 1.98912 14.6855 2.95394 10.1163 4.57858 6.71305C 6.21062 3.26244 8.07168 2 9.45946 2L 9.45946 -2ZM -2 20C -1.98912 25.7311 -0.836369 31.1618 0.962633 34.9972C 2.75425 38.7852 5.62291 42 9.45946 42L 9.45946 38C 8.07168 38 6.21062 36.7376 4.57858 33.287C 2.95394 29.8837 1.98912 25.3145 2 20L -2 20ZM 9.45946 42L 15.5405 42L 15.5405 38L 9.45946 38L 9.45946 42ZM 15.5405 38C 14.1528 38 12.2917 36.7376 10.6597 33.287C 9.03502 29.8837 8.0702 25.3145 8.08108 20L 4.08108 20C 4.09196 25.7311 5.24471 31.1618 7.04371 34.9972C 8.83533 38.7852 11.704 42 15.5405 42L 15.5405 38Z"/>
<path id="path14_fill" d="M 7.20135 0L 1.12027 0C 0.731081 0.407586 0.356756 0.866897 -4.124e-07 1.37931L 6.08108 1.37931C 6.43784 0.866897 6.81216 0.407586 7.20135 0Z"/>
<path id="path15_stroke_2x" d="M 7.20135 0L 8.64783 1.38119L 11.8764 -2L 7.20135 -2L 7.20135 0ZM 1.12027 0L 1.12027 -2L 0.264666 -2L -0.326211 -1.38119L 1.12027 0ZM -4.124e-07 1.37931L -1.64137 0.236545L -3.82945 3.37931L -4.124e-07 3.37931L -4.124e-07 1.37931ZM 6.08108 1.37931L 6.08108 3.37931L 7.12562 3.37931L 7.72245 2.52208L 6.08108 1.37931ZM 7.20135 -2L 1.12027 -2L 1.12027 2L 7.20135 2L 7.20135 -2ZM -0.326211 -1.38119C -0.76849 -0.915775 -1.24024 -0.337093 -1.64137 0.236545L 1.64137 2.52208C 1.95376 2.07089 2.23065 1.73095 2.56675 1.38119L -0.326211 -1.38119ZM -4.124e-07 3.37931L 6.08108 3.37931L 6.08108 -0.62069L -4.124e-07 -0.62069L -4.124e-07 3.37931ZM 7.72245 2.52208C 8.03484 2.07089 8.31173 1.73095 8.64783 1.38119L 5.75487 -1.38119C 5.31259 -0.915775 4.84084 -0.337093 4.43971 0.236545L 7.72245 2.52208Z"/>
<path id="path16_fill" d="M 6.08108 0L 5.0519e-07 0C 0.356757 0.512414 0.731081 0.971724 1.12027 1.37931L 7.20135 1.37931C 6.81149 0.971724 6.43716 0.512414 6.08108 0Z"/>
<path id="path17_stroke_2x" d="M 6.08108 0L 7.72346 -1.14131L 7.12675 -2L 6.08108 -2L 6.08108 0ZM 5.0519e-07 0L 5.0519e-07 -2L -3.82945 -2L -1.64137 1.14277L 5.0519e-07 0ZM 1.12027 1.37931L -0.326211 2.7605L 0.264666 3.37931L 1.12027 3.37931L 1.12027 1.37931ZM 7.20135 1.37931L 7.20135 3.37931L 11.882 3.37931L 8.64664 -0.00313452L 7.20135 1.37931ZM 6.08108 -2L 5.0519e-07 -2L 5.0519e-07 2L 6.08108 2L 6.08108 -2ZM -1.64137 1.14277C -1.24024 1.7164 -0.768492 2.29508 -0.326211 2.7605L 2.56675 -0.00188173C 2.23065 -0.351636 1.95376 -0.691574 1.64137 -1.14277L -1.64137 1.14277ZM 1.12027 3.37931L 7.20135 3.37931L 7.20135 -0.62069L 1.12027 -0.62069L 1.12027 3.37931ZM 8.64664 -0.00313452C 8.31049 -0.352286 8.0347 -0.690864 7.72346 -1.14131L 4.4387 1.14131C 4.83963 1.71569 5.31249 2.29573 5.75607 2.76176L 8.64664 -0.00313452Z"/>
<path id="path18_fill" d="M 6.76824 0L 0.687163 0C 0.447298 0.435862 0.218244 0.895862 3.9178e-07 1.37931L 6.08108 1.37931C 6.29932 0.895862 6.52838 0.435862 6.76824 0Z"/>
<path id="path19_stroke_2x" d="M 6.76824 0L 8.52044 0.964272L 10.1517 -2L 6.76824 -2L 6.76824 0ZM 0.687163 0L 0.687163 -2L -0.495045 -2L -1.06503 -0.964272L 0.687163 0ZM 3.9178e-07 1.37931L -1.82287 0.556413L -3.09721 3.37931L 3.9178e-07 3.37931L 3.9178e-07 1.37931ZM 6.08108 1.37931L 6.08108 3.37931L 7.37257 3.37931L 7.90395 2.20221L 6.08108 1.37931ZM 6.76824 -2L 0.687163 -2L 0.687163 2L 6.76824 2L 6.76824 -2ZM -1.06503 -0.964272C -1.32433 -0.49221 -1.58868 0.0385186 -1.82287 0.556413L 1.82287 2.20221C 2.02516 1.75321 2.21893 1.36393 2.43936 0.964272L -1.06503 -0.964272ZM 3.9178e-07 3.37931L 6.08108 3.37931L 6.08108 -0.62069L 3.9178e-07 -0.62069L 3.9178e-07 3.37931ZM 7.90395 2.20221C 8.10625 1.75321 8.30001 1.36393 8.52044 0.964272L 5.01605 -0.964272C 4.75675 -0.49221 4.4924 0.0385186 4.25822 0.556413L 7.90395 2.20221Z"/>
<path id="path20_fill" d="M 6.08108 0L 2.062e-08 0C 0.218243 0.483448 0.447297 0.943448 0.687162 1.37931L 6.76824 1.37931C 6.52838 0.943448 6.29865 0.483448 6.08108 0Z"/>
<path id="path21_stroke_2x" d="M 6.08108 0L 7.9049 -0.820779L 7.37421 -2L 6.08108 -2L 6.08108 0ZM 2.062e-08 0L 2.062e-08 -2L -3.09721 -2L -1.82287 0.822897L 2.062e-08 0ZM 0.687162 1.37931L -1.06503 2.34358L -0.495046 3.37931L 0.687162 3.37931L 0.687162 1.37931ZM 6.76824 1.37931L 6.76824 3.37931L 10.1517 3.37931L 8.52044 0.415039L 6.76824 1.37931ZM 6.08108 -2L 2.062e-08 -2L 2.062e-08 2L 6.08108 2L 6.08108 -2ZM -1.82287 0.822897C -1.58868 1.34079 -1.32434 1.87152 -1.06503 2.34358L 2.43936 0.415039C 2.21893 0.015376 2.02516 -0.373895 1.82287 -0.822897L -1.82287 0.822897ZM 0.687162 3.37931L 6.76824 3.37931L 6.76824 -0.62069L 0.687162 -0.62069L 0.687162 3.37931ZM 8.52044 0.415039C 8.29946 0.0143341 8.10556 -0.373909 7.9049 -0.820779L 4.25726 0.820779C 4.49173 1.34081 4.75729 1.87256 5.01605 2.34358L 8.52044 0.415039Z"/>
<path id="path22_fill" d="M 6.55608 0L 0.475 0C 0.308108 0.445517 0.149325 0.904828 2.42285e-07 1.37931L 6.08108 1.37931C 6.2304 0.904138 6.38919 0.445517 6.55608 0Z"/>
<path id="path23_stroke_2x" d="M 6.55608 0L 8.42898 0.701594L 9.44101 -2L 6.55608 -2L 6.55608 0ZM 0.475 0L 0.475 -2L -0.911517 -2L -1.3979 -0.701594L 0.475 0ZM 2.42285e-07 1.37931L -1.90776 0.778921L -2.72612 3.37931L 2.42285e-07 3.37931L 2.42285e-07 1.37931ZM 6.08108 1.37931L 6.08108 3.37931L 7.549 3.37931L 7.98909 1.97891L 6.08108 1.37931ZM 6.55608 -2L 0.475 -2L 0.475 2L 6.55608 2L 6.55608 -2ZM -1.3979 -0.701594C -1.57362 -0.232063 -1.74986 0.277844 -1.90776 0.778921L 1.90776 1.9797C 2.04851 1.53181 2.18983 1.1231 2.3479 0.701594L -1.3979 -0.701594ZM 2.42285e-07 3.37931L 6.08108 3.37931L 6.08108 -0.62069L 2.42285e-07 -0.62069L 2.42285e-07 3.37931ZM 7.98909 1.97891C 8.12957 1.53117 8.27076 1.12354 8.42898 0.701594L 4.68318 -0.701594C 4.50762 -0.232501 4.33124 0.277107 4.17308 0.779714L 7.98909 1.97891Z"/>
<path id="path24_fill" d="M 6.08108 0L -1.28875e-07 0C 0.148649 0.475172 0.308108 0.933793 0.475 1.37931L 6.55608 1.37931C 6.38919 0.933793 6.22973 0.474483 6.08108 0Z"/>
<path id="path25_stroke_2x" d="M 6.08108 0L 7.98961 -0.597916L 7.55036 -2L 6.08108 -2L 6.08108 0ZM -1.28875e-07 0L -1.28875e-07 -2L -2.72124 -2L -1.90878 0.597126L -1.28875e-07 0ZM 0.475 1.37931L -1.3979 2.0809L -0.911517 3.37931L 0.475 3.37931L 0.475 1.37931ZM 6.55608 1.37931L 6.55608 3.37931L 9.44101 3.37931L 8.42898 0.677716L 6.55608 1.37931ZM 6.08108 -2L -1.28875e-07 -2L -1.28875e-07 2L 6.08108 2L 6.08108 -2ZM -1.90878 0.597126C -1.75051 1.10222 -1.57301 1.61305 -1.3979 2.0809L 2.3479 0.677716C 2.18923 0.254539 2.04781 -0.151877 1.90878 -0.597126L -1.90878 0.597126ZM 0.475 3.37931L 6.55608 3.37931L 6.55608 -0.62069L 0.475 -0.62069L 0.475 3.37931ZM 8.42898 0.677716C 8.27047 0.254978 8.12891 -0.152516 7.98961 -0.597916L 4.17255 0.597916C 4.33055 1.10148 4.50791 1.61261 4.68318 2.0809L 8.42898 0.677716Z"/>
<path id="path26_fill" d="M 6.40743 0L 0.326352 0C 0.208784 0.448966 0.100675 0.910345 -2.93835e-07 1.37931L 6.08108 1.37931C 6.18176 0.910345 6.28987 0.448966 6.40743 0Z"/>
<path id="path27_stroke_2x" d="M 6.40743 0L 8.3422 0.506644L 8.99859 -2L 6.40743 -2L 6.40743 0ZM 0.326352 0L 0.326352 -2L -1.21736 -2L -1.60841 -0.506644L 0.326352 0ZM -2.93835e-07 1.37931L -1.95545 0.959522L -2.47492 3.37931L -2.93835e-07 3.37931L -2.93835e-07 1.37931ZM 6.08108 1.37931L 6.08108 3.37931L 7.6973 3.37931L 8.03653 1.7991L 6.08108 1.37931ZM 6.40743 -2L 0.326352 -2L 0.326352 2L 6.40743 2L 6.40743 -2ZM -1.60841 -0.506644C -1.73239 -0.0325337 -1.85076 0.472295 -1.95545 0.959522L 1.95545 1.7991C 2.05211 1.34839 2.14996 0.930465 2.26112 0.506644L -1.60841 -0.506644ZM -2.93835e-07 3.37931L 6.08108 3.37931L 6.08108 -0.62069L -2.93835e-07 -0.62069L -2.93835e-07 3.37931ZM 8.03653 1.7991C 8.1332 1.34839 8.23104 0.930464 8.3422 0.506644L 4.47267 -0.506644C 4.34869 -0.0325325 4.23032 0.472296 4.12563 0.959522L 8.03653 1.7991Z"/>
<path id="path28_fill" d="M 6.08108 0L -2.93835e-07 0C 0.101351 0.469655 0.208784 0.930345 0.326352 1.37931L 6.40743 1.37931C 6.28987 0.930345 6.18243 0.469655 6.08108 0Z"/>
<path id="path29_stroke_2x" d="M 6.08108 0L 8.03608 -0.421887L 7.69552 -2L 6.08108 -2L 6.08108 0ZM -2.93835e-07 0L -2.93835e-07 -2L -2.47764 -2L -1.955 0.421887L -2.93835e-07 0ZM 0.326352 1.37931L -1.60841 1.88595L -1.21736 3.37931L 0.326352 3.37931L 0.326352 1.37931ZM 6.40743 1.37931L 6.40743 3.37931L 8.99859 3.37931L 8.3422 0.872667L 6.40743 1.37931ZM 6.08108 -2L -2.93835e-07 -2L -2.93835e-07 2L 6.08108 2L 6.08108 -2ZM -1.955 0.421887C -1.85008 0.907721 -1.73264 1.41082 -1.60841 1.88595L 2.26112 0.872667C 2.15021 0.449873 2.05279 0.0315898 1.955 -0.421887L -1.955 0.421887ZM 0.326352 3.37931L 6.40743 3.37931L 6.40743 -0.62069L 0.326352 -0.62069L 0.326352 3.37931ZM 8.3422 0.872667C 8.23129 0.449874 8.13387 0.0315911 8.03608 -0.421887L 4.12609 0.421887C 4.231 0.907719 4.34844 1.41082 4.47267 1.88595L 8.3422 0.872667Z"/>
<path id="path30_fill" d="M 6.26892 0L 0.187838 0C 0.117568 0.453103 0.0547298 0.912414 7.217e-08 1.37931L 6.08108 1.37931C 6.13581 0.912414 6.19865 0.453103 6.26892 0Z"/>
<path id="path31_stroke_2x" d="M 6.26892 0L 8.24529 0.306509L 8.603 -2L 6.26892 -2L 6.26892 0ZM 0.187838 0L 0.187838 -2L -1.5259 -2L -1.78854 -0.306509L 0.187838 0ZM 7.217e-08 1.37931L -1.9864 1.14646L -2.24813 3.37931L 7.217e-08 3.37931L 7.217e-08 1.37931ZM 6.08108 1.37931L 6.08108 3.37931L 7.86033 3.37931L 8.06748 1.61216L 6.08108 1.37931ZM 6.26892 -2L 0.187838 -2L 0.187838 2L 6.26892 2L 6.26892 -2ZM -1.78854 -0.306509C -1.86147 0.164291 -1.92933 0.660433 -1.9864 1.14646L 1.9864 1.61216C 2.03879 1.16439 2.0966 0.741916 2.16421 0.306509L -1.78854 -0.306509ZM 7.217e-08 3.37931L 6.08108 3.37931L 6.08108 -0.62069L 7.217e-08 -0.62069L 7.217e-08 3.37931ZM 8.06748 1.61216C 8.11987 1.16439 8.17769 0.741916 8.24529 0.306509L 4.29255 -0.306509C 4.21961 0.164291 4.15175 0.660433 4.09468 1.14646L 8.06748 1.61216Z"/>
<path id="path32_fill" d="M 6.08108 0L 7.217e-08 0C 0.0547298 0.466897 0.117568 0.926207 0.187838 1.37931L 6.26892 1.37931C 6.19865 0.926207 6.13581 0.466897 6.08108 0Z"/>
<path id="path33_stroke_2x" d="M 6.08108 0L 8.06748 -0.232846L 7.86033 -2L 6.08108 -2L 6.08108 0ZM 7.217e-08 0L 7.217e-08 -2L -2.24813 -2L -1.9864 0.232846L 7.217e-08 0ZM 0.187838 1.37931L -1.78854 1.68582L -1.5259 3.37931L 0.187838 3.37931L 0.187838 1.37931ZM 6.26892 1.37931L 6.26892 3.37931L 8.603 3.37931L 8.24529 1.0728L 6.26892 1.37931ZM 6.08108 -2L 7.217e-08 -2L 7.217e-08 2L 6.08108 2L 6.08108 -2ZM -1.9864 0.232846C -1.92933 0.718878 -1.86147 1.21502 -1.78854 1.68582L 2.16421 1.0728C 2.0966 0.637394 2.03879 0.214915 1.9864 -0.232846L -1.9864 0.232846ZM 0.187838 3.37931L 6.26892 3.37931L 6.26892 -0.62069L 0.187838 -0.62069L 0.187838 3.37931ZM 8.24529 1.0728C 8.17769 0.637395 8.11987 0.214915 8.06748 -0.232846L 4.09468 0.232846C 4.15175 0.718878 4.21961 1.21502 4.29255 1.68582L 8.24529 1.0728Z"/>
<path id="path34_fill" d="M 6.14797 0L 0.0668917 0C 0.0371619 0.455172 0.0148647 0.915172 -2.01045e-07 1.37931L 6.08108 1.37931C 6.09595 0.915172 6.11824 0.455172 6.14797 0Z"/>
<path id="path35_stroke_2x" d="M 6.14797 0L 8.14372 0.130353L 8.28287 -2L 6.14797 -2L 6.14797 0ZM 0.0668917 0L 0.0668917 -2L -1.80674 -2L -1.92886 -0.130353L 0.0668917 0ZM -2.01045e-07 1.37931L -1.99898 1.31529L -2.06508 3.37931L -2.01045e-07 3.37931L -2.01045e-07 1.37931ZM 6.08108 1.37931L 6.08108 3.37931L 8.01805 3.37931L 8.08006 1.44333L 6.08108 1.37931ZM 6.14797 -2L 0.0668917 -2L 0.0668917 2L 6.14797 2L 6.14797 -2ZM -1.92886 -0.130353C -1.95961 0.341576 -1.98352 0.834744 -1.99898 1.31529L 1.99897 1.44333C 2.01325 0.995601 2.03393 0.568768 2.06264 0.130353L -1.92886 -0.130353ZM -2.01045e-07 3.37931L 6.08108 3.37931L 6.08108 -0.62069L -2.01045e-07 -0.62069L -2.01045e-07 3.37931ZM 8.08006 1.44333C 8.09433 0.9956 8.11501 0.568767 8.14372 0.130353L 4.15223 -0.130353C 4.12147 0.341578 4.09756 0.834745 4.08211 1.31529L 8.08006 1.44333Z"/>
<path id="path36_fill" d="M 6.08108 0L -2.01045e-07 0C 0.0148647 0.464138 0.0371619 0.924138 0.0668917 1.37931L 6.14797 1.37931C 6.11824 0.924138 6.09595 0.464138 6.08108 0Z"/>
<path id="path37_stroke_2x" d="M 6.08108 0L 8.08006 -0.0640208L 8.01805 -2L 6.08108 -2L 6.08108 0ZM -2.01045e-07 0L -2.01045e-07 -2L -2.06508 -2L -1.99898 0.0640208L -2.01045e-07 0ZM 0.0668917 1.37931L -1.92886 1.50966L -1.80674 3.37931L 0.0668917 3.37931L 0.0668917 1.37931ZM 6.14797 1.37931L 6.14797 3.37931L 8.28287 3.37931L 8.14372 1.24896L 6.14797 1.37931ZM 6.08108 -2L -2.01045e-07 -2L -2.01045e-07 2L 6.08108 2L 6.08108 -2ZM -1.99898 0.0640208C -1.98352 0.544567 -1.95961 1.03773 -1.92886 1.50966L 2.06264 1.24896C 2.03393 0.810542 2.01325 0.383709 1.99897 -0.0640208L -1.99898 0.0640208ZM 0.0668917 3.37931L 6.14797 3.37931L 6.14797 -0.62069L 0.0668917 -0.62069L 0.0668917 3.37931ZM 8.14372 1.24896C 8.11501 0.810543 8.09433 0.383711 8.08006 -0.0640208L 4.08211 0.0640208C 4.09756 0.544565 4.12147 1.03773 4.15223 1.50966L 8.14372 1.24896Z"/>
<path id="path38_stroke" d="M 0 0L 0 -1L -1 -1L -1 0L 0 0ZM 99 0L 100 0L 100 -1L 99 -1L 99 0ZM 99 150L 99 151L 100 151L 100 150L 99 150ZM 0 150L -1 150L -1 151L 0 151L 0 150ZM 0 1L 99 1L 99 -1L 0 -1L 0 1ZM 99 149L 0 149L 0 151L 99 151L 99 149ZM 1 150L 1 0L -1 0L -1 150L 1 150ZM 98 0L 98 84L 100 84L 100 0L 98 0ZM 98 119L 98 150L 100 150L 100 119L 98 119Z"/>
<path id="path39_fill" d="M 29.305 5.56955L 2.76777 30.9003C 2.55694 31.1016 2.40606 31.3526 2.33132 31.6281L 0.0536703 40.0013C -0.0952539 40.5494 0.0706829 41.1316 0.490125 41.5323C 0.808053 41.8355 1.23502 42 1.67315 42C 1.81343 42 1.95455 41.9832 2.09371 41.9489L 10.8657 39.7745C 11.1544 39.7029 11.4176 39.5589 11.6282 39.3579L 38.1649 14.0277C 38.1654 14.0272 38.166 14.0269 38.1663 14.0266C 38.1665 14.0264 38.1671 14.0256 38.1674 14.0253L 43.5097 8.92586C 44.1634 8.30214 44.1634 7.29083 43.51 6.66738L 37.0161 0.467989C 36.7021 0.168242 36.2768 0 35.8328 0C 35.3891 0 34.9636 0.168242 34.6498 0.467989L 29.3078 5.56715C 29.3072 5.56768 29.3067 5.56795 29.3064 5.56822C 29.3061 5.56848 29.3056 5.56928 29.305 5.56955ZM 9.58426 36.7917L 4.00853 38.1738L 5.45622 32.8516L 30.4894 8.95648L 34.6172 12.8968L 9.58426 36.7917ZM 35.8328 3.85598L 39.9606 7.79635L 36.9835 10.6381L 32.8558 6.69772L 35.8328 3.85598Z"/>
<path id="path40_stroke_2x" d="M 29.305 5.56955L 28.4435 3.76458L 28.1552 3.90221L 27.924 4.12283L 29.305 5.56955ZM 2.76777 30.9003L 4.14872 32.347L 4.14872 32.347L 2.76777 30.9003ZM 2.33132 31.6281L 4.26119 32.1531L 4.26156 32.1517L 2.33132 31.6281ZM 0.0536703 40.0013L -1.87621 39.4764L -1.87636 39.4769L 0.0536703 40.0013ZM 0.490125 41.5323L -0.891301 42.9785L -0.890186 42.9796L 0.490125 41.5323ZM 2.09371 41.9489L 2.57286 43.8906L 2.5749 43.8901L 2.09371 41.9489ZM 10.8657 39.7745L 11.3469 41.7158L 11.3473 41.7157L 10.8657 39.7745ZM 11.6282 39.3579L 13.0091 40.8046L 13.0091 40.8046L 11.6282 39.3579ZM 38.1649 14.0277L 36.7839 12.581L 38.1649 14.0277ZM 38.1674 14.0253L 36.7864 12.5786L 36.7864 12.5786L 38.1674 14.0253ZM 43.5097 8.92586L 42.129 7.47885L 42.1287 7.47914L 43.5097 8.92586ZM 43.51 6.66738L 42.1289 8.11401L 42.1293 8.11439L 43.51 6.66738ZM 37.0161 0.467989L 38.3972 -0.97864L 38.3971 -0.978728L 37.0161 0.467989ZM 34.6498 0.467989L 36.0308 1.91471L 36.0314 1.91409L 34.6498 0.467989ZM 29.3078 5.56715L 30.6887 7.01387L 30.6887 7.01387L 29.3078 5.56715ZM 9.58426 36.7917L 10.0655 38.7329L 10.581 38.6051L 10.9652 38.2384L 9.58426 36.7917ZM 4.00853 38.1738L 2.07865 37.6489L 1.185 40.9343L 4.48973 40.1151L 4.00853 38.1738ZM 5.45622 32.8516L 4.07527 31.4049L 3.67249 31.7893L 3.52634 32.3266L 5.45622 32.8516ZM 30.4894 8.95648L 31.8704 7.50981L 30.4895 6.19155L 29.1085 7.50976L 30.4894 8.95648ZM 34.6172 12.8968L 35.9981 14.3436L 37.5137 12.8969L 35.9982 11.4502L 34.6172 12.8968ZM 35.8328 3.85598L 37.2138 2.40931L 35.8329 1.09106L 34.4519 2.40927L 35.8328 3.85598ZM 39.9606 7.79635L 41.3415 9.24307L 42.8571 7.7964L 41.3416 6.34968L 39.9606 7.79635ZM 36.9835 10.6381L 35.6025 12.0848L 36.9835 13.403L 38.3645 12.0848L 36.9835 10.6381ZM 32.8558 6.69772L 31.4748 5.25101L 29.9592 6.69767L 31.4748 8.14439L 32.8558 6.69772ZM 27.924 4.12283L 1.38683 29.4536L 4.14872 32.347L 30.6859 7.01626L 27.924 4.12283ZM 1.38683 29.4536C 0.995417 29.8519 0.56631 30.5682 0.401078 31.1045L 4.26156 32.1517C 4.23816 32.238 4.19434 32.3035 4.14872 32.347L 1.38683 29.4536ZM 0.401442 31.1032L -1.87621 39.4764L 1.98355 40.5263L 4.26119 32.1531L 0.401442 31.1032ZM -1.87636 39.4769C -2.2226 40.7513 -1.82715 42.0846 -0.8913 42.9785L 1.87155 40.086C 1.96852 40.1786 2.03209 40.3476 1.9837 40.5257L -1.87636 39.4769ZM -0.890186 42.9796C -0.186541 43.6507 0.740289 44 1.67315 44L 1.67315 40C 1.72976 40 1.80265 40.0203 1.87044 40.085L -0.890186 42.9796ZM 1.67315 44C 1.93165 43.9965 2.31282 43.9509 2.57286 43.8906L 1.61455 40.0071C 1.63397 40.0023 1.65381 40 1.67315 40L 1.67315 44ZM 2.5749 43.8901L 11.3469 41.7158L 10.3845 37.8333L 1.61252 40.0076L 2.5749 43.8901ZM 11.3473 41.7157C 11.8811 41.5662 12.5981 41.1734 13.0091 40.8046L 10.2473 37.9112C 10.2933 37.8673 10.3417 37.8439 10.3842 37.8334L 11.3473 41.7157ZM 13.0091 40.8046L 39.5458 15.4744L 36.7839 12.581L 10.2473 37.9112L 13.0091 40.8046ZM 39.5458 15.4744C 39.4861 15.5314 39.431 15.5769 39.3864 15.6113C 39.3642 15.6284 39.3447 15.6427 39.329 15.6539C 39.3135 15.665 39.3009 15.6736 39.2939 15.6784C 39.2905 15.6808 39.2878 15.6826 39.2869 15.6832C 39.2866 15.6834 39.286 15.6838 39.2864 15.6835C 39.2866 15.6834 39.2874 15.6828 39.2881 15.6824C 39.2898 15.6812 39.2938 15.6785 39.2989 15.675C 39.304 15.6715 39.3115 15.6663 39.3205 15.66C 39.3295 15.6536 39.3411 15.6453 39.3545 15.6354C 39.3678 15.6255 39.3841 15.6132 39.4025 15.5988C 39.4209 15.5844 39.4425 15.5669 39.4663 15.5464C 39.4902 15.526 39.5175 15.5017 39.5472 15.4733L 36.7853 12.5799C 36.8149 12.5516 36.8423 12.5273 36.8661 12.5069C 36.8899 12.4865 36.9115 12.469 36.9298 12.4546C 36.9481 12.4402 36.9644 12.428 36.9777 12.4181C 36.9911 12.4083 37.0026 12.4 37.0115 12.3937C 37.0205 12.3874 37.0279 12.3822 37.033 12.3787C 37.038 12.3753 37.0419 12.3726 37.0435 12.3715C 37.0444 12.3709 37.0451 12.3705 37.0452 12.3704C 37.0451 12.3705 37.045 12.3705 37.0446 12.3708C 37.0437 12.3714 37.0409 12.3733 37.0374 12.3757C 37.0303 12.3806 37.0176 12.3893 37.002 12.4005C 36.9861 12.4118 36.9665 12.4262 36.9442 12.4434C 36.8993 12.478 36.844 12.5237 36.7839 12.581L 39.5458 15.4744ZM 39.5472 15.4733C 39.5622 15.459 39.5755 15.4459 39.587 15.4343C 39.5985 15.4227 39.6088 15.412 39.6179 15.4024C 39.6357 15.3836 39.6506 15.3671 39.6621 15.3542C 39.6737 15.3412 39.6835 15.3297 39.6913 15.3206C 39.6992 15.3113 39.7059 15.3032 39.7112 15.2968C 39.7215 15.2843 39.7295 15.2742 39.7334 15.2692C 39.7356 15.2665 39.7374 15.2643 39.7384 15.263C 39.7392 15.2619 39.74 15.2609 39.7401 15.2608C 39.7407 15.26 39.7375 15.2641 39.7337 15.2688C 39.7299 15.2737 39.722 15.2836 39.7118 15.296C 39.7065 15.3024 39.6999 15.3104 39.6921 15.3196C 39.6843 15.3287 39.6745 15.3401 39.663 15.3532C 39.6515 15.366 39.6367 15.3824 39.6189 15.4012C 39.6099 15.4107 39.5995 15.4214 39.588 15.433C 39.5766 15.4446 39.5633 15.4577 39.5483 15.472L 36.7864 12.5786C 36.7715 12.5929 36.7581 12.606 36.7467 12.6176C 36.7351 12.6292 36.7248 12.6399 36.7158 12.6495C 36.6979 12.6683 36.683 12.6848 36.6716 12.6977C 36.66 12.7107 36.6501 12.7222 36.6423 12.7314C 36.6345 12.7406 36.6278 12.7487 36.6224 12.7551C 36.6122 12.7676 36.6042 12.7777 36.6002 12.7827C 36.598 12.7854 36.5963 12.7877 36.5952 12.789C 36.5944 12.79 36.5936 12.791 36.5936 12.7911C 36.5929 12.7919 36.5961 12.7878 36.5999 12.7831C 36.6038 12.7782 36.6117 12.7683 36.6218 12.7559C 36.6271 12.7495 36.6338 12.7415 36.6416 12.7323C 36.6493 12.7232 36.6591 12.7118 36.6707 12.6988C 36.6821 12.6859 36.697 12.6695 36.7148 12.6507C 36.7238 12.6412 36.7341 12.6305 36.7456 12.6189C 36.7571 12.6073 36.7704 12.5942 36.7853 12.5799L 39.5472 15.4733ZM 39.5483 15.472L 44.8906 10.3726L 42.1287 7.47914L 36.7864 12.5786L 39.5483 15.472ZM 44.8903 10.3729C 46.3696 8.96145 46.3701 6.63199 44.8906 5.22036L 42.1293 8.11439C 42.055 8.04342 42 7.92676 42 7.79635C 42 7.66592 42.055 7.54951 42.129 7.47885L 44.8903 10.3729ZM 44.891 5.22075L 38.3972 -0.97864L 35.6351 1.91462L 42.1289 8.11401L 44.891 5.22075ZM 38.3971 -0.978728C 37.7019 -1.64236 36.7783 -2 35.8328 -2L 35.8328 2C 35.7753 2 35.7024 1.97884 35.6352 1.91471L 38.3971 -0.978728ZM 35.8328 -2C 34.888 -2 33.9637 -1.64256 33.2682 -0.978115L 36.0314 1.91409C 35.9634 1.97905 35.8903 2 35.8328 2L 35.8328 -2ZM 33.2689 -0.978728L 27.9268 4.12043L 30.6887 7.01387L 36.0308 1.91471L 33.2689 -0.978728ZM 27.9268 4.12043C 27.9874 4.06264 28.0431 4.01672 28.0882 3.98208C 28.1106 3.96487 28.1303 3.95045 28.1461 3.93916C 28.1618 3.92801 28.1744 3.91933 28.1815 3.91453C 28.185 3.91215 28.1877 3.91031 28.1886 3.90972C 28.1889 3.90949 28.1895 3.90913 28.1891 3.90939C 28.1889 3.9095 28.188 3.91008 28.1873 3.91057C 28.1856 3.91172 28.1816 3.91444 28.1765 3.91793C 28.1713 3.92147 28.1638 3.92667 28.1547 3.93306C 28.1457 3.93944 28.134 3.9478 28.1204 3.95776C 28.1069 3.96771 28.0905 3.9801 28.0719 3.99467C 28.0534 4.00921 28.0315 4.02689 28.0074 4.04751C 27.9832 4.06812 27.9555 4.09281 27.9254 4.1215L 30.6873 7.01493C 30.6573 7.04359 30.6296 7.06825 30.6055 7.08882C 30.5814 7.10941 30.5596 7.12705 30.5411 7.14156C 30.5226 7.15609 30.5062 7.16845 30.4927 7.17837C 30.4792 7.18829 30.4676 7.19661 30.4586 7.20297C 30.4496 7.20931 30.4421 7.21448 30.437 7.21798C 30.4319 7.22144 30.4279 7.22412 30.4263 7.22523C 30.4254 7.22582 30.4247 7.22629 30.4246 7.22636C 30.4248 7.22627 30.4248 7.22625 30.4252 7.22597C 30.4261 7.22534 30.4289 7.22345 30.4325 7.22103C 30.4397 7.21615 30.4524 7.20739 30.4682 7.19615C 30.4842 7.18476 30.5041 7.17024 30.5266 7.15292C 30.5719 7.11808 30.6279 7.07193 30.6887 7.01387L 27.9268 4.12043ZM 27.9254 4.1215C 27.8721 4.17245 27.8333 4.21523 27.8199 4.23022C 27.8074 4.24415 27.793 4.26064 27.7909 4.26316C 27.7811 4.27446 27.8058 4.24537 27.8323 4.2166C 27.8599 4.18642 27.9183 4.12439 28 4.05405C 28.0748 3.98962 28.2254 3.8687 28.4435 3.76458L 30.1664 7.37451C 30.3849 7.27026 30.5358 7.14914 30.6108 7.08448C 30.6928 7.0139 30.7514 6.95161 30.7793 6.92116C 30.804 6.89375 30.8181 6.87775 30.8214 6.87384C 30.821 6.87429 30.8086 6.88878 30.7927 6.90645C 30.7793 6.92135 30.7406 6.96405 30.6873 7.01493L 27.9254 4.1215ZM 9.10305 34.8504L 3.52732 36.2326L 4.48973 40.1151L 10.0655 38.7329L 9.10305 34.8504ZM 5.93841 38.6988L 7.3861 33.3765L 3.52634 32.3266L 2.07865 37.6489L 5.93841 38.6988ZM 6.83716 34.2983L 31.8704 10.4032L 29.1085 7.50976L 4.07527 31.4049L 6.83716 34.2983ZM 29.1084 10.4031L 33.2362 14.3435L 35.9982 11.4502L 31.8704 7.50981L 29.1084 10.4031ZM 33.2362 11.4501L 8.20331 35.345L 10.9652 38.2384L 35.9981 14.3436L 33.2362 11.4501ZM 34.4518 5.30265L 38.5796 9.24302L 41.3416 6.34968L 37.2138 2.40931L 34.4518 5.30265ZM 38.5797 6.34964L 35.6026 9.19138L 38.3645 12.0848L 41.3415 9.24307L 38.5797 6.34964ZM 38.3645 9.19142L 34.2367 5.25105L 31.4748 8.14439L 35.6025 12.0848L 38.3645 9.19142ZM 34.2367 8.14444L 37.2138 5.3027L 34.4519 2.40927L 31.4748 5.25101L 34.2367 8.14444Z"/>
<path id="path41_fill" d="M 0 0L 67 0L 67 6L 0 6L 0 0Z"/>
<path id="path42_stroke_2x" d="M 0 0L 0 -2L -2 -2L -2 0L 0 0ZM 67 0L 69 0L 69 -2L 67 -2L 67 0ZM 67 6L 67 8L 69 8L 69 6L 67 6ZM 0 6L -2 6L -2 8L 0 8L 0 6ZM 0 2L 67 2L 67 -2L 0 -2L 0 2ZM 65 0L 65 6L 69 6L 69 0L 65 0ZM 67 4L 0 4L 0 8L 67 8L 67 4ZM 2 6L 2 0L -2 0L -2 6L 2 6Z"/>
<path id="path43_fill" d="M 0 0L 67 0L 67 2L 0 2L 0 0Z"/>
<path id="path44_stroke_2x" d="M 0 0L 0 -2L -2 -2L -2 0L 0 0ZM 67 0L 69 0L 69 -2L 67 -2L 67 0ZM 67 2L 67 4L 69 4L 69 2L 67 2ZM 0 2L -2 2L -2 4L 0 4L 0 2ZM 0 2L 67 2L 67 -2L 0 -2L 0 2ZM 65 0L 65 2L 69 2L 69 0L 65 0ZM 67 0L 0 0L 0 4L 67 4L 67 0ZM 2 2L 2 0L -2 0L -2 2L 2 2Z"/>
<path id="path45_stroke_2x" d="M 262 130.5C 262 129.636 261.992 128.769 261.975 127.909L 259.975 127.948C 259.992 128.798 260 129.646 260 130.5L 262 130.5ZM 261.776 122.754C 261.676 121.032 261.542 119.31 261.376 117.607L 259.385 117.801C 259.549 119.484 259.68 121.168 259.779 122.87L 261.776 122.754ZM 260.775 112.474C 260.54 110.766 260.272 109.058 259.973 107.372L 258.003 107.721C 258.299 109.389 258.562 111.057 258.793 112.746L 260.775 112.474ZM 258.971 102.308C 258.603 100.625 258.201 98.9454 257.77 97.2879L 255.834 97.7916C 256.261 99.43 256.653 101.071 257.017 102.734L 258.971 102.308ZM 256.37 92.3151C 255.87 90.6664 255.336 89.0221 254.774 87.4016L 252.885 88.0568C 253.44 89.6586 253.962 91.2653 254.456 92.895L 256.37 92.3151ZM 252.986 82.5566C 252.358 80.9542 251.696 79.358 251.008 77.787L 249.176 78.5895C 249.857 80.1424 250.504 81.7021 251.124 83.286L 252.986 82.5566ZM 248.844 73.0997C 248.092 71.5521 247.306 70.0126 246.495 68.4996L 244.732 69.444C 245.534 70.9396 246.302 72.4439 247.045 73.9739L 248.844 73.0997ZM 243.968 63.9954C 243.096 62.5124 242.192 61.0397 241.265 59.5947L 239.582 60.6745C 240.498 62.103 241.382 63.5423 242.243 65.0083L 243.968 63.9954ZM 238.392 55.3038C 237.408 53.8943 236.391 52.4971 235.354 51.1288L 233.76 52.3371C 234.786 53.6898 235.78 55.0553 236.753 56.4488L 238.392 55.3038ZM 232.154 47.0756C 231.063 45.7475 229.94 44.4339 228.799 43.1501L 227.304 44.4792C 228.433 45.7483 229.53 47.0322 230.609 48.3452L 232.154 47.0756ZM 225.292 39.359C 224.101 38.1206 222.879 36.8986 221.641 35.7076L 220.255 37.1491C 221.479 38.3266 222.673 39.5209 223.851 40.7453L 225.292 39.359ZM 217.85 32.2014C 216.566 31.0599 215.252 29.9368 213.924 28.8456L 212.655 30.3909C 213.968 31.4697 215.252 32.5673 216.521 33.696L 217.85 32.2014ZM 209.871 25.646C 208.503 24.6087 207.106 23.5918 205.696 22.6076L 204.551 24.2474C 205.945 25.2203 207.31 26.2142 208.663 27.2398L 209.871 25.646ZM 201.405 19.7349C 199.96 18.808 198.488 17.9035 197.005 17.0324L 195.992 18.757C 197.458 19.618 198.897 20.5019 200.325 21.4183L 201.405 19.7349ZM 192.5 14.5046C 190.987 13.6943 189.448 12.9082 187.9 12.1561L 187.026 13.955C 188.556 14.6983 190.06 15.4665 191.556 16.2676L 192.5 14.5046ZM 183.213 9.99167C 181.642 9.30357 180.046 8.64151 178.443 8.01377L 177.714 9.87599C 179.298 10.4964 180.858 11.1433 182.411 11.8236L 183.213 9.99167ZM 173.598 6.22561C 171.978 5.66375 170.334 5.12964 168.685 4.63009L 168.105 6.54417C 169.735 7.03786 171.341 7.55974 172.943 8.11524L 173.598 6.22561ZM 163.712 3.23032C 162.055 2.79904 160.375 2.39699 158.693 2.02945L 158.266 3.98337C 159.929 4.34658 161.57 4.73943 163.208 5.16586L 163.712 3.23032ZM 153.628 1.02743C 151.942 0.728227 150.234 0.459649 148.526 0.225416L 148.254 2.20688C 149.943 2.43833 151.611 2.70079 153.279 2.99667L 153.628 1.02743ZM 143.393 -0.375902C 141.69 -0.541599 139.968 -0.675547 138.246 -0.775608L 138.13 1.22103C 139.832 1.31985 141.516 1.45078 143.199 1.61469L 143.393 -0.375902ZM 133.091 -0.974983C 132.231 -0.991593 131.364 -0.999988 130.5 -1L 130.5 1C 131.354 0.999988 132.202 1.0082 133.052 1.02464L 133.091 -0.974983ZM 130.5 -1C 129.636 -0.999988 128.769 -0.991593 127.909 -0.974983L 127.948 1.02464C 128.798 1.0082 129.646 0.999988 130.5 1L 130.5 -1ZM 122.754 -0.775608C 121.032 -0.675547 119.31 -0.541599 117.607 -0.375902L 117.801 1.61469C 119.484 1.45078 121.168 1.31985 122.87 1.22103L 122.754 -0.775608ZM 112.474 0.225416C 110.766 0.459648 109.058 0.728226 107.372 1.02743L 107.721 2.99667C 109.389 2.70079 111.057 2.43833 112.746 2.20688L 112.474 0.225416ZM 102.308 2.02944C 100.625 2.39699 98.9454 2.79904 97.2879 3.23032L 97.7916 5.16586C 99.43 4.73943 101.071 4.34658 102.734 3.98337L 102.308 2.02944ZM 92.3151 4.63009C 90.6664 5.12964 89.0221 5.66375 87.4016 6.22561L 88.0568 8.11523C 89.6586 7.55974 91.2653 7.03785 92.895 6.54417L 92.3151 4.63009ZM 82.5566 8.01376C 80.9542 8.6415 79.358 9.30357 77.787 9.99167L 78.5895 11.8236C 80.1424 11.1433 81.7021 10.4964 83.286 9.87599L 82.5566 8.01376ZM 73.0997 12.1561C 71.5521 12.9082 70.0126 13.6943 68.4996 14.5046L 69.4439 16.2676C 70.9396 15.4665 72.4439 14.6983 73.9738 13.955L 73.0997 12.1561ZM 63.9954 17.0324C 62.5124 17.9035 61.0397 18.808 59.5947 19.7349L 60.6745 21.4183C 62.103 20.5019 63.5423 19.618 65.0083 18.7569L 63.9954 17.0324ZM 55.3038 22.6076C 53.8943 23.5918 52.4971 24.6087 51.1288 25.646L 52.3371 27.2398C 53.6898 26.2142 55.0553 25.2203 56.4488 24.2474L 55.3038 22.6076ZM 47.0756 28.8456C 45.7475 29.9368 44.4339 31.0599 43.1501 32.2014L 44.4792 33.6959C 45.7482 32.5673 47.0322 31.4696 48.3452 30.3909L 47.0756 28.8456ZM 39.359 35.7076C 38.1206 36.8986 36.8986 38.1206 35.7076 39.359L 37.1491 40.7453C 38.3266 39.5209 39.5209 38.3266 40.7453 37.1491L 39.359 35.7076ZM 32.2014 43.1501C 31.0599 44.4339 29.9368 45.7475 28.8456 47.0756L 30.3909 48.3452C 31.4697 47.0322 32.5673 45.7482 33.6959 44.4792L 32.2014 43.1501ZM 25.646 51.1288C 24.6087 52.4971 23.5918 53.8943 22.6076 55.3038L 24.2474 56.4487C 25.2203 55.0553 26.2142 53.6898 27.2398 52.3371L 25.646 51.1288ZM 19.7349 59.5947C 18.808 61.0397 17.9035 62.5124 17.0324 63.9954L 18.757 65.0083C 19.618 63.5423 20.5019 62.103 21.4183 60.6745L 19.7349 59.5947ZM 14.5046 68.4996C 13.6943 70.0126 12.9082 71.552 12.1561 73.0997L 13.955 73.9738C 14.6983 72.4439 15.4665 70.9395 16.2676 69.4439L 14.5046 68.4996ZM 9.99167 77.787C 9.30357 79.358 8.64151 80.9541 8.01377 82.5566L 9.87599 83.286C 10.4964 81.702 11.1433 80.1424 11.8236 78.5894L 9.99167 77.787ZM 6.22561 87.4015C 5.66375 89.0221 5.12964 90.6664 4.63009 92.3151L 6.54417 92.895C 7.03786 91.2653 7.55974 89.6586 8.11524 88.0568L 6.22561 87.4015ZM 3.23032 97.2879C 2.79904 98.9454 2.39699 100.625 2.02945 102.308L 3.98337 102.734C 4.34658 101.071 4.73943 99.43 5.16586 97.7916L 3.23032 97.2879ZM 1.02744 107.372C 0.728228 109.058 0.459651 110.766 0.225418 112.474L 2.20688 112.746C 2.43833 111.057 2.7008 109.389 2.99668 107.721L 1.02744 107.372ZM -0.375901 117.607C -0.541598 119.31 -0.675546 121.032 -0.775608 122.754L 1.22103 122.87C 1.31986 121.168 1.45078 119.484 1.61469 117.801L -0.375901 117.607ZM -0.974982 127.909C -0.991593 128.769 -0.999988 129.636 -1 130.5L 1 130.5C 0.999988 129.646 1.0082 128.798 1.02464 127.948L -0.974982 127.909ZM -1 130.5C -0.999988 131.364 -0.991593 132.231 -0.974983 133.091L 1.02464 133.052C 1.0082 132.202 0.999988 131.354 1 130.5L -1 130.5ZM -0.775608 138.246C -0.675547 139.968 -0.541599 141.69 -0.375902 143.393L 1.61469 143.199C 1.45078 141.516 1.31985 139.832 1.22103 138.13L -0.775608 138.246ZM 0.225416 148.526C 0.459649 150.234 0.728226 151.942 1.02743 153.628L 2.99667 153.279C 2.70079 151.611 2.43833 149.943 2.20688 148.254L 0.225416 148.526ZM 2.02945 158.693C 2.39699 160.375 2.79904 162.055 3.23032 163.712L 5.16586 163.208C 4.73943 161.57 4.34658 159.929 3.98337 158.266L 2.02945 158.693ZM 4.63009 168.685C 5.12964 170.334 5.66375 171.978 6.22561 173.598L 8.11523 172.943C 7.55974 171.341 7.03786 169.735 6.54417 168.105L 4.63009 168.685ZM 8.01377 178.443C 8.64151 180.046 9.30357 181.642 9.99167 183.213L 11.8236 182.411C 11.1433 180.858 10.4964 179.298 9.87599 177.714L 8.01377 178.443ZM 12.1561 187.9C 12.9082 189.448 13.6943 190.987 14.5046 192.5L 16.2676 191.556C 15.4665 190.06 14.6983 188.556 13.955 187.026L 12.1561 187.9ZM 17.0324 197.005C 17.9035 198.488 18.808 199.96 19.7349 201.405L 21.4183 200.325C 20.5019 198.897 19.618 197.458 18.757 195.992L 17.0324 197.005ZM 22.6076 205.696C 23.5918 207.106 24.6087 208.503 25.646 209.871L 27.2398 208.663C 26.2142 207.31 25.2203 205.945 24.2474 204.551L 22.6076 205.696ZM 28.8456 213.924C 29.9368 215.252 31.0599 216.566 32.2014 217.85L 33.6959 216.521C 32.5673 215.252 31.4697 213.968 30.3909 212.655L 28.8456 213.924ZM 35.7076 221.641C 36.8986 222.879 38.1206 224.101 39.359 225.292L 40.7453 223.851C 39.5209 222.673 38.3266 221.479 37.1491 220.255L 35.7076 221.641ZM 43.1501 228.799C 44.4339 229.94 45.7475 231.063 47.0756 232.154L 48.3452 230.609C 47.0322 229.53 45.7482 228.433 44.4792 227.304L 43.1501 228.799ZM 51.1288 235.354C 52.4971 236.391 53.8943 237.408 55.3038 238.392L 56.4488 236.753C 55.0553 235.78 53.6898 234.786 52.3371 233.76L 51.1288 235.354ZM 59.5947 241.265C 61.0397 242.192 62.5124 243.096 63.9954 243.968L 65.0083 242.243C 63.5423 241.382 62.103 240.498 60.6745 239.582L 59.5947 241.265ZM 68.4996 246.495C 70.0126 247.306 71.5521 248.092 73.0997 248.844L 73.9738 247.045C 72.4439 246.302 70.9395 245.534 69.4439 244.732L 68.4996 246.495ZM 77.787 251.008C 79.358 251.696 80.9542 252.358 82.5566 252.986L 83.286 251.124C 81.7021 250.504 80.1424 249.857 78.5895 249.176L 77.787 251.008ZM 87.4016 254.774C 89.0221 255.336 90.6664 255.87 92.3151 256.37L 92.895 254.456C 91.2653 253.962 89.6586 253.44 88.0568 252.885L 87.4016 254.774ZM 97.2879 257.77C 98.9454 258.201 100.625 258.603 102.308 258.971L 102.734 257.017C 101.071 256.653 99.43 256.261 97.7916 255.834L 97.2879 257.77ZM 107.372 259.973C 109.058 260.272 110.766 260.54 112.474 260.775L 112.746 258.793C 111.057 258.562 109.389 258.299 107.721 258.003L 107.372 259.973ZM 117.607 261.376C 119.31 261.542 121.032 261.676 122.754 261.776L 122.87 259.779C 121.168 259.68 119.484 259.549 117.801 259.385L 117.607 261.376ZM 127.909 261.975C 128.769 261.992 129.636 262 130.5 262L 130.5 260C 129.646 260 128.798 259.992 127.948 259.975L 127.909 261.975ZM 130.5 262C 131.364 262 132.231 261.992 133.091 261.975L 133.052 259.975C 132.202 259.992 131.354 260 130.5 260L 130.5 262ZM 138.246 261.776C 139.968 261.676 141.69 261.542 143.393 261.376L 143.199 259.385C 141.516 259.549 139.832 259.68 138.13 259.779L 138.246 261.776ZM 148.526 260.775C 150.234 260.54 151.942 260.272 153.628 259.973L 153.279 258.003C 151.611 258.299 149.943 258.562 148.254 258.793L 148.526 260.775ZM 158.693 258.971C 160.375 258.603 162.055 258.201 163.712 257.77L 163.208 255.834C 161.57 256.261 159.929 256.653 158.266 257.017L 158.693 258.971ZM 168.685 256.37C 170.334 255.87 171.978 255.336 173.598 254.774L 172.943 252.885C 171.341 253.44 169.735 253.962 168.105 254.456L 168.685 256.37ZM 178.443 252.986C 180.046 252.358 181.642 251.696 183.213 251.008L 182.411 249.176C 180.858 249.857 179.298 250.504 177.714 251.124L 178.443 252.986ZM 187.9 248.844C 189.448 248.092 190.987 247.306 192.5 246.495L 191.556 244.732C 190.06 245.534 188.556 246.302 187.026 247.045L 187.9 248.844ZM 197.005 243.968C 198.488 243.096 199.96 242.192 201.405 241.265L 200.325 239.582C 198.897 240.498 197.458 241.382 195.992 242.243L 197.005 243.968ZM 205.696 238.392C 207.106 237.408 208.503 236.391 209.871 235.354L 208.663 233.76C 207.31 234.786 205.945 235.78 204.551 236.753L 205.696 238.392ZM 213.924 232.154C 215.252 231.063 216.566 229.94 217.85 228.799L 216.521 227.304C 215.252 228.433 213.968 229.53 212.655 230.609L 213.924 232.154ZM 221.641 225.292C 222.879 224.101 224.101 222.879 225.292 221.641L 223.851 220.255C 222.673 221.479 221.479 222.673 220.255 223.851L 221.641 225.292ZM 228.799 217.85C 229.94 216.566 231.063 215.252 232.154 213.924L 230.609 212.655C 229.53 213.968 228.433 215.252 227.304 216.521L 228.799 217.85ZM 235.354 209.871C 236.391 208.503 237.408 207.106 238.392 205.696L 236.753 204.551C 235.78 205.945 234.786 207.31 233.76 208.663L 235.354 209.871ZM 241.265 201.405C 242.192 199.96 243.096 198.488 243.968 197.005L 242.243 195.992C 241.382 197.458 240.498 198.897 239.582 200.325L 241.265 201.405ZM 246.495 192.5C 247.306 190.987 248.092 189.448 248.844 187.9L 247.045 187.026C 246.302 188.556 245.534 190.06 244.732 191.556L 246.495 192.5ZM 251.008 183.213C 251.696 181.642 252.358 180.046 252.986 178.443L 251.124 177.714C 250.504 179.298 249.857 180.858 249.176 182.411L 251.008 183.213ZM 254.774 173.598C 255.336 171.978 255.87 170.334 256.37 168.685L 254.456 168.105C 253.962 169.735 253.44 171.341 252.885 172.943L 254.774 173.598ZM 257.77 163.712C 258.201 162.055 258.603 160.375 258.971 158.693L 257.017 158.266C 256.653 159.929 256.261 161.57 255.834 163.208L 257.77 163.712ZM 259.973 153.628C 260.272 151.942 260.54 150.234 260.775 148.526L 258.793 148.254C 258.562 149.943 258.299 151.611 258.003 153.279L 259.973 153.628ZM 261.376 143.393C 261.542 141.69 261.676 139.968 261.776 138.246L 259.779 138.13C 259.68 139.832 259.549 141.516 259.385 143.199L 261.376 143.393ZM 261.975 133.091C 261.992 132.231 262 131.364 262 130.5L 260 130.5C 260 131.354 259.992 132.202 259.975 133.052L 261.975 133.091ZM 263 130.5C 263 129.631 262.991 128.755 262.975 127.89L 258.976 127.967C 258.992 128.813 259 129.651 259 130.5L 263 130.5ZM 262.774 122.696C 262.673 120.965 262.538 119.223 262.371 117.51L 258.39 117.898C 258.553 119.572 258.682 121.236 258.781 122.928L 262.774 122.696ZM 261.765 112.338C 261.53 110.62 261.258 108.893 260.957 107.197L 257.019 107.896C 257.313 109.554 257.572 111.203 257.802 112.881L 261.765 112.338ZM 259.948 102.094C 259.578 100.402 259.171 98.7031 258.737 97.0361L 254.866 98.0434C 255.29 99.6723 255.679 101.295 256.04 102.948L 259.948 102.094ZM 257.327 92.0251C 256.824 90.367 256.284 88.7038 255.719 87.0739L 251.94 88.3844C 252.492 89.9769 253.008 91.5648 253.499 93.1849L 257.327 92.0251ZM 253.917 82.1918C 253.286 80.5802 252.616 78.9658 251.924 77.3858L 248.26 78.9907C 248.937 80.5346 249.576 82.076 250.193 83.6508L 253.917 82.1918ZM 249.743 72.6627C 248.987 71.1061 248.192 69.5491 247.377 68.0275L 243.851 69.9161C 244.647 71.403 245.407 72.8898 246.146 74.4109L 249.743 72.6627ZM 244.83 63.4889C 243.954 61.9975 243.039 60.508 242.107 59.0548L 238.74 61.2145C 239.651 62.6347 240.525 64.0572 241.381 65.5148L 244.83 63.4889ZM 239.212 54.7313C 238.222 53.3138 237.194 51.9008 236.151 50.5247L 232.963 52.9412C 233.983 54.2861 234.965 55.6358 235.933 57.0213L 239.212 54.7313ZM 232.927 46.4408C 231.83 45.1052 230.694 43.7767 229.546 42.4856L 226.557 45.1437C 227.679 46.4054 228.764 47.6746 229.836 48.9801L 232.927 46.4408ZM 226.013 38.6658C 224.815 37.4204 223.58 36.1847 222.334 34.9868L 219.562 37.8699C 220.779 39.0405 221.959 40.2211 223.13 41.4385L 226.013 38.6658ZM 218.514 31.4541C 217.223 30.3062 215.895 29.1704 214.559 28.073L 212.02 31.1636C 213.325 32.2361 214.595 33.3211 215.856 34.4432L 218.514 31.4541ZM 210.475 24.8492C 209.099 23.806 207.686 22.7776 206.269 21.7877L 203.979 25.0673C 205.364 26.0346 206.714 27.0169 208.059 28.0367L 210.475 24.8492ZM 201.945 18.8932C 200.492 17.9611 199.003 17.0463 197.511 16.1702L 195.485 19.6192C 196.943 20.4752 198.365 21.3489 199.786 22.26L 201.945 18.8932ZM 192.973 13.6231C 191.451 12.8082 189.894 12.0131 188.337 11.2567L 186.589 14.8544C 188.11 15.5934 189.597 16.3526 191.084 17.1491L 192.973 13.6231ZM 183.614 9.0757C 182.034 8.38369 180.42 7.71406 178.808 7.08266L 177.349 10.8071C 178.924 11.4239 180.465 12.0632 182.009 12.7396L 183.614 9.0757ZM 173.926 5.2808C 172.296 4.71576 170.633 4.17553 168.975 3.67305L 167.815 7.50121C 169.435 7.99197 171.023 8.50773 172.616 9.06005L 173.926 5.2808ZM 163.964 2.26256C 162.297 1.82884 160.598 1.42219 158.906 1.05248L 158.052 4.96033C 159.706 5.32137 161.328 5.70963 162.957 6.13362L 163.964 2.26256ZM 153.803 0.0428146C 152.107 -0.258057 150.38 -0.529692 148.662 -0.765316L 148.119 3.19761C 149.797 3.42767 151.446 3.68708 153.104 3.98129L 153.803 0.0428146ZM 143.49 -1.3712C 141.777 -1.53779 140.035 -1.67325 138.304 -1.77392L 138.072 2.21934C 139.764 2.31756 141.428 2.44697 143.102 2.60999L 143.49 -1.3712ZM 133.11 -1.9748C 132.245 -1.99149 131.369 -1.99998 130.5 -2L 130.5 2C 131.349 1.99998 132.187 2.00809 133.033 2.02446L 133.11 -1.9748ZM 130.5 -2C 129.631 -1.99998 128.755 -1.99149 127.89 -1.9748L 127.967 2.02446C 128.813 2.00809 129.651 1.99998 130.5 2L 130.5 -2ZM 122.696 -1.77392C 120.965 -1.67325 119.223 -1.53779 117.51 -1.3712L 117.898 2.60999C 119.572 2.44697 121.236 2.31756 122.928 2.21934L 122.696 -1.77392ZM 112.338 -0.765317C 110.62 -0.529693 108.893 -0.258058 107.197 0.0428135L 107.896 3.98129C 109.554 3.68708 111.203 3.42767 112.881 3.19761L 112.338 -0.765317ZM 102.094 1.05248C 100.402 1.42219 98.7031 1.82884 97.0361 2.26255L 98.0434 6.13362C 99.6723 5.70963 101.295 5.32137 102.948 4.96033L 102.094 1.05248ZM 92.0251 3.67305C 90.3669 4.17553 88.7038 4.71575 87.0739 5.2808L 88.3844 9.06004C 89.9769 8.50773 91.5648 7.99196 93.1849 7.50121L 92.0251 3.67305ZM 82.1918 7.08265C 80.5802 7.71406 78.9658 8.38369 77.3858 9.07569L 78.9907 12.7396C 80.5346 12.0632 82.076 11.4239 83.6508 10.8071L 82.1918 7.08265ZM 72.6627 11.2567C 71.1061 12.0131 69.5491 12.8082 68.0275 13.6231L 69.9161 17.1491C 71.403 16.3526 72.8898 15.5934 74.4109 14.8544L 72.6627 11.2567ZM 63.4889 16.1702C 61.9975 17.0463 60.508 17.9611 59.0548 18.8932L 61.2145 22.26C 62.6347 21.3489 64.0572 20.4752 65.5148 19.6192L 63.4889 16.1702ZM 54.7313 21.7877C 53.3138 22.7776 51.9008 23.806 50.5246 24.8492L 52.9412 28.0367C 54.2861 27.0169 55.6358 26.0346 57.0213 25.0673L 54.7313 21.7877ZM 46.4407 28.073C 45.1052 29.1704 43.7767 30.3062 42.4856 31.4541L 45.1437 34.4432C 46.4054 33.3211 47.6746 32.2361 48.9801 31.1636L 46.4407 28.073ZM 38.6658 34.9868C 37.4204 36.1846 36.1846 37.4204 34.9868 38.6658L 37.8699 41.4385C 39.0405 40.2211 40.2211 39.0405 41.4385 37.8699L 38.6658 34.9868ZM 31.4541 42.4856C 30.3062 43.7767 29.1704 45.1052 28.073 46.4407L 31.1636 48.98C 32.2361 47.6746 33.3211 46.4054 34.4432 45.1437L 31.4541 42.4856ZM 24.8492 50.5246C 23.806 51.9008 22.7776 53.3138 21.7877 54.7313L 25.0673 57.0212C 26.0346 55.6358 27.0169 54.2861 28.0367 52.9412L 24.8492 50.5246ZM 18.8932 59.0547C 17.9611 60.508 17.0463 61.9975 16.1702 63.4889L 19.6192 65.5148C 20.4752 64.0572 21.3489 62.6346 22.26 61.2144L 18.8932 59.0547ZM 13.6231 68.0275C 12.8082 69.5491 12.0131 71.1061 11.2567 72.6627L 14.8544 74.4109C 15.5934 72.8898 16.3526 71.403 17.1491 69.9161L 13.6231 68.0275ZM 9.0757 77.3857C 8.38369 78.9658 7.71406 80.5802 7.08266 82.1918L 10.8071 83.6507C 11.4239 82.076 12.0632 80.5346 12.7396 78.9907L 9.0757 77.3857ZM 5.2808 87.0739C 4.71576 88.7038 4.17553 90.3669 3.67305 92.0251L 7.50121 93.1849C 7.99197 91.5648 8.50773 89.9769 9.06005 88.3844L 5.2808 87.0739ZM 2.26255 97.0361C 1.82884 98.7031 1.42219 100.402 1.05248 102.094L 4.96033 102.948C 5.32137 101.295 5.70963 99.6723 6.13362 98.0434L 2.26255 97.0361ZM 0.0428157 107.197C -0.258056 108.893 -0.52969 110.62 -0.765315 112.338L 3.19762 112.881C 3.42767 111.203 3.68708 109.554 3.9813 107.896L 0.0428157 107.197ZM -1.3712 117.51C -1.53779 119.223 -1.67325 120.965 -1.77392 122.696L 2.21934 122.928C 2.31756 121.236 2.44697 119.572 2.60999 117.898L -1.3712 117.51ZM -1.9748 127.89C -1.99149 128.755 -1.99998 129.631 -2 130.5L 2 130.5C 1.99998 129.651 2.00809 128.813 2.02446 127.967L -1.9748 127.89ZM -2 130.5C -1.99998 131.369 -1.99149 132.245 -1.9748 133.11L 2.02446 133.033C 2.00809 132.187 1.99998 131.349 2 130.5L -2 130.5ZM -1.77392 138.304C -1.67325 140.035 -1.53779 141.777 -1.3712 143.49L 2.60999 143.102C 2.44697 141.428 2.31756 139.764 2.21934 138.072L -1.77392 138.304ZM -0.765317 148.662C -0.529692 150.38 -0.258057 152.107 0.0428143 153.803L 3.98129 153.104C 3.68708 151.446 3.42767 149.797 3.19761 148.119L -0.765317 148.662ZM 1.05248 158.906C 1.42219 160.598 1.82884 162.297 2.26255 163.964L 6.13362 162.957C 5.70963 161.328 5.32137 159.706 4.96033 158.052L 1.05248 158.906ZM 3.67305 168.975C 4.17553 170.633 4.71576 172.296 5.2808 173.926L 9.06004 172.616C 8.50773 171.023 7.99197 169.435 7.50121 167.815L 3.67305 168.975ZM 7.08265 178.808C 7.71406 180.42 8.38369 182.034 9.07569 183.614L 12.7396 182.009C 12.0632 180.465 11.4239 178.924 10.8071 177.349L 7.08265 178.808ZM 11.2567 188.337C 12.0131 189.894 12.8082 191.451 13.6231 192.973L 17.1491 191.084C 16.3526 189.597 15.5934 188.11 14.8544 186.589L 11.2567 188.337ZM 16.1702 197.511C 17.0463 199.003 17.9611 200.492 18.8932 201.945L 22.26 199.786C 21.3489 198.365 20.4752 196.943 19.6192 195.485L 16.1702 197.511ZM 21.7877 206.269C 22.7776 207.686 23.806 209.099 24.8492 210.475L 28.0367 208.059C 27.0169 206.714 26.0346 205.364 25.0673 203.979L 21.7877 206.269ZM 28.073 214.559C 29.1704 215.895 30.3062 217.223 31.4541 218.514L 34.4432 215.856C 33.3211 214.595 32.2361 213.325 31.1636 212.02L 28.073 214.559ZM 34.9868 222.334C 36.1846 223.58 37.4204 224.815 38.6658 226.013L 41.4385 223.13C 40.2211 221.959 39.0405 220.779 37.8699 219.562L 34.9868 222.334ZM 42.4856 229.546C 43.7767 230.694 45.1052 231.83 46.4408 232.927L 48.9801 229.836C 47.6746 228.764 46.4054 227.679 45.1437 226.557L 42.4856 229.546ZM 50.5246 236.151C 51.9008 237.194 53.3138 238.222 54.7313 239.212L 57.0213 235.933C 55.6358 234.965 54.2861 233.983 52.9412 232.963L 50.5246 236.151ZM 59.0548 242.107C 60.508 243.039 61.9975 243.954 63.4889 244.83L 65.5148 241.381C 64.0572 240.525 62.6347 239.651 61.2145 238.74L 59.0548 242.107ZM 68.0275 247.377C 69.5491 248.192 71.1061 248.987 72.6627 249.743L 74.4109 246.146C 72.8898 245.407 71.403 244.647 69.9161 243.851L 68.0275 247.377ZM 77.3858 251.924C 78.9658 252.616 80.5802 253.286 82.1918 253.917L 83.6508 250.193C 82.076 249.576 80.5346 248.937 78.9907 248.26L 77.3858 251.924ZM 87.0739 255.719C 88.7038 256.284 90.3669 256.824 92.0251 257.327L 93.1849 253.499C 91.5648 253.008 89.9769 252.492 88.3844 251.94L 87.0739 255.719ZM 97.0361 258.737C 98.7031 259.171 100.402 259.578 102.094 259.948L 102.948 256.04C 101.295 255.679 99.6723 255.29 98.0434 254.866L 97.0361 258.737ZM 107.197 260.957C 108.893 261.258 110.62 261.53 112.338 261.765L 112.881 257.802C 111.203 257.572 109.554 257.313 107.896 257.019L 107.197 260.957ZM 117.51 262.371C 119.223 262.538 120.965 262.673 122.696 262.774L 122.928 258.781C 121.236 258.682 119.572 258.553 117.898 258.39L 117.51 262.371ZM 127.89 262.975C 128.755 262.991 129.631 263 130.5 263L 130.5 259C 129.651 259 128.813 258.992 127.967 258.976L 127.89 262.975ZM 130.5 263C 131.369 263 132.245 262.991 133.11 262.975L 133.033 258.976C 132.187 258.992 131.349 259 130.5 259L 130.5 263ZM 138.304 262.774C 140.035 262.673 141.777 262.538 143.49 262.371L 143.102 258.39C 141.428 258.553 139.764 258.682 138.072 258.781L 138.304 262.774ZM 148.662 261.765C 150.38 261.53 152.107 261.258 153.803 260.957L 153.104 257.019C 151.446 257.313 149.797 257.572 148.119 257.802L 148.662 261.765ZM 158.906 259.948C 160.598 259.578 162.297 259.171 163.964 258.737L 162.957 254.866C 161.328 255.29 159.706 255.679 158.052 256.04L 158.906 259.948ZM 168.975 257.327C 170.633 256.824 172.296 256.284 173.926 255.719L 172.616 251.94C 171.023 252.492 169.435 253.008 167.815 253.499L 168.975 257.327ZM 178.808 253.917C 180.42 253.286 182.034 252.616 183.614 251.924L 182.009 248.26C 180.465 248.937 178.924 249.576 177.349 250.193L 178.808 253.917ZM 188.337 249.743C 189.894 248.987 191.451 248.192 192.973 247.377L 191.084 243.851C 189.597 244.647 188.11 245.407 186.589 246.146L 188.337 249.743ZM 197.511 244.83C 199.003 243.954 200.492 243.039 201.945 242.107L 199.786 238.74C 198.365 239.651 196.943 240.525 195.485 241.381L 197.511 244.83ZM 206.269 239.212C 207.686 238.222 209.099 237.194 210.475 236.151L 208.059 232.963C 206.714 233.983 205.364 234.965 203.979 235.933L 206.269 239.212ZM 214.559 232.927C 215.895 231.83 217.223 230.694 218.514 229.546L 215.856 226.557C 214.595 227.679 213.325 228.764 212.02 229.836L 214.559 232.927ZM 222.334 226.013C 223.58 224.815 224.815 223.58 226.013 222.334L 223.13 219.562C 221.959 220.779 220.779 221.959 219.562 223.13L 222.334 226.013ZM 229.546 218.514C 230.694 217.223 231.83 215.895 232.927 214.559L 229.836 212.02C 228.764 213.325 227.679 214.595 226.557 215.856L 229.546 218.514ZM 236.151 210.475C 237.194 209.099 238.222 207.686 239.212 206.269L 235.933 203.979C 234.965 205.364 233.983 206.714 232.963 208.059L 236.151 210.475ZM 242.107 201.945C 243.039 200.492 243.954 199.003 244.83 197.511L 241.381 195.485C 240.525 196.943 239.651 198.365 238.74 199.786L 242.107 201.945ZM 247.377 192.973C 248.192 191.451 248.987 189.894 249.743 188.337L 246.146 186.589C 245.407 188.11 244.647 189.597 243.851 191.084L 247.377 192.973ZM 251.924 183.614C 252.616 182.034 253.286 180.42 253.917 178.808L 250.193 177.349C 249.576 178.924 248.937 180.465 248.26 182.009L 251.924 183.614ZM 255.719 173.926C 256.284 172.296 256.824 170.633 257.327 168.975L 253.499 167.815C 253.008 169.435 252.492 171.023 251.94 172.616L 255.719 173.926ZM 258.737 163.964C 259.171 162.297 259.578 160.598 259.948 158.906L 256.04 158.052C 255.679 159.706 255.29 161.328 254.866 162.957L 258.737 163.964ZM 260.957 153.803C 261.258 152.107 261.53 150.38 261.765 148.662L 257.802 148.119C 257.572 149.797 257.313 151.446 257.019 153.104L 260.957 153.803ZM 262.371 143.49C 262.538 141.777 262.673 140.035 262.774 138.304L 258.781 138.072C 258.682 139.764 258.553 141.428 258.39 143.102L 262.371 143.49ZM 262.975 133.11C 262.991 132.245 263 131.369 263 130.5L 259 130.5C 259 131.349 258.992 132.187 258.976 133.033L 262.975 133.11Z"/>
<path id="path46_fill" d="M 57.2314 3.09596e-06L 2.1243 3.09596e-06C 0.950881 3.09596e-06 -2.03397e-06 0.949111 -2.03397e-06 2.11971C -2.03397e-06 3.29032 0.950881 4.23942 2.1243 4.23942L 57.2317 4.23942C 58.4051 4.23942 59.356 3.29032 59.356 2.11971C 59.356 0.949111 58.4048 3.09596e-06 57.2314 3.09596e-06Z"/>
<path id="path47_fill" d="M 57.2314 2.40797e-06L 2.1243 2.40797e-06C 0.950881 2.40797e-06 -2.03397e-06 0.949111 -2.03397e-06 2.11971C -2.03397e-06 3.29032 0.950881 4.23943 2.1243 4.23943L 57.2317 4.23943C 58.4051 4.23943 59.356 3.29032 59.356 2.11971C 59.3557 0.948829 58.4048 2.40797e-06 57.2314 2.40797e-06Z"/>
<path id="path48_fill" d="M 0 5C 0 2.23858 2.23858 0 5 0L 98.7594 0C 101.521 0 103.759 2.23858 103.759 5L 103.759 132.412C 103.759 135.173 101.521 137.412 98.7594 137.412L 5 137.412C 2.23858 137.412 0 135.173 0 132.412L 0 5Z"/>
<path id="path49_stroke" d="M 5 2.5L 98.7594 2.5L 98.7594 -2.5L 5 -2.5L 5 2.5ZM 101.259 5L 101.259 132.412L 106.259 132.412L 106.259 5L 101.259 5ZM 98.7594 134.912L 5 134.912L 5 139.912L 98.7594 139.912L 98.7594 134.912ZM 2.5 132.412L 2.5 5L -2.5 5L -2.5 132.412L 2.5 132.412ZM 5 -2.5C 0.857864 -2.5 -2.5 0.857864 -2.5 5L 2.5 5C 2.5 3.61929 3.61929 2.5 5 2.5L 5 -2.5ZM 98.7594 2.5C 100.14 2.5 101.259 3.61929 101.259 5L 106.259 5C 106.259 0.857864 102.902 -2.5 98.7594 -2.5L 98.7594 2.5ZM 101.259 132.412C 101.259 133.792 100.14 134.912 98.7594 134.912L 98.7594 139.912C 102.902 139.912 106.259 136.554 106.259 132.412L 101.259 132.412ZM 5 134.912C 3.61929 134.912 2.5 133.792 2.5 132.412L -2.5 132.412C -2.5 136.554 0.857864 139.912 5 139.912L 5 134.912Z"/>
<path id="path50_fill" d="M 63.0156 62.4048C 63.1203 67.4107 60.0933 69.6054 54.9911 69.6054L 38.7613 69.6054C 34.9822 69.6054 32.1794 76.2758 31.97 78.1529C 32.0842 76.3224 28.0334 69.3906 24.4733 69.6054L 7.54855 69.6054C 2.38926 69.6054 0.0571138 67.42 0.0571138 62.4048L 0.0571138 62.2461L 0 62.2461L 0 0L 63.1203 0L 63.1203 62.2461L 63.0156 62.2461L 63.0156 62.4048Z"/>
<path id="path51_stroke" d="M 63.0156 62.4048L 60.5156 62.4048L 60.5156 62.431L 60.5161 62.4571L 63.0156 62.4048ZM 31.97 78.1529L 29.4749 77.9972C 29.3904 79.3516 30.4017 80.526 31.7535 80.6435C 33.1054 80.7611 34.3042 79.7787 34.4546 78.4301L 31.97 78.1529ZM 24.4733 69.6054L 24.4733 72.1054L 24.5486 72.1054L 24.6238 72.1009L 24.4733 69.6054ZM 0.0571138 62.2461L 2.55711 62.2461L 2.55711 59.7461L 0.0571138 59.7461L 0.0571138 62.2461ZM 0 62.2461L -2.5 62.2461L -2.5 64.7461L 0 64.7461L 0 62.2461ZM 0 0L 0 -2.5L -2.5 -2.5L -2.5 0L 0 0ZM 63.1203 0L 65.6203 0L 65.6203 -2.5L 63.1203 -2.5L 63.1203 0ZM 63.1203 62.2461L 63.1203 64.7461L 65.6203 64.7461L 65.6203 62.2461L 63.1203 62.2461ZM 63.0156 62.2461L 63.0156 59.7461L 60.5156 59.7461L 60.5156 62.2461L 63.0156 62.2461ZM 60.5161 62.4571C 60.5574 64.4295 59.996 65.4171 59.3367 65.9776C 58.5904 66.612 57.2443 67.1054 54.9911 67.1054L 54.9911 72.1054C 57.8401 72.1054 60.5586 71.5014 62.5752 69.787C 64.6787 67.9987 65.5785 65.3861 65.515 62.3526L 60.5161 62.4571ZM 54.9911 67.1054L 38.7613 67.1054L 38.7613 72.1054L 54.9911 72.1054L 54.9911 67.1054ZM 38.7613 67.1054C 37.0511 67.1054 35.624 67.8622 34.549 68.7447C 33.5573 69.5768 32.5886 70.7763 31.9122 71.842C 30.5894 73.9402 29.6457 76.4394 29.4854 77.8758L 34.4546 78.4301C 34.5038 77.9893 35.0661 76.2148 36.1418 74.5085C 36.6647 73.6719 37.1184 73.0865 37.7216 72.6092C 38.2415 72.1824 38.5819 72.1054 38.7613 72.1054L 38.7613 67.1054ZM 34.4652 78.3086C 34.5367 77.1626 34.0385 75.8751 33.6153 74.9629C 33.142 73.9497 32.4036 72.6962 31.6034 71.6173C 30.7996 70.5458 29.708 69.3779 28.6469 68.5812C 27.5415 67.7657 26.0424 67.0062 24.3227 67.1099L 24.6238 72.1009C 24.6842 72.0972 25.0265 72.1237 25.6784 72.6046C 26.3745 73.1045 26.9559 73.7436 27.5957 74.607C 28.2389 75.4631 28.7143 76.2724 29.0796 77.067C 29.4951 77.9626 29.4605 78.228 29.4749 77.9972L 34.4652 78.3086ZM 24.4733 67.1054L 7.54855 67.1054L 7.54855 72.1054L 24.4733 72.1054L 24.4733 67.1054ZM 7.54855 67.1054C 5.25382 67.1054 4.15106 66.6094 3.59514 66.0782C 3.06425 65.571 2.55711 64.5742 2.55711 62.4048L -2.44289 62.4048C -2.44289 65.2507 -1.78395 67.8541 0.141053 69.6934C 2.04103 71.5087 4.68399 72.1054 7.54855 72.1054L 7.54855 67.1054ZM 2.55711 62.4048L 2.55711 62.2461L -2.44289 62.2461L -2.44289 62.4048L 2.55711 62.4048ZM 0.0571138 59.7461L 0 59.7461L 0 64.7461L 0.0571138 64.7461L 0.0571138 59.7461ZM 2.5 62.2461L 2.5 0L -2.5 0L -2.5 62.2461L 2.5 62.2461ZM 0 2.5L 63.1203 2.5L 63.1203 -2.5L 0 -2.5L 0 2.5ZM 60.6203 0L 60.6203 62.2461L 65.6203 62.2461L 65.6203 0L 60.6203 0ZM 63.1203 59.7461L 63.0156 59.7461L 63.0156 64.7461L 63.1203 64.7461L 63.1203 59.7461ZM 60.5156 62.2461L 60.5156 62.4048L 65.5156 62.4048L 65.5156 62.2461L 60.5156 62.2461Z"/>
<path id="path52_fill" d="M 24.7398 40.9246C 24.3686 42.2788 24.1306 44.3147 24.2543 45.1833C 23.0074 44.5575 23.7022 42.12 24.1782 41.074C 24.8445 39.6171 25.3205 37.8426 25.4728 36.7032C 25.6822 37.2449 24.9492 40.1588 24.7398 40.9246ZM 22.8265 39.5517C 22.2744 40.2802 21.827 40.8218 21.4748 41.7558C 20.8465 41.6811 20.9703 40.9059 21.1892 40.523C 21.6176 39.7572 23.3691 38.7485 24.2543 37.7212C 23.9402 38.2442 23.1977 39.0661 22.8265 39.5517ZM 20.818 43.661C 20.0755 43.661 19.552 43.2127 19.9327 42.5963C 20.1517 42.8858 20.561 43.0072 20.8656 43.0352C 20.818 43.3248 20.8085 43.3995 20.818 43.661ZM 23.8355 7.35933C 24.3305 7.41536 24.8731 7.2099 25.1586 6.84567C 23.9497 6.95774 22.7408 6.50011 22.1411 5.79033C 22.7123 5.61289 23.055 5.26734 23.35 4.84707C 22.8075 5.09923 22.1506 5.17394 21.4462 5.09923C 22.303 4.92178 23.6071 4.24002 23.6451 3.63297C 23.4452 3.86645 21.7413 3.9505 20.7799 3.9505L 15.8776 3.9505C 15.6968 3.9505 15.5921 4.10927 15.6016 4.30539C 15.2779 4.212 15.0305 4.38944 15.04 4.735C 13.793 4.735 12.6698 5.49148 12.9268 6.92972C 13.022 7.48074 13.2409 7.72356 13.5645 7.98506C 14.1071 7.14452 15.6682 7.08849 16.6582 7.6395C 16.1156 7.60215 15.316 7.75157 14.8401 7.9477C 14.2594 8.19052 13.536 8.50805 12.7649 8.41466C 12.27 8.35863 11.9749 8.03175 11.8892 7.66752C 11.6512 7.901 11.8511 8.90964 12.7269 9.31123C 13.1838 9.52603 13.9739 9.60075 14.526 9.23651C 14.7258 9.09643 15.535 8.23721 16.5345 8.21854C 15.0971 8.62012 14.6878 9.61942 15.811 10.2545C 15.8015 9.88092 15.7349 9.40462 16.4678 8.96568C 16.8486 8.73219 17.4864 8.56409 18.1241 8.76021C 18.324 8.82559 18.6381 8.99369 18.838 9.03105C 19.1427 9.08709 19.295 8.9003 19.3616 8.79757C 20.0089 9.28321 20.9608 10.7401 21.1512 11.646C 21.3701 12.692 21.2273 13.3831 20.6752 13.9902C 20.5134 14.177 19.6472 14.8681 18.8 14.149C 18.6762 15.2043 19.59 15.83 20.6371 15.4751C 20.4372 15.6993 20.0755 15.9514 19.5996 16.1382C 18.8476 16.4371 18.1051 16.1662 17.7624 15.5498C 16.9533 16.4558 17.3436 18.0247 18.6381 18.1742C 18.048 19.3042 16.0109 19.3509 15.0971 18.0434C 14.526 17.2216 15.1923 16.6145 15.5254 16.297C 16.3822 15.4938 16.3536 14.7 15.7634 13.8408C 14.9733 12.7014 12.546 10.8242 11.6227 9.45132C 11.4418 9.67546 11.3752 9.91828 11.3371 10.0023C 10.4709 9.36726 9.4809 8.00373 9.13821 6.96708C 8.95735 7.01377 8.83361 7.17254 8.70986 7.29395C 7.32961 5.62223 4.86419 1.57833 4.16931 -2.85011e-07C 2.69387 0.700443 2.73194 2.74574 3.16982 3.93182C 3.56961 5.02451 4.24546 6.1639 5.65427 7.77025C 5.20688 7.46206 2.44638 4.67896 1.83716 4.33341C 0.790075 5.79033 1.48496 8.29325 3.44587 9.36726C 2.81762 9.1151 1.37073 8.58277 0.590176 8.76021C 0.437873 10.3572 1.76101 11.4406 2.59868 12.0476C 1.8086 11.8702 0.904302 11.7394 -7.2624e-08 11.9916C 0.0761517 13.0843 1.22795 14.3171 2.87473 14.8587C 1.83716 14.7934 0.780556 14.8868 0.114228 15.2977C 0.266531 16.4184 1.54207 17.4084 3.14126 17.6325C 2.07514 17.7446 1.12324 18.2115 0.64729 18.8279C 1.20891 19.5564 2.06562 20.1354 3.36972 20.1167C 2.75098 20.3222 1.99898 20.9293 1.7039 21.6951C 2.45589 22.2741 3.37924 22.6477 5.521 21.9005C 3.06511 22.9092 3.54106 23.3948 3.16982 24.4315C 3.61721 24.5996 4.01701 25.0572 5.1688 24.7677C 5.83513 24.5996 6.92981 23.5909 7.87219 22.9839C 7.55806 23.3014 6.17781 24.282 5.57812 24.8517C 4.90227 25.4868 5.37822 26.1405 5.37822 26.7196C 5.87321 26.7289 6.74895 27.1118 7.32961 26.5982C 7.53903 26.4207 10.0616 23.3201 10.4138 23.0399C 10.2995 23.3014 8.69082 25.2907 7.96738 26.4301C 7.4248 27.2893 8.18632 27.8403 8.30054 28.3539C 8.87168 28.1765 9.64272 28.4847 10.0711 27.8029C 10.4804 27.1492 11.6988 24.805 12.1557 24.1606C 11.9749 24.6556 10.6898 27.3453 10.6041 27.5881C 10.2995 28.466 11.0706 28.6341 11.3942 29.2318C 11.8702 28.933 12.7173 29.1758 13.041 28.3166C 13.2694 27.7189 13.774 25.6923 14.05 25.1693C 14.0119 25.7483 13.8311 26.5515 13.7073 27.4667C 13.5836 28.3353 14.4403 28.3353 14.9162 28.8116C 15.3255 28.4567 16.1061 28.5501 16.2394 27.7376C 16.3536 27.0465 16.3726 25.3187 16.3726 25.3187C 16.5059 25.4121 16.5725 25.4308 16.6868 25.5522C 17.0009 25.2346 17.6006 25.2346 17.8195 24.8144C 17.8957 24.8517 17.9433 24.9078 18.0289 24.9545C 18.7048 26.0565 18.7524 28.1578 17.8195 28.9236C 18.0956 28.933 18.4097 28.8863 18.6286 28.7836C 18.2193 29.6428 17.296 29.9229 16.2394 29.5307C 16.2774 29.7362 16.306 29.8576 16.4012 29.9977C 15.2494 30.1658 14.7544 30.5954 14.3261 31.3238C 13.774 32.2764 14.3736 33.5372 14.2023 34.0229C 14.0881 34.3591 13.6883 34.6486 13.0791 34.3964C 13.3837 35.6759 15.0209 35.5078 15.4493 34.8074C 15.6111 35.3957 15.4588 36.0775 15.1447 36.3483C 15.6587 36.3857 16.0775 36.1616 16.3536 35.788C 16.4107 35.9187 16.4297 36.0495 16.4488 36.1896C 16.7248 36.0588 16.9057 35.9187 17.0294 35.7413C 17.077 35.9187 17.1342 36.367 16.9914 36.6659C 17.553 36.7686 18.0956 36.4511 18.2574 35.6666C 18.4954 36.0401 18.581 36.1522 18.7048 36.6005C 18.9808 36.4324 19.0855 36.2643 19.1046 35.9374C 19.6662 36.4324 20.4563 36.367 20.818 36.2083C 21.0655 36.1055 21.6176 35.6853 21.6176 35.0689C 21.1512 35.2837 20.0374 35.5825 19.9042 34.4618C 19.7804 33.4719 20.6752 32.6593 22.0174 32.9956C 22.9788 33.2384 24.3305 35.2183 23.093 36.0495C 22.4648 36.4698 21.5414 36.862 21.6557 37.9267C 22.0555 37.4317 22.598 37.2076 23.312 37.2636C 22.2839 38.0107 21.4748 38.0854 20.4372 38.6645C 19.4949 39.1875 18.7905 40.084 18.0765 40.1121C 17.4959 40.1307 17.1913 39.477 17.7148 38.9727C 17.1722 38.8699 16.4488 39.2622 16.2394 39.8319C 15.9633 40.5977 16.1918 41.1767 16.6772 41.4756C 16.0109 41.8211 15.5064 42.5216 15.7634 43.5115C 15.9633 44.296 16.801 44.3054 16.4773 45.314C 16.9247 45.1833 17.2389 44.8938 17.3531 44.4548C 17.4292 44.1746 17.4673 43.8197 17.6291 43.6703C 17.5815 44.296 17.9242 45.2019 18.7905 45.6035C 19.3616 45.865 20.2659 45.9958 20.9798 45.2767C 21.2463 46.0985 22.2268 46.7896 23.2168 46.7616C 23.6737 46.7523 24.1211 46.5748 24.4542 46.3694C 24.7017 46.9484 25.3014 47.5461 25.9297 47.8543L 25.9297 12.8508C 25.7203 10.5533 24.8255 8.88162 23.8355 7.35933Z"/>
<path id="path53_fill" d="M 24.7035 40.9725C 24.3328 42.3283 24.0952 44.3666 24.2187 45.2362C 22.9736 44.6097 23.6674 42.1693 24.1427 41.1221C 24.808 39.6635 25.2833 37.8869 25.4354 36.7462C 25.6445 37.2885 24.9126 40.2058 24.7035 40.9725ZM 22.793 39.598C 22.2417 40.3273 21.795 40.8696 21.4433 41.8047C 20.8159 41.7299 20.9395 40.9538 21.1581 40.5704C 21.5858 39.8037 23.3348 38.7939 24.2187 37.7654C 23.9051 38.289 23.1637 39.1118 22.793 39.598ZM 20.7874 43.7121C 20.046 43.7121 19.5233 43.2633 19.9035 42.6462C 20.1221 42.936 20.5308 43.0576 20.8349 43.0856C 20.7874 43.3755 20.7779 43.4503 20.7874 43.7121ZM 23.8005 7.36794C 24.2948 7.42404 24.8366 7.21834 25.1217 6.85368C 23.9146 6.96589 22.7074 6.50773 22.1086 5.79711C 22.6789 5.61946 23.0211 5.2735 23.3158 4.85274C 22.774 5.1052 22.1181 5.18 21.4148 5.1052C 22.2702 4.92755 23.5724 4.24498 23.6104 3.63722C 23.4108 3.87098 21.7094 3.95513 20.7494 3.95513L 15.8543 3.95513C 15.6737 3.95513 15.5692 4.11408 15.5787 4.31043C 15.2555 4.21693 15.0084 4.39458 15.0179 4.74054C 13.7727 4.74054 12.6511 5.49791 12.9078 6.93783C 13.0028 7.4895 13.2214 7.7326 13.5446 7.99441C 14.0864 7.15289 15.6452 7.09679 16.6337 7.64845C 16.092 7.61105 15.2935 7.76065 14.8183 7.957C 14.2385 8.20011 13.5161 8.51802 12.7462 8.42451C 12.2519 8.36841 11.9573 8.04116 11.8717 7.6765C 11.6341 7.91025 11.8337 8.92007 12.7082 9.32213C 13.1644 9.53718 13.9533 9.61199 14.5046 9.24733C 14.7042 9.10708 15.5122 8.24686 16.5102 8.22816C 15.0749 8.63022 14.6662 9.63069 15.7878 10.2665C 15.7783 9.89249 15.7118 9.41563 16.4436 8.97617C 16.8238 8.74242 17.4607 8.57412 18.0975 8.77047C 18.2971 8.83592 18.6108 9.00422 18.8104 9.04163C 19.1145 9.09773 19.2666 8.91072 19.3332 8.80787C 19.9795 9.29408 20.93 10.7527 21.1201 11.6597C 21.3387 12.7069 21.1961 13.3988 20.6448 14.0066C 20.4833 14.1936 19.6183 14.8855 18.7724 14.1655C 18.6488 15.2221 19.5613 15.8486 20.6068 15.4933C 20.4072 15.7177 20.046 15.9701 19.5708 16.1571C 18.8199 16.4563 18.0785 16.1852 17.7363 15.5681C 16.9284 16.475 17.3181 18.0458 18.6108 18.1955C 18.0215 19.3268 15.9874 19.3736 15.0749 18.0646C 14.5046 17.2417 15.17 16.634 15.5026 16.3161C 16.3581 15.512 16.3296 14.7172 15.7403 13.857C 14.9514 12.7162 12.5276 10.8369 11.6056 9.46238C 11.425 9.68679 11.3585 9.92989 11.3204 10.014C 10.4555 9.37823 9.46697 8.01311 9.12479 6.97524C 8.9442 7.02199 8.82063 7.18094 8.69707 7.30249C 7.31885 5.62881 4.85705 1.58018 4.16319 -2.85345e-07C 2.68991 0.701263 2.72793 2.74895 3.16516 3.93643C 3.56437 5.0304 4.23923 6.17112 5.64597 7.77935C 5.19923 7.47079 2.44278 4.68444 1.83446 4.33848C 0.788914 5.79711 1.48278 8.30296 3.44081 9.37823C 2.81348 9.12578 1.36872 8.59282 0.58931 8.77047C 0.43723 10.3694 1.75842 11.454 2.59486 12.0617C 1.80595 11.8841 0.902974 11.7532 -7.25174e-08 12.0056C 0.0760399 13.0996 1.22614 14.3338 2.87051 14.8761C 1.83446 14.8107 0.77941 14.9042 0.11406 15.3156C 0.26614 16.4376 1.53981 17.4287 3.13665 17.6531C 2.07209 17.7653 1.12159 18.2329 0.646339 18.85C 1.20713 19.5793 2.06258 20.159 3.36477 20.1403C 2.74694 20.346 1.99605 20.9538 1.70139 21.7205C 2.45229 22.3002 3.37427 22.6742 5.5129 21.9262C 3.06061 22.936 3.53586 23.4222 3.16516 24.4601C 3.6119 24.6284 4.01111 25.0865 5.16121 24.7967C 5.82656 24.6284 6.91964 23.6186 7.86063 23.0108C 7.54697 23.3287 6.16874 24.3105 5.56993 24.8808C 4.89507 25.5166 5.37032 26.1712 5.37032 26.7509C 5.86458 26.7602 6.73904 27.1436 7.31885 26.6293C 7.52796 26.4517 10.0468 23.3474 10.3985 23.0669C 10.2844 23.3287 8.67806 25.3203 7.95568 26.461C 7.4139 27.3212 8.17429 27.8729 8.28835 28.3871C 8.85865 28.2095 9.62856 28.5181 10.0563 27.8355C 10.465 27.181 11.6816 24.8341 12.1379 24.1889C 11.9573 24.6845 10.6741 27.3773 10.5886 27.6204C 10.2844 28.4994 11.0543 28.6677 11.3775 29.2661C 11.8527 28.9669 12.6987 29.21 13.0218 28.3497C 13.25 27.7513 13.7537 25.7223 14.0294 25.1987C 13.9914 25.7785 13.8108 26.5826 13.6872 27.4989C 13.5636 28.3684 14.4191 28.3685 14.8943 28.8453C 15.303 28.49 16.0824 28.5835 16.2155 27.77C 16.3296 27.0781 16.3486 25.3483 16.3486 25.3483C 16.4817 25.4418 16.5482 25.4605 16.6623 25.5821C 16.9759 25.2642 17.5747 25.2642 17.7933 24.8434C 17.8694 24.8808 17.9169 24.9369 18.0025 24.9837C 18.6773 26.087 18.7248 28.1908 17.7933 28.9575C 18.069 28.9669 18.3827 28.9201 18.6013 28.8173C 18.1926 29.6775 17.2706 29.958 16.2155 29.5653C 16.2535 29.771 16.2821 29.8925 16.3771 30.0328C 15.227 30.2011 14.7327 30.6312 14.305 31.3605C 13.7537 32.3142 14.3525 33.5765 14.1815 34.0627C 14.0674 34.3993 13.6682 34.6892 13.0599 34.4367C 13.364 35.7177 14.9989 35.5494 15.4266 34.8481C 15.5882 35.4372 15.4361 36.1198 15.1224 36.3909C 15.6357 36.4283 16.0539 36.2039 16.3296 35.8299C 16.3866 35.9608 16.4056 36.0917 16.4246 36.232C 16.7003 36.1011 16.8809 35.9608 17.0044 35.7831C 17.052 35.9608 17.109 36.4096 16.9664 36.7088C 17.5272 36.8117 18.069 36.4938 18.2306 35.7083C 18.4682 36.0823 18.5537 36.1945 18.6773 36.6434C 18.953 36.4751 19.0575 36.3068 19.0765 35.9795C 19.6373 36.4751 20.4262 36.4096 20.7874 36.2507C 21.0346 36.1478 21.5858 35.727 21.5858 35.1099C 21.1201 35.325 20.008 35.6242 19.8749 34.5022C 19.7514 33.5111 20.6448 32.6976 21.9851 33.0342C 22.9451 33.2773 24.2948 35.2595 23.0591 36.0917C 22.4318 36.5125 21.5098 36.9052 21.6239 37.9711C 22.0231 37.4755 22.5649 37.2511 23.2777 37.3072C 22.2512 38.0552 21.4433 38.13 20.4072 38.7098C 19.4662 39.2334 18.7629 40.131 18.05 40.159C 17.4702 40.1777 17.166 39.5232 17.6888 39.0183C 17.147 38.9155 16.4246 39.3082 16.2155 39.8785C 15.9399 40.6452 16.168 41.2249 16.6527 41.5242C 15.9874 41.8701 15.4836 42.5714 15.7403 43.5625C 15.9399 44.3479 16.7763 44.3573 16.4531 45.3671C 16.8999 45.2362 17.2135 44.9463 17.3276 44.5069C 17.4036 44.2264 17.4417 43.871 17.6032 43.7214C 17.5557 44.3479 17.8979 45.2549 18.7629 45.6569C 19.3332 45.9187 20.2361 46.0496 20.949 45.3297C 21.2151 46.1525 22.1942 46.8444 23.1827 46.8164C 23.6389 46.807 24.0857 46.6294 24.4183 46.4237C 24.6655 47.0034 25.2643 47.6018 25.8916 47.9103L 25.8916 12.8658C 25.6825 10.5657 24.789 8.89202 23.8005 7.36794Z"/>
</defs>
</svg>
