<svg width="426" height="281" viewBox="0 0 426 281" version="1.1" xmlns="http://www.w3.org/2000/svg" xmlns:xlink="http://www.w3.org/1999/xlink">
<title>&#208;&#158;&#208;&#191;&#208;&#181;&#209;&#128;&#208;&#176;&#209;&#130;&#208;&#184;&#208;&#178;&#208;&#189;&#208;&#190;</title>
<desc>Created using Figma</desc>
<g id="Canvas" transform="translate(-515 -2570)">
<clipPath id="clip-0" clip-rule="evenodd">
<path d="M 515 2570L 941 2570L 941 2851L 515 2851L 515 2570Z" fill="#FFFFFF"/>
</clipPath>
<g id="&#208;&#158;&#208;&#191;&#208;&#181;&#209;&#128;&#208;&#176;&#209;&#130;&#208;&#184;&#208;&#178;&#208;&#189;&#208;&#190;" clip-path="url(#clip-0)">
<g id="Group 2">
<g id="hands">
<g id="Group">
<g id="Group">
<g id="Vector">
<mask id="mask0_outline_ins">
<use xlink:href="#path0_fill" fill="white" transform="matrix(-1 0 0 1 624 2735.62)"/>
</mask>
<g mask="url(#mask0_outline_ins)">
<use xlink:href="#path1_stroke_2x" transform="matrix(-1 0 0 1 624 2735.62)" fill="#D9D2D2"/>
</g>
</g>
</g>
</g>
<g id="Group">
<g id="Group">
<g id="Vector">
<mask id="mask1_outline_ins">
<use xlink:href="#path2_fill" fill="white" transform="matrix(-1 0 0 1 532.247 2742.43)"/>
</mask>
<g mask="url(#mask1_outline_ins)">
<use xlink:href="#path3_stroke_2x" transform="matrix(-1 0 0 1 532.247 2742.43)" fill="#D9D2D2"/>
</g>
</g>
</g>
</g>
<g id="Group">
<g id="Group">
<g id="Vector">
<mask id="mask2_outline_ins">
<use xlink:href="#path4_fill" fill="white" transform="matrix(-1 0 0 1 581.652 2742.43)"/>
</mask>
<g mask="url(#mask2_outline_ins)">
<use xlink:href="#path5_stroke_2x" transform="matrix(-1 0 0 1 581.652 2742.43)" fill="#D9D2D2"/>
</g>
</g>
</g>
</g>
<g id="Group">
<g id="Group">
<g id="Vector">
<mask id="mask3_outline_ins">
<use xlink:href="#path6_fill" fill="white" transform="matrix(-1 0 0 1 567.537 2719)"/>
</mask>
<g mask="url(#mask3_outline_ins)">
<use xlink:href="#path7_stroke_2x" transform="matrix(-1 0 0 1 567.537 2719)" fill="#D9D2D2"/>
</g>
</g>
</g>
</g>
<g id="Group">
<g id="Group">
<g id="Vector">
<mask id="mask4_outline_ins">
<use xlink:href="#path8_fill" fill="white" transform="matrix(-1 0 0 1 542.834 2719)"/>
</mask>
<g mask="url(#mask4_outline_ins)">
<use xlink:href="#path9_stroke_2x" transform="matrix(-1 0 0 1 542.834 2719)" fill="#D9D2D2"/>
</g>
</g>
</g>
</g>
</g>
<g id="wallet">
<g id="Group">
<g id="Vector">
<mask id="mask5_outline_ins">
<use xlink:href="#path10_fill" fill="white" transform="translate(791 2614)"/>
</mask>
<g mask="url(#mask5_outline_ins)">
<use xlink:href="#path11_stroke_2x" transform="translate(791 2614)" fill="#D9D2D2"/>
</g>
</g>
<clipPath id="clip-1" clip-rule="evenodd">
<path d="M 600.724 2752.86L 624 2752.86L 624 2824L 600.724 2824L 600.724 2752.86Z" fill="#FFFFFF"/>
</clipPath>
<g id="Group" clip-path="url(#clip-1)">
</g>
</g>
</g>
<g id="Vector">
<use xlink:href="#path12_fill" transform="matrix(1 -5.55112e-17 5.55112e-17 1 590 2580)" fill="#FFFFFF"/>
<mask id="mask6_outline_out">
<rect id="mask6_outline_inv" fill="white" x="-2" y="-2" width="265" height="265" transform="matrix(1 -5.55112e-17 5.55112e-17 1 590 2580)"/>
<use xlink:href="#path12_fill" fill="black" transform="matrix(1 -5.55112e-17 5.55112e-17 1 590 2580)"/>
</mask>
<g mask="url(#mask6_outline_out)">
<use xlink:href="#path13_stroke_2x" transform="matrix(1 -5.55112e-17 5.55112e-17 1 590 2580)" fill="#D9D2D2"/>
</g>
</g>
<g id="Group">
<g id="Ellipse 6">
<use xlink:href="#path14_fill" transform="translate(653 2654.44)" fill="#FFFFFF"/>
<use xlink:href="#path15_stroke" transform="translate(653 2654.44)" fill="#4D4B87"/>
</g>
<g id="Ellipse 6">
<use xlink:href="#path16_fill" transform="translate(702.636 2625)" fill="#FFFFFF"/>
<use xlink:href="#path17_stroke" transform="translate(702.636 2625)" fill="#4D4B87"/>
</g>
<g id="Rectangle 32">
<use xlink:href="#path18_fill" transform="translate(715.636 2641.49)" fill="#4D4B87"/>
</g>
<g id="Rectangle 32">
<use xlink:href="#path19_fill" transform="matrix(0.822069 0.569388 -0.572024 0.820237 760.333 2655.75)" fill="#FFFFFF"/>
<use xlink:href="#path20_stroke" transform="matrix(0.822069 0.569388 -0.572024 0.820237 760.333 2655.75)" fill="#4D4B87"/>
</g>
<g id="Rectangle 32">
<use xlink:href="#path21_fill" transform="matrix(6.14424e-17 -1 1 6.1023e-17 710.909 2643.84)" fill="#4D4B87"/>
</g>
<g id="Ellipse 6">
<use xlink:href="#path22_fill" transform="translate(673.091 2675.64)" fill="#9493C6"/>
<use xlink:href="#path23_stroke" transform="translate(673.091 2675.64)" fill="#4D4B87"/>
</g>
<g id="Ellipse 6">
<use xlink:href="#path24_stroke" transform="matrix(1 0 0 -1 715.636 2722.76)" fill="#4D4B87"/>
</g>
<g id="Rectangle 28">
<use xlink:href="#path25_fill" transform="translate(716.818 2686.24)" fill="#4D4B87"/>
</g>
</g>
</g>
</g>
</g>
<defs>
<path id="path0_fill" d="M 98.6337 30.8534C 104.35 30.8534 109 35.3091 109 40.786C 109 43.4283 107.915 45.831 106.153 47.6126C 107.842 49.3801 108.873 51.7322 108.873 54.3116C 108.873 57.8958 106.882 61.0422 103.904 62.7894C 104.819 64.2695 105.344 65.9954 105.344 67.8369C 105.344 71.4212 103.353 74.5675 100.375 76.3147C 101.29 77.7948 101.816 79.5207 101.816 81.3622C 101.816 86.839 97.1653 91.2948 91.4492 91.2948L 80.989 91.2948C 78.4706 91.2948 76.0676 91.3166 73.7435 91.3375L 73.7067 91.3379C 71.5946 91.3571 69.5404 91.3756 67.5325 91.3756C 55.7766 91.3756 45.5398 90.7369 33.7567 85.8326C 32.0543 89.092 28.5376 91.3362 24.4821 91.3362L 3.30837 91.3362C 1.48137 91.3362 0 89.9168 0 88.1662L 0 34.0649C 0 32.3144 1.48115 30.895 3.30837 30.895L 31.5402 30.895C 33.3672 30.895 34.8486 32.3142 34.8486 34.0649L 34.8486 35.7408C 45.7434 30.6644 62.031 22.318 63.4314 6.12204C 63.725 2.72574 66.8529 0 70.4296 0C 70.4648 0 70.5003 0.000422274 70.5355 0.00084415C 74.2258 0.0561098 77.685 1.47445 80.2759 3.9941C 82.8684 6.51523 84.2962 9.85332 84.2973 13.3933L 84.2973 13.395L 84.2973 14.4585C 84.2973 21.0395 82.7495 25.8046 79.8387 30.8534L 95.1048 30.8534L 98.6337 30.8534Z"/>
<path id="path1_stroke_2x" d="M 17.4242 70.4707C 15.0856 70.4707 13.1158 72.298 13.1158 74.6407L 15.1158 74.6407C 15.1158 73.4822 16.1088 72.4707 17.4242 72.4707L 17.4242 70.4707ZM 32.2319 33.2347L 32.2316 84.4033L 34.2316 84.4034L 34.2319 33.2347L 32.2319 33.2347ZM 79.8387 30.8534L 78.106 29.8545L 76.377 32.8534L 79.8387 32.8534L 79.8387 30.8534ZM 84.2973 13.3933L 86.2973 13.3933L 86.2973 13.3927L 84.2973 13.3933ZM 80.2759 3.9941L 78.8815 5.4279L 78.8816 5.4279L 80.2759 3.9941ZM 70.5355 0.00084415L 70.5654 -1.99894L 70.5595 -1.99901L 70.5355 0.00084415ZM 63.4314 6.12204L 61.4388 5.94975L 61.4388 5.94976L 63.4314 6.12204ZM 34.8486 35.7408L 32.8486 35.7408L 32.8486 38.8792L 35.6933 37.5537L 34.8486 35.7408ZM 33.7567 85.8326L 34.5252 83.9862L 32.8326 83.2817L 31.9839 84.9067L 33.7567 85.8326ZM 73.7067 91.3379L 73.7249 93.3378L 73.7249 93.3378L 73.7067 91.3379ZM 73.7435 91.3375L 73.7255 89.3376L 73.7253 89.3376L 73.7435 91.3375ZM 100.375 76.3147L 99.3627 74.5896L 97.597 75.6254L 98.6735 77.3665L 100.375 76.3147ZM 103.904 62.7894L 102.892 61.0643L 101.126 62.1002L 102.203 63.8413L 103.904 62.7894ZM 106.153 47.6126L 104.731 46.2062L 103.364 47.5884L 104.707 48.9941L 106.153 47.6126ZM 111 40.786C 111 34.1248 105.373 28.8534 98.6337 28.8534L 98.6337 32.8534C 103.326 32.8534 107 36.4933 107 40.786L 111 40.786ZM 98.6337 28.8534L 95.1048 28.8534L 95.1048 32.8534L 98.6337 32.8534L 98.6337 28.8534ZM 95.1048 28.8534L 79.8387 28.8534L 79.8387 32.8534L 95.1048 32.8534L 95.1048 28.8534ZM 81.5714 31.8524C 84.5768 26.6175 86.2727 21.3523 86.2973 14.4585L 82.2973 14.4585C 82.3219 20.7268 80.9221 24.9918 78.106 29.8545L 81.5714 31.8524ZM 86.2973 14.4585L 86.2973 13.395L 82.2973 13.395L 82.2973 14.4585L 86.2973 14.4585ZM 86.2973 13.395L 86.2973 13.3933L 82.2973 13.3933L 82.2973 13.395L 86.2973 13.395ZM 86.2973 13.3927C 86.296 9.30005 84.6405 5.44884 81.6703 2.5603L 78.8816 5.4279C 81.0962 7.58162 82.2964 10.4066 82.2973 13.3939L 86.2973 13.3927ZM 81.6703 2.56031C 78.7815 -0.198157 74.6272 -1.90321 70.5654 -1.99893L 70.5056 2.00062C 73.8245 2.01543 76.5885 3.14707 78.8815 5.4279L 81.6703 2.56031ZM 70.5595 -1.99901C 70.5242 -1.99944 70.4768 -1.99996 70.4296 -2L 70.4296 2C 70.4529 1.99996 70.4764 2.00028 70.5115 2.0007L 70.5595 -1.99901ZM 70.4296 -2C 65.9036 -2 61.8293 1.43362 61.4388 5.94975L 65.4239 6.29434C 65.6208 4.01785 67.8022 2 70.4296 2L 70.4296 -2ZM 61.4388 5.94976C 60.7991 13.3483 56.7696 19.0385 51.4086 23.5745C 45.9948 28.1745 39.4308 31.3994 34.0039 33.928L 35.6933 37.5537C 41.1612 35.0058 48.1884 31.5194 53.9923 26.6281C 59.8489 21.6728 64.6633 15.0917 65.4239 6.29432L 61.4388 5.94976ZM 36.8486 35.7408L 36.8486 34.0649L 32.8486 34.0649L 32.8486 35.7408L 36.8486 35.7408ZM 36.8486 34.0649C 36.8486 31.1298 34.3903 28.895 31.5402 28.895L 31.5402 32.895C 32.3441 32.895 32.8486 33.4985 32.8486 34.0649L 36.8486 34.0649ZM 31.5402 28.895L 3.30837 28.895L 3.30837 32.895L 31.5402 32.895L 31.5402 28.895ZM 3.30837 28.895C 0.457897 28.895 -2 31.1302 -2 34.0649L 2 34.0649C 2 33.4985 2.5044 32.895 3.30837 32.895L 3.30837 28.895ZM -2 34.0649L -2 88.1662L 2 88.1662L 2 34.0649L -2 34.0649ZM -2 88.1662C -2 91.1011 0.458215 93.3362 3.30837 93.3362L 3.30837 89.3362C 2.50452 89.3362 2 88.7325 2 88.1662L -2 88.1662ZM 3.30837 93.3362L 24.4821 93.3362L 24.4821 89.3362L 3.30837 89.3362L 3.30837 93.3362ZM 24.4821 93.3362C 29.2821 93.3362 33.482 90.6785 35.5294 86.7585L 31.9839 84.9067C 30.6265 87.5056 27.7932 89.3362 24.4821 89.3362L 24.4821 93.3362ZM 32.9881 87.6791C 45.087 92.685 55.7143 93.3747 67.5325 93.3756L 67.5325 89.3756C 55.8389 89.3766 45.9926 88.7888 34.5252 83.9862L 32.9881 87.6791ZM 67.5325 93.3756C 69.5495 93.3756 71.6128 93.357 73.7249 93.3378L 73.6885 89.338C 71.5765 89.3572 69.5314 89.3757 67.5325 89.3756L 67.5325 93.3756ZM 73.7249 93.3378L 73.7618 93.3375L 73.7253 89.3376L 73.6885 89.338L 73.7249 93.3378ZM 73.7616 93.3375C 76.0857 93.3165 78.4796 93.2948 80.989 93.2948L 80.989 89.2948C 78.4615 89.2949 76.0496 89.3166 73.7255 89.3376L 73.7616 93.3375ZM 80.989 93.2948L 91.4492 93.2948L 91.4492 89.2948L 80.989 89.2948L 80.989 93.2948ZM 91.4492 93.2948C 98.1885 93.2948 103.816 88.0232 103.816 81.3622L 99.8155 81.3622C 99.8155 85.6548 96.1422 89.2948 91.4492 89.2948L 91.4492 93.2948ZM 103.816 81.3622C 103.794 79.2261 103.112 76.9707 102.076 75.2629L 98.6735 77.3665C 99.4675 78.619 99.8373 79.8153 99.8155 81.3622L 103.816 81.3622ZM 101.387 78.0398C 104.925 75.9643 107.344 72.1895 107.344 67.8369L 103.344 67.8369C 103.344 70.6528 101.781 73.1707 99.3627 74.5896L 101.387 78.0398ZM 107.344 67.8369C 107.323 65.7009 106.641 63.4454 105.605 61.7374L 102.203 63.8413C 102.997 65.0936 103.366 66.2899 103.344 67.8369L 107.344 67.8369ZM 104.916 64.5145C 108.454 62.439 110.873 58.6642 110.873 54.3116L 106.873 54.3116C 106.873 57.1275 105.31 59.6454 102.892 61.0643L 104.916 64.5145ZM 110.873 54.3116C 110.873 51.1845 109.62 48.346 107.6 46.2312L 104.707 48.9941C 106.064 50.4141 106.873 52.28 106.873 54.3116L 110.873 54.3116ZM 107.575 49.019C 109.681 46.8896 111 43.991 111 40.786L 107 40.786C 107 42.8655 106.149 44.7725 104.731 46.2062L 107.575 49.019Z"/>
<path id="path2_fill" d="M 10.3663 -7.46727e-07L 3.30837 -7.46727e-07C 1.48115 -7.46727e-07 -1.28992e-06 1.4194 -1.28992e-06 3.16997C -1.28992e-06 4.92054 1.48137 6.33994 3.30837 6.33994L 10.3663 6.33994C 12.1935 6.33994 13.6746 4.92054 13.6746 3.16997C 13.6746 1.4194 12.1935 -7.46727e-07 10.3663 -7.46727e-07Z"/>
<path id="path3_stroke_2x" d="M 13.6746 3.16997L 15.6746 3.16997L 13.6746 3.16997ZM 10.3663 -2L 3.30837 -2L 3.30837 2L 10.3663 2L 10.3663 -2ZM 3.30837 -2C 0.457902 -2 -2 0.235224 -2 3.16997L 2 3.16997C 2 2.60357 2.5044 2 3.30837 2L 3.30837 -2ZM -2 3.16997C -2 6.1048 0.458211 8.33994 3.30837 8.33994L 3.30837 4.33994C 2.50453 4.33994 2 3.73628 2 3.16997L -2 3.16997ZM 3.30837 8.33994L 10.3663 8.33994L 10.3663 4.33994L 3.30837 4.33994L 3.30837 8.33994ZM 10.3663 8.33994C 13.2167 8.33994 15.6746 6.10471 15.6746 3.16997L 11.6746 3.16997C 11.6746 3.73637 11.1702 4.33994 10.3663 4.33994L 10.3663 8.33994ZM 15.6746 3.16997C 15.6746 0.235229 13.2167 -2 10.3663 -2L 10.3663 2C 11.1702 2 11.6746 2.60357 11.6746 3.16997L 15.6746 3.16997Z"/>
<path id="path4_fill" d="M 10.3663 -7.46727e-07L 3.30837 -7.46727e-07C 1.48115 -7.46727e-07 -8.86822e-07 1.4194 -8.86822e-07 3.16997C -8.86822e-07 4.92054 1.48137 6.33994 3.30837 6.33994L 10.3663 6.33994C 12.1933 6.33994 13.6746 4.92054 13.6746 3.16997C 13.6746 1.4194 12.1933 -7.46727e-07 10.3663 -7.46727e-07Z"/>
<path id="path5_stroke_2x" d="M 10.3663 -2L 3.30837 -2L 3.30837 2L 10.3663 2L 10.3663 -2ZM 3.30837 -2C 0.457896 -2 -2 0.235227 -2 3.16997L 2 3.16997C 2 2.60357 2.5044 2 3.30837 2L 3.30837 -2ZM -2 3.16997C -2 6.1048 0.458205 8.33994 3.30837 8.33994L 3.30837 4.33994C 2.50453 4.33994 2 3.73628 2 3.16997L -2 3.16997ZM 3.30837 8.33994L 10.3663 8.33994L 10.3663 4.33994L 3.30837 4.33994L 3.30837 8.33994ZM 10.3663 8.33994C 13.2164 8.33994 15.6746 6.1048 15.6746 3.16997L 11.6746 3.16997C 11.6746 3.73628 11.1701 4.33994 10.3663 4.33994L 10.3663 8.33994ZM 15.6746 3.16997C 15.6746 0.23514 13.2164 -2 10.3663 -2L 10.3663 2C 11.1701 2 11.6746 2.60366 11.6746 3.16997L 15.6746 3.16997Z"/>
<path id="path6_fill" d="M 9.70278 7.44221L 6.17383 1.58553C 5.26022 0.0693121 3.23685 -0.450227 1.65466 0.425375C 0.0722433 1.30077 -0.469758 3.23949 0.443851 4.7555L 3.9728 10.6122C 4.58547 11.6293 5.69765 12.1976 6.84087 12.1976C 7.40203 12.1976 7.97111 12.0607 8.49198 11.7723C 10.0742 10.8972 10.6164 8.95843 9.70278 7.44221Z"/>
<path id="path7_stroke_2x" d="M 9.70278 7.44221L 7.98973 8.47442L 7.98973 8.47443L 9.70278 7.44221ZM 6.17383 1.58553L 7.88688 0.553328L 7.88688 0.55332L 6.17383 1.58553ZM 1.65466 0.425375L 2.62279 2.17544L 2.62307 2.17528L 1.65466 0.425375ZM 0.443851 4.7555L 2.15691 3.7233L 2.15684 3.72318L 0.443851 4.7555ZM 3.9728 10.6122L 5.68602 9.58024L 5.68586 9.57998L 3.9728 10.6122ZM 8.49198 11.7723L 7.52392 10.0222L 7.52331 10.0226L 8.49198 11.7723ZM 11.4158 6.41001L 7.88688 0.553328L 4.46078 2.61774L 7.98973 8.47442L 11.4158 6.41001ZM 7.88688 0.55332C 6.39857 -1.91667 3.17653 -2.70268 0.686244 -1.32453L 2.62307 2.17528C 3.29718 1.80223 4.12187 2.05529 4.46078 2.61774L 7.88688 0.55332ZM 0.686526 -1.32469C -1.85042 0.078747 -2.78972 3.26461 -1.26914 5.78782L 2.15684 3.72318C 1.85021 3.21438 1.9949 2.52278 2.62279 2.17544L 0.686526 -1.32469ZM -1.2692 5.78771L 2.25975 11.6444L 5.68586 9.57998L 2.15691 3.7233L -1.2692 5.78771ZM 2.25959 11.6441C 3.26264 13.3094 5.05347 14.1976 6.84087 14.1976L 6.84087 10.1976C 6.34183 10.1976 5.90831 9.94928 5.68602 9.58024L 2.25959 11.6441ZM 6.84087 14.1976C 7.63756 14.1837 8.6959 13.9247 9.46064 13.5221L 7.52331 10.0226C 7.24631 10.1966 7.1665 10.2115 6.84087 10.1976L 6.84087 14.1976ZM 9.46003 13.5224C 11.9968 12.1192 12.9363 8.93338 11.4158 6.41L 7.98973 8.47443C 8.29647 8.98349 8.15151 9.67509 7.52392 10.0222L 9.46003 13.5224Z"/>
<path id="path8_fill" d="M 8.49207 0.425422C 6.90966 -0.45039 4.88607 0.0695708 3.9729 1.58558L 0.443947 7.44226C -0.469882 8.95827 0.0723393 10.8972 1.65476 11.7724C 2.17562 12.0607 2.74448 12.1976 3.30586 12.1976C 4.4493 12.1976 5.56148 11.6292 6.17393 10.6122L 9.70288 4.75555C 10.6165 3.23954 10.0745 1.30081 8.49207 0.425422Z"/>
<path id="path9_stroke_2x" d="M 8.49207 0.425422L 7.52358 2.17529L 7.52394 2.17548L 8.49207 0.425422ZM 3.9729 1.58558L 5.68596 2.61778L 5.68611 2.61753L 3.9729 1.58558ZM 0.443947 7.44226L 2.15682 8.47476L 2.157 8.47447L 0.443947 7.44226ZM 1.65476 11.7724L 2.62342 10.0226L 2.62271 10.0222L 1.65476 11.7724ZM 6.17393 10.6122L 4.46087 9.58003L 4.46065 9.5804L 6.17393 10.6122ZM 9.70288 4.75555L 7.98989 3.72323L 7.98983 3.72335L 9.70288 4.75555ZM 9.46056 -1.32444C 6.96995 -2.70291 3.7475 -1.91637 2.2597 0.553628L 5.68611 2.61753C 6.02464 2.05551 6.84936 1.80213 7.52358 2.17529L 9.46056 -1.32444ZM 2.25985 0.553375L -1.26911 6.41006L 2.157 8.47447L 5.68596 2.61778L 2.25985 0.553375ZM -1.26893 6.40976C -2.78998 8.93314 -1.85025 12.1194 0.686801 13.5225L 2.62271 10.0222C 1.99493 9.67502 1.85022 8.98341 2.15682 8.47476L -1.26893 6.40976ZM 0.686087 13.5222C 1.45075 13.9248 2.50887 14.1837 3.30586 14.1976L 3.30586 10.1976C 2.9801 10.2116 2.9005 10.1967 2.62342 10.0226L 0.686087 13.5222ZM 3.30586 14.1976C 5.09355 14.1976 6.88441 13.3091 7.88721 11.6441L 4.46065 9.5804C 4.23855 9.94919 3.80505 10.1976 3.30586 10.1976L 3.30586 14.1976ZM 7.88698 11.6444L 11.4159 5.78775L 7.98983 3.72335L 4.46087 9.58003L 7.88698 11.6444ZM 11.4159 5.78787C 12.9365 3.26466 11.9971 0.0787947 9.46021 -1.32464L 7.52394 2.17548C 8.15183 2.52283 8.29652 3.21442 7.98989 3.72323L 11.4159 5.78787Z"/>
<path id="path10_fill" d="M 150 70.342L 142.73 70.342L 142.73 37.0155C 142.73 29.0257 136.208 22.5258 128.191 22.5258L 118.344 22.5258L 108.268 4.47171C 106.733 1.71257 103.81 0 100.641 0C 99.1634 0 97.6978 0.379669 96.4038 1.09527L 57.734 22.5254L 14.5396 22.5254C 6.52233 22.5254 0 29.0253 0 37.015L 0 136.51C 0 144.5 6.52233 151 14.5396 151L 128.191 151C 136.208 151 142.73 144.5 142.73 136.51L 142.73 107.29L 150 107.29L 150 70.342ZM 128.191 28.3214C 132.669 28.3214 136.327 31.7118 136.818 36.0501L 125.89 36.0501L 121.58 28.3214L 128.191 28.3214ZM 99.2331 6.16083C 100.597 5.39878 102.432 5.93176 103.185 7.2854L 119.237 36.0474L 45.2998 36.0474L 99.2331 6.16083ZM 144.184 101.495L 142.73 101.495L 115.649 101.495C 108.978 101.495 103.551 96.0873 103.551 89.4391L 103.551 88.1928C 103.551 81.5449 108.977 76.1371 115.649 76.1371L 142.73 76.1371L 144.184 76.1371L 144.184 101.495ZM 124.555 89.054C 124.555 92.5896 121.682 95.4525 118.135 95.4525C 114.587 95.4525 111.714 92.5892 111.714 89.054C 111.714 85.5188 114.588 82.6555 118.135 82.6555C 121.683 82.6551 124.555 85.5211 124.555 89.054Z"/>
<path id="path11_stroke_2x" d="M 47.277 28.3214L 47.7618 29.1961L 51.1444 27.3214L 47.277 27.3214L 47.277 28.3214ZM 33.3306 36.0505L 33.3306 37.0505L 33.5892 37.0505L 33.8154 36.9252L 33.3306 36.0505ZM 136.914 107.293L 137.914 107.293L 137.914 106.293L 136.914 106.293L 136.914 107.293ZM 135.914 136.51C 135.914 140.748 132.451 144.204 128.19 144.204L 128.19 146.204C 133.549 146.204 137.914 141.859 137.914 136.51L 135.914 136.51ZM 128.19 144.204L 14.5396 144.204L 14.5396 146.204L 128.19 146.204L 128.19 144.204ZM 14.5396 144.204C 10.2789 144.204 6.81557 140.748 6.81557 136.51L 4.81557 136.51C 4.81557 141.859 9.18084 146.204 14.5396 146.204L 14.5396 144.204ZM 6.81557 136.51L 6.81557 37.0155L 4.81557 37.0155L 4.81557 136.51L 6.81557 136.51ZM 6.81557 37.0155C 6.81557 32.7778 10.2789 29.3214 14.5396 29.3214L 14.5396 27.3214C 9.18084 27.3214 4.81557 31.6667 4.81557 37.0155L 6.81557 37.0155ZM 14.5396 29.3214L 47.277 29.3214L 47.277 27.3214L 14.5396 27.3214L 14.5396 29.3214ZM 46.7923 27.4467L 32.8459 35.1758L 33.8154 36.9252L 47.7618 29.1961L 46.7923 27.4467ZM 33.3306 35.0505L 16.3572 35.0505L 16.3572 37.0505L 33.3306 37.0505L 33.3306 35.0505ZM 16.3572 35.0505C 14.1995 35.0505 12.4492 36.7938 12.4492 38.9485L 14.4492 38.9485C 14.4492 37.9036 15.2988 37.0505 16.3572 37.0505L 16.3572 35.0505ZM 12.4492 38.9485C 12.4492 41.1033 14.1995 42.8465 16.3572 42.8465L 16.3572 40.8465C 15.2988 40.8465 14.4492 39.9934 14.4492 38.9485L 12.4492 38.9485ZM 16.3572 42.8465L 22.8709 42.8465L 22.8709 40.8465L 16.3572 40.8465L 16.3572 42.8465ZM 22.8709 42.8465L 129.124 42.8465L 129.124 40.8465L 22.8709 40.8465L 22.8709 42.8465ZM 129.124 42.8465L 136.914 42.8465L 136.914 40.8465L 129.124 40.8465L 129.124 42.8465ZM 115.649 108.293L 136.914 108.293L 136.914 106.293L 115.649 106.293L 115.649 108.293ZM 135.914 107.293L 135.914 136.51L 137.914 136.51L 137.914 107.293L 135.914 107.293ZM 150 70.342L 152 70.342L 152 68.342L 150 68.342L 150 70.342ZM 142.73 70.342L 140.73 70.342L 140.73 72.342L 142.73 72.342L 142.73 70.342ZM 118.344 22.5258L 116.598 23.5005L 117.17 24.5258L 118.344 24.5258L 118.344 22.5258ZM 108.268 4.47171L 106.521 5.44436L 106.522 5.44639L 108.268 4.47171ZM 96.4038 1.09527L 95.4359 -0.654952L 95.4343 -0.654065L 96.4038 1.09527ZM 57.734 22.5254L 57.734 24.5254L 58.2512 24.5254L 58.7035 24.2747L 57.734 22.5254ZM 142.73 107.29L 142.73 105.29L 140.73 105.29L 140.73 107.29L 142.73 107.29ZM 150 107.29L 150 109.29L 152 109.29L 152 107.29L 150 107.29ZM 136.818 36.0501L 136.818 38.0501L 139.058 38.0501L 138.806 35.825L 136.818 36.0501ZM 125.89 36.0501L 124.143 37.0241L 124.716 38.0501L 125.89 38.0501L 125.89 36.0501ZM 121.58 28.3214L 121.58 26.3214L 118.175 26.3214L 119.834 29.2955L 121.58 28.3214ZM 99.2331 6.16083L 100.202 7.9102L 100.209 7.90674L 99.2331 6.16083ZM 103.185 7.2854L 101.437 8.25756L 101.438 8.26007L 103.185 7.2854ZM 119.237 36.0474L 119.237 38.0474L 122.643 38.0474L 120.983 35.0727L 119.237 36.0474ZM 45.2998 36.0474L 44.3304 34.298L 37.5642 38.0474L 45.2998 38.0474L 45.2998 36.0474ZM 144.184 101.495L 144.184 103.495L 146.184 103.495L 146.184 101.495L 144.184 101.495ZM 144.184 76.1371L 146.184 76.1371L 146.184 74.1371L 144.184 74.1371L 144.184 76.1371ZM 118.135 82.6555L 118.135 84.6555L 118.135 84.6555L 118.135 82.6555ZM 150 68.342L 142.73 68.342L 142.73 72.342L 150 72.342L 150 68.342ZM 144.73 70.342L 144.73 37.0155L 140.73 37.0155L 140.73 70.342L 144.73 70.342ZM 144.73 37.0155C 144.73 27.9147 137.306 20.5258 128.191 20.5258L 128.191 24.5258C 135.11 24.5258 140.73 30.1368 140.73 37.0155L 144.73 37.0155ZM 128.191 20.5258L 118.344 20.5258L 118.344 24.5258L 128.191 24.5258L 128.191 20.5258ZM 120.091 21.5511L 110.015 3.49702L 106.522 5.44639L 116.598 23.5005L 120.091 21.5511ZM 110.016 3.49905C 108.125 0.102334 104.532 -2 100.641 -2L 100.641 2C 103.088 2 105.34 3.3228 106.521 5.44436L 110.016 3.49905ZM 100.641 -2C 98.9106 -1.98396 96.9573 -1.47817 95.4359 -0.654951L 97.3716 2.84549C 98.4384 2.23751 99.4162 1.98396 100.641 2L 100.641 -2ZM 95.4343 -0.654065L 56.7646 20.776L 58.7035 24.2747L 97.3732 2.8446L 95.4343 -0.654065ZM 57.734 20.5254L 14.5396 20.5254L 14.5396 24.5254L 57.734 24.5254L 57.734 20.5254ZM 14.5396 20.5254C 5.42426 20.5254 -2 27.9142 -2 37.015L 2 37.015C 2 30.1363 7.6204 24.5254 14.5396 24.5254L 14.5396 20.5254ZM -2 37.015L -2 136.51L 2 136.51L 2 37.015L -2 37.015ZM -2 136.51C -2 145.611 5.42426 153 14.5396 153L 14.5396 149C 7.6204 149 2 143.389 2 136.51L -2 136.51ZM 14.5396 153L 128.191 153L 128.191 149L 14.5396 149L 14.5396 153ZM 128.191 153C 137.306 153 144.73 145.611 144.73 136.51L 140.73 136.51C 140.73 143.389 135.11 149 128.191 149L 128.191 153ZM 144.73 136.51L 144.73 107.29L 140.73 107.29L 140.73 136.51L 144.73 136.51ZM 142.73 109.29L 150 109.29L 150 105.29L 142.73 105.29L 142.73 109.29ZM 152 107.29L 152 70.342L 148 70.342L 148 107.29L 152 107.29ZM 128.191 30.3214C 131.628 30.3214 134.451 32.9245 134.831 36.2752L 138.806 35.825C 138.202 30.4992 133.71 26.3214 128.191 26.3214L 128.191 30.3214ZM 136.818 34.0501L 125.89 34.0501L 125.89 38.0501L 136.818 38.0501L 136.818 34.0501ZM 127.637 35.076L 123.327 27.3473L 119.834 29.2955L 124.143 37.0241L 127.637 35.076ZM 121.58 30.3214L 128.191 30.3214L 128.191 26.3214L 121.58 26.3214L 121.58 30.3214ZM 100.209 7.90674C 100.6 7.68819 101.218 7.8635 101.437 8.25756L 104.933 6.31325C 103.646 4.00003 100.594 3.10938 98.2575 4.41491L 100.209 7.90674ZM 101.438 8.26007L 117.49 37.022L 120.983 35.0727L 104.931 6.31074L 101.438 8.26007ZM 119.237 34.0474L 45.2998 34.0474L 45.2998 38.0474L 119.237 38.0474L 119.237 34.0474ZM 46.2691 37.7967L 100.202 7.91019L 98.2637 4.41146L 44.3304 34.298L 46.2691 37.7967ZM 144.184 99.4947L 142.73 99.4947L 142.73 103.495L 144.184 103.495L 144.184 99.4947ZM 142.73 99.4947L 115.649 99.4947L 115.649 103.495L 142.73 103.495L 142.73 99.4947ZM 115.649 99.4947C 110.076 99.4947 105.551 94.9762 105.551 89.4391L 101.551 89.4391C 101.551 97.1984 107.88 103.495 115.649 103.495L 115.649 99.4947ZM 105.551 89.4391L 105.551 88.1928L 101.551 88.1928L 101.551 89.4391L 105.551 89.4391ZM 105.551 88.1928C 105.551 82.656 110.076 78.1371 115.649 78.1371L 115.649 74.1371C 107.879 74.1371 101.551 80.4339 101.551 88.1928L 105.551 88.1928ZM 115.649 78.1371L 142.73 78.1371L 142.73 74.1371L 115.649 74.1371L 115.649 78.1371ZM 142.73 78.1371L 144.184 78.1371L 144.184 74.1371L 142.73 74.1371L 142.73 78.1371ZM 142.184 76.1371L 142.184 101.495L 146.184 101.495L 146.184 76.1371L 142.184 76.1371ZM 122.555 89.054C 122.555 91.4785 120.584 93.4525 118.135 93.4525L 118.135 97.4525C 122.78 97.4525 126.555 93.7007 126.555 89.054L 122.555 89.054ZM 118.135 93.4525C 115.685 93.4525 113.714 91.4782 113.714 89.054L 109.714 89.054C 109.714 93.7001 113.489 97.4525 118.135 97.4525L 118.135 93.4525ZM 113.714 89.054C 113.714 86.6299 115.686 84.6555 118.135 84.6555L 118.135 80.6555C 113.489 80.6555 109.714 84.4078 109.714 89.054L 113.714 89.054ZM 118.135 84.6555C 120.584 84.6552 122.555 86.6314 122.555 89.054L 126.555 89.054C 126.555 84.4108 122.782 80.6549 118.135 80.6555L 118.135 84.6555Z"/>
<path id="path12_fill" d="M 130.5 261C 202.573 261 261 202.573 261 130.5C 261 58.4268 202.573 0 130.5 0C 58.4268 0 0 58.4268 0 130.5C 0 202.573 58.4268 261 130.5 261Z"/>
<path id="path13_stroke_2x" d="M 262 130.5C 262 129.636 261.992 128.769 261.975 127.909L 259.975 127.948C 259.992 128.798 260 129.646 260 130.5L 262 130.5ZM 261.776 122.754C 261.676 121.032 261.542 119.31 261.376 117.607L 259.385 117.801C 259.549 119.484 259.68 121.168 259.779 122.87L 261.776 122.754ZM 260.775 112.474C 260.54 110.766 260.272 109.058 259.973 107.372L 258.003 107.721C 258.299 109.389 258.562 111.057 258.793 112.746L 260.775 112.474ZM 258.971 102.308C 258.603 100.625 258.201 98.9454 257.77 97.2879L 255.834 97.7916C 256.261 99.43 256.653 101.071 257.017 102.734L 258.971 102.308ZM 256.37 92.3151C 255.87 90.6664 255.336 89.0221 254.774 87.4016L 252.885 88.0568C 253.44 89.6586 253.962 91.2653 254.456 92.895L 256.37 92.3151ZM 252.986 82.5566C 252.358 80.9542 251.696 79.358 251.008 77.787L 249.176 78.5895C 249.857 80.1424 250.504 81.7021 251.124 83.286L 252.986 82.5566ZM 248.844 73.0997C 248.092 71.5521 247.306 70.0126 246.495 68.4996L 244.732 69.444C 245.534 70.9396 246.302 72.4439 247.045 73.9739L 248.844 73.0997ZM 243.968 63.9954C 243.096 62.5124 242.192 61.0397 241.265 59.5947L 239.582 60.6745C 240.498 62.103 241.382 63.5423 242.243 65.0083L 243.968 63.9954ZM 238.392 55.3038C 237.408 53.8943 236.391 52.4971 235.354 51.1288L 233.76 52.3371C 234.786 53.6898 235.78 55.0553 236.753 56.4488L 238.392 55.3038ZM 232.154 47.0756C 231.063 45.7475 229.94 44.4339 228.799 43.1501L 227.304 44.4792C 228.433 45.7483 229.53 47.0322 230.609 48.3452L 232.154 47.0756ZM 225.292 39.359C 224.101 38.1206 222.879 36.8986 221.641 35.7076L 220.255 37.1491C 221.479 38.3266 222.673 39.5209 223.851 40.7453L 225.292 39.359ZM 217.85 32.2014C 216.566 31.0599 215.252 29.9368 213.924 28.8456L 212.655 30.3909C 213.968 31.4697 215.252 32.5673 216.521 33.696L 217.85 32.2014ZM 209.871 25.646C 208.503 24.6087 207.106 23.5918 205.696 22.6076L 204.551 24.2474C 205.945 25.2203 207.31 26.2142 208.663 27.2398L 209.871 25.646ZM 201.405 19.7349C 199.96 18.808 198.488 17.9035 197.005 17.0324L 195.992 18.757C 197.458 19.618 198.897 20.5019 200.325 21.4183L 201.405 19.7349ZM 192.5 14.5046C 190.987 13.6943 189.448 12.9082 187.9 12.1561L 187.026 13.955C 188.556 14.6983 190.06 15.4665 191.556 16.2676L 192.5 14.5046ZM 183.213 9.99167C 181.642 9.30357 180.046 8.64151 178.443 8.01377L 177.714 9.87599C 179.298 10.4964 180.858 11.1433 182.411 11.8236L 183.213 9.99167ZM 173.598 6.22561C 171.978 5.66375 170.334 5.12964 168.685 4.63009L 168.105 6.54417C 169.735 7.03786 171.341 7.55974 172.943 8.11524L 173.598 6.22561ZM 163.712 3.23032C 162.055 2.79904 160.375 2.39699 158.693 2.02945L 158.266 3.98337C 159.929 4.34658 161.57 4.73943 163.208 5.16586L 163.712 3.23032ZM 153.628 1.02743C 151.942 0.728227 150.234 0.459649 148.526 0.225416L 148.254 2.20688C 149.943 2.43833 151.611 2.70079 153.279 2.99667L 153.628 1.02743ZM 143.393 -0.375902C 141.69 -0.541599 139.968 -0.675547 138.246 -0.775608L 138.13 1.22103C 139.832 1.31985 141.516 1.45078 143.199 1.61469L 143.393 -0.375902ZM 133.091 -0.974983C 132.231 -0.991593 131.364 -0.999988 130.5 -1L 130.5 1C 131.354 0.999988 132.202 1.0082 133.052 1.02464L 133.091 -0.974983ZM 130.5 -1C 129.636 -0.999988 128.769 -0.991593 127.909 -0.974983L 127.948 1.02464C 128.798 1.0082 129.646 0.999988 130.5 1L 130.5 -1ZM 122.754 -0.775608C 121.032 -0.675547 119.31 -0.541599 117.607 -0.375902L 117.801 1.61469C 119.484 1.45078 121.168 1.31985 122.87 1.22103L 122.754 -0.775608ZM 112.474 0.225416C 110.766 0.459648 109.058 0.728226 107.372 1.02743L 107.721 2.99667C 109.389 2.70079 111.057 2.43833 112.746 2.20688L 112.474 0.225416ZM 102.308 2.02944C 100.625 2.39699 98.9454 2.79904 97.2879 3.23032L 97.7916 5.16586C 99.43 4.73943 101.071 4.34658 102.734 3.98337L 102.308 2.02944ZM 92.3151 4.63009C 90.6664 5.12964 89.0221 5.66375 87.4016 6.22561L 88.0568 8.11523C 89.6586 7.55974 91.2653 7.03785 92.895 6.54417L 92.3151 4.63009ZM 82.5566 8.01376C 80.9542 8.6415 79.358 9.30357 77.787 9.99167L 78.5895 11.8236C 80.1424 11.1433 81.7021 10.4964 83.286 9.87599L 82.5566 8.01376ZM 73.0997 12.1561C 71.5521 12.9082 70.0126 13.6943 68.4996 14.5046L 69.4439 16.2676C 70.9396 15.4665 72.4439 14.6983 73.9738 13.955L 73.0997 12.1561ZM 63.9954 17.0324C 62.5124 17.9035 61.0397 18.808 59.5947 19.7349L 60.6745 21.4183C 62.103 20.5019 63.5423 19.618 65.0083 18.7569L 63.9954 17.0324ZM 55.3038 22.6076C 53.8943 23.5918 52.4971 24.6087 51.1288 25.646L 52.3371 27.2398C 53.6898 26.2142 55.0553 25.2203 56.4488 24.2474L 55.3038 22.6076ZM 47.0756 28.8456C 45.7475 29.9368 44.4339 31.0599 43.1501 32.2014L 44.4792 33.6959C 45.7482 32.5673 47.0322 31.4696 48.3452 30.3909L 47.0756 28.8456ZM 39.359 35.7076C 38.1206 36.8986 36.8986 38.1206 35.7076 39.359L 37.1491 40.7453C 38.3266 39.5209 39.5209 38.3266 40.7453 37.1491L 39.359 35.7076ZM 32.2014 43.1501C 31.0599 44.4339 29.9368 45.7475 28.8456 47.0756L 30.3909 48.3452C 31.4697 47.0322 32.5673 45.7482 33.6959 44.4792L 32.2014 43.1501ZM 25.646 51.1288C 24.6087 52.4971 23.5918 53.8943 22.6076 55.3038L 24.2474 56.4487C 25.2203 55.0553 26.2142 53.6898 27.2398 52.3371L 25.646 51.1288ZM 19.7349 59.5947C 18.808 61.0397 17.9035 62.5124 17.0324 63.9954L 18.757 65.0083C 19.618 63.5423 20.5019 62.103 21.4183 60.6745L 19.7349 59.5947ZM 14.5046 68.4996C 13.6943 70.0126 12.9082 71.552 12.1561 73.0997L 13.955 73.9738C 14.6983 72.4439 15.4665 70.9395 16.2676 69.4439L 14.5046 68.4996ZM 9.99167 77.787C 9.30357 79.358 8.64151 80.9541 8.01377 82.5566L 9.87599 83.286C 10.4964 81.702 11.1433 80.1424 11.8236 78.5894L 9.99167 77.787ZM 6.22561 87.4015C 5.66375 89.0221 5.12964 90.6664 4.63009 92.3151L 6.54417 92.895C 7.03786 91.2653 7.55974 89.6586 8.11524 88.0568L 6.22561 87.4015ZM 3.23032 97.2879C 2.79904 98.9454 2.39699 100.625 2.02945 102.308L 3.98337 102.734C 4.34658 101.071 4.73943 99.43 5.16586 97.7916L 3.23032 97.2879ZM 1.02744 107.372C 0.728228 109.058 0.459651 110.766 0.225418 112.474L 2.20688 112.746C 2.43833 111.057 2.7008 109.389 2.99668 107.721L 1.02744 107.372ZM -0.375901 117.607C -0.541598 119.31 -0.675546 121.032 -0.775608 122.754L 1.22103 122.87C 1.31986 121.168 1.45078 119.484 1.61469 117.801L -0.375901 117.607ZM -0.974982 127.909C -0.991593 128.769 -0.999988 129.636 -1 130.5L 1 130.5C 0.999988 129.646 1.0082 128.798 1.02464 127.948L -0.974982 127.909ZM -1 130.5C -0.999988 131.364 -0.991593 132.231 -0.974983 133.091L 1.02464 133.052C 1.0082 132.202 0.999988 131.354 1 130.5L -1 130.5ZM -0.775608 138.246C -0.675547 139.968 -0.541599 141.69 -0.375902 143.393L 1.61469 143.199C 1.45078 141.516 1.31985 139.832 1.22103 138.13L -0.775608 138.246ZM 0.225416 148.526C 0.459649 150.234 0.728226 151.942 1.02743 153.628L 2.99667 153.279C 2.70079 151.611 2.43833 149.943 2.20688 148.254L 0.225416 148.526ZM 2.02945 158.693C 2.39699 160.375 2.79904 162.055 3.23032 163.712L 5.16586 163.208C 4.73943 161.57 4.34658 159.929 3.98337 158.266L 2.02945 158.693ZM 4.63009 168.685C 5.12964 170.334 5.66375 171.978 6.22561 173.598L 8.11523 172.943C 7.55974 171.341 7.03786 169.735 6.54417 168.105L 4.63009 168.685ZM 8.01377 178.443C 8.64151 180.046 9.30357 181.642 9.99167 183.213L 11.8236 182.411C 11.1433 180.858 10.4964 179.298 9.87599 177.714L 8.01377 178.443ZM 12.1561 187.9C 12.9082 189.448 13.6943 190.987 14.5046 192.5L 16.2676 191.556C 15.4665 190.06 14.6983 188.556 13.955 187.026L 12.1561 187.9ZM 17.0324 197.005C 17.9035 198.488 18.808 199.96 19.7349 201.405L 21.4183 200.325C 20.5019 198.897 19.618 197.458 18.757 195.992L 17.0324 197.005ZM 22.6076 205.696C 23.5918 207.106 24.6087 208.503 25.646 209.871L 27.2398 208.663C 26.2142 207.31 25.2203 205.945 24.2474 204.551L 22.6076 205.696ZM 28.8456 213.924C 29.9368 215.252 31.0599 216.566 32.2014 217.85L 33.6959 216.521C 32.5673 215.252 31.4697 213.968 30.3909 212.655L 28.8456 213.924ZM 35.7076 221.641C 36.8986 222.879 38.1206 224.101 39.359 225.292L 40.7453 223.851C 39.5209 222.673 38.3266 221.479 37.1491 220.255L 35.7076 221.641ZM 43.1501 228.799C 44.4339 229.94 45.7475 231.063 47.0756 232.154L 48.3452 230.609C 47.0322 229.53 45.7482 228.433 44.4792 227.304L 43.1501 228.799ZM 51.1288 235.354C 52.4971 236.391 53.8943 237.408 55.3038 238.392L 56.4488 236.753C 55.0553 235.78 53.6898 234.786 52.3371 233.76L 51.1288 235.354ZM 59.5947 241.265C 61.0397 242.192 62.5124 243.096 63.9954 243.968L 65.0083 242.243C 63.5423 241.382 62.103 240.498 60.6745 239.582L 59.5947 241.265ZM 68.4996 246.495C 70.0126 247.306 71.5521 248.092 73.0997 248.844L 73.9738 247.045C 72.4439 246.302 70.9395 245.534 69.4439 244.732L 68.4996 246.495ZM 77.787 251.008C 79.358 251.696 80.9542 252.358 82.5566 252.986L 83.286 251.124C 81.7021 250.504 80.1424 249.857 78.5895 249.176L 77.787 251.008ZM 87.4016 254.774C 89.0221 255.336 90.6664 255.87 92.3151 256.37L 92.895 254.456C 91.2653 253.962 89.6586 253.44 88.0568 252.885L 87.4016 254.774ZM 97.2879 257.77C 98.9454 258.201 100.625 258.603 102.308 258.971L 102.734 257.017C 101.071 256.653 99.43 256.261 97.7916 255.834L 97.2879 257.77ZM 107.372 259.973C 109.058 260.272 110.766 260.54 112.474 260.775L 112.746 258.793C 111.057 258.562 109.389 258.299 107.721 258.003L 107.372 259.973ZM 117.607 261.376C 119.31 261.542 121.032 261.676 122.754 261.776L 122.87 259.779C 121.168 259.68 119.484 259.549 117.801 259.385L 117.607 261.376ZM 127.909 261.975C 128.769 261.992 129.636 262 130.5 262L 130.5 260C 129.646 260 128.798 259.992 127.948 259.975L 127.909 261.975ZM 130.5 262C 131.364 262 132.231 261.992 133.091 261.975L 133.052 259.975C 132.202 259.992 131.354 260 130.5 260L 130.5 262ZM 138.246 261.776C 139.968 261.676 141.69 261.542 143.393 261.376L 143.199 259.385C 141.516 259.549 139.832 259.68 138.13 259.779L 138.246 261.776ZM 148.526 260.775C 150.234 260.54 151.942 260.272 153.628 259.973L 153.279 258.003C 151.611 258.299 149.943 258.562 148.254 258.793L 148.526 260.775ZM 158.693 258.971C 160.375 258.603 162.055 258.201 163.712 257.77L 163.208 255.834C 161.57 256.261 159.929 256.653 158.266 257.017L 158.693 258.971ZM 168.685 256.37C 170.334 255.87 171.978 255.336 173.598 254.774L 172.943 252.885C 171.341 253.44 169.735 253.962 168.105 254.456L 168.685 256.37ZM 178.443 252.986C 180.046 252.358 181.642 251.696 183.213 251.008L 182.411 249.176C 180.858 249.857 179.298 250.504 177.714 251.124L 178.443 252.986ZM 187.9 248.844C 189.448 248.092 190.987 247.306 192.5 246.495L 191.556 244.732C 190.06 245.534 188.556 246.302 187.026 247.045L 187.9 248.844ZM 197.005 243.968C 198.488 243.096 199.96 242.192 201.405 241.265L 200.325 239.582C 198.897 240.498 197.458 241.382 195.992 242.243L 197.005 243.968ZM 205.696 238.392C 207.106 237.408 208.503 236.391 209.871 235.354L 208.663 233.76C 207.31 234.786 205.945 235.78 204.551 236.753L 205.696 238.392ZM 213.924 232.154C 215.252 231.063 216.566 229.94 217.85 228.799L 216.521 227.304C 215.252 228.433 213.968 229.53 212.655 230.609L 213.924 232.154ZM 221.641 225.292C 222.879 224.101 224.101 222.879 225.292 221.641L 223.851 220.255C 222.673 221.479 221.479 222.673 220.255 223.851L 221.641 225.292ZM 228.799 217.85C 229.94 216.566 231.063 215.252 232.154 213.924L 230.609 212.655C 229.53 213.968 228.433 215.252 227.304 216.521L 228.799 217.85ZM 235.354 209.871C 236.391 208.503 237.408 207.106 238.392 205.696L 236.753 204.551C 235.78 205.945 234.786 207.31 233.76 208.663L 235.354 209.871ZM 241.265 201.405C 242.192 199.96 243.096 198.488 243.968 197.005L 242.243 195.992C 241.382 197.458 240.498 198.897 239.582 200.325L 241.265 201.405ZM 246.495 192.5C 247.306 190.987 248.092 189.448 248.844 187.9L 247.045 187.026C 246.302 188.556 245.534 190.06 244.732 191.556L 246.495 192.5ZM 251.008 183.213C 251.696 181.642 252.358 180.046 252.986 178.443L 251.124 177.714C 250.504 179.298 249.857 180.858 249.176 182.411L 251.008 183.213ZM 254.774 173.598C 255.336 171.978 255.87 170.334 256.37 168.685L 254.456 168.105C 253.962 169.735 253.44 171.341 252.885 172.943L 254.774 173.598ZM 257.77 163.712C 258.201 162.055 258.603 160.375 258.971 158.693L 257.017 158.266C 256.653 159.929 256.261 161.57 255.834 163.208L 257.77 163.712ZM 259.973 153.628C 260.272 151.942 260.54 150.234 260.775 148.526L 258.793 148.254C 258.562 149.943 258.299 151.611 258.003 153.279L 259.973 153.628ZM 261.376 143.393C 261.542 141.69 261.676 139.968 261.776 138.246L 259.779 138.13C 259.68 139.832 259.549 141.516 259.385 143.199L 261.376 143.393ZM 261.975 133.091C 261.992 132.231 262 131.364 262 130.5L 260 130.5C 260 131.354 259.992 132.202 259.975 133.052L 261.975 133.091ZM 263 130.5C 263 129.631 262.991 128.755 262.975 127.89L 258.976 127.967C 258.992 128.813 259 129.651 259 130.5L 263 130.5ZM 262.774 122.696C 262.673 120.965 262.538 119.223 262.371 117.51L 258.39 117.898C 258.553 119.572 258.682 121.236 258.781 122.928L 262.774 122.696ZM 261.765 112.338C 261.53 110.62 261.258 108.893 260.957 107.197L 257.019 107.896C 257.313 109.554 257.572 111.203 257.802 112.881L 261.765 112.338ZM 259.948 102.094C 259.578 100.402 259.171 98.7031 258.737 97.0361L 254.866 98.0434C 255.29 99.6723 255.679 101.295 256.04 102.948L 259.948 102.094ZM 257.327 92.0251C 256.824 90.367 256.284 88.7038 255.719 87.0739L 251.94 88.3844C 252.492 89.9769 253.008 91.5648 253.499 93.1849L 257.327 92.0251ZM 253.917 82.1918C 253.286 80.5802 252.616 78.9658 251.924 77.3858L 248.26 78.9907C 248.937 80.5346 249.576 82.076 250.193 83.6508L 253.917 82.1918ZM 249.743 72.6627C 248.987 71.1061 248.192 69.5491 247.377 68.0275L 243.851 69.9161C 244.647 71.403 245.407 72.8898 246.146 74.4109L 249.743 72.6627ZM 244.83 63.4889C 243.954 61.9975 243.039 60.508 242.107 59.0548L 238.74 61.2145C 239.651 62.6347 240.525 64.0572 241.381 65.5148L 244.83 63.4889ZM 239.212 54.7313C 238.222 53.3138 237.194 51.9008 236.151 50.5247L 232.963 52.9412C 233.983 54.2861 234.965 55.6358 235.933 57.0213L 239.212 54.7313ZM 232.927 46.4408C 231.83 45.1052 230.694 43.7767 229.546 42.4856L 226.557 45.1437C 227.679 46.4054 228.764 47.6746 229.836 48.9801L 232.927 46.4408ZM 226.013 38.6658C 224.815 37.4204 223.58 36.1847 222.334 34.9868L 219.562 37.8699C 220.779 39.0405 221.959 40.2211 223.13 41.4385L 226.013 38.6658ZM 218.514 31.4541C 217.223 30.3062 215.895 29.1704 214.559 28.073L 212.02 31.1636C 213.325 32.2361 214.595 33.3211 215.856 34.4432L 218.514 31.4541ZM 210.475 24.8492C 209.099 23.806 207.686 22.7776 206.269 21.7877L 203.979 25.0673C 205.364 26.0346 206.714 27.0169 208.059 28.0367L 210.475 24.8492ZM 201.945 18.8932C 200.492 17.9611 199.003 17.0463 197.511 16.1702L 195.485 19.6192C 196.943 20.4752 198.365 21.3489 199.786 22.26L 201.945 18.8932ZM 192.973 13.6231C 191.451 12.8082 189.894 12.0131 188.337 11.2567L 186.589 14.8544C 188.11 15.5934 189.597 16.3526 191.084 17.1491L 192.973 13.6231ZM 183.614 9.0757C 182.034 8.38369 180.42 7.71406 178.808 7.08266L 177.349 10.8071C 178.924 11.4239 180.465 12.0632 182.009 12.7396L 183.614 9.0757ZM 173.926 5.2808C 172.296 4.71576 170.633 4.17553 168.975 3.67305L 167.815 7.50121C 169.435 7.99197 171.023 8.50773 172.616 9.06005L 173.926 5.2808ZM 163.964 2.26256C 162.297 1.82884 160.598 1.42219 158.906 1.05248L 158.052 4.96033C 159.706 5.32137 161.328 5.70963 162.957 6.13362L 163.964 2.26256ZM 153.803 0.0428146C 152.107 -0.258057 150.38 -0.529692 148.662 -0.765316L 148.119 3.19761C 149.797 3.42767 151.446 3.68708 153.104 3.98129L 153.803 0.0428146ZM 143.49 -1.3712C 141.777 -1.53779 140.035 -1.67325 138.304 -1.77392L 138.072 2.21934C 139.764 2.31756 141.428 2.44697 143.102 2.60999L 143.49 -1.3712ZM 133.11 -1.9748C 132.245 -1.99149 131.369 -1.99998 130.5 -2L 130.5 2C 131.349 1.99998 132.187 2.00809 133.033 2.02446L 133.11 -1.9748ZM 130.5 -2C 129.631 -1.99998 128.755 -1.99149 127.89 -1.9748L 127.967 2.02446C 128.813 2.00809 129.651 1.99998 130.5 2L 130.5 -2ZM 122.696 -1.77392C 120.965 -1.67325 119.223 -1.53779 117.51 -1.3712L 117.898 2.60999C 119.572 2.44697 121.236 2.31756 122.928 2.21934L 122.696 -1.77392ZM 112.338 -0.765317C 110.62 -0.529693 108.893 -0.258058 107.197 0.0428135L 107.896 3.98129C 109.554 3.68708 111.203 3.42767 112.881 3.19761L 112.338 -0.765317ZM 102.094 1.05248C 100.402 1.42219 98.7031 1.82884 97.0361 2.26255L 98.0434 6.13362C 99.6723 5.70963 101.295 5.32137 102.948 4.96033L 102.094 1.05248ZM 92.0251 3.67305C 90.3669 4.17553 88.7038 4.71575 87.0739 5.2808L 88.3844 9.06004C 89.9769 8.50773 91.5648 7.99196 93.1849 7.50121L 92.0251 3.67305ZM 82.1918 7.08265C 80.5802 7.71406 78.9658 8.38369 77.3858 9.07569L 78.9907 12.7396C 80.5346 12.0632 82.076 11.4239 83.6508 10.8071L 82.1918 7.08265ZM 72.6627 11.2567C 71.1061 12.0131 69.5491 12.8082 68.0275 13.6231L 69.9161 17.1491C 71.403 16.3526 72.8898 15.5934 74.4109 14.8544L 72.6627 11.2567ZM 63.4889 16.1702C 61.9975 17.0463 60.508 17.9611 59.0548 18.8932L 61.2145 22.26C 62.6347 21.3489 64.0572 20.4752 65.5148 19.6192L 63.4889 16.1702ZM 54.7313 21.7877C 53.3138 22.7776 51.9008 23.806 50.5246 24.8492L 52.9412 28.0367C 54.2861 27.0169 55.6358 26.0346 57.0213 25.0673L 54.7313 21.7877ZM 46.4407 28.073C 45.1052 29.1704 43.7767 30.3062 42.4856 31.4541L 45.1437 34.4432C 46.4054 33.3211 47.6746 32.2361 48.9801 31.1636L 46.4407 28.073ZM 38.6658 34.9868C 37.4204 36.1846 36.1846 37.4204 34.9868 38.6658L 37.8699 41.4385C 39.0405 40.2211 40.2211 39.0405 41.4385 37.8699L 38.6658 34.9868ZM 31.4541 42.4856C 30.3062 43.7767 29.1704 45.1052 28.073 46.4407L 31.1636 48.98C 32.2361 47.6746 33.3211 46.4054 34.4432 45.1437L 31.4541 42.4856ZM 24.8492 50.5246C 23.806 51.9008 22.7776 53.3138 21.7877 54.7313L 25.0673 57.0212C 26.0346 55.6358 27.0169 54.2861 28.0367 52.9412L 24.8492 50.5246ZM 18.8932 59.0547C 17.9611 60.508 17.0463 61.9975 16.1702 63.4889L 19.6192 65.5148C 20.4752 64.0572 21.3489 62.6346 22.26 61.2144L 18.8932 59.0547ZM 13.6231 68.0275C 12.8082 69.5491 12.0131 71.1061 11.2567 72.6627L 14.8544 74.4109C 15.5934 72.8898 16.3526 71.403 17.1491 69.9161L 13.6231 68.0275ZM 9.0757 77.3857C 8.38369 78.9658 7.71406 80.5802 7.08266 82.1918L 10.8071 83.6507C 11.4239 82.076 12.0632 80.5346 12.7396 78.9907L 9.0757 77.3857ZM 5.2808 87.0739C 4.71576 88.7038 4.17553 90.3669 3.67305 92.0251L 7.50121 93.1849C 7.99197 91.5648 8.50773 89.9769 9.06005 88.3844L 5.2808 87.0739ZM 2.26255 97.0361C 1.82884 98.7031 1.42219 100.402 1.05248 102.094L 4.96033 102.948C 5.32137 101.295 5.70963 99.6723 6.13362 98.0434L 2.26255 97.0361ZM 0.0428157 107.197C -0.258056 108.893 -0.52969 110.62 -0.765315 112.338L 3.19762 112.881C 3.42767 111.203 3.68708 109.554 3.9813 107.896L 0.0428157 107.197ZM -1.3712 117.51C -1.53779 119.223 -1.67325 120.965 -1.77392 122.696L 2.21934 122.928C 2.31756 121.236 2.44697 119.572 2.60999 117.898L -1.3712 117.51ZM -1.9748 127.89C -1.99149 128.755 -1.99998 129.631 -2 130.5L 2 130.5C 1.99998 129.651 2.00809 128.813 2.02446 127.967L -1.9748 127.89ZM -2 130.5C -1.99998 131.369 -1.99149 132.245 -1.9748 133.11L 2.02446 133.033C 2.00809 132.187 1.99998 131.349 2 130.5L -2 130.5ZM -1.77392 138.304C -1.67325 140.035 -1.53779 141.777 -1.3712 143.49L 2.60999 143.102C 2.44697 141.428 2.31756 139.764 2.21934 138.072L -1.77392 138.304ZM -0.765317 148.662C -0.529692 150.38 -0.258057 152.107 0.0428143 153.803L 3.98129 153.104C 3.68708 151.446 3.42767 149.797 3.19761 148.119L -0.765317 148.662ZM 1.05248 158.906C 1.42219 160.598 1.82884 162.297 2.26255 163.964L 6.13362 162.957C 5.70963 161.328 5.32137 159.706 4.96033 158.052L 1.05248 158.906ZM 3.67305 168.975C 4.17553 170.633 4.71576 172.296 5.2808 173.926L 9.06004 172.616C 8.50773 171.023 7.99197 169.435 7.50121 167.815L 3.67305 168.975ZM 7.08265 178.808C 7.71406 180.42 8.38369 182.034 9.07569 183.614L 12.7396 182.009C 12.0632 180.465 11.4239 178.924 10.8071 177.349L 7.08265 178.808ZM 11.2567 188.337C 12.0131 189.894 12.8082 191.451 13.6231 192.973L 17.1491 191.084C 16.3526 189.597 15.5934 188.11 14.8544 186.589L 11.2567 188.337ZM 16.1702 197.511C 17.0463 199.003 17.9611 200.492 18.8932 201.945L 22.26 199.786C 21.3489 198.365 20.4752 196.943 19.6192 195.485L 16.1702 197.511ZM 21.7877 206.269C 22.7776 207.686 23.806 209.099 24.8492 210.475L 28.0367 208.059C 27.0169 206.714 26.0346 205.364 25.0673 203.979L 21.7877 206.269ZM 28.073 214.559C 29.1704 215.895 30.3062 217.223 31.4541 218.514L 34.4432 215.856C 33.3211 214.595 32.2361 213.325 31.1636 212.02L 28.073 214.559ZM 34.9868 222.334C 36.1846 223.58 37.4204 224.815 38.6658 226.013L 41.4385 223.13C 40.2211 221.959 39.0405 220.779 37.8699 219.562L 34.9868 222.334ZM 42.4856 229.546C 43.7767 230.694 45.1052 231.83 46.4408 232.927L 48.9801 229.836C 47.6746 228.764 46.4054 227.679 45.1437 226.557L 42.4856 229.546ZM 50.5246 236.151C 51.9008 237.194 53.3138 238.222 54.7313 239.212L 57.0213 235.933C 55.6358 234.965 54.2861 233.983 52.9412 232.963L 50.5246 236.151ZM 59.0548 242.107C 60.508 243.039 61.9975 243.954 63.4889 244.83L 65.5148 241.381C 64.0572 240.525 62.6347 239.651 61.2145 238.74L 59.0548 242.107ZM 68.0275 247.377C 69.5491 248.192 71.1061 248.987 72.6627 249.743L 74.4109 246.146C 72.8898 245.407 71.403 244.647 69.9161 243.851L 68.0275 247.377ZM 77.3858 251.924C 78.9658 252.616 80.5802 253.286 82.1918 253.917L 83.6508 250.193C 82.076 249.576 80.5346 248.937 78.9907 248.26L 77.3858 251.924ZM 87.0739 255.719C 88.7038 256.284 90.3669 256.824 92.0251 257.327L 93.1849 253.499C 91.5648 253.008 89.9769 252.492 88.3844 251.94L 87.0739 255.719ZM 97.0361 258.737C 98.7031 259.171 100.402 259.578 102.094 259.948L 102.948 256.04C 101.295 255.679 99.6723 255.29 98.0434 254.866L 97.0361 258.737ZM 107.197 260.957C 108.893 261.258 110.62 261.53 112.338 261.765L 112.881 257.802C 111.203 257.572 109.554 257.313 107.896 257.019L 107.197 260.957ZM 117.51 262.371C 119.223 262.538 120.965 262.673 122.696 262.774L 122.928 258.781C 121.236 258.682 119.572 258.553 117.898 258.39L 117.51 262.371ZM 127.89 262.975C 128.755 262.991 129.631 263 130.5 263L 130.5 259C 129.651 259 128.813 258.992 127.967 258.976L 127.89 262.975ZM 130.5 263C 131.369 263 132.245 262.991 133.11 262.975L 133.033 258.976C 132.187 258.992 131.349 259 130.5 259L 130.5 263ZM 138.304 262.774C 140.035 262.673 141.777 262.538 143.49 262.371L 143.102 258.39C 141.428 258.553 139.764 258.682 138.072 258.781L 138.304 262.774ZM 148.662 261.765C 150.38 261.53 152.107 261.258 153.803 260.957L 153.104 257.019C 151.446 257.313 149.797 257.572 148.119 257.802L 148.662 261.765ZM 158.906 259.948C 160.598 259.578 162.297 259.171 163.964 258.737L 162.957 254.866C 161.328 255.29 159.706 255.679 158.052 256.04L 158.906 259.948ZM 168.975 257.327C 170.633 256.824 172.296 256.284 173.926 255.719L 172.616 251.94C 171.023 252.492 169.435 253.008 167.815 253.499L 168.975 257.327ZM 178.808 253.917C 180.42 253.286 182.034 252.616 183.614 251.924L 182.009 248.26C 180.465 248.937 178.924 249.576 177.349 250.193L 178.808 253.917ZM 188.337 249.743C 189.894 248.987 191.451 248.192 192.973 247.377L 191.084 243.851C 189.597 244.647 188.11 245.407 186.589 246.146L 188.337 249.743ZM 197.511 244.83C 199.003 243.954 200.492 243.039 201.945 242.107L 199.786 238.74C 198.365 239.651 196.943 240.525 195.485 241.381L 197.511 244.83ZM 206.269 239.212C 207.686 238.222 209.099 237.194 210.475 236.151L 208.059 232.963C 206.714 233.983 205.364 234.965 203.979 235.933L 206.269 239.212ZM 214.559 232.927C 215.895 231.83 217.223 230.694 218.514 229.546L 215.856 226.557C 214.595 227.679 213.325 228.764 212.02 229.836L 214.559 232.927ZM 222.334 226.013C 223.58 224.815 224.815 223.58 226.013 222.334L 223.13 219.562C 221.959 220.779 220.779 221.959 219.562 223.13L 222.334 226.013ZM 229.546 218.514C 230.694 217.223 231.83 215.895 232.927 214.559L 229.836 212.02C 228.764 213.325 227.679 214.595 226.557 215.856L 229.546 218.514ZM 236.151 210.475C 237.194 209.099 238.222 207.686 239.212 206.269L 235.933 203.979C 234.965 205.364 233.983 206.714 232.963 208.059L 236.151 210.475ZM 242.107 201.945C 243.039 200.492 243.954 199.003 244.83 197.511L 241.381 195.485C 240.525 196.943 239.651 198.365 238.74 199.786L 242.107 201.945ZM 247.377 192.973C 248.192 191.451 248.987 189.894 249.743 188.337L 246.146 186.589C 245.407 188.11 244.647 189.597 243.851 191.084L 247.377 192.973ZM 251.924 183.614C 252.616 182.034 253.286 180.42 253.917 178.808L 250.193 177.349C 249.576 178.924 248.937 180.465 248.26 182.009L 251.924 183.614ZM 255.719 173.926C 256.284 172.296 256.824 170.633 257.327 168.975L 253.499 167.815C 253.008 169.435 252.492 171.023 251.94 172.616L 255.719 173.926ZM 258.737 163.964C 259.171 162.297 259.578 160.598 259.948 158.906L 256.04 158.052C 255.679 159.706 255.29 161.328 254.866 162.957L 258.737 163.964ZM 260.957 153.803C 261.258 152.107 261.53 150.38 261.765 148.662L 257.802 148.119C 257.572 149.797 257.313 151.446 257.019 153.104L 260.957 153.803ZM 262.371 143.49C 262.538 141.777 262.673 140.035 262.774 138.304L 258.781 138.072C 258.682 139.764 258.553 141.428 258.39 143.102L 262.371 143.49ZM 262.975 133.11C 262.991 132.245 263 131.369 263 130.5L 259 130.5C 259 131.349 258.992 132.187 258.976 133.033L 262.975 133.11Z"/>
<path id="path14_fill" d="M 130 64.7778C 130 100.554 100.899 129.556 65 129.556C 29.1015 129.556 0 100.554 0 64.7778C 0 29.002 29.1015 0 65 0C 100.899 0 130 29.002 130 64.7778Z"/>
<path id="path15_stroke" d="M 127.5 64.7778C 127.5 99.1648 99.5259 127.056 65 127.056L 65 132.056C 102.271 132.056 132.5 101.942 132.5 64.7778L 127.5 64.7778ZM 65 127.056C 30.4741 127.056 2.5 99.1648 2.5 64.7778L -2.5 64.7778C -2.5 101.942 27.7289 132.056 65 132.056L 65 127.056ZM 2.5 64.7778C 2.5 30.3908 30.4741 2.5 65 2.5L 65 -2.5C 27.7289 -2.5 -2.5 27.6132 -2.5 64.7778L 2.5 64.7778ZM 65 2.5C 99.5259 2.5 127.5 30.3908 127.5 64.7778L 132.5 64.7778C 132.5 27.6132 102.271 -2.5 65 -2.5L 65 2.5Z"/>
<path id="path16_fill" d="M 29.5455 14.7222C 29.5455 22.8531 22.9315 29.4444 14.7727 29.4444C 6.61398 29.4444 0 22.8531 0 14.7222C 0 6.59136 6.61398 0 14.7727 0C 22.9315 0 29.5455 6.59136 29.5455 14.7222Z"/>
<path id="path17_stroke" d="M 27.0455 14.7222C 27.0455 21.4643 21.5588 26.9444 14.7727 26.9444L 14.7727 31.9444C 24.3041 31.9444 32.0455 24.2419 32.0455 14.7222L 27.0455 14.7222ZM 14.7727 26.9444C 7.98661 26.9444 2.5 21.4643 2.5 14.7222L -2.5 14.7222C -2.5 24.2419 5.24134 31.9444 14.7727 31.9444L 14.7727 26.9444ZM 2.5 14.7222C 2.5 7.98014 7.98661 2.5 14.7727 2.5L 14.7727 -2.5C 5.24134 -2.5 -2.5 5.20259 -2.5 14.7222L 2.5 14.7222ZM 14.7727 2.5C 21.5588 2.5 27.0455 7.98014 27.0455 14.7222L 32.0455 14.7222C 32.0455 5.20259 24.3041 -2.5 14.7727 -2.5L 14.7727 2.5Z"/>
<path id="path18_fill" d="M 0 0L 3.54545 0L 3.54545 12.9556L 0 12.9556L 0 0Z"/>
<path id="path19_fill" d="M 0 0L 9.08226 0L 9.08226 9.85587L 0 9.85587L 0 0Z"/>
<path id="path20_stroke" d="M 0 0L 0 -2.5L -2.5 -2.5L -2.5 0L 0 0ZM 9.08226 0L 11.5823 0L 11.5823 -2.5L 9.08226 -2.5L 9.08226 0ZM 9.08226 9.85587L 9.08226 12.3559L 11.5823 12.3559L 11.5823 9.85587L 9.08226 9.85587ZM 0 9.85587L -2.5 9.85587L -2.5 12.3559L 0 12.3559L 0 9.85587ZM 0 2.5L 9.08226 2.5L 9.08226 -2.5L 0 -2.5L 0 2.5ZM 6.58226 0L 6.58226 9.85587L 11.5823 9.85587L 11.5823 0L 6.58226 0ZM 9.08226 7.35587L 0 7.35587L 0 12.3559L 9.08226 12.3559L 9.08226 7.35587ZM 2.5 9.85587L 2.5 0L -2.5 0L -2.5 9.85587L 2.5 9.85587Z"/>
<path id="path21_fill" d="M 0 0L 3.53333 0L 3.53333 13L 0 13L 0 0Z"/>
<path id="path22_fill" d="M 89.8182 44.7556C 89.8182 69.4734 69.7117 89.5111 44.9091 89.5111C 20.1065 89.5111 0 69.4734 0 44.7556C 0 20.0377 20.1065 0 44.9091 0C 69.7117 0 89.8182 20.0377 89.8182 44.7556Z"/>
<path id="path23_stroke" d="M 87.3182 44.7556C 87.3182 68.0846 68.3391 87.0111 44.9091 87.0111L 44.9091 92.0111C 71.0843 92.0111 92.3182 70.8621 92.3182 44.7556L 87.3182 44.7556ZM 44.9091 87.0111C 21.4791 87.0111 2.5 68.0846 2.5 44.7556L -2.5 44.7556C -2.5 70.8621 18.7339 92.0111 44.9091 92.0111L 44.9091 87.0111ZM 2.5 44.7556C 2.5 21.4265 21.4791 2.5 44.9091 2.5L 44.9091 -2.5C 18.7339 -2.5 -2.5 18.649 -2.5 44.7556L 2.5 44.7556ZM 44.9091 2.5C 68.3391 2.5 87.3182 21.4265 87.3182 44.7556L 92.3182 44.7556C 92.3182 18.649 71.0843 -2.5 44.9091 -2.5L 44.9091 2.5Z"/>
<path id="path24_stroke" d="M 2.22727 2.35556C 2.22727 2.26772 2.2964 2.21111 2.36364 2.21111L 2.36364 7.21111C 5.04167 7.21111 7.22727 5.04527 7.22727 2.35556L 2.22727 2.35556ZM 2.36364 2.21111C 2.43087 2.21111 2.5 2.26772 2.5 2.35556L -2.5 2.35556C -2.5 5.04527 -0.314397 7.21111 2.36364 7.21111L 2.36364 2.21111ZM 2.5 2.35556C 2.5 2.4434 2.43087 2.5 2.36364 2.5L 2.36364 -2.5C -0.314397 -2.5 -2.5 -0.334159 -2.5 2.35556L 2.5 2.35556ZM 2.36364 2.5C 2.2964 2.5 2.22727 2.4434 2.22727 2.35556L 7.22727 2.35556C 7.22727 -0.334159 5.04167 -2.5 2.36364 -2.5L 2.36364 2.5Z"/>
<path id="path25_fill" d="M 0 0L 2.36364 0L 2.36364 31.8L 0 31.8L 0 0Z"/>
</defs>
</svg>
