<svg width="135" height="153" viewBox="0 0 135 153" version="1.1" xmlns="http://www.w3.org/2000/svg" xmlns:xlink="http://www.w3.org/1999/xlink">
<title>capa</title>
<desc>Created using Figma</desc>
<g id="Canvas" transform="translate(-2428 -4356)">
<g id="capa">
<g id="Capa 1 2">
<g id="Group">
<g id="Vector">
<use xlink:href="#path0_fill" transform="translate(2428 4356)" fill="#EAEAEA"/>
</g>
</g>
</g>
<g id="Capa 1 3">
<g id="Group">
<g id="Vector">
<use xlink:href="#path1_fill" transform="translate(2444 4429)" fill="#FFFFFF"/>
</g>
</g>
</g>
</g>
</g>
<defs>
<path id="path0_fill" d="M 46.351 2.46035e-08C 49.761 2.46035e-08 54.9851 0.229322 62.0176 0.676499L 62.0176 26.8822C 40.6562 26.8822 29.9955 36.7488 29.9955 56.4819L 30.34 68.3895L 52.4764 68.3895L 52.4764 130.994L 0 130.994L 0 63.287C 0.00574077 21.0919 15.4599 2.46035e-08 46.351 2.46035e-08ZM 135 26.8822L 135 0.676499C 128.88 0.229322 124.563 2.46035e-08 122.06 2.46035e-08C 91.1692 2.46035e-08 75.7323 21.0976 75.7323 63.2928L 75.7323 131L 128.197 131L 128.197 68.3952L 106.055 68.3952L 105.716 56.4877C 105.705 37.8839 115.481 28.0174 135 26.8822Z"/>
<path id="path1_fill" d="M 25.4634 29.0909C 39.464 29.0909 50.8137 40.4875 50.8137 54.5455C 50.8137 68.6034 39.464 80 25.4634 80C 11.4628 80 0.113171 68.6034 0.113171 54.5455L 0 50.9091C 0 22.7927 22.6993 0 50.7005 0L 50.7005 14.5455C 41.0273 14.5455 31.9329 18.328 25.0929 25.1961C 23.7763 26.5184 22.5746 27.9252 21.4907 29.403C 22.7851 29.1984 24.1117 29.0909 25.4634 29.0909ZM 90.6498 29.0909C 104.65 29.0909 116 40.4875 116 54.5455C 116 68.6034 104.65 80 90.6498 80C 76.6494 80 65.2995 68.6034 65.2995 54.5455L 65.1863 50.9091C 65.1863 22.7927 87.8854 0 115.887 0L 115.887 14.5455C 106.214 14.5455 97.119 18.328 90.2792 25.1961C 88.9624 26.5184 87.7607 27.9252 86.6768 29.403C 87.9712 29.1984 89.2978 29.0909 90.6498 29.0909Z"/>
</defs>
</svg>
