<svg width="572" height="359" viewBox="0 0 572 359" version="1.1" xmlns="http://www.w3.org/2000/svg" xmlns:xlink="http://www.w3.org/1999/xlink">
<title>Mask Group</title>
<desc>Created using Figma</desc>
<g id="Canvas" transform="translate(-20598 -2291)">
<g id="Mask Group">
<mask id="mask0_alpha" mask-type="alpha">
<g id="Rectangle 17">
<use xlink:href="#path0_fill" transform="translate(20598 2291)" fill="#FDBF12"/>
</g>
</mask>
<g id="Rectangle 7" mask="url(#mask0_alpha)">
<use xlink:href="#path1_fill" transform="translate(20598 2286)" fill="url(#paint1_linear)"/>
</g>
<g id="Rectangle 13" opacity="0.2" mask="url(#mask0_alpha)">
<use xlink:href="#path2_fill" transform="translate(20578 2337)" fill="#FFFFFF"/>
</g>
<g id="Rectangle 13" opacity="0.2" mask="url(#mask0_alpha)">
<use xlink:href="#path3_fill" transform="translate(20827 2606)" fill="#FFFFFF"/>
</g>
<g id="Rectangle 13" opacity="0.2" mask="url(#mask0_alpha)">
<use xlink:href="#path4_fill" transform="translate(20492 2541)" fill="#FFFFFF"/>
</g>
<g id="4556 0640 7303 3918" mask="url(#mask0_alpha)" filter="url(#filter0_d)">
<use xlink:href="#path5_fill" transform="translate(20636 2557)" fill="#FFFFFF"/>
</g>
<g id="visa 2" mask="url(#mask0_alpha)" filter="url(#filter1_d)">
<g id="Vector">
<use xlink:href="#path6_fill" transform="translate(21065.3 2357.75)" fill="#FFFFFF"/>
</g>
<g id="Vector">
<use xlink:href="#path7_fill" transform="translate(21065.3 2357.75)" fill="#FFFFFF"/>
</g>
<g id="Vector">
<use xlink:href="#path8_fill" transform="translate(21075.4 2357)" fill="#FFFFFF"/>
</g>
<g id="Vector">
<use xlink:href="#path9_fill" transform="translate(21075.4 2357)" fill="#FFFFFF"/>
</g>
<g id="Vector">
<use xlink:href="#path10_fill" transform="translate(21092.9 2357.75)" fill="#FFFFFF"/>
</g>
<g id="Vector">
<use xlink:href="#path11_fill" transform="translate(21092.9 2357.75)" fill="#FFFFFF"/>
</g>
<g id="Vector">
<use xlink:href="#path12_fill" transform="translate(21044.1 2357.88)" fill="#FFFFFF"/>
</g>
<g id="Vector">
<use xlink:href="#path13_fill" transform="translate(21044.1 2357.88)" fill="#FFFFFF"/>
</g>
<g id="Vector">
<use xlink:href="#path14_fill" transform="translate(21036 2357.75)" fill="#FFFFFF"/>
</g>
<g id="Vector">
<use xlink:href="#path15_fill" transform="translate(21036 2357.75)" fill="#FFFFFF"/>
</g>
<g id="Vector">
<use xlink:href="#path16_fill" transform="translate(21036 2357.75)" fill="#FFFFFF"/>
</g>
<g id="Group">
<g id="Vector">
<use xlink:href="#path17_fill" transform="translate(21044.3 2360.27)" fill="#FFFFFF"/>
</g>
<g id="Vector">
<use xlink:href="#path18_fill" transform="translate(21065.3 2374.84)" fill="#FFFFFF"/>
</g>
<g id="Vector">
<use xlink:href="#path19_fill" transform="translate(21075.4 2372.58)" fill="#FFFFFF"/>
</g>
<g id="Vector">
<use xlink:href="#path20_fill" transform="translate(21093.8 2363.91)" fill="#FFFFFF"/>
</g>
</g>
</g>
<g id="&#208;&#159;&#208;&#181;&#209;&#128;&#208;&#178;&#209;&#139;&#208;&#185; &#208;&#183;&#208;&#176;&#208;&#181;&#208;&#188; &#208;&#188;&#209;&#139; &#208;&#180;&#208;&#176;&#208;&#181;&#208;&#188; &#208;&#177;&#209;&#139;&#209;&#129;&#209;&#130;&#209;&#128;&#208;&#190;, &#208;&#176; &#208;&#178;&#209;&#129;&#208;&#181; &#208;&#191;&#208;&#190;&#209;&#129;&#208;&#187;&#208;&#181;&#208;&#180;&#209;&#131;&#209;&#142;&#209;&#137;&#208;&#184;&#208;&#181; - &#208;&#188;&#208;&#190;&#208;&#187;&#208;&#189;&#208;&#184;&#208;&#181;&#208;&#189;&#208;&#190;&#209;&#129;&#208;&#189;&#208;&#190;" mask="url(#mask0_alpha)">
<use xlink:href="#path21_fill" transform="translate(20636 2356)" fill="#FFFFFF"/>
</g>
</g>
</g>
<defs>
<filter id="filter0_d" filterUnits="userSpaceOnUse" x="20633" y="2564" width="348" height="31" color-interpolation-filters="sRGB">
<feFlood flood-opacity="0" result="BackgroundImageFix"/>
<feColorMatrix in="SourceAlpha" type="matrix" values="0 0 0 0 0 0 0 0 0 0 0 0 0 0 0 0 0 0 255 0"/>
<feOffset dx="0" dy="2"/>
<feGaussianBlur stdDeviation="2"/>
<feColorMatrix type="matrix" values="0 0 0 0 0 0 0 0 0 0 0 0 0 0 0 0 0 0 0.25 0"/>
<feBlend mode="normal" in2="BackgroundImageFix" result="effect1_dropShadow"/>
<feBlend mode="normal" in="SourceGraphic" in2="effect1_dropShadow" result="shape"/>
</filter>
<filter id="filter1_d" filterUnits="userSpaceOnUse" x="21032" y="2355" width="88" height="32" color-interpolation-filters="sRGB">
<feFlood flood-opacity="0" result="BackgroundImageFix"/>
<feColorMatrix in="SourceAlpha" type="matrix" values="0 0 0 0 0 0 0 0 0 0 0 0 0 0 0 0 0 0 255 0"/>
<feOffset dx="0" dy="2"/>
<feGaussianBlur stdDeviation="2"/>
<feColorMatrix type="matrix" values="0 0 0 0 0 0 0 0 0 0 0 0 0 0 0 0 0 0 0.25 0"/>
<feBlend mode="normal" in2="BackgroundImageFix" result="effect1_dropShadow"/>
<feBlend mode="normal" in="SourceGraphic" in2="effect1_dropShadow" result="shape"/>
</filter>
<linearGradient id="paint1_linear" x1="0" y1="0" x2="1" y2="0" gradientUnits="userSpaceOnUse" gradientTransform="matrix(735.8 467.231 -734.22 1023.54 367.11 -511.77)">
<stop offset="0" stop-color="#59A6FF"/>
<stop offset="1" stop-color="#011C9D"/>
</linearGradient>
<path id="path0_fill" d="M 0 10C 0 4.47715 4.47715 0 10 0L 562 0C 567.523 0 572 4.47715 572 10L 572 349C 572 354.523 567.523 359 562 359L 10 359C 4.47715 359 0 354.523 0 349L 0 10Z"/>
<path id="path1_fill" d="M 0 0L 572 0L 572 364L 0 364L 0 0Z"/>
<path id="path2_fill" d="M 0 290.5C 0 130.061 130.061 0 290.5 0C 450.939 0 581 130.061 581 290.5C 581 450.939 450.939 581 290.5 581C 130.061 581 0 450.939 0 290.5Z"/>
<path id="path3_fill" d="M 0 190C 0 85.0659 85.0659 0 190 0C 294.934 0 380 85.0659 380 190C 380 294.934 294.934 380 190 380C 85.0659 380 0 294.934 0 190Z"/>
<path id="path4_fill" d="M 0 236.5C 0 105.885 105.885 0 236.5 0C 367.115 0 473 105.885 473 236.5C 473 367.115 367.115 473 236.5 473C 105.885 473 0 367.115 0 236.5Z"/>
<path id="path5_fill" d="M 13.5352 23.8369L 16.5088 23.8369L 16.5088 26.0488L 13.5352 26.0488L 13.5352 31L 10.8252 31L 10.8252 26.0488L 1.09863 26.0488L 1.09863 24.4521L 10.6494 9.67188L 13.5352 9.67188L 13.5352 23.8369ZM 4.10156 23.8369L 10.8252 23.8369L 10.8252 13.2754L 10.3857 14.0957L 4.10156 23.8369ZM 21.5332 20.3066L 22.6025 9.67188L 33.5449 9.67188L 33.5449 12.3086L 24.8877 12.3086L 24.2871 17.9922C 24.707 17.748 25.21 17.5332 25.7959 17.3477C 26.3818 17.1621 27.0605 17.0693 27.832 17.0693C 28.8184 17.0693 29.7021 17.2402 30.4834 17.582C 31.2646 17.9238 31.9287 18.4072 32.4756 19.0322C 33.0225 19.6475 33.4424 20.3945 33.7354 21.2734C 34.0283 22.1523 34.1748 23.1289 34.1748 24.2031C 34.1748 25.2188 34.0381 26.1611 33.7646 27.0303C 33.4912 27.8994 33.0762 28.6514 32.5195 29.2861C 31.9727 29.9111 31.2793 30.4043 30.4395 30.7656C 29.5996 31.1172 28.6133 31.293 27.4805 31.293C 26.6113 31.293 25.791 31.1709 25.0195 30.9268C 24.248 30.6826 23.5596 30.3164 22.9541 29.8281C 22.3584 29.3398 21.8652 28.7246 21.4746 27.9824C 21.0938 27.2402 20.8545 26.376 20.7568 25.3896L 23.335 25.3896C 23.501 26.6006 23.9453 27.5186 24.668 28.1436C 25.4004 28.7686 26.3379 29.0811 27.4805 29.0811C 28.125 29.0811 28.6963 28.9687 29.1943 28.7441C 29.6924 28.5098 30.1074 28.1826 30.4395 27.7627C 30.7812 27.333 31.0352 26.8203 31.2012 26.2246C 31.377 25.6289 31.4648 24.9648 31.4648 24.2324C 31.4648 23.5684 31.3672 22.9482 31.1719 22.3721C 30.9863 21.7959 30.7129 21.2979 30.3516 20.8779C 29.9902 20.4482 29.5459 20.1113 29.0186 19.8672C 28.4912 19.623 27.8857 19.501 27.2021 19.501C 26.7529 19.501 26.3623 19.5352 26.0303 19.6035C 25.708 19.6621 25.415 19.75 25.1514 19.8672C 24.8877 19.9844 24.6387 20.126 24.4043 20.292C 24.1797 20.458 23.9453 20.6484 23.7012 20.8633L 21.5332 20.3066ZM 39.5508 20.3066L 40.6201 9.67188L 51.5625 9.67188L 51.5625 12.3086L 42.9053 12.3086L 42.3047 17.9922C 42.7246 17.748 43.2275 17.5332 43.8135 17.3477C 44.3994 17.1621 45.0781 17.0693 45.8496 17.0693C 46.8359 17.0693 47.7197 17.2402 48.501 17.582C 49.2822 17.9238 49.9463 18.4072 50.4932 19.0322C 51.04 19.6475 51.46 20.3945 51.7529 21.2734C 52.0459 22.1523 52.1924 23.1289 52.1924 24.2031C 52.1924 25.2188 52.0557 26.1611 51.7822 27.0303C 51.5088 27.8994 51.0938 28.6514 50.5371 29.2861C 49.9902 29.9111 49.2969 30.4043 48.457 30.7656C 47.6172 31.1172 46.6309 31.293 45.498 31.293C 44.6289 31.293 43.8086 31.1709 43.0371 30.9268C 42.2656 30.6826 41.5771 30.3164 40.9717 29.8281C 40.376 29.3398 39.8828 28.7246 39.4922 27.9824C 39.1113 27.2402 38.8721 26.376 38.7744 25.3896L 41.3525 25.3896C 41.5186 26.6006 41.9629 27.5186 42.6855 28.1436C 43.418 28.7686 44.3555 29.0811 45.498 29.0811C 46.1426 29.0811 46.7139 28.9687 47.2119 28.7441C 47.71 28.5098 48.125 28.1826 48.457 27.7627C 48.7988 27.333 49.0527 26.8203 49.2188 26.2246C 49.3945 25.6289 49.4824 24.9648 49.4824 24.2324C 49.4824 23.5684 49.3848 22.9482 49.1895 22.3721C 49.0039 21.7959 48.7305 21.2979 48.3691 20.8779C 48.0078 20.4482 47.5635 20.1113 47.0361 19.8672C 46.5088 19.623 45.9033 19.501 45.2197 19.501C 44.7705 19.501 44.3799 19.5352 44.0479 19.6035C 43.7256 19.6621 43.4326 19.75 43.1689 19.8672C 42.9053 19.9844 42.6562 20.126 42.4219 20.292C 42.1973 20.458 41.9629 20.6484 41.7188 20.8633L 39.5508 20.3066ZM 66.5918 9.65723L 66.5918 12.0889L 66.3574 12.0889C 65.459 12.0889 64.6533 12.1816 63.9404 12.3672C 63.2373 12.5527 62.6172 12.8066 62.0801 13.1289C 61.543 13.4512 61.0791 13.8369 60.6885 14.2861C 60.3076 14.7256 59.9902 15.209 59.7363 15.7363C 59.4824 16.2637 59.2871 16.8154 59.1504 17.3916C 59.0137 17.9678 58.9258 18.5537 58.8867 19.1494C 59.1406 18.8467 59.4336 18.5684 59.7656 18.3145C 60.0977 18.0508 60.4541 17.8262 60.835 17.6406C 61.2256 17.4453 61.6406 17.2939 62.0801 17.1865C 62.5293 17.0693 62.998 17.0107 63.4863 17.0107C 64.5508 17.0107 65.4687 17.2158 66.2402 17.626C 67.0117 18.0264 67.6465 18.5586 68.1445 19.2227C 68.6426 19.8867 69.0088 20.6387 69.2432 21.4785C 69.4775 22.3184 69.5947 23.1729 69.5947 24.042C 69.5947 25.0381 69.4531 25.9756 69.1699 26.8545C 68.8965 27.7334 68.4814 28.5049 67.9248 29.1689C 67.3682 29.8232 66.6748 30.3408 65.8447 30.7217C 65.0244 31.1025 64.0723 31.293 62.9883 31.293C 62.2168 31.293 61.5088 31.1807 60.8643 30.9561C 60.2295 30.7314 59.6582 30.4287 59.1504 30.0479C 58.6426 29.6572 58.1982 29.1982 57.8174 28.6709C 57.4365 28.1436 57.1191 27.5771 56.8652 26.9717C 56.6211 26.3662 56.4355 25.7363 56.3086 25.082C 56.1816 24.4277 56.1182 23.7734 56.1182 23.1191L 56.1182 21.8447C 56.1182 20.8682 56.1768 19.8916 56.2939 18.915C 56.4209 17.9287 56.6309 16.9863 56.9238 16.0879C 57.2168 15.1895 57.6123 14.3496 58.1104 13.5684C 58.6084 12.7773 59.2334 12.0938 59.9854 11.5176C 60.7471 10.9414 61.6504 10.4873 62.6953 10.1553C 63.7402 9.82324 64.9609 9.65723 66.3574 9.65723L 66.5918 9.65723ZM 63.0469 19.2666C 62.5879 19.2666 62.1436 19.3398 61.7139 19.4863C 61.2842 19.6328 60.8838 19.8379 60.5127 20.1016C 60.1416 20.3652 59.8145 20.6826 59.5312 21.0537C 59.248 21.4248 59.0234 21.835 58.8574 22.2842L 58.8574 23.1924C 58.8574 24.1299 58.9697 24.9648 59.1943 25.6973C 59.4189 26.4199 59.7217 27.0303 60.1025 27.5283C 60.4834 28.0264 60.9229 28.4072 61.4209 28.6709C 61.9189 28.9248 62.4414 29.0518 62.9883 29.0518C 63.623 29.0518 64.1846 28.9297 64.6729 28.6855C 65.1611 28.4414 65.5713 28.1045 65.9033 27.6748C 66.2451 27.2451 66.499 26.7324 66.665 26.1367C 66.8408 25.5312 66.9287 24.877 66.9287 24.1738C 66.9287 23.5488 66.8506 22.9434 66.6943 22.3574C 66.5381 21.7617 66.2988 21.2344 65.9766 20.7754C 65.6543 20.3164 65.249 19.9502 64.7607 19.6768C 64.2725 19.4033 63.7012 19.2666 63.0469 19.2666ZM 106.025 22.8408C 106.025 24.1982 105.869 25.4043 105.557 26.459C 105.244 27.5039 104.795 28.3877 104.209 29.1104C 103.623 29.8232 102.905 30.3652 102.056 30.7363C 101.206 31.1074 100.234 31.293 99.1406 31.293C 98.0566 31.293 97.085 31.1074 96.2256 30.7363C 95.376 30.3652 94.6533 29.8232 94.0576 29.1104C 93.4619 28.3877 93.0029 27.5039 92.6807 26.459C 92.3682 25.4043 92.2119 24.1982 92.2119 22.8408L 92.2119 17.8457C 92.2119 16.4883 92.3682 15.2871 92.6807 14.2422C 92.9932 13.1875 93.4424 12.2988 94.0283 11.5762C 94.624 10.8535 95.3467 10.3066 96.1963 9.93555C 97.0557 9.55469 98.0273 9.36426 99.1113 9.36426C 100.205 9.36426 101.177 9.55469 102.026 9.93555C 102.886 10.3066 103.608 10.8535 104.194 11.5762C 104.79 12.2988 105.244 13.1875 105.557 14.2422C 105.869 15.2871 106.025 16.4883 106.025 17.8457L 106.025 22.8408ZM 94.9365 22.2988L 103.242 15.9268C 103.086 14.5107 102.671 13.4365 101.997 12.7041C 101.333 11.9619 100.371 11.5908 99.1113 11.5908C 97.6855 11.5908 96.6309 12.0742 95.9473 13.041C 95.2734 13.998 94.9365 15.3994 94.9365 17.2451L 94.9365 22.2988ZM 103.301 18.5195L 95.0098 24.8623C 95.1758 26.2393 95.6006 27.2891 96.2842 28.0117C 96.9678 28.7344 97.9199 29.0957 99.1406 29.0957C 100.576 29.0957 101.626 28.6074 102.29 27.6309C 102.964 26.6543 103.301 25.248 103.301 23.4121L 103.301 18.5195ZM 120.645 9.65723L 120.645 12.0889L 120.41 12.0889C 119.512 12.0889 118.706 12.1816 117.993 12.3672C 117.29 12.5527 116.67 12.8066 116.133 13.1289C 115.596 13.4512 115.132 13.8369 114.741 14.2861C 114.36 14.7256 114.043 15.209 113.789 15.7363C 113.535 16.2637 113.34 16.8154 113.203 17.3916C 113.066 17.9678 112.979 18.5537 112.939 19.1494C 113.193 18.8467 113.486 18.5684 113.818 18.3145C 114.15 18.0508 114.507 17.8262 114.888 17.6406C 115.278 17.4453 115.693 17.2939 116.133 17.1865C 116.582 17.0693 117.051 17.0107 117.539 17.0107C 118.604 17.0107 119.521 17.2158 120.293 17.626C 121.064 18.0264 121.699 18.5586 122.197 19.2227C 122.695 19.8867 123.062 20.6387 123.296 21.4785C 123.53 22.3184 123.647 23.1729 123.647 24.042C 123.647 25.0381 123.506 25.9756 123.223 26.8545C 122.949 27.7334 122.534 28.5049 121.978 29.1689C 121.421 29.8232 120.728 30.3408 119.897 30.7217C 119.077 31.1025 118.125 31.293 117.041 31.293C 116.27 31.293 115.562 31.1807 114.917 30.9561C 114.282 30.7314 113.711 30.4287 113.203 30.0479C 112.695 29.6572 112.251 29.1982 111.87 28.6709C 111.489 28.1436 111.172 27.5771 110.918 26.9717C 110.674 26.3662 110.488 25.7363 110.361 25.082C 110.234 24.4277 110.171 23.7734 110.171 23.1191L 110.171 21.8447C 110.171 20.8682 110.229 19.8916 110.347 18.915C 110.474 17.9287 110.684 16.9863 110.977 16.0879C 111.27 15.1895 111.665 14.3496 112.163 13.5684C 112.661 12.7773 113.286 12.0938 114.038 11.5176C 114.8 10.9414 115.703 10.4873 116.748 10.1553C 117.793 9.82324 119.014 9.65723 120.41 9.65723L 120.645 9.65723ZM 117.1 19.2666C 116.641 19.2666 116.196 19.3398 115.767 19.4863C 115.337 19.6328 114.937 19.8379 114.565 20.1016C 114.194 20.3652 113.867 20.6826 113.584 21.0537C 113.301 21.4248 113.076 21.835 112.91 22.2842L 112.91 23.1924C 112.91 24.1299 113.022 24.9648 113.247 25.6973C 113.472 26.4199 113.774 27.0303 114.155 27.5283C 114.536 28.0264 114.976 28.4072 115.474 28.6709C 115.972 28.9248 116.494 29.0518 117.041 29.0518C 117.676 29.0518 118.237 28.9297 118.726 28.6855C 119.214 28.4414 119.624 28.1045 119.956 27.6748C 120.298 27.2451 120.552 26.7324 120.718 26.1367C 120.894 25.5312 120.981 24.877 120.981 24.1738C 120.981 23.5488 120.903 22.9434 120.747 22.3574C 120.591 21.7617 120.352 21.2344 120.029 20.7754C 119.707 20.3164 119.302 19.9502 118.813 19.6768C 118.325 19.4033 117.754 19.2666 117.1 19.2666ZM 139.658 23.8369L 142.632 23.8369L 142.632 26.0488L 139.658 26.0488L 139.658 31L 136.948 31L 136.948 26.0488L 127.222 26.0488L 127.222 24.4521L 136.772 9.67188L 139.658 9.67188L 139.658 23.8369ZM 130.225 23.8369L 136.948 23.8369L 136.948 13.2754L 136.509 14.0957L 130.225 23.8369ZM 160.078 22.8408C 160.078 24.1982 159.922 25.4043 159.609 26.459C 159.297 27.5039 158.848 28.3877 158.262 29.1104C 157.676 29.8232 156.958 30.3652 156.108 30.7363C 155.259 31.1074 154.287 31.293 153.193 31.293C 152.109 31.293 151.138 31.1074 150.278 30.7363C 149.429 30.3652 148.706 29.8232 148.11 29.1104C 147.515 28.3877 147.056 27.5039 146.733 26.459C 146.421 25.4043 146.265 24.1982 146.265 22.8408L 146.265 17.8457C 146.265 16.4883 146.421 15.2871 146.733 14.2422C 147.046 13.1875 147.495 12.2988 148.081 11.5762C 148.677 10.8535 149.399 10.3066 150.249 9.93555C 151.108 9.55469 152.08 9.36426 153.164 9.36426C 154.258 9.36426 155.229 9.55469 156.079 9.93555C 156.938 10.3066 157.661 10.8535 158.247 11.5762C 158.843 12.2988 159.297 13.1875 159.609 14.2422C 159.922 15.2871 160.078 16.4883 160.078 17.8457L 160.078 22.8408ZM 148.989 22.2988L 157.295 15.9268C 157.139 14.5107 156.724 13.4365 156.05 12.7041C 155.386 11.9619 154.424 11.5908 153.164 11.5908C 151.738 11.5908 150.684 12.0742 150 13.041C 149.326 13.998 148.989 15.3994 148.989 17.2451L 148.989 22.2988ZM 157.354 18.5195L 149.062 24.8623C 149.229 26.2393 149.653 27.2891 150.337 28.0117C 151.021 28.7344 151.973 29.0957 153.193 29.0957C 154.629 29.0957 155.679 28.6074 156.343 27.6309C 157.017 26.6543 157.354 25.248 157.354 23.4121L 157.354 18.5195ZM 196.23 11.1953L 187.397 31L 184.556 31L 193.359 12.0449L 181.816 12.0449L 181.816 9.67188L 196.23 9.67188L 196.23 11.1953ZM 203.906 19.0322L 205.84 19.0322C 206.523 19.0322 207.124 18.9395 207.642 18.7539C 208.169 18.5684 208.608 18.3145 208.96 17.9922C 209.321 17.6699 209.595 17.2842 209.78 16.835C 209.966 16.3857 210.059 15.8926 210.059 15.3555C 210.059 14.1152 209.741 13.1826 209.106 12.5576C 208.472 11.9229 207.544 11.6055 206.323 11.6055C 205.747 11.6055 205.22 11.6934 204.741 11.8691C 204.272 12.0352 203.867 12.2793 203.525 12.6016C 203.193 12.9238 202.935 13.3096 202.749 13.7588C 202.563 14.208 202.471 14.7109 202.471 15.2676L 199.746 15.2676C 199.746 14.457 199.902 13.6953 200.215 12.9824C 200.537 12.2598 200.986 11.6348 201.562 11.1074C 202.139 10.5703 202.827 10.1504 203.628 9.84766C 204.438 9.53516 205.337 9.37891 206.323 9.37891C 207.28 9.37891 208.154 9.51074 208.945 9.77441C 209.736 10.0283 210.415 10.4092 210.981 10.917C 211.548 11.4248 211.987 12.0547 212.3 12.8066C 212.612 13.5586 212.769 14.4277 212.769 15.4141C 212.769 15.8242 212.705 16.249 212.578 16.6885C 212.451 17.1279 212.256 17.5576 211.992 17.9775C 211.729 18.3877 211.387 18.7783 210.967 19.1494C 210.557 19.5107 210.063 19.8135 209.487 20.0576C 210.181 20.2822 210.757 20.5752 211.216 20.9365C 211.685 21.2979 212.056 21.7031 212.329 22.1523C 212.612 22.6016 212.808 23.0752 212.915 23.5732C 213.032 24.0713 213.091 24.5645 213.091 25.0527C 213.091 26.0488 212.92 26.9326 212.578 27.7041C 212.236 28.4756 211.763 29.1299 211.157 29.667C 210.552 30.1943 209.834 30.5996 209.004 30.8828C 208.184 31.1563 207.295 31.293 206.338 31.293C 205.4 31.293 204.517 31.1611 203.687 30.8975C 202.866 30.6338 202.153 30.248 201.548 29.7402C 200.942 29.2324 200.459 28.6123 200.098 27.8799C 199.746 27.1475 199.57 26.3125 199.57 25.375L 202.28 25.375C 202.28 25.9316 202.373 26.4395 202.559 26.8984C 202.754 27.3574 203.027 27.748 203.379 28.0703C 203.73 28.3926 204.155 28.6416 204.653 28.8174C 205.161 28.9932 205.723 29.0811 206.338 29.0811C 206.953 29.0811 207.51 29.0029 208.008 28.8467C 208.506 28.6807 208.931 28.4316 209.282 28.0996C 209.634 27.7676 209.902 27.3574 210.088 26.8691C 210.283 26.3711 210.381 25.7852 210.381 25.1113C 210.381 24.4473 210.269 23.876 210.044 23.3975C 209.829 22.9092 209.521 22.5039 209.121 22.1816C 208.73 21.8594 208.252 21.6201 207.686 21.4639C 207.129 21.3076 206.514 21.2295 205.84 21.2295L 203.906 21.2295L 203.906 19.0322ZM 232.148 22.8408C 232.148 24.1982 231.992 25.4043 231.68 26.459C 231.367 27.5039 230.918 28.3877 230.332 29.1104C 229.746 29.8232 229.028 30.3652 228.179 30.7363C 227.329 31.1074 226.357 31.293 225.264 31.293C 224.18 31.293 223.208 31.1074 222.349 30.7363C 221.499 30.3652 220.776 29.8232 220.181 29.1104C 219.585 28.3877 219.126 27.5039 218.804 26.459C 218.491 25.4043 218.335 24.1982 218.335 22.8408L 218.335 17.8457C 218.335 16.4883 218.491 15.2871 218.804 14.2422C 219.116 13.1875 219.565 12.2988 220.151 11.5762C 220.747 10.8535 221.47 10.3066 222.319 9.93555C 223.179 9.55469 224.15 9.36426 225.234 9.36426C 226.328 9.36426 227.3 9.55469 228.149 9.93555C 229.009 10.3066 229.731 10.8535 230.317 11.5762C 230.913 12.2988 231.367 13.1875 231.68 14.2422C 231.992 15.2871 232.148 16.4883 232.148 17.8457L 232.148 22.8408ZM 221.06 22.2988L 229.365 15.9268C 229.209 14.5107 228.794 13.4365 228.12 12.7041C 227.456 11.9619 226.494 11.5908 225.234 11.5908C 223.809 11.5908 222.754 12.0742 222.07 13.041C 221.396 13.998 221.06 15.3994 221.06 17.2451L 221.06 22.2988ZM 229.424 18.5195L 221.133 24.8623C 221.299 26.2393 221.724 27.2891 222.407 28.0117C 223.091 28.7344 224.043 29.0957 225.264 29.0957C 226.699 29.0957 227.749 28.6074 228.413 27.6309C 229.087 26.6543 229.424 25.248 229.424 23.4121L 229.424 18.5195ZM 239.941 19.0322L 241.875 19.0322C 242.559 19.0322 243.159 18.9395 243.677 18.7539C 244.204 18.5684 244.644 18.3145 244.995 17.9922C 245.356 17.6699 245.63 17.2842 245.815 16.835C 246.001 16.3857 246.094 15.8926 246.094 15.3555C 246.094 14.1152 245.776 13.1826 245.142 12.5576C 244.507 11.9229 243.579 11.6055 242.358 11.6055C 241.782 11.6055 241.255 11.6934 240.776 11.8691C 240.308 12.0352 239.902 12.2793 239.561 12.6016C 239.229 12.9238 238.97 13.3096 238.784 13.7588C 238.599 14.208 238.506 14.7109 238.506 15.2676L 235.781 15.2676C 235.781 14.457 235.937 13.6953 236.25 12.9824C 236.572 12.2598 237.021 11.6348 237.598 11.1074C 238.174 10.5703 238.862 10.1504 239.663 9.84766C 240.474 9.53516 241.372 9.37891 242.358 9.37891C 243.315 9.37891 244.189 9.51074 244.98 9.77441C 245.771 10.0283 246.45 10.4092 247.017 10.917C 247.583 11.4248 248.022 12.0547 248.335 12.8066C 248.647 13.5586 248.804 14.4277 248.804 15.4141C 248.804 15.8242 248.74 16.249 248.613 16.6885C 248.486 17.1279 248.291 17.5576 248.027 17.9775C 247.764 18.3877 247.422 18.7783 247.002 19.1494C 246.592 19.5107 246.099 19.8135 245.522 20.0576C 246.216 20.2822 246.792 20.5752 247.251 20.9365C 247.72 21.2979 248.091 21.7031 248.364 22.1523C 248.647 22.6016 248.843 23.0752 248.95 23.5732C 249.067 24.0713 249.126 24.5645 249.126 25.0527C 249.126 26.0488 248.955 26.9326 248.613 27.7041C 248.271 28.4756 247.798 29.1299 247.192 29.667C 246.587 30.1943 245.869 30.5996 245.039 30.8828C 244.219 31.1563 243.33 31.293 242.373 31.293C 241.436 31.293 240.552 31.1611 239.722 30.8975C 238.901 30.6338 238.188 30.248 237.583 29.7402C 236.978 29.2324 236.494 28.6123 236.133 27.8799C 235.781 27.1475 235.605 26.3125 235.605 25.375L 238.315 25.375C 238.315 25.9316 238.408 26.4395 238.594 26.8984C 238.789 27.3574 239.062 27.748 239.414 28.0703C 239.766 28.3926 240.19 28.6416 240.688 28.8174C 241.196 28.9932 241.758 29.0811 242.373 29.0811C 242.988 29.0811 243.545 29.0029 244.043 28.8467C 244.541 28.6807 244.966 28.4316 245.317 28.0996C 245.669 27.7676 245.937 27.3574 246.123 26.8691C 246.318 26.3711 246.416 25.7852 246.416 25.1113C 246.416 24.4473 246.304 23.876 246.079 23.3975C 245.864 22.9092 245.557 22.5039 245.156 22.1816C 244.766 21.8594 244.287 21.6201 243.721 21.4639C 243.164 21.3076 242.549 21.2295 241.875 21.2295L 239.941 21.2295L 239.941 19.0322ZM 275.977 19.0322L 277.91 19.0322C 278.594 19.0322 279.194 18.9395 279.712 18.7539C 280.239 18.5684 280.679 18.3145 281.03 17.9922C 281.392 17.6699 281.665 17.2842 281.851 16.835C 282.036 16.3857 282.129 15.8926 282.129 15.3555C 282.129 14.1152 281.812 13.1826 281.177 12.5576C 280.542 11.9229 279.614 11.6055 278.394 11.6055C 277.817 11.6055 277.29 11.6934 276.812 11.8691C 276.343 12.0352 275.938 12.2793 275.596 12.6016C 275.264 12.9238 275.005 13.3096 274.819 13.7588C 274.634 14.208 274.541 14.7109 274.541 15.2676L 271.816 15.2676C 271.816 14.457 271.973 13.6953 272.285 12.9824C 272.607 12.2598 273.057 11.6348 273.633 11.1074C 274.209 10.5703 274.897 10.1504 275.698 9.84766C 276.509 9.53516 277.407 9.37891 278.394 9.37891C 279.351 9.37891 280.225 9.51074 281.016 9.77441C 281.807 10.0283 282.485 10.4092 283.052 10.917C 283.618 11.4248 284.058 12.0547 284.37 12.8066C 284.683 13.5586 284.839 14.4277 284.839 15.4141C 284.839 15.8242 284.775 16.249 284.648 16.6885C 284.521 17.1279 284.326 17.5576 284.062 17.9775C 283.799 18.3877 283.457 18.7783 283.037 19.1494C 282.627 19.5107 282.134 19.8135 281.558 20.0576C 282.251 20.2822 282.827 20.5752 283.286 20.9365C 283.755 21.2979 284.126 21.7031 284.399 22.1523C 284.683 22.6016 284.878 23.0752 284.985 23.5732C 285.103 24.0713 285.161 24.5645 285.161 25.0527C 285.161 26.0488 284.99 26.9326 284.648 27.7041C 284.307 28.4756 283.833 29.1299 283.228 29.667C 282.622 30.1943 281.904 30.5996 281.074 30.8828C 280.254 31.1563 279.365 31.293 278.408 31.293C 277.471 31.293 276.587 31.1611 275.757 30.8975C 274.937 30.6338 274.224 30.248 273.618 29.7402C 273.013 29.2324 272.529 28.6123 272.168 27.8799C 271.816 27.1475 271.641 26.3125 271.641 25.375L 274.351 25.375C 274.351 25.9316 274.443 26.4395 274.629 26.8984C 274.824 27.3574 275.098 27.748 275.449 28.0703C 275.801 28.3926 276.226 28.6416 276.724 28.8174C 277.231 28.9932 277.793 29.0811 278.408 29.0811C 279.023 29.0811 279.58 29.0029 280.078 28.8467C 280.576 28.6807 281.001 28.4316 281.353 28.0996C 281.704 27.7676 281.973 27.3574 282.158 26.8691C 282.354 26.3711 282.451 25.7852 282.451 25.1113C 282.451 24.4473 282.339 23.876 282.114 23.3975C 281.899 22.9092 281.592 22.5039 281.191 22.1816C 280.801 21.8594 280.322 21.6201 279.756 21.4639C 279.199 21.3076 278.584 21.2295 277.91 21.2295L 275.977 21.2295L 275.977 19.0322ZM 293.745 28.5977C 294.712 28.5977 295.562 28.5146 296.294 28.3486C 297.026 28.1729 297.661 27.9287 298.198 27.6162C 298.745 27.3037 299.199 26.9375 299.561 26.5176C 299.922 26.0879 300.215 25.6191 300.439 25.1113C 300.674 24.5937 300.845 24.0518 300.952 23.4854C 301.06 22.9092 301.128 22.3232 301.157 21.7275C 300.923 22.0205 300.654 22.2988 300.352 22.5625C 300.049 22.8164 299.707 23.041 299.326 23.2363C 298.945 23.4316 298.521 23.5879 298.052 23.7051C 297.593 23.8125 297.09 23.8662 296.543 23.8662C 295.488 23.8662 294.575 23.6611 293.804 23.251C 293.042 22.8311 292.412 22.2842 291.914 21.6104C 291.416 20.9365 291.05 20.1748 290.815 19.3252C 290.581 18.4756 290.464 17.6211 290.464 16.7617C 290.464 15.7559 290.601 14.8086 290.874 13.9199C 291.157 13.0215 291.572 12.2402 292.119 11.5762C 292.676 10.9023 293.364 10.3701 294.185 9.97949C 295.015 9.5791 295.977 9.37891 297.07 9.37891C 297.891 9.37891 298.628 9.49609 299.282 9.73047C 299.946 9.95508 300.527 10.2725 301.025 10.6826C 301.533 11.083 301.968 11.5615 302.329 12.1182C 302.69 12.665 302.983 13.2607 303.208 13.9053C 303.442 14.54 303.613 15.209 303.721 15.9121C 303.828 16.6055 303.882 17.3037 303.882 18.0068L 303.882 18.9883C 303.882 19.8965 303.838 20.8291 303.75 21.7861C 303.662 22.7334 303.486 23.6514 303.223 24.54C 302.969 25.4287 302.607 26.2686 302.139 27.0596C 301.67 27.8408 301.06 28.5244 300.308 29.1104C 299.556 29.6963 298.643 30.1602 297.568 30.502C 296.494 30.8437 295.22 31.0146 293.745 31.0146L 293.467 31.0146L 293.467 28.5977L 293.745 28.5977ZM 296.982 21.625C 297.441 21.625 297.886 21.5518 298.315 21.4053C 298.755 21.249 299.155 21.0342 299.517 20.7607C 299.888 20.4775 300.215 20.1504 300.498 19.7793C 300.791 19.3984 301.021 18.9785 301.187 18.5195L 301.187 17.6406C 301.187 16.6934 301.074 15.8486 300.85 15.1064C 300.635 14.3643 300.337 13.7393 299.956 13.2314C 299.585 12.7139 299.15 12.3184 298.652 12.0449C 298.164 11.7715 297.642 11.6348 297.085 11.6348C 296.45 11.6348 295.889 11.7617 295.4 12.0156C 294.912 12.2695 294.497 12.6211 294.155 13.0703C 293.823 13.5098 293.569 14.0371 293.394 14.6523C 293.218 15.2578 293.13 15.9121 293.13 16.6152C 293.13 17.2402 293.208 17.8555 293.364 18.4609C 293.521 19.0566 293.755 19.5889 294.067 20.0576C 294.39 20.5264 294.79 20.9072 295.269 21.2002C 295.757 21.4834 296.328 21.625 296.982 21.625ZM 317.637 31L 314.927 31L 314.927 13.1289L 309.346 15.2529L 309.346 12.7773L 317.417 9.67188L 317.637 9.67188L 317.637 31ZM 339.99 15.2383C 339.98 16.3027 339.692 17.25 339.126 18.0801C 338.56 18.9102 337.803 19.5596 336.855 20.0283C 337.402 20.2627 337.896 20.5557 338.335 20.9072C 338.784 21.249 339.165 21.6445 339.478 22.0938C 339.8 22.543 340.044 23.0312 340.21 23.5586C 340.386 24.0859 340.474 24.6475 340.474 25.2432C 340.474 26.21 340.293 27.0693 339.932 27.8213C 339.58 28.5732 339.097 29.208 338.481 29.7256C 337.876 30.2334 337.163 30.624 336.343 30.8975C 335.522 31.1611 334.644 31.293 333.706 31.293C 332.749 31.293 331.855 31.1611 331.025 30.8975C 330.205 30.6338 329.487 30.248 328.872 29.7402C 328.267 29.2227 327.788 28.5879 327.437 27.8359C 327.085 27.084 326.909 26.2197 326.909 25.2432C 326.909 24.6475 326.992 24.0859 327.158 23.5586C 327.324 23.0215 327.563 22.5332 327.876 22.0938C 328.188 21.6445 328.564 21.2441 329.004 20.8926C 329.443 20.541 329.937 20.248 330.483 20.0137C 330.015 19.7793 329.59 19.501 329.209 19.1787C 328.828 18.8467 328.506 18.4805 328.242 18.0801C 327.979 17.6699 327.773 17.2256 327.627 16.7471C 327.48 16.2686 327.407 15.7656 327.407 15.2383C 327.407 14.3105 327.563 13.4854 327.876 12.7627C 328.188 12.0303 328.618 11.415 329.165 10.917C 329.722 10.4189 330.381 10.0381 331.143 9.77441C 331.914 9.51074 332.754 9.37891 333.662 9.37891C 334.561 9.37891 335.396 9.51074 336.167 9.77441C 336.938 10.0381 337.607 10.4189 338.174 10.917C 338.74 11.415 339.185 12.0303 339.507 12.7627C 339.829 13.4854 339.99 14.3105 339.99 15.2383ZM 337.764 25.1846C 337.764 24.5889 337.661 24.042 337.456 23.5439C 337.261 23.0459 336.982 22.6211 336.621 22.2695C 336.26 21.9082 335.825 21.6299 335.317 21.4346C 334.819 21.2393 334.272 21.1416 333.677 21.1416C 333.062 21.1416 332.505 21.2393 332.007 21.4346C 331.509 21.6299 331.084 21.9082 330.732 22.2695C 330.381 22.6211 330.107 23.0459 329.912 23.5439C 329.727 24.042 329.634 24.5889 329.634 25.1846C 329.634 25.7998 329.727 26.3516 329.912 26.8398C 330.107 27.3184 330.381 27.7236 330.732 28.0557C 331.084 28.3877 331.509 28.6416 332.007 28.8174C 332.515 28.9932 333.081 29.0811 333.706 29.0811C 334.302 29.0811 334.849 28.9932 335.347 28.8174C 335.845 28.6416 336.27 28.3877 336.621 28.0557C 336.982 27.7236 337.261 27.3184 337.456 26.8398C 337.661 26.3516 337.764 25.7998 337.764 25.1846ZM 337.266 15.2822C 337.266 14.7451 337.173 14.252 336.987 13.8027C 336.812 13.3535 336.562 12.9678 336.24 12.6455C 335.928 12.3135 335.552 12.0596 335.112 11.8838C 334.673 11.6982 334.189 11.6055 333.662 11.6055C 333.135 11.6055 332.656 11.6934 332.227 11.8691C 331.797 12.0352 331.426 12.2793 331.113 12.6016C 330.801 12.9238 330.557 13.3145 330.381 13.7734C 330.215 14.2227 330.132 14.7256 330.132 15.2822C 330.132 15.8389 330.215 16.3418 330.381 16.791C 330.557 17.2305 330.801 17.6113 331.113 17.9336C 331.436 18.2461 331.812 18.4902 332.241 18.666C 332.681 18.832 333.164 18.915 333.691 18.915C 334.209 18.915 334.688 18.832 335.127 18.666C 335.566 18.4902 335.942 18.2461 336.255 17.9336C 336.577 17.6113 336.826 17.2256 337.002 16.7764C 337.178 16.3271 337.266 15.8291 337.266 15.2822Z"/>
<path id="path6_fill" d="M 4.84404e-07 22.6179L 4.06348 -9.58673e-07L 10.4127 -9.58673e-07L 6.47617 22.6179L 4.84404e-07 22.6179Z"/>
<path id="path7_fill" d="M 4.84404e-07 22.6179L 5.20633 -9.58673e-07L 10.4127 -9.58673e-07L 6.47617 22.6179L 4.84404e-07 22.6179Z"/>
<path id="path8_fill" d="M 19.4285 1.00524C 18.1587 0.502621 16.1269 9.58673e-07 13.5872 9.58673e-07C 7.23807 9.58673e-07 2.66665 3.14138 2.66665 7.66496C 2.66665 11.0577 5.84125 12.8168 8.38092 13.9477C 10.9206 15.0786 11.6825 15.8325 11.6825 16.8378C 11.6825 18.3457 9.65076 19.0996 7.87299 19.0996C 5.33331 19.0996 3.93649 18.7226 1.77777 17.843L 0.888886 17.4661L 0 22.6179C 1.5238 23.2462 4.31744 23.8745 7.23807 23.8745C 13.9682 23.8745 18.4126 20.7331 18.4126 15.9582C 18.4126 13.3194 16.7618 11.309 12.9523 9.67545C 10.6666 8.54455 9.2698 7.91628 9.2698 6.78538C 9.2698 5.78014 10.4127 4.7749 12.9523 4.7749C 15.1111 4.7749 16.6349 5.15186 17.7777 5.65448L 18.4126 5.90579L 19.4285 1.00524Z"/>
<path id="path9_fill" d="M 19.4285 1.00524C 18.1587 0.502621 16.1269 9.58673e-07 13.5872 9.58673e-07C 7.23807 9.58673e-07 3.80951 3.14138 3.80951 7.66496C 3.80951 11.0577 5.84125 12.8168 8.38092 13.9477C 10.9206 15.0786 11.6825 15.8325 11.6825 16.8378C 11.6825 18.3457 9.65076 19.0996 7.87299 19.0996C 5.33331 19.0996 3.93649 18.7226 1.77777 17.843L 0.888886 17.4661L 0 22.6179C 1.5238 23.2462 4.31744 23.8745 7.23807 23.8745C 13.9682 23.8745 18.4126 20.7331 18.4126 15.9582C 18.4126 13.3194 16.7618 11.309 12.9523 9.67545C 10.6666 8.54455 9.2698 7.91628 9.2698 6.78538C 9.2698 5.78014 10.4127 4.7749 12.9523 4.7749C 15.1111 4.7749 16.6349 5.15186 17.7777 5.65448L 18.4126 5.90579L 19.4285 1.00524Z"/>
<path id="path10_fill" d="M 12.8253 -9.58673e-07C 11.3015 -9.58673e-07 10.1587 0.125656 9.52377 1.63352L -9.68808e-07 22.6179L 6.85712 22.6179L 8.12695 18.8483L 16.2539 18.8483L 17.0158 22.6179L 23.111 22.6179L 17.7777 -9.58673e-07L 12.8253 -9.58673e-07ZM 9.90472 15.0786C 10.2857 13.9477 12.4444 8.4189 12.4444 8.4189C 12.4444 8.4189 12.9523 7.03669 13.3333 6.1571L 13.7142 8.29324C 13.7142 8.29324 14.9841 13.9477 15.238 15.2043L 9.90472 15.2043L 9.90472 15.0786Z"/>
<path id="path11_fill" d="M 14.3491 -9.58673e-07C 12.8253 -9.58673e-07 11.6825 0.125656 11.0476 1.63352L -9.68808e-07 22.6179L 6.85712 22.6179L 8.12695 18.8483L 16.2539 18.8483L 17.0158 22.6179L 23.111 22.6179L 17.7777 -9.58673e-07L 14.3491 -9.58673e-07ZM 9.90472 15.0786C 10.4127 13.8221 12.4444 8.4189 12.4444 8.4189C 12.4444 8.4189 12.9523 7.03669 13.3333 6.1571L 13.7142 8.29324C 13.7142 8.29324 14.9841 13.9477 15.238 15.2043L 9.90472 15.2043L 9.90472 15.0786Z"/>
<path id="path12_fill" d="M 9.52377 15.7069L 8.88885 12.4399C 7.746 8.67021 4.06348 4.52359 1.21101e-07 2.5131L 5.71426 22.6179L 12.5714 22.6179L 22.8571 -4.79336e-07L 15.9999 -4.79336e-07L 9.52377 15.7069Z"/>
<path id="path13_fill" d="M 9.52377 15.7069L 8.88885 12.4399C 7.746 8.67021 4.06348 4.52359 1.21101e-07 2.5131L 5.71426 22.6179L 12.5714 22.6179L 22.8571 -4.79336e-07L 17.2698 -4.79336e-07L 9.52377 15.7069Z"/>
<path id="path14_fill" d="M 0 -9.58673e-07L 1.14285 0.25131C 9.2698 2.13614 14.8571 6.91103 17.0158 12.5655L 14.7301 1.88483C 14.3491 0.376965 13.2063 -9.58673e-07 11.8095 -9.58673e-07L 0 -9.58673e-07Z"/>
<path id="path15_fill" d="M 0 -9.58673e-07C 8.12695 1.88483 14.8571 6.78538 17.0158 12.4399L 14.8571 3.51835C 14.4761 2.01048 13.2063 1.1309 11.8095 1.1309L 0 -9.58673e-07Z"/>
<path id="path16_fill" d="M 0 -9.58673e-07C 8.12695 1.88483 14.8571 6.78538 17.0158 12.4399L 15.492 7.53931C 15.1111 6.03145 14.6031 4.52359 12.8253 3.89531L 0 -9.58673e-07Z"/>
<path id="path17_fill" d="M 15.746 12.5655L 11.4285 8.29324L 9.39679 13.0681L 8.88885 9.92676C 7.746 6.1571 4.06348 2.01048 0 -9.58673e-07L 5.71426 20.1048L 12.5714 20.1048L 15.746 12.5655Z"/>
<path id="path18_fill" d="M 6.47617 5.52883L 1.01587 1.91735e-06L 4.84404e-07 5.52883L 6.47617 5.52883Z"/>
<path id="path19_fill" d="M 11.0476 -1.91735e-06C 11.5555 0.502619 11.8095 0.879587 11.6825 1.38221C 11.6825 2.89007 9.65076 3.644 7.87298 3.644C 5.33331 3.644 3.93649 3.26703 1.77777 2.38745L 0.888886 2.01048L -9.02273e-15 7.16234C 1.5238 7.79062 4.31744 8.4189 7.23807 8.4189C 11.3015 8.4189 14.6031 7.288 16.5079 5.27752L 11.0476 -1.91735e-06Z"/>
<path id="path20_fill" d="M 0 16.4608L 5.96823 16.4608L 7.23807 12.6912L 15.365 12.6912L 16.1269 16.4608L 22.2221 16.4608L 20.0634 7.288L 12.4444 9.58673e-07L 12.8253 2.01048C 12.8253 2.01048 14.0952 7.66496 14.3491 8.92152L 9.01584 8.92152C 9.52377 7.66496 11.5555 2.26179 11.5555 2.26179C 11.5555 2.26179 12.0634 0.879587 12.4444 9.58673e-07"/>
<path id="path21_fill" d="M 16.5039 24L 13.3047 24L 13.3047 8.10547L 5.16699 8.10547L 5.16699 24L 1.96777 24L 1.96777 5.51562L 16.5039 5.51562L 16.5039 24ZM 26.6596 24.2539C 24.7046 24.2539 23.1177 23.6403 21.8989 22.4131C 20.6886 21.1774 20.0835 19.5355 20.0835 17.4873L 20.0835 17.1064C 20.0835 15.7354 20.3458 14.5124 20.8706 13.4375C 21.4038 12.3542 22.1486 11.512 23.105 10.9111C 24.0613 10.3102 25.1277 10.0098 26.3042 10.0098C 28.1746 10.0098 29.6177 10.6064 30.6333 11.7998C 31.6574 12.9932 32.1694 14.6816 32.1694 16.8652L 32.1694 18.1094L 23.1938 18.1094C 23.2869 19.2435 23.6636 20.1406 24.3237 20.8008C 24.9923 21.4609 25.8302 21.791 26.8374 21.791C 28.2508 21.791 29.4018 21.2197 30.2905 20.0771L 31.9536 21.6641C 31.4035 22.485 30.6671 23.124 29.7446 23.5811C 28.8305 24.0296 27.8022 24.2539 26.6596 24.2539ZM 26.2915 12.4854C 25.4451 12.4854 24.7596 12.7816 24.2348 13.374C 23.7186 13.9665 23.3885 14.7917 23.2446 15.8496L 29.1225 15.8496L 29.1225 15.6211C 29.0548 14.5885 28.7798 13.8099 28.2973 13.2852C 27.8149 12.752 27.1463 12.4854 26.2915 12.4854ZM 47.124 17.2715C 47.124 19.3958 46.6416 21.0928 45.6767 22.3623C 44.7119 23.6234 43.417 24.2539 41.792 24.2539C 40.2854 24.2539 39.0794 23.7588 38.1738 22.7686L 38.1738 29.2812L 35.0888 29.2812L 35.0888 10.2637L 37.9326 10.2637L 38.0595 11.6602C 38.9651 10.5599 40.1966 10.0098 41.7539 10.0098C 43.4296 10.0098 44.7415 10.6361 45.6894 11.8887C 46.6458 13.1328 47.124 14.8636 47.124 17.0811L 47.124 17.2715ZM 44.0517 17.0049C 44.0517 15.6338 43.7767 14.5462 43.2265 13.7422C 42.6849 12.9382 41.9062 12.5361 40.8906 12.5361C 39.6295 12.5361 38.7239 13.0566 38.1738 14.0977L 38.1738 20.1914C 38.7324 21.2578 39.6464 21.791 40.916 21.791C 41.8977 21.791 42.6637 21.3975 43.2138 20.6104C 43.7724 19.8148 44.0517 18.613 44.0517 17.0049ZM 50.5004 24L 50.5004 10.2637L 56.0737 10.2637C 57.9526 10.2637 59.3829 10.5938 60.3647 11.2539C 61.3465 11.9056 61.8373 12.8451 61.8373 14.0723C 61.8373 14.707 61.6385 15.2783 61.2407 15.7861C 60.8513 16.2855 60.2716 16.6706 59.5014 16.9414C 60.3985 17.1276 61.1095 17.5042 61.6342 18.0713C 62.159 18.6383 62.4213 19.307 62.4213 20.0771C 62.4213 21.3551 61.9474 22.3285 60.9995 22.9971C 60.06 23.6657 58.7058 24 56.937 24L 50.5004 24ZM 53.5854 18.1475L 53.5854 21.5625L 56.9623 21.5625C 58.545 21.5625 59.3364 20.9954 59.3364 19.8613C 59.3364 18.7188 58.5323 18.1475 56.9243 18.1475L 53.5854 18.1475ZM 53.5854 15.9385L 56.1245 15.9385C 57.8764 15.9385 58.7524 15.4222 58.7524 14.3896C 58.7524 13.3063 57.923 12.7477 56.2641 12.7139L 53.5854 12.7139L 53.5854 15.9385ZM 68.9335 14.6309L 71.955 14.6309C 73.0807 14.6309 74.0624 14.8255 74.9003 15.2148C 75.7382 15.6042 76.373 16.1501 76.8046 16.8525C 77.2447 17.555 77.4648 18.3717 77.4648 19.3027C 77.4648 20.7161 76.9654 21.8503 75.9667 22.7051C 74.968 23.5599 73.6392 23.9915 71.9804 24L 65.8486 24L 65.8486 10.2637L 68.9335 10.2637L 68.9335 14.6309ZM 82.8349 24L 79.7499 24L 79.7499 10.2637L 82.8349 10.2637L 82.8349 24ZM 68.9335 17.1064L 68.9335 21.5371L 71.9423 21.5371C 72.6956 21.5371 73.288 21.3509 73.7197 20.9785C 74.1598 20.5977 74.3798 20.0602 74.3798 19.3662C 74.3798 18.6722 74.164 18.1263 73.7323 17.7285C 73.3092 17.3223 72.7336 17.1149 72.0058 17.1064L 68.9335 17.1064ZM 95.6313 10.2637L 98.7035 10.2637L 98.7035 24L 95.6313 24L 95.6313 14.834L 90.2484 24L 87.1762 24L 87.1762 10.2637L 90.2484 10.2637L 90.2484 19.4297L 95.6313 10.2637ZM 97.0785 4.99512C 97.0785 6.06152 96.7061 6.9248 95.9613 7.58496C 95.2165 8.24512 94.2221 8.5752 92.9779 8.5752C 91.7338 8.5752 90.7393 8.24512 89.9945 7.58496C 89.2497 6.9248 88.8773 6.06152 88.8773 4.99512L 91.1879 4.99512C 91.1879 5.55371 91.3445 5.98958 91.6576 6.30273C 91.9792 6.60742 92.4193 6.75977 92.9779 6.75977C 93.5365 6.75977 93.9724 6.60742 94.2856 6.30273C 94.5987 5.98958 94.7553 5.55371 94.7553 4.99512L 97.0785 4.99512ZM 119.904 14.0215C 119.904 14.6309 119.717 15.1937 119.345 15.71C 118.981 16.2178 118.465 16.624 117.796 16.9287C 119.37 17.4788 120.158 18.541 120.158 20.1152C 120.158 21.3763 119.646 22.3835 118.621 23.1367C 117.597 23.8815 116.226 24.2539 114.508 24.2539C 113.459 24.2539 112.502 24.0804 111.639 23.7334C 110.776 23.3779 110.103 22.8786 109.62 22.2354C 109.138 21.5837 108.897 20.8135 108.897 19.9248L 111.969 19.9248C 111.969 20.4834 112.219 20.9531 112.718 21.334C 113.217 21.7064 113.848 21.8926 114.61 21.8926C 115.363 21.8926 115.96 21.7191 116.4 21.3721C 116.848 21.0166 117.073 20.5553 117.073 19.9883C 117.073 19.3197 116.878 18.8372 116.489 18.541C 116.099 18.2448 115.498 18.0967 114.686 18.0967L 112.477 18.0967L 112.477 15.875L 114.762 15.875C 116.142 15.8581 116.831 15.291 116.831 14.1738C 116.831 13.6152 116.633 13.1794 116.235 12.8662C 115.837 12.5531 115.291 12.3965 114.597 12.3965C 113.92 12.3965 113.349 12.5658 112.883 12.9043C 112.418 13.2344 112.185 13.6533 112.185 14.1611L 109.113 14.1611C 109.113 12.9508 109.62 11.9606 110.636 11.1904C 111.652 10.4118 112.942 10.0225 114.508 10.0225C 116.209 10.0225 117.534 10.3695 118.482 11.0635C 119.43 11.7575 119.904 12.7435 119.904 14.0215ZM 131.507 24C 131.371 23.7376 131.253 23.3102 131.151 22.7178C 130.169 23.7419 128.968 24.2539 127.546 24.2539C 126.166 24.2539 125.041 23.8604 124.169 23.0732C 123.297 22.2861 122.861 21.3128 122.861 20.1533C 122.861 18.6891 123.403 17.5677 124.486 16.7891C 125.578 16.002 127.135 15.6084 129.158 15.6084L 131.05 15.6084L 131.05 14.707C 131.05 13.9961 130.851 13.429 130.453 13.0059C 130.055 12.5742 129.45 12.3584 128.638 12.3584C 127.935 12.3584 127.36 12.5361 126.911 12.8916C 126.462 13.2386 126.238 13.6829 126.238 14.2246L 123.153 14.2246C 123.153 13.4714 123.403 12.7689 123.902 12.1172C 124.402 11.457 125.079 10.9408 125.933 10.5684C 126.797 10.196 127.757 10.0098 128.815 10.0098C 130.423 10.0098 131.706 10.416 132.662 11.2285C 133.618 12.0326 134.109 13.1667 134.135 14.6309L 134.135 20.8262C 134.135 22.0618 134.308 23.0479 134.655 23.7842L 134.655 24L 131.507 24ZM 128.117 21.7783C 128.726 21.7783 129.298 21.6302 129.831 21.334C 130.373 21.0378 130.779 20.64 131.05 20.1406L 131.05 17.5508L 129.387 17.5508C 128.244 17.5508 127.385 17.7497 126.809 18.1475C 126.234 18.5452 125.946 19.1081 125.946 19.8359C 125.946 20.4284 126.141 20.9023 126.53 21.2578C 126.928 21.6048 127.457 21.7783 128.117 21.7783ZM 143.935 24.2539C 141.98 24.2539 140.393 23.6403 139.174 22.4131C 137.964 21.1774 137.359 19.5355 137.359 17.4873L 137.359 17.1064C 137.359 15.7354 137.621 14.5124 138.146 13.4375C 138.679 12.3542 139.424 11.512 140.38 10.9111C 141.337 10.3102 142.403 10.0098 143.579 10.0098C 145.45 10.0098 146.893 10.6064 147.909 11.7998C 148.933 12.9932 149.445 14.6816 149.445 16.8652L 149.445 18.1094L 140.469 18.1094C 140.562 19.2435 140.939 20.1406 141.599 20.8008C 142.268 21.4609 143.105 21.791 144.113 21.791C 145.526 21.791 146.677 21.2197 147.566 20.0771L 149.229 21.6641C 148.679 22.485 147.942 23.124 147.02 23.5811C 146.106 24.0296 145.077 24.2539 143.935 24.2539ZM 143.567 12.4854C 142.72 12.4854 142.035 12.7816 141.51 13.374C 140.994 13.9665 140.664 14.7917 140.52 15.8496L 146.398 15.8496L 146.398 15.6211C 146.33 14.5885 146.055 13.8099 145.573 13.2852C 145.09 12.752 144.422 12.4854 143.567 12.4854ZM 160.527 20.2041L 164.59 10.2637L 168.449 10.2637L 168.449 24L 165.364 24L 165.364 14.9102L 161.581 24L 159.486 24L 155.69 14.8594L 155.69 24L 152.605 24L 152.605 10.2637L 156.49 10.2637L 160.527 20.2041ZM 187.593 20.2041L 191.655 10.2637L 195.514 10.2637L 195.514 24L 192.429 24L 192.429 14.9102L 188.646 24L 186.552 24L 182.756 14.8594L 182.756 24L 179.671 24L 179.671 10.2637L 183.555 10.2637L 187.593 20.2041ZM 202.826 14.6309L 205.848 14.6309C 206.974 14.6309 207.955 14.8255 208.793 15.2148C 209.631 15.6042 210.266 16.1501 210.698 16.8525C 211.138 17.555 211.358 18.3717 211.358 19.3027C 211.358 20.7161 210.858 21.8503 209.86 22.7051C 208.861 23.5599 207.532 23.9915 205.873 24L 199.741 24L 199.741 10.2637L 202.826 10.2637L 202.826 14.6309ZM 216.728 24L 213.643 24L 213.643 10.2637L 216.728 10.2637L 216.728 24ZM 202.826 17.1064L 202.826 21.5371L 205.835 21.5371C 206.588 21.5371 207.181 21.3509 207.613 20.9785C 208.053 20.5977 208.273 20.0602 208.273 19.3662C 208.273 18.6722 208.057 18.1263 207.625 17.7285C 207.202 17.3223 206.627 17.1149 205.899 17.1064L 202.826 17.1064ZM 228 21.5371C 228.855 20.5807 229.426 19.6751 229.714 18.8203C 230.01 17.957 230.188 16.8568 230.247 15.5195L 230.425 10.2637L 239.959 10.2637L 239.959 21.5371L 241.863 21.5371L 241.863 28.0879L 238.791 28.0879L 238.791 24L 229.981 24L 229.981 28.0879L 226.858 28.0879L 226.87 21.5371L 228 21.5371ZM 231.618 21.5371L 236.887 21.5371L 236.887 12.917L 233.421 12.917L 233.332 15.5449C 233.214 18.0671 232.642 20.0645 231.618 21.5371ZM 252.794 24C 252.658 23.7376 252.54 23.3102 252.438 22.7178C 251.456 23.7419 250.255 24.2539 248.833 24.2539C 247.453 24.2539 246.327 23.8604 245.456 23.0732C 244.584 22.2861 244.148 21.3128 244.148 20.1533C 244.148 18.6891 244.69 17.5677 245.773 16.7891C 246.865 16.002 248.422 15.6084 250.445 15.6084L 252.337 15.6084L 252.337 14.707C 252.337 13.9961 252.138 13.429 251.74 13.0059C 251.342 12.5742 250.737 12.3584 249.924 12.3584C 249.222 12.3584 248.647 12.5361 248.198 12.8916C 247.749 13.2386 247.525 13.6829 247.525 14.2246L 244.44 14.2246C 244.44 13.4714 244.69 12.7689 245.189 12.1172C 245.688 11.457 246.366 10.9408 247.22 10.5684C 248.084 10.196 249.044 10.0098 250.102 10.0098C 251.71 10.0098 252.993 10.416 253.949 11.2285C 254.905 12.0326 255.396 13.1667 255.422 14.6309L 255.422 20.8262C 255.422 22.0618 255.595 23.0479 255.942 23.7842L 255.942 24L 252.794 24ZM 249.404 21.7783C 250.013 21.7783 250.585 21.6302 251.118 21.334C 251.66 21.0378 252.066 20.64 252.337 20.1406L 252.337 17.5508L 250.674 17.5508C 249.531 17.5508 248.672 17.7497 248.096 18.1475C 247.521 18.5452 247.233 19.1081 247.233 19.8359C 247.233 20.4284 247.428 20.9023 247.817 21.2578C 248.215 21.6048 248.744 21.7783 249.404 21.7783ZM 265.222 24.2539C 263.267 24.2539 261.68 23.6403 260.461 22.4131C 259.251 21.1774 258.646 19.5355 258.646 17.4873L 258.646 17.1064C 258.646 15.7354 258.908 14.5124 259.433 13.4375C 259.966 12.3542 260.711 11.512 261.667 10.9111C 262.624 10.3102 263.69 10.0098 264.866 10.0098C 266.737 10.0098 268.18 10.6064 269.195 11.7998C 270.22 12.9932 270.732 14.6816 270.732 16.8652L 270.732 18.1094L 261.756 18.1094C 261.849 19.2435 262.226 20.1406 262.886 20.8008C 263.555 21.4609 264.392 21.791 265.4 21.791C 266.813 21.791 267.964 21.2197 268.853 20.0771L 270.516 21.6641C 269.966 22.485 269.229 23.124 268.307 23.5811C 267.393 24.0296 266.364 24.2539 265.222 24.2539ZM 264.854 12.4854C 264.007 12.4854 263.322 12.7816 262.797 13.374C 262.281 13.9665 261.951 14.7917 261.807 15.8496L 267.685 15.8496L 267.685 15.6211C 267.617 14.5885 267.342 13.8099 266.86 13.2852C 266.377 12.752 265.708 12.4854 264.854 12.4854ZM 281.814 20.2041L 285.877 10.2637L 289.736 10.2637L 289.736 24L 286.651 24L 286.651 14.9102L 282.868 24L 280.773 24L 276.977 14.8594L 276.977 24L 273.892 24L 273.892 10.2637L 277.777 10.2637L 281.814 20.2041ZM 8.04883 42.0254C 9.77539 42.0254 11.1592 42.6051 12.2002 43.7646C 13.2412 44.9157 13.7617 46.4814 13.7617 48.4619L 13.7617 48.6143C 13.7617 50.5947 13.1947 52.1986 12.0605 53.4258C 10.9349 54.653 9.403 55.2666 7.46484 55.2666C 5.57747 55.2666 4.05404 54.6403 2.89453 53.3877C 1.73503 52.1351 1.15527 50.4255 1.15527 48.2588L 1.15527 47.3701C 1.15527 44.4079 1.68001 42.0635 2.72949 40.3369C 3.77897 38.6104 5.34473 37.5312 7.42676 37.0996C 8.59473 36.8626 9.34798 36.613 9.68652 36.3506C 10.0335 36.0798 10.207 35.7158 10.207 35.2588L 12.6953 35.2588C 12.6953 36.1136 12.5557 36.8076 12.2764 37.3408C 11.9971 37.874 11.5697 38.3099 10.9941 38.6484C 10.4186 38.9785 9.42839 39.2917 8.02344 39.5879C 6.73698 39.8587 5.75521 40.3411 5.07812 41.0352C 4.40951 41.7292 3.96094 42.6898 3.73242 43.917C 4.95964 42.6559 6.39844 42.0254 8.04883 42.0254ZM 7.43945 44.501C 6.44076 44.501 5.65788 44.8395 5.09082 45.5166C 4.52376 46.1852 4.24023 47.2178 4.24023 48.6143C 4.24023 49.9346 4.51953 50.9629 5.07812 51.6992C 5.63672 52.4355 6.43229 52.8037 7.46484 52.8037C 8.48893 52.8037 9.28027 52.4355 9.83887 51.6992C 10.4059 50.9544 10.6895 49.8372 10.6895 48.3477C 10.6895 47.1628 10.4059 46.2275 9.83887 45.542C 9.28027 44.848 8.48047 44.501 7.43945 44.501ZM 20.02 45.6309L 23.0415 45.6309C 24.1671 45.6309 25.1489 45.8255 25.9868 46.2148C 26.8247 46.6042 27.4595 47.1501 27.8911 47.8525C 28.3312 48.555 28.5513 49.3717 28.5513 50.3027C 28.5513 51.7161 28.0519 52.8503 27.0532 53.7051C 26.0545 54.5599 24.7257 54.9915 23.0669 55L 16.935 55L 16.935 41.2637L 20.02 41.2637L 20.02 45.6309ZM 33.9214 55L 30.8364 55L 30.8364 41.2637L 33.9214 41.2637L 33.9214 55ZM 20.02 48.1064L 20.02 52.5371L 23.0288 52.5371C 23.782 52.5371 24.3745 52.3509 24.8061 51.9785C 25.2462 51.5977 25.4663 51.0602 25.4663 50.3662C 25.4663 49.6722 25.2505 49.1263 24.8188 48.7285C 24.3957 48.3223 23.8201 48.1149 23.0923 48.1064L 20.02 48.1064ZM 43.7851 52.791C 44.5553 52.791 45.1943 52.5667 45.7021 52.1182C 46.2099 51.6696 46.4808 51.1152 46.5146 50.4551L 49.4218 50.4551C 49.388 51.3099 49.1214 52.1097 48.622 52.8545C 48.1227 53.5908 47.4456 54.1748 46.5908 54.6064C 45.736 55.0381 44.8134 55.2539 43.8232 55.2539C 41.902 55.2539 40.3785 54.6318 39.2529 53.3877C 38.1272 52.1436 37.5644 50.4255 37.5644 48.2334L 37.5644 47.916C 37.5644 45.8255 38.123 44.154 39.2402 42.9014C 40.3574 41.6403 41.8808 41.0098 43.8105 41.0098C 45.444 41.0098 46.7727 41.488 47.7968 42.4443C 48.8294 43.3923 49.3711 44.6406 49.4218 46.1895L 46.5146 46.1895C 46.4808 45.4023 46.2099 44.7549 45.7021 44.2471C 45.2028 43.7393 44.5638 43.4854 43.7851 43.4854C 42.7864 43.4854 42.0162 43.8493 41.4746 44.5771C 40.9329 45.2965 40.6578 46.3926 40.6494 47.8652L 40.6494 48.3604C 40.6494 49.8499 40.916 50.9629 41.4492 51.6992C 41.9908 52.4271 42.7695 52.791 43.7851 52.791ZM 63.0815 43.7139L 58.6254 43.7139L 58.6254 55L 55.5405 55L 55.5405 43.7139L 51.1352 43.7139L 51.1352 41.2637L 63.0815 41.2637L 63.0815 43.7139ZM 77.6933 48.2715C 77.6933 50.3958 77.2109 52.0928 76.246 53.3623C 75.2812 54.6234 73.9863 55.2539 72.3613 55.2539C 70.8547 55.2539 69.6487 54.7588 68.7431 53.7686L 68.7431 60.2812L 65.6581 60.2812L 65.6581 41.2637L 68.5019 41.2637L 68.6288 42.6602C 69.5344 41.5599 70.7659 41.0098 72.3232 41.0098C 73.9989 41.0098 75.3108 41.6361 76.2587 42.8887C 77.2151 44.1328 77.6933 45.8636 77.6933 48.0811L 77.6933 48.2715ZM 74.621 48.0049C 74.621 46.6338 74.346 45.5462 73.7958 44.7422C 73.2542 43.9382 72.4755 43.5361 71.4599 43.5361C 70.1988 43.5361 69.2932 44.0566 68.7431 45.0977L 68.7431 51.1914C 69.3017 52.2578 70.2157 52.791 71.4853 52.791C 72.467 52.791 73.233 52.3975 73.7831 51.6104C 74.3417 50.8148 74.621 49.613 74.621 48.0049ZM 80.2572 48.0049C 80.2572 46.6592 80.5238 45.4489 81.057 44.374C 81.5902 43.2907 82.3393 42.4613 83.3041 41.8857C 84.269 41.3018 85.3777 41.0098 86.6303 41.0098C 88.4838 41.0098 89.9861 41.6064 91.1371 42.7998C 92.2966 43.9932 92.9229 45.5758 93.016 47.5479L 93.0287 48.2715C 93.0287 49.6257 92.7663 50.8359 92.2416 51.9023C 91.7253 52.9688 90.9805 53.7939 90.0072 54.3779C 89.0424 54.9619 87.9252 55.2539 86.6557 55.2539C 84.7175 55.2539 83.1645 54.6107 81.9965 53.3242C 80.837 52.0293 80.2572 50.307 80.2572 48.1572L 80.2572 48.0049ZM 83.3422 48.2715C 83.3422 49.6849 83.6342 50.7936 84.2182 51.5977C 84.8022 52.3932 85.6147 52.791 86.6557 52.791C 87.6967 52.791 88.505 52.3848 89.0805 51.5723C 89.6645 50.7598 89.9565 49.5706 89.9565 48.0049C 89.9565 46.6169 89.656 45.5166 89.0551 44.7041C 88.4626 43.8916 87.6544 43.4854 86.6303 43.4854C 85.6231 43.4854 84.8233 43.8874 84.2309 44.6914C 83.6384 45.487 83.3422 46.6803 83.3422 48.2715ZM 96.5956 59.1641L 94.9325 58.1738C 95.4234 57.4036 95.7577 56.7308 95.9354 56.1553C 96.1216 55.5882 96.219 55.0085 96.2274 54.416L 96.2274 52.0166L 99.0077 52.0166L 98.995 54.2383C 98.9865 55.1354 98.758 56.0326 98.3095 56.9297C 97.8694 57.8353 97.2981 58.5801 96.5956 59.1641ZM 117.593 55C 117.457 54.7376 117.339 54.3102 117.237 53.7178C 116.255 54.7419 115.054 55.2539 113.632 55.2539C 112.252 55.2539 111.126 54.8604 110.255 54.0732C 109.383 53.2861 108.947 52.3128 108.947 51.1533C 108.947 49.6891 109.489 48.5677 110.572 47.7891C 111.664 47.002 113.221 46.6084 115.244 46.6084L 117.136 46.6084L 117.136 45.707C 117.136 44.9961 116.937 44.429 116.539 44.0059C 116.141 43.5742 115.536 43.3584 114.723 43.3584C 114.021 43.3584 113.445 43.5361 112.997 43.8916C 112.548 44.2386 112.324 44.6829 112.324 45.2246L 109.239 45.2246C 109.239 44.4714 109.489 43.7689 109.988 43.1172C 110.487 42.457 111.165 41.9408 112.019 41.5684C 112.883 41.196 113.843 41.0098 114.901 41.0098C 116.509 41.0098 117.792 41.416 118.748 42.2285C 119.704 43.0326 120.195 44.1667 120.221 45.6309L 120.221 51.8262C 120.221 53.0618 120.394 54.0479 120.741 54.7842L 120.741 55L 117.593 55ZM 114.203 52.7783C 114.812 52.7783 115.384 52.6302 115.917 52.334C 116.459 52.0378 116.865 51.64 117.136 51.1406L 117.136 48.5508L 115.473 48.5508C 114.33 48.5508 113.471 48.7497 112.895 49.1475C 112.32 49.5452 112.032 50.1081 112.032 50.8359C 112.032 51.4284 112.227 51.9023 112.616 52.2578C 113.014 52.6048 113.543 52.7783 114.203 52.7783ZM 131.201 55L 131.201 41.2637L 136.774 41.2637C 138.653 41.2637 140.083 41.5938 141.065 42.2539C 142.047 42.9056 142.538 43.8451 142.538 45.0723C 142.538 45.707 142.339 46.2783 141.941 46.7861C 141.552 47.2855 140.972 47.6706 140.202 47.9414C 141.099 48.1276 141.81 48.5042 142.335 49.0713C 142.86 49.6383 143.122 50.307 143.122 51.0771C 143.122 52.3551 142.648 53.3285 141.7 53.9971C 140.761 54.6657 139.406 55 137.637 55L 131.201 55ZM 134.286 49.1475L 134.286 52.5625L 137.663 52.5625C 139.246 52.5625 140.037 51.9954 140.037 50.8613C 140.037 49.7188 139.233 49.1475 137.625 49.1475L 134.286 49.1475ZM 134.286 46.9385L 136.825 46.9385C 138.577 46.9385 139.453 46.4222 139.453 45.3896C 139.453 44.3063 138.623 43.7477 136.965 43.7139L 134.286 43.7139L 134.286 46.9385ZM 151.957 52.791C 152.727 52.791 153.366 52.5667 153.874 52.1182C 154.382 51.6696 154.653 51.1152 154.687 50.4551L 157.594 50.4551C 157.56 51.3099 157.294 52.1097 156.794 52.8545C 156.295 53.5908 155.618 54.1748 154.763 54.6064C 153.908 55.0381 152.986 55.2539 151.995 55.2539C 150.074 55.2539 148.551 54.6318 147.425 53.3877C 146.299 52.1436 145.737 50.4255 145.737 48.2334L 145.737 47.916C 145.737 45.8255 146.295 44.154 147.412 42.9014C 148.53 41.6403 150.053 41.0098 151.983 41.0098C 153.616 41.0098 154.945 41.488 155.969 42.4443C 157.002 43.3923 157.543 44.6406 157.594 46.1895L 154.687 46.1895C 154.653 45.4023 154.382 44.7549 153.874 44.2471C 153.375 43.7393 152.736 43.4854 151.957 43.4854C 150.959 43.4854 150.188 43.8493 149.647 44.5771C 149.105 45.2965 148.83 46.3926 148.822 47.8652L 148.822 48.3604C 148.822 49.8499 149.088 50.9629 149.621 51.6992C 150.163 52.4271 150.942 52.791 151.957 52.791ZM 166.493 55.2539C 164.538 55.2539 162.951 54.6403 161.732 53.4131C 160.522 52.1774 159.917 50.5355 159.917 48.4873L 159.917 48.1064C 159.917 46.7354 160.179 45.5124 160.704 44.4375C 161.237 43.3542 161.982 42.512 162.938 41.9111C 163.895 41.3102 164.961 41.0098 166.137 41.0098C 168.008 41.0098 169.451 41.6064 170.467 42.7998C 171.491 43.9932 172.003 45.6816 172.003 47.8652L 172.003 49.1094L 163.027 49.1094C 163.12 50.2435 163.497 51.1406 164.157 51.8008C 164.826 52.4609 165.664 52.791 166.671 52.791C 168.084 52.791 169.235 52.2197 170.124 51.0771L 171.787 52.6641C 171.237 53.485 170.5 54.124 169.578 54.5811C 168.664 55.0296 167.636 55.2539 166.493 55.2539ZM 166.125 43.4854C 165.278 43.4854 164.593 43.7816 164.068 44.374C 163.552 44.9665 163.222 45.7917 163.078 46.8496L 168.956 46.8496L 168.956 46.6211C 168.888 45.5885 168.613 44.8099 168.131 44.2852C 167.648 43.752 166.98 43.4854 166.125 43.4854ZM 193.571 55L 190.486 55L 190.486 43.752L 185.129 43.752L 185.129 55L 182.044 55L 182.044 41.2637L 193.571 41.2637L 193.571 55ZM 196.795 48.0049C 196.795 46.6592 197.062 45.4489 197.595 44.374C 198.128 43.2907 198.877 42.4613 199.842 41.8857C 200.807 41.3018 201.916 41.0098 203.168 41.0098C 205.022 41.0098 206.524 41.6064 207.675 42.7998C 208.835 43.9932 209.461 45.5758 209.554 47.5479L 209.567 48.2715C 209.567 49.6257 209.304 50.8359 208.779 51.9023C 208.263 52.9688 207.518 53.7939 206.545 54.3779C 205.58 54.9619 204.463 55.2539 203.194 55.2539C 201.255 55.2539 199.702 54.6107 198.534 53.3242C 197.375 52.0293 196.795 50.307 196.795 48.1572L 196.795 48.0049ZM 199.88 48.2715C 199.88 49.6849 200.172 50.7936 200.756 51.5977C 201.34 52.3932 202.153 52.791 203.194 52.791C 204.235 52.791 205.043 52.3848 205.618 51.5723C 206.202 50.7598 206.494 49.5706 206.494 48.0049C 206.494 46.6169 206.194 45.5166 205.593 44.7041C 205.001 43.8916 204.192 43.4854 203.168 43.4854C 202.161 43.4854 201.361 43.8874 200.769 44.6914C 200.176 45.487 199.88 46.6803 199.88 48.2715ZM 218.339 52.791C 219.109 52.791 219.748 52.5667 220.256 52.1182C 220.763 51.6696 221.034 51.1152 221.068 50.4551L 223.975 50.4551C 223.941 51.3099 223.675 52.1097 223.175 52.8545C 222.676 53.5908 221.999 54.1748 221.144 54.6064C 220.289 55.0381 219.367 55.2539 218.377 55.2539C 216.455 55.2539 214.932 54.6318 213.806 53.3877C 212.681 52.1436 212.118 50.4255 212.118 48.2334L 212.118 47.916C 212.118 45.8255 212.676 44.154 213.794 42.9014C 214.911 41.6403 216.434 41.0098 218.364 41.0098C 219.997 41.0098 221.326 41.488 222.35 42.4443C 223.383 43.3923 223.924 44.6406 223.975 46.1895L 221.068 46.1895C 221.034 45.4023 220.763 44.7549 220.256 44.2471C 219.756 43.7393 219.117 43.4854 218.339 43.4854C 217.34 43.4854 216.57 43.8493 216.028 44.5771C 215.486 45.2965 215.211 46.3926 215.203 47.8652L 215.203 48.3604C 215.203 49.8499 215.469 50.9629 216.003 51.6992C 216.544 52.4271 217.323 52.791 218.339 52.791ZM 238.498 41.2637L 238.498 55L 235.413 55L 235.413 43.752L 231.528 43.752L 231.275 48.5381C 231.114 50.8402 230.669 52.4948 229.942 53.502C 229.222 54.5007 228.118 55 226.628 55L 225.676 55L 225.663 52.4355L 226.298 52.3721C 226.975 52.279 227.466 51.8685 227.771 51.1406C 228.084 50.4043 228.283 49.0671 228.367 47.1289L 228.621 41.2637L 238.498 41.2637ZM 248.349 55.2539C 246.394 55.2539 244.807 54.6403 243.589 53.4131C 242.378 52.1774 241.773 50.5355 241.773 48.4873L 241.773 48.1064C 241.773 46.7354 242.035 45.5124 242.56 44.4375C 243.093 43.3542 243.838 42.512 244.795 41.9111C 245.751 41.3102 246.817 41.0098 247.994 41.0098C 249.864 41.0098 251.307 41.6064 252.323 42.7998C 253.347 43.9932 253.859 45.6816 253.859 47.8652L 253.859 49.1094L 244.883 49.1094C 244.977 50.2435 245.353 51.1406 246.013 51.8008C 246.682 52.4609 247.52 52.791 248.527 52.791C 249.94 52.791 251.091 52.2197 251.98 51.0771L 253.643 52.6641C 253.093 53.485 252.357 54.124 251.434 54.5811C 250.52 55.0296 249.492 55.2539 248.349 55.2539ZM 247.981 43.4854C 247.135 43.4854 246.449 43.7816 245.924 44.374C 245.408 44.9665 245.078 45.7917 244.934 46.8496L 250.812 46.8496L 250.812 46.6211C 250.744 45.5885 250.469 44.8099 249.987 44.2852C 249.505 43.752 248.836 43.4854 247.981 43.4854ZM 256.842 52.5371C 257.697 51.5807 258.268 50.6751 258.556 49.8203C 258.852 48.957 259.03 47.8568 259.089 46.5195L 259.267 41.2637L 268.801 41.2637L 268.801 52.5371L 270.705 52.5371L 270.705 59.0879L 267.633 59.0879L 267.633 55L 258.822 55L 258.822 59.0879L 255.699 59.0879L 255.712 52.5371L 256.842 52.5371ZM 260.46 52.5371L 265.729 52.5371L 265.729 43.917L 262.263 43.917L 262.174 46.5449C 262.055 49.0671 261.484 51.0645 260.46 52.5371ZM 278.233 50.582L 281.026 41.2637L 284.314 41.2637L 278.855 57.082C 278.017 59.3926 276.595 60.5479 274.589 60.5479C 274.141 60.5479 273.646 60.4717 273.104 60.3193L 273.104 57.9326L 273.688 57.9707C 274.467 57.9707 275.051 57.8268 275.44 57.5391C 275.838 57.2598 276.151 56.7858 276.379 56.1172L 276.824 54.9365L 272 41.2637L 275.326 41.2637L 278.233 50.582ZM 289.963 46.7861L 292.553 46.7861C 292.781 45.0342 293.458 43.6335 294.584 42.584C 295.71 41.5345 297.132 41.0098 298.85 41.0098C 300.703 41.0098 302.205 41.6064 303.357 42.7998C 304.516 43.9932 305.142 45.5758 305.235 47.5479L 305.248 48.2715C 305.248 49.6257 304.986 50.8359 304.461 51.9023C 303.945 52.9688 303.2 53.7939 302.227 54.3779C 301.262 54.9619 300.145 55.2539 298.875 55.2539C 297.098 55.2539 295.638 54.7038 294.495 53.6035C 293.361 52.5033 292.705 51.056 292.527 49.2617L 289.963 49.2617L 289.963 55L 286.878 55L 286.878 41.2637L 289.963 41.2637L 289.963 46.7861ZM 295.562 48.2715C 295.562 49.6849 295.854 50.7936 296.438 51.5977C 297.022 52.3932 297.834 52.791 298.875 52.791C 299.916 52.791 300.724 52.3848 301.3 51.5723C 301.875 50.7598 302.163 49.5706 302.163 48.0049C 302.163 46.5915 301.863 45.487 301.262 44.6914C 300.669 43.8874 299.865 43.4854 298.85 43.4854C 297.843 43.4854 297.043 43.8874 296.45 44.6914C 295.858 45.487 295.562 46.6803 295.562 48.2715ZM 311.418 41.2637L 311.418 52.5371L 315.709 52.5371L 315.709 41.2637L 318.794 41.2637L 318.794 52.5371L 323.097 52.5371L 323.097 41.2637L 326.169 41.2637L 326.169 52.5371L 328.518 52.5371L 328.264 59.0752L 325.459 59.0752L 325.459 55L 308.333 55L 308.333 41.2637L 311.418 41.2637ZM 339.905 41.2637L 342.978 41.2637L 342.978 55L 339.905 55L 339.905 45.834L 334.523 55L 331.45 55L 331.45 41.2637L 334.523 41.2637L 334.523 50.4297L 339.905 41.2637ZM 352.829 55.2539C 350.874 55.2539 349.287 54.6403 348.068 53.4131C 346.858 52.1774 346.252 50.5355 346.252 48.4873L 346.252 48.1064C 346.252 46.7354 346.515 45.5124 347.04 44.4375C 347.573 43.3542 348.318 42.512 349.274 41.9111C 350.23 41.3102 351.297 41.0098 352.473 41.0098C 354.344 41.0098 355.787 41.6064 356.802 42.7998C 357.826 43.9932 358.338 45.6816 358.338 47.8652L 358.338 49.1094L 349.363 49.1094C 349.456 50.2435 349.833 51.1406 350.493 51.8008C 351.161 52.4609 351.999 52.791 353.006 52.791C 354.42 52.791 355.571 52.2197 356.46 51.0771L 358.123 52.6641C 357.572 53.485 356.836 54.124 355.914 54.5811C 355 55.0296 353.971 55.2539 352.829 55.2539ZM 352.46 43.4854C 351.614 43.4854 350.929 43.7816 350.404 44.374C 349.888 44.9665 349.557 45.7917 349.414 46.8496L 355.292 46.8496L 355.292 46.6211C 355.224 45.5885 354.949 44.8099 354.466 44.2852C 353.984 43.752 353.315 43.4854 352.46 43.4854ZM 374.245 48.3857L 367.58 48.3857L 367.58 45.8975L 374.245 45.8975L 374.245 48.3857ZM 9.7373 81.2041L 13.7998 71.2637L 17.6592 71.2637L 17.6592 85L 14.5742 85L 14.5742 75.9102L 10.791 85L 8.69629 85L 4.90039 75.8594L 4.90039 85L 1.81543 85L 1.81543 71.2637L 5.7002 71.2637L 9.7373 81.2041ZM 21.0737 78.0049C 21.0737 76.6592 21.3403 75.4489 21.8735 74.374C 22.4067 73.2907 23.1557 72.4613 24.1206 71.8857C 25.0854 71.3018 26.1942 71.0098 27.4468 71.0098C 29.3003 71.0098 30.8026 71.6064 31.9536 72.7998C 33.1131 73.9932 33.7394 75.5758 33.8325 77.5479L 33.8452 78.2715C 33.8452 79.6257 33.5828 80.8359 33.0581 81.9023C 32.5418 82.9688 31.797 83.7939 30.8237 84.3779C 29.8589 84.9619 28.7417 85.2539 27.4721 85.2539C 25.534 85.2539 23.9809 84.6107 22.813 83.3242C 21.6535 82.0293 21.0737 80.307 21.0737 78.1572L 21.0737 78.0049ZM 24.1587 78.2715C 24.1587 79.6849 24.4507 80.7936 25.0346 81.5977C 25.6186 82.3932 26.4311 82.791 27.4721 82.791C 28.5132 82.791 29.3214 82.3848 29.897 81.5723C 30.4809 80.7598 30.7729 79.5706 30.7729 78.0049C 30.7729 76.6169 30.4725 75.5166 29.8716 74.7041C 29.2791 73.8916 28.4708 73.4854 27.4468 73.4854C 26.4396 73.4854 25.6398 73.8874 25.0473 74.6914C 24.4549 75.487 24.1587 76.6803 24.1587 78.2715ZM 48.4443 71.2637L 48.4443 85L 45.3593 85L 45.3593 73.752L 41.4746 73.752L 41.2207 78.5381C 41.0599 80.8402 40.6155 82.4948 39.8877 83.502C 39.1683 84.5007 38.0638 85 36.5742 85L 35.622 85L 35.6093 82.4355L 36.2441 82.3721C 36.9212 82.279 37.4121 81.8685 37.7168 81.1406C 38.0299 80.4043 38.2288 79.0671 38.3134 77.1289L 38.5673 71.2637L 48.4443 71.2637ZM 63.8813 85L 60.7963 85L 60.7963 79.4521L 55.4516 79.4521L 55.4516 85L 52.3666 85L 52.3666 71.2637L 55.4516 71.2637L 55.4516 76.9893L 60.7963 76.9893L 60.7963 71.2637L 63.8813 71.2637L 63.8813 85ZM 76.2714 71.2637L 79.3437 71.2637L 79.3437 85L 76.2714 85L 76.2714 75.834L 70.8886 85L 67.8163 85L 67.8163 71.2637L 70.8886 71.2637L 70.8886 80.4297L 76.2714 71.2637ZM 89.1947 85.2539C 87.2397 85.2539 85.6527 84.6403 84.434 83.4131C 83.2237 82.1774 82.6186 80.5355 82.6186 78.4873L 82.6186 78.1064C 82.6186 76.7354 82.8809 75.5124 83.4057 74.4375C 83.9389 73.3542 84.6837 72.512 85.64 71.9111C 86.5964 71.3102 87.6628 71.0098 88.8393 71.0098C 90.7097 71.0098 92.1527 71.6064 93.1684 72.7998C 94.1925 73.9932 94.7045 75.6816 94.7045 77.8652L 94.7045 79.1094L 85.7289 79.1094C 85.822 80.2435 86.1986 81.1406 86.8588 81.8008C 87.5274 82.4609 88.3653 82.791 89.3725 82.791C 90.7859 82.791 91.9369 82.2197 92.8256 81.0771L 94.4887 82.6641C 93.9385 83.485 93.2022 84.124 92.2797 84.5811C 91.3656 85.0296 90.3373 85.2539 89.1947 85.2539ZM 88.8266 73.4854C 87.9802 73.4854 87.2947 73.7816 86.7699 74.374C 86.2537 74.9665 85.9236 75.7917 85.7797 76.8496L 91.6576 76.8496L 91.6576 76.6211C 91.5899 75.5885 91.3148 74.8099 90.8324 74.2852C 90.35 73.752 89.6814 73.4854 88.8266 73.4854ZM 109.266 85L 106.181 85L 106.181 79.4521L 100.836 79.4521L 100.836 85L 97.7509 85L 97.7509 71.2637L 100.836 71.2637L 100.836 76.9893L 106.181 76.9893L 106.181 71.2637L 109.266 71.2637L 109.266 85ZM 112.502 78.0049C 112.502 76.6592 112.769 75.4489 113.302 74.374C 113.835 73.2907 114.584 72.4613 115.549 71.8857C 116.514 71.3018 117.623 71.0098 118.875 71.0098C 120.729 71.0098 122.231 71.6064 123.382 72.7998C 124.542 73.9932 125.168 75.5758 125.261 77.5479L 125.274 78.2715C 125.274 79.6257 125.011 80.8359 124.487 81.9023C 123.97 82.9688 123.226 83.7939 122.252 84.3779C 121.287 84.9619 120.17 85.2539 118.901 85.2539C 116.963 85.2539 115.41 84.6107 114.242 83.3242C 113.082 82.0293 112.502 80.307 112.502 78.1572L 112.502 78.0049ZM 115.587 78.2715C 115.587 79.6849 115.879 80.7936 116.463 81.5977C 117.047 82.3932 117.86 82.791 118.901 82.791C 119.942 82.791 120.75 82.3848 121.326 81.5723C 121.91 80.7598 122.202 79.5706 122.202 78.0049C 122.202 76.6169 121.901 75.5166 121.3 74.7041C 120.708 73.8916 119.899 73.4854 118.875 73.4854C 117.868 73.4854 117.068 73.8874 116.476 74.6914C 115.883 75.487 115.587 76.6803 115.587 78.2715ZM 134.046 82.791C 134.816 82.791 135.455 82.5667 135.963 82.1182C 136.471 81.6696 136.741 81.1152 136.775 80.4551L 139.682 80.4551C 139.649 81.3099 139.382 82.1097 138.883 82.8545C 138.383 83.5908 137.706 84.1748 136.851 84.6064C 135.997 85.0381 135.074 85.2539 134.084 85.2539C 132.163 85.2539 130.639 84.6318 129.514 83.3877C 128.388 82.1436 127.825 80.4255 127.825 78.2334L 127.825 77.916C 127.825 75.8255 128.384 74.154 129.501 72.9014C 130.618 71.6403 132.141 71.0098 134.071 71.0098C 135.705 71.0098 137.033 71.488 138.057 72.4443C 139.09 73.3923 139.632 74.6406 139.682 76.1895L 136.775 76.1895C 136.741 75.4023 136.471 74.7549 135.963 74.2471C 135.463 73.7393 134.824 73.4854 134.046 73.4854C 133.047 73.4854 132.277 73.8493 131.735 74.5771C 131.194 75.2965 130.918 76.3926 130.91 77.8652L 130.91 78.3604C 130.91 79.8499 131.177 80.9629 131.71 81.6992C 132.251 82.4271 133.03 82.791 134.046 82.791ZM 154.167 85L 151.082 85L 151.082 79.4521L 145.738 79.4521L 145.738 85L 142.653 85L 142.653 71.2637L 145.738 71.2637L 145.738 76.9893L 151.082 76.9893L 151.082 71.2637L 154.167 71.2637L 154.167 85ZM 157.404 78.0049C 157.404 76.6592 157.671 75.4489 158.204 74.374C 158.737 73.2907 159.486 72.4613 160.451 71.8857C 161.416 71.3018 162.525 71.0098 163.777 71.0098C 165.631 71.0098 167.133 71.6064 168.284 72.7998C 169.444 73.9932 170.07 75.5758 170.163 77.5479L 170.176 78.2715C 170.176 79.6257 169.913 80.8359 169.388 81.9023C 168.872 82.9688 168.127 83.7939 167.154 84.3779C 166.189 84.9619 165.072 85.2539 163.803 85.2539C 161.864 85.2539 160.311 84.6107 159.143 83.3242C 157.984 82.0293 157.404 80.307 157.404 78.1572L 157.404 78.0049ZM 160.489 78.2715C 160.489 79.6849 160.781 80.7936 161.365 81.5977C 161.949 82.3932 162.762 82.791 163.803 82.791C 164.844 82.791 165.652 82.3848 166.227 81.5723C 166.811 80.7598 167.103 79.5706 167.103 78.0049C 167.103 76.6169 166.803 75.5166 166.202 74.7041C 165.61 73.8916 164.801 73.4854 163.777 73.4854C 162.77 73.4854 161.97 73.8874 161.378 74.6914C 160.785 75.487 160.489 76.6803 160.489 78.2715Z"/>
</defs>
</svg>
