<svg width="248" height="81" viewBox="0 0 248 81" version="1.1" xmlns="http://www.w3.org/2000/svg" xmlns:xlink="http://www.w3.org/1999/xlink">
<title>logo</title>
<desc>Created using Figma</desc>
<g id="Canvas" transform="translate(-23298 -1926)">
<rect x="23298" y="1926" width="248" height="81" fill="#F2F2F2"/>
<clipPath id="clip-0" clip-rule="evenodd">
<path d="M 23258 1919L 25178 1919L 25178 2017L 23258 2017L 23258 1919Z" fill="#FFFFFF"/>
</clipPath>
<g id="menu_2" clip-path="url(#clip-0)">
<path d="M 23258 1919L 25178 1919L 25178 2017L 23258 2017L 23258 1919Z" fill="#FFFFFF"/>
<g id="logo">
<g id="Vector">
<use xlink:href="#path0_fill" transform="translate(23298 1926)" fill="#F03454"/>
<use xlink:href="#path0_fill" transform="translate(23298 1926)" fill="url(#paint1_linear)"/>
</g>
<g id="Vector">
<use xlink:href="#path1_fill" transform="translate(23301.4 1929.74)" fill="#518186"/>
</g>
<g id="Vector">
<use xlink:href="#path2_fill" transform="translate(23398.2 1938.5)" fill="#F03454"/>
</g>
<g id="Group">
<g id="Vector">
<use xlink:href="#path3_fill" transform="translate(23387.6 1958.07)"/>
<use xlink:href="#path3_fill" transform="translate(23387.6 1958.07)" fill="#F03454"/>
<use xlink:href="#path4_stroke" transform="translate(23387.6 1958.07)" fill="#FFFFFF"/>
</g>
<g id="Vector">
<use xlink:href="#path5_fill" transform="translate(23387.5 1957.97)" fill="#F03454"/>
</g>
</g>
<g id="Vector">
<use xlink:href="#path6_fill" transform="translate(23414.3 1991.21)"/>
</g>
</g>
</g>
</g>
<defs>
<linearGradient id="paint1_linear" x1="0" y1="0" x2="1" y2="0" gradientUnits="userSpaceOnUse" gradientTransform="matrix(5.0675e-15 81 -82.7586 4.95982e-15 82.7586 -4.95982e-15)">
<stop offset="0" stop-color="#FFFFFF"/>
<stop offset="1" stop-color="#FFFFFF"/>
</linearGradient>
<path id="path0_fill" d="M 41.3793 81C 64.2324 81 82.7586 62.8675 82.7586 40.5C 82.7586 18.1325 64.2324 0 41.3793 0C 18.5261 0 0 18.1325 0 40.5C 0 62.8675 18.5261 81 41.3793 81Z"/>
<path id="path1_fill" fill-rule="evenodd" d="M 56.9599 38.889C 58.5438 39.1796 63.3945 39.1796 67.2553 32.2036C 63.9885 33.7538 57.9499 33.4631 56.9599 38.889ZM 59.6328 31.4284C 65.4734 30.944 65.1764 24.743 62.8006 22.7083C 63.1965 25.5182 59.7318 27.6497 59.6328 31.4284ZM 19.5404 15.1509C 20.6293 17.5732 23.6981 22.4177 29.8357 19.7048C 27.5589 15.054 22.5102 17.5732 19.5404 15.1509ZM 59.4348 56.1354C 60.0287 55.554 60.5237 54.9727 61.1177 54.3914C 60.1277 54.4883 59.1378 54.3914 58.1479 54.0038C 53.9901 52.6473 49.6344 52.6473 45.2787 54.1007C 44.7837 54.2945 44.1898 54.4883 43.5958 54.682C 42.3089 56.1354 40.725 57.4918 39.1411 58.7514C 39.5371 58.8483 40.032 59.0421 40.428 59.139C 43.0019 57.2012 50.6244 52.4536 59.4348 56.1354ZM 48.9415 63.2083C 50.7233 62.4332 52.4062 61.5612 54.0891 60.3985C 50.6244 61.1737 47.1596 60.9799 44.7837 60.7861C 46.2686 61.5612 47.6545 62.3363 48.9415 63.2083ZM 43.1998 65.1461C 40.725 63.5959 37.9532 62.3363 34.7854 61.5612C 35.2804 61.2705 35.7753 60.9799 36.2703 60.6892C 39.9331 61.4643 43.2988 62.627 46.1696 64.2741C 45.1797 64.5648 44.1898 64.8555 43.1998 65.1461ZM 26.272 64.9524C 28.5488 65.5337 30.9246 65.9213 33.3005 66.0182C 32.3106 65.0493 31.5186 64.1772 30.9246 63.4021C 29.3407 63.9835 27.7569 64.5648 26.272 64.9524ZM 17.4615 61.3674C 17.9565 61.6581 18.5505 61.9488 19.1444 62.2394C 22.4112 61.8519 25.678 61.0768 28.7468 59.8172C 28.6478 59.8172 28.5488 59.8172 28.3508 59.8172C 24.4901 59.9141 20.8273 60.3985 17.4615 61.3674ZM 67.6512 13.8914C 80.6194 29.7813 77.8476 52.938 61.4146 65.5337C 44.9817 78.1294 21.1243 75.4165 8.05715 59.5265C -0.555289 48.8686 -2.13919 34.9165 2.7115 23.0959C -0.654283 33.1725 1.02861 44.7024 8.35413 53.6162C 10.037 55.6509 11.8189 57.395 13.8978 58.9452C 20.2333 57.0074 27.1629 56.5229 33.6965 57.4918C 30.7267 52.8411 35.7753 50.0313 37.4582 46.0588C 38.5471 47.9966 39.6361 50.8064 38.8441 53.9069C 39.7351 53.1318 40.527 52.3567 41.319 51.4847C 42.4079 46.4464 35.3794 41.0205 37.2602 34.9165C 43.1008 37.9201 44.6847 43.4428 43.4968 48.6749C 45.2787 45.865 46.3676 42.7646 46.3676 39.4703C 43.1998 31.4284 33.3995 33.8507 30.2317 26.6808C 35.4783 30.5564 41.517 28.1342 44.8827 32.688C 43.1008 28.8124 39.5371 25.7119 34.7854 24.4524C 33.5975 24.1617 32.3106 23.871 31.0236 23.871C 23.9951 23.6772 19.5404 29.3938 21.8172 36.0792C 19.6394 32.5911 19.9364 28.6186 22.1142 26.0026C 14.6897 30.3626 13.6998 40.0516 20.3323 45.5744C 20.9263 46.0588 21.6193 46.5433 22.3122 46.9308C 21.4213 45.7682 20.9263 44.3148 20.9263 42.6677C 20.9263 38.6952 24.2921 35.4009 28.4498 35.4009C 32.6075 35.4009 35.9733 38.6952 35.9733 42.6677C 35.9733 46.7371 32.8055 49.6438 28.7468 49.9344C 29.0438 50.9033 29.2418 52.1629 29.0438 53.4225C 27.3609 53.0349 26.272 52.2598 25.579 51.3878C 24.985 53.2287 23.1042 54.4883 22.1142 55.0696C 21.6193 52.1629 22.1142 50.2251 22.7082 49.0624C 21.3223 48.4811 20.1344 47.8028 18.9464 46.7371C 10.829 39.761 13.1058 27.8435 22.7082 23.5804C 26.5689 21.8363 31.1226 21.5457 35.2804 22.7083C 35.8743 22.9021 36.4683 22.999 36.9632 23.2897C 36.6663 22.3208 35.9733 20.7705 34.5874 19.2203C 27.6579 19.3172 29.2418 13.4069 24.0941 9.82198C 28.5488 10.694 35.5773 13.6007 35.9733 18.8327C 36.4683 19.4141 36.8643 20.0923 37.2602 20.6737C 37.2602 19.6079 37.3592 18.5421 37.5572 17.4763C 38.0522 15.1509 38.0522 13.2131 37.9532 10.7909C 37.8542 7.30284 37.4582 4.88059 40.527 2.55523C 45.3777 9.33753 39.8341 11.6629 38.6461 17.767C 38.2502 19.9954 38.3492 22.3208 39.1411 24.4524C 39.5371 24.6461 40.032 24.9368 40.428 25.2275C 39.5371 22.8052 39.3391 20.383 39.6361 18.1545C 40.23 14.6665 42.2099 11.6629 45.5757 10.2095C 50.3274 8.17485 58.8408 10.0158 58.4448 16.2167C 58.2469 19.1234 55.97 21.7394 52.4062 21.7394C 49.0405 21.7394 46.3676 19.1234 46.3676 15.926C 46.3676 13.5038 47.8525 11.4691 49.9314 10.5971C 44.8827 10.3064 41.517 13.7945 40.923 18.4452C 40.725 20.1892 40.923 22.127 41.6159 24.1617C 41.5169 21.1581 42.9029 18.3483 43.9918 16.6043C 46.6646 20.1892 47.0606 24.1617 44.4868 27.8435C 46.5656 26.0995 48.6445 26.3902 51.2183 27.3591C 48.8425 29.6844 47.9515 30.2658 45.0807 29.7813C 45.2787 29.9751 45.3777 30.1689 45.5757 30.3626C 49.1395 35.5947 49.8324 42.377 47.5556 48.2873C 49.0405 46.4464 50.1294 44.121 50.3274 41.9894C 50.8223 37.7263 49.9314 32.688 55.574 30.072C 56.267 33.3662 56.564 40.0516 50.9213 45.6713C 49.4364 48.9655 47.2586 50.9033 45.6747 51.9691C 48.6445 51.2909 51.5153 51.194 54.4851 51.6784C 53.7921 50.7095 53.4952 49.45 53.4952 48.1904C 53.4952 44.6055 56.465 41.6988 60.2267 41.6988C 62.9985 41.6988 65.3744 43.3459 66.3643 45.5744C 70.621 35.0134 69.1361 22.6115 61.4146 13.1162C 54.3861 3.8148 43.1998 -0.448359 32.2116 0.423651C 45.2787 -1.51415 58.9398 3.23346 67.6512 13.8914Z"/>
<path id="path2_fill" fill-rule="evenodd" d="M 82.8783 13.9522L 82.8783 12.6926C 83.4722 12.5957 83.9672 12.4019 84.4622 12.1112C 85.2541 11.6268 86.0461 10.9486 86.838 10.0766L 87.63 10.6579C 86.739 11.8206 85.6501 12.6926 84.4622 13.3708C 83.9672 13.5646 83.4722 13.8553 82.8783 13.9522ZM 82.8783 7.65431L 82.8783 6.58852C 83.9672 6.20096 84.9571 5.61962 85.6501 4.74761C 86.541 3.58493 87.333 0.9689 84.9571 0.9689C 84.1652 0.9689 83.4722 1.25957 82.8783 1.64713L 82.8783 0.387559C 83.6702 0.0968896 84.4622 3.44222e-15 85.3531 3.44222e-15C 91.0947 3.44222e-15 89.8078 5.42584 84.8581 7.07297C 84.2642 7.26675 83.5712 7.46053 82.8783 7.65431ZM 82.8783 0.387559L 82.8783 1.64713C 80.9974 2.9067 79.7105 5.52273 79.2155 7.36364C 79.9085 7.26675 80.7004 7.16986 81.4924 6.97608C 81.9873 6.87919 82.3833 6.7823 82.8783 6.58852L 82.8783 7.65431C 82.5813 7.7512 82.3833 7.7512 82.0863 7.84809C 81.1954 8.04187 80.1065 8.23565 79.0175 8.33254C 78.8195 9.78589 79.0175 10.9486 79.5125 11.7237C 80.2055 12.8864 81.5914 13.0801 82.8783 12.7895L 82.8783 14.049C 80.7994 14.7273 78.3246 14.6304 76.9387 13.0801C 76.6417 12.6926 76.3447 12.305 76.2457 11.8206L 76.2457 8.13876C 76.4437 7.36364 76.7407 6.58852 77.0377 5.91029C 78.2256 3.29426 80.3044 1.25957 82.8783 0.387559ZM 76.3447 1.16268L 76.5427 0.48445L 76.4437 0.29067L 76.3447 0.29067L 76.3447 1.16268ZM 76.3447 0.19378L 76.3447 1.16268C 75.2558 4.26316 74.0678 7.36364 73.1769 10.4641C 72.484 12.7895 73.6719 13.177 75.9487 12.4019L 75.6517 13.2739C 74.5628 13.6615 73.2759 14.2428 72.088 14.2428C 69.5142 14.2428 69.9101 12.305 70.5041 10.6579L 73.9689 0.387559L 76.3447 0.19378ZM 76.3447 7.94498C 76.0477 9.20455 75.9487 10.561 76.3447 11.6268L 76.3447 7.94498ZM 62.7826 14.2428L 62.7826 13.2739C 64.0695 12.8864 64.9604 11.9175 65.4554 10.6579C 66.1484 8.81699 66.0494 6.7823 63.4755 6.7823C 63.2776 6.7823 62.9806 6.7823 62.7826 6.7823L 62.7826 5.8134C 63.1786 5.8134 63.6735 5.71651 64.0695 5.71651C 66.3464 5.71651 69.1182 6.29785 68.8212 9.10766C 68.4252 12.2081 65.6534 13.7584 62.7826 14.2428ZM 62.7826 2.71292L 62.7826 0.77512C 62.9806 1.25957 62.9806 1.84091 62.7826 2.71292ZM 51.6953 7.94498C 51.2004 7.55742 50.4084 7.36364 49.2205 7.36364C 49.1215 7.36364 49.0225 7.36364 48.9235 7.36364L 48.9235 6.39474C 49.8144 6.29785 50.5074 6.10407 51.1014 5.91029C 52.4873 5.42584 53.3782 4.55383 53.5762 3.10048C 53.7742 1.74402 52.7843 0.9689 51.4973 0.9689C 50.5074 0.9689 49.6165 1.35646 49.0225 1.9378L 49.0225 0.58134C 50.0124 0.19378 51.1014 3.44222e-15 52.2893 3.44222e-15C 54.1702 3.44222e-15 56.744 0.484449 56.447 2.80981C 56.15 5.03828 54.1702 6.10407 52.0913 6.58852L 52.0913 6.7823C 53.7742 6.87919 55.4571 7.65431 55.2591 9.59211C 55.0611 11.0455 54.3682 12.2081 52.9822 13.0801C 51.8933 13.7584 50.6064 14.2428 49.1215 14.3397L 49.1215 13.3708C 49.4185 13.2739 49.8144 13.177 50.1114 13.0801C 50.9034 12.6926 51.4973 12.1112 51.8933 11.3361C 52.2893 10.3672 52.6853 8.7201 51.6953 7.94498ZM 62.7826 0.872009C 62.0896 -0.58134 59.1198 0.38756 57.437 1.06579L 57.14 1.9378C 59.1198 1.45335 60.7037 1.25957 59.8128 3.77871C 59.7138 4.16627 59.5158 4.55383 59.4168 4.94139L 57.6349 9.39833C 57.14 10.7548 56.546 12.4988 57.9319 13.6615C 58.6249 14.2428 59.6148 14.4366 61.0007 14.4366C 61.5947 14.4366 62.1886 14.4366 62.7826 14.3397L 62.7826 13.3708C 62.3866 13.4677 61.9906 13.5646 61.5947 13.5646C 59.0208 13.5646 59.7138 10.8517 60.4068 9.30144L 61.1987 7.16986C 61.6937 7.07297 62.2876 6.97608 62.7826 6.87919L 62.7826 5.8134C 62.3866 5.8134 61.8916 5.91029 61.4957 6.00718L 62.4856 3.58493C 62.5846 3.29426 62.6836 3.00359 62.7826 2.71292L 62.7826 0.872009ZM 49.0225 7.36364C 48.0326 7.36364 47.0426 7.55742 46.0527 7.65431C 45.6567 9.10766 45.3597 11.3361 46.3497 12.5957C 46.9436 13.3708 48.0326 13.5646 49.0225 13.3708L 49.0225 14.3397C 48.5275 14.4366 48.1316 14.4366 47.5376 14.4366C 45.7557 14.4366 44.4688 14.049 43.7758 13.177C 43.4789 12.8864 43.2809 12.4019 43.0829 12.0144L 43.0829 8.23565C 43.2809 7.36364 43.5779 6.49163 43.7758 5.91029C 44.7658 3.48804 46.5477 1.55024 48.9235 0.67823L 48.9235 1.9378C 47.5376 3.10048 46.7456 5.03828 46.2507 6.58852L 48.9235 6.29785L 48.9235 7.36364L 49.0225 7.36364ZM 43.1819 1.06579L 43.3799 0.387559L 43.2809 0.19378L 43.1819 0.19378L 43.1819 1.06579ZM 43.1819 0.19378L 43.1819 1.06579L 40.3111 9.30144C 39.5191 11.5299 39.2221 13.5646 42.6869 12.305L 42.3899 13.177C 41.598 13.4677 40.905 13.7584 40.3111 13.8553C 38.6282 14.3397 36.5493 14.1459 36.7473 11.9175L 36.6483 11.9175C 34.9654 13.0801 33.3815 14.2428 31.2037 14.2428C 30.4117 14.2428 29.7188 14.049 29.2238 13.4677C 28.2339 12.305 28.8278 10.561 29.2238 9.30144L 30.8077 4.94139C 30.9067 4.55383 31.1047 4.16627 31.2037 3.8756C 31.9956 1.25957 30.6097 1.45335 28.6298 1.9378L 28.9268 1.06579C 32.0946 -0.290669 35.5594 -0.775119 33.9755 3.58493L 32.0946 8.7201C 31.9956 9.10766 31.7976 9.49522 31.6986 9.78589C 30.4117 14.2428 35.0644 12.4019 37.0443 10.6579L 40.707 0.19378L 43.1819 0.19378ZM 43.1819 8.13876C 42.8849 9.39833 42.7859 10.7548 43.1819 11.9175L 43.1819 8.13876ZM 27.3429 2.61603C 27.0459 2.9067 26.65 3.00359 26.155 3.00359C 25.1651 3.00359 24.4721 2.13158 24.0761 1.35646C 22.8882 1.84091 21.8983 2.80981 21.1063 4.26316C 20.3144 5.61962 19.9184 7.26675 19.6214 9.01077C 19.5224 9.49522 19.5224 9.97966 19.5224 10.4641C 19.5224 11.6268 19.9184 12.8864 21.4033 12.8864C 22.5912 12.8864 23.4822 12.2081 24.1751 11.433C 24.3731 11.2392 24.6701 10.9486 24.8681 10.6579L 25.462 11.2392C 24.5711 12.2081 23.6802 12.9833 22.8882 13.5646C 22.0963 14.049 21.1063 14.3397 20.2154 14.3397C 18.9285 14.3397 18.0375 13.8553 17.5426 12.9833C 16.7506 11.6268 16.8496 9.78589 17.2456 8.23565C 17.3446 7.84809 17.4436 7.46053 17.5426 7.26675L 15.1667 7.26675L 12.7909 13.9522L 10.217 13.9522L 12.6919 7.26675L 10.316 7.26675C 9.52409 9.39833 8.23718 11.1423 6.75228 12.4019C 5.16838 13.6615 3.48549 14.3397 1.8026 14.3397C 1.30763 14.3397 0.812666 14.2428 0.416692 13.9522C -0.276262 13.3708 -0.0782739 12.1112 0.812667 11.6268C 1.10965 11.433 1.40663 11.3361 1.8026 11.3361C 2.79254 11.3361 3.48549 12.2081 3.88146 12.9833C 6.85127 11.6268 7.9402 8.04187 8.23718 5.32895C 8.23718 4.94139 8.33617 4.45694 8.33617 3.8756C 8.33617 0.67823 5.66335 0.77512 3.68348 3.00359C 3.3865 3.29426 3.18852 3.48804 2.99053 3.68182L 2.29757 3.10048C 3.68348 1.55024 5.36637 0.0968903 7.54423 0.0968903C 10.712 0.0968903 11.108 3.10048 10.712 5.71651C 10.712 5.91029 10.613 6.10407 10.613 6.20096L 13.0879 6.20096L 15.1667 0.387559L 17.6416 0.19378L 17.7406 0.387559L 15.6617 6.20096L 18.1365 6.20096C 19.0275 4.36005 20.2154 2.9067 21.7003 1.84091C 23.1852 0.775119 24.7691 0.19378 26.254 0.19378C 26.848 0.19378 27.3429 0.29067 27.6399 0.58134C 28.1349 0.9689 27.9369 2.13158 27.3429 2.61603Z"/>
<path id="path3_fill" fill-rule="evenodd" d="M 155.321 0.0968892C 152.945 8.72009 150.569 17.2464 148.193 25.8696L 141.165 25.8696L 140.868 26.8385L 148.985 26.8385L 156.41 0.0968892L 155.321 0.0968892ZM 104.537 25.8696L 104.24 26.8385L 112.358 26.8385L 118 6.29785L 128.791 6.29785L 130.473 0.0968892L 129.483 0.0968892L 127.999 5.32895L 117.208 5.32895L 111.566 25.8696C 109.19 25.8696 106.913 25.8696 104.537 25.8696ZM 83.1545 0.0968892L 76.027 25.8696C 73.6512 25.8696 71.3743 25.8696 68.9985 25.8696L 68.7015 26.8385L 76.819 26.8385L 84.2435 0.0968892L 83.1545 0.0968892ZM 66.4246 0.0968892C 64.0488 8.72009 61.673 17.2464 59.2971 25.8696C 56.9213 25.8696 54.6444 25.8696 52.2686 25.8696L 51.9716 26.8385L 60.0891 26.8385L 67.5136 0.0968892L 66.4246 0.0968892ZM 55.1394 8.13875C 54.6444 9.88277 54.1494 11.6268 53.6545 13.3708C 50.4867 13.3708 47.3189 13.3708 44.1511 13.3708L 43.8541 14.3397L 54.4464 14.3397L 56.1293 8.13875L 55.1394 8.13875ZM 50.7837 20.6376C 50.2887 22.3816 49.7937 24.1256 49.2988 25.8696C 43.3591 25.8696 37.4195 25.8696 31.4799 25.8696L 31.183 26.8385L 49.9917 26.8385L 51.6746 20.6376L 50.7837 20.6376ZM 30.985 20.6376L 29.5001 25.8696C 19.7987 25.8696 10.0973 25.8696 0.296982 25.8696L -1.51052e-06 26.8385L 30.193 26.8385L 31.8759 20.6376L 30.985 20.6376ZM 131.562 0.0968892L 124.831 24.61L 130.473 24.61L 133.245 14.7273C 137.205 10.4641 142.056 7.46053 147.203 4.74761L 146.609 6.87919C 142.056 9.39832 137.997 12.2081 134.334 15.9868L 131.562 25.9665L 124.534 25.9665L 124.237 26.9354L 132.354 26.9354L 135.225 16.4713C 138.492 13.0801 142.155 10.561 146.213 8.23565L 141.66 24.7069L 147.302 24.7069L 154.034 0.193781L 147.797 0.193781C 144.036 1.74402 140.967 3.97249 137.898 6.49163L 139.68 0.193781L 138.69 0.193781L 136.611 7.6543C 136.017 8.23564 135.324 8.72009 134.73 9.30143L 137.304 0.193781L 131.562 0.193781L 131.562 0.0968892ZM 104.834 24.61L 110.477 24.61L 116.119 4.06938L 126.91 4.06938L 127.999 0.0968892L 111.566 0.0968892L 104.834 24.61ZM 86.0254 0.0968892L 79.2938 24.61L 90.0841 24.61C 97.1126 24.61 102.161 22.0909 104.141 15.2117C 104.834 12.7895 104.834 11.0455 103.547 8.81699C 105.923 11.0455 106.022 13.3708 105.23 16.3744C 103.349 23.3505 98.1026 25.8696 91.074 25.8696C 87.0153 25.8696 83.0555 25.8696 78.9968 25.8696L 78.6998 26.8385L 91.074 26.8385C 98.5975 26.8385 104.141 23.9318 106.22 16.5682C 108.002 10.0766 104.438 6.39474 97.8056 6.29785C 96.4197 6.29785 94.9348 6.39474 93.5489 6.68541C 93.2519 7.84808 92.8559 9.10765 92.5589 10.2703C 95.0338 9.88277 97.1126 10.3672 98.2016 12.6926C 97.8056 12.4019 97.5086 12.1112 97.0136 11.9175C 95.5287 11.2392 93.6479 11.433 92.064 11.8206L 91.767 12.7895C 93.3509 12.4988 95.1328 12.0144 96.6177 12.7895C 98.0036 13.4677 98.3005 14.7273 97.9046 16.0837C 96.8156 19.9593 93.3509 20.5407 89.6881 20.5407L 88.4012 20.5407L 94.0438 7.39212e-07L 93.0539 7.39212e-07L 87.4113 20.5407L 86.0254 20.5407L 91.668 7.39212e-07L 86.0254 7.39212e-07L 86.0254 0.0968892ZM 76.126 0.0968892L 74.0471 7.55742L 66.5236 7.55742L 65.4347 11.5299L 72.9582 11.5299L 72.5622 12.8864L 65.0387 12.8864L 64.7418 13.8553L 72.2653 13.8553L 69.2955 24.61L 74.9381 24.61L 81.6696 0.0968892L 76.126 0.0968892ZM 59.3961 0.0968892L 52.6645 24.61L 58.3072 24.61L 65.0387 0.0968892L 59.3961 0.0968892ZM 53.7535 8.13875L 45.636 8.13875L 44.5471 12.1112L 52.6645 12.1112L 53.7535 8.13875ZM 54.3474 0.0968892L 38.7065 0.0968892L 31.9749 24.61L 48.3088 24.61L 49.3978 20.6376L 41.0823 20.6376L 45.042 6.29785L 55.0404 6.29785L 56.7233 0.0968892L 55.6343 0.0968892L 54.1494 5.32895L 44.1511 5.32895L 39.9934 20.6376L 38.6075 20.6376L 43.2602 3.97249L 53.2585 3.97249L 54.3474 0.0968892ZM 32.3709 0.0968892L 22.4715 0.0968892C 11.8792 0.0968892 5.54364 7.55742 5.34565 17.4402L 11.0873 17.4402C 11.6812 10.3672 14.1561 3.97249 22.6695 3.97249L 25.6393 3.97249L 25.2433 5.32895L 23.5605 5.32895C 15.047 5.32895 12.7702 11.8206 12.1762 18.7966L 5.34565 18.7966C 5.34565 19.0873 5.34565 19.4749 5.34565 19.7655L 13.0671 19.7655L 13.1661 18.7966C 13.7601 12.4019 15.74 6.29785 23.5605 6.29785L 24.9464 6.29785L 20.9866 20.6376L 1.78188 20.6376L 0.692958 24.61L 28.4111 24.61L 29.5001 20.6376L 29.1041 20.6376L 34.7467 0.0968892L 33.7568 0.0968892L 28.1142 20.6376L 26.7282 20.6376L 32.3709 0.0968892Z"/>
<path id="path4_stroke" d="M 155.321 0.0968892L 155.321 -1.09761C 154.783 -1.09761 154.312 -0.738595 154.169 -0.220394L 155.321 0.0968892ZM 148.193 25.8696L 148.193 27.0641C 148.731 27.0641 149.202 26.7051 149.345 26.1869L 148.193 25.8696ZM 141.165 25.8696L 141.165 24.6751C 140.64 24.6751 140.176 25.0177 140.023 25.5196L 141.165 25.8696ZM 140.868 26.8385L 139.726 26.4885C 139.615 26.8507 139.682 27.2441 139.907 27.5487C 140.133 27.8533 140.489 28.033 140.868 28.033L 140.868 26.8385ZM 148.985 26.8385L 148.985 28.033C 149.522 28.033 149.993 27.6751 150.136 27.1581L 148.985 26.8385ZM 156.41 0.0968892L 157.561 0.416441C 157.661 0.0567941 157.587 -0.328854 157.361 -0.625996C 157.135 -0.923137 156.783 -1.09761 156.41 -1.09761L 156.41 0.0968892ZM 104.537 25.8696L 104.537 24.6751C 104.012 24.6751 103.549 25.0177 103.395 25.5196L 104.537 25.8696ZM 104.24 26.8385L 103.098 26.4885C 102.987 26.8507 103.054 27.2441 103.28 27.5487C 103.505 27.8533 103.861 28.033 104.24 28.033L 104.24 26.8385ZM 112.358 26.8385L 112.358 28.033C 112.895 28.033 113.367 27.6736 113.509 27.1549L 112.358 26.8385ZM 118 6.29785L 118 5.10335C 117.462 5.10335 116.991 5.4628 116.848 5.98143L 118 6.29785ZM 128.791 6.29785L 128.791 7.49235C 129.33 7.49235 129.802 7.1311 129.943 6.61071L 128.791 6.29785ZM 130.473 0.0968892L 131.626 0.409749C 131.724 0.0507054 131.648 -0.33324 131.422 -0.628755C 131.196 -0.92427 130.845 -1.09761 130.473 -1.09761L 130.473 0.0968892ZM 129.483 0.0968892L 129.483 -1.09761C 128.949 -1.09761 128.48 -0.743049 128.334 -0.22924L 129.483 0.0968892ZM 127.999 5.32895L 127.999 6.52345C 128.533 6.52345 129.002 6.16889 129.148 5.65508L 127.999 5.32895ZM 117.208 5.32895L 117.208 4.13445C 116.67 4.13445 116.199 4.4939 116.056 5.01253L 117.208 5.32895ZM 111.566 25.8696L 111.566 27.0641C 112.104 27.0641 112.575 26.7047 112.718 26.186L 111.566 25.8696ZM 83.1545 0.0968892L 83.1545 -1.09761C 82.6175 -1.09761 82.1464 -0.739155 82.0033 -0.221503L 83.1545 0.0968892ZM 76.027 25.8696L 76.027 27.0641C 76.5641 27.0641 77.0351 26.7057 77.1783 26.188L 76.027 25.8696ZM 68.9985 25.8696L 68.9985 24.6751C 68.4736 24.6751 68.0102 25.0177 67.8564 25.5196L 68.9985 25.8696ZM 68.7015 26.8385L 67.5594 26.4885C 67.4484 26.8507 67.5158 27.2441 67.741 27.5487C 67.9663 27.8533 68.3226 28.033 68.7015 28.033L 68.7015 26.8385ZM 76.819 26.8385L 76.819 28.033C 77.3556 28.033 77.8264 27.6751 77.9699 27.1581L 76.819 26.8385ZM 84.2435 0.0968892L 85.3944 0.416441C 85.4943 0.0567941 85.4203 -0.328854 85.1944 -0.625996C 84.9685 -0.923137 84.6167 -1.09761 84.2435 -1.09761L 84.2435 0.0968892ZM 66.4246 0.0968892L 66.4246 -1.09761C 65.8871 -1.09761 65.4158 -0.738595 65.273 -0.220394L 66.4246 0.0968892ZM 59.2971 25.8696L 59.2971 27.0641C 59.8346 27.0641 60.3059 26.7051 60.4487 26.1869L 59.2971 25.8696ZM 52.2686 25.8696L 52.2686 24.6751C 51.7437 24.6751 51.2803 25.0177 51.1265 25.5196L 52.2686 25.8696ZM 51.9716 26.8385L 50.8295 26.4885C 50.7185 26.8507 50.7859 27.2441 51.0111 27.5487C 51.2364 27.8533 51.5928 28.033 51.9716 28.033L 51.9716 26.8385ZM 60.0891 26.8385L 60.0891 28.033C 60.6257 28.033 61.0965 27.6751 61.24 27.1581L 60.0891 26.8385ZM 67.5136 0.0968892L 68.6645 0.416441C 68.7644 0.0567941 68.6904 -0.328854 68.4645 -0.625996C 68.2386 -0.923137 67.8868 -1.09761 67.5136 -1.09761L 67.5136 0.0968892ZM 55.1394 8.13875L 55.1394 6.94425C 54.6053 6.94425 54.1361 7.29882 53.9903 7.81263L 55.1394 8.13875ZM 53.6545 13.3708L 53.6545 14.5653C 54.1886 14.5653 54.6578 14.2108 54.8036 13.6969L 53.6545 13.3708ZM 44.1511 13.3708L 44.1511 12.1763C 43.6262 12.1763 43.1629 12.5189 43.009 13.0208L 44.1511 13.3708ZM 43.8541 14.3397L 42.7121 13.9897C 42.601 14.3519 42.6684 14.7453 42.8937 15.0499C 43.1189 15.3545 43.4753 15.5342 43.8541 15.5342L 43.8541 14.3397ZM 54.4464 14.3397L 54.4464 15.5342C 54.9856 15.5342 55.458 15.173 55.5992 14.6526L 54.4464 14.3397ZM 56.1293 8.13875L 57.2821 8.45161C 57.3796 8.09257 57.3041 7.70863 57.0781 7.41311C 56.8521 7.1176 56.5014 6.94425 56.1293 6.94425L 56.1293 8.13875ZM 50.7837 20.6376L 50.7837 19.4431C 50.2496 19.4431 49.7804 19.7976 49.6345 20.3114L 50.7837 20.6376ZM 49.2988 25.8696L 49.2988 27.0641C 49.8329 27.0641 50.3021 26.7096 50.4479 26.1957L 49.2988 25.8696ZM 31.4799 25.8696L 31.4799 24.6751C 30.9551 24.6751 30.4917 25.0177 30.3379 25.5196L 31.4799 25.8696ZM 31.183 26.8385L 30.0409 26.4885C 29.9299 26.8507 29.9973 27.2441 30.2225 27.5487C 30.4477 27.8533 30.8041 28.033 31.183 28.033L 31.183 26.8385ZM 49.9917 26.8385L 49.9917 28.033C 50.5309 28.033 51.0033 27.6718 51.1445 27.1514L 49.9917 26.8385ZM 51.6746 20.6376L 52.8274 20.9504C 52.9249 20.5914 52.8494 20.2074 52.6234 19.9119C 52.3974 19.6164 52.0466 19.4431 51.6746 19.4431L 51.6746 20.6376ZM 30.985 20.6376L 30.985 19.4431C 30.4509 19.4431 29.9817 19.7976 29.8358 20.3114L 30.985 20.6376ZM 29.5001 25.8696L 29.5001 27.0641C 30.0342 27.0641 30.5034 26.7096 30.6492 26.1957L 29.5001 25.8696ZM 0.296982 25.8696L 0.296982 24.6751C -0.227884 24.6751 -0.691256 25.0177 -0.845073 25.5196L 0.296982 25.8696ZM -1.51052e-06 26.8385L -1.14206 26.4885C -1.25308 26.8507 -1.1857 27.2441 -0.960464 27.5487C -0.735228 27.8533 -0.378845 28.033 -1.51052e-06 28.033L -1.51052e-06 26.8385ZM 30.193 26.8385L 30.193 28.033C 30.7322 28.033 31.2046 27.6718 31.3458 27.1514L 30.193 26.8385ZM 31.8759 20.6376L 33.0287 20.9504C 33.1262 20.5914 33.0507 20.2074 32.8247 19.9119C 32.5987 19.6164 32.2479 19.4431 31.8759 19.4431L 31.8759 20.6376ZM 131.562 0.0968892L 132.757 0.0968892C 132.757 -0.501138 132.315 -1.00701 131.722 -1.0869C 131.129 -1.1668 130.569 -0.796101 130.41 -0.219422L 131.562 0.0968892ZM 124.831 24.61L 123.679 24.2937C 123.58 24.6531 123.655 25.0379 123.881 25.3343C 124.107 25.6306 124.458 25.8045 124.831 25.8045L 124.831 24.61ZM 130.473 24.61L 130.473 25.8045C 131.009 25.8045 131.479 25.4482 131.624 24.9326L 130.473 24.61ZM 133.245 14.7273L 132.37 13.9144C 132.241 14.0536 132.146 14.2217 132.095 14.4047L 133.245 14.7273ZM 147.203 4.74761L 148.354 5.06824C 148.482 4.60883 148.324 4.11729 147.953 3.81787C 147.582 3.51844 147.068 3.46852 146.646 3.69088L 147.203 4.74761ZM 146.609 6.87919L 147.188 7.92441C 147.468 7.76938 147.674 7.50832 147.76 7.19982L 146.609 6.87919ZM 134.334 15.9868L 133.476 15.1555C 133.337 15.2988 133.237 15.4748 133.183 15.6672L 134.334 15.9868ZM 131.562 25.9665L 131.562 27.161C 132.099 27.161 132.57 26.8032 132.713 26.2862L 131.562 25.9665ZM 124.534 25.9665L 124.534 24.772C 124.009 24.772 123.546 25.1146 123.392 25.6165L 124.534 25.9665ZM 124.237 26.9354L 123.095 26.5854C 122.984 26.9476 123.051 27.341 123.276 27.6456C 123.502 27.9502 123.858 28.1299 124.237 28.1299L 124.237 26.9354ZM 132.354 26.9354L 132.354 28.1299C 132.892 28.1299 133.364 27.7703 133.506 27.2514L 132.354 26.9354ZM 135.225 16.4713L 134.365 15.6426C 134.226 15.7864 134.126 15.9627 134.073 16.1553L 135.225 16.4713ZM 146.213 8.23565L 147.365 8.55394C 147.494 8.08732 147.328 7.58897 146.946 7.29209C 146.563 6.99522 146.04 6.95853 145.62 7.1992L 146.213 8.23565ZM 141.66 24.7069L 140.508 24.3886C 140.409 24.7482 140.483 25.1335 140.709 25.4303C 140.935 25.7272 141.287 25.9014 141.66 25.9014L 141.66 24.7069ZM 147.302 24.7069L 147.302 25.9014C 147.84 25.9014 148.312 25.5419 148.454 25.0232L 147.302 24.7069ZM 154.034 0.193781L 155.186 0.510093C 155.284 0.150736 155.21 -0.234087 154.984 -0.530441C 154.758 -0.826795 154.407 -1.00072 154.034 -1.00072L 154.034 0.193781ZM 147.797 0.193781L 147.797 -1.00072C 147.641 -1.00072 147.487 -0.970106 147.342 -0.910614L 147.797 0.193781ZM 137.898 6.49163L 136.749 6.16643C 136.606 6.66874 136.807 7.20515 137.244 7.49105C 137.68 7.77696 138.252 7.74612 138.656 7.41489L 137.898 6.49163ZM 139.68 0.193781L 140.829 0.518982C 140.931 0.158837 140.858 -0.228248 140.633 -0.526766C 140.407 -0.825285 140.054 -1.00072 139.68 -1.00072L 139.68 0.193781ZM 138.69 0.193781L 138.69 -1.00072C 138.154 -1.00072 137.683 -0.64339 137.539 -0.126848L 138.69 0.193781ZM 136.611 7.6543L 137.447 8.50797C 137.597 8.36108 137.705 8.17722 137.762 7.97493L 136.611 7.6543ZM 134.73 9.30143L 133.581 8.97659C 133.433 9.49747 133.655 10.0522 134.12 10.3286C 134.586 10.6049 135.179 10.5337 135.566 10.1551L 134.73 9.30143ZM 137.304 0.193781L 138.453 0.518626C 138.555 0.158512 138.482 -0.228482 138.257 -0.526914C 138.031 -0.825345 137.678 -1.00072 137.304 -1.00072L 137.304 0.193781ZM 131.562 0.193781L 130.368 0.193781C 130.368 0.853486 130.903 1.38828 131.562 1.38828L 131.562 0.193781ZM 104.834 24.61L 103.682 24.2937C 103.584 24.6531 103.658 25.0379 103.884 25.3343C 104.11 25.6306 104.461 25.8045 104.834 25.8045L 104.834 24.61ZM 110.477 24.61L 110.477 25.8045C 111.015 25.8045 111.486 25.4451 111.629 24.9265L 110.477 24.61ZM 116.119 4.06938L 116.119 2.87488C 115.582 2.87488 115.11 3.23433 114.968 3.75297L 116.119 4.06938ZM 126.91 4.06938L 126.91 5.26388C 127.448 5.26388 127.919 4.90411 128.062 4.38516L 126.91 4.06938ZM 127.999 0.0968892L 129.151 0.412671C 129.249 0.0533617 129.174 -0.331327 128.948 -0.627552C 128.722 -0.923776 128.371 -1.09761 127.999 -1.09761L 127.999 0.0968892ZM 111.566 0.0968892L 111.566 -1.09761C 111.028 -1.09761 110.556 -0.738105 110.414 -0.219423L 111.566 0.0968892ZM 86.0254 0.0968892L 87.1772 0.413201C 87.2055 0.310146 87.2198 0.203759 87.2198 0.0968892L 86.0254 0.0968892ZM 79.2938 24.61L 78.1419 24.2937C 78.0433 24.6531 78.1179 25.0379 78.3439 25.3343C 78.5698 25.6306 78.9211 25.8045 79.2938 25.8045L 79.2938 24.61ZM 104.141 15.2117L 105.289 15.5421L 105.29 15.5403L 104.141 15.2117ZM 103.547 8.81699L 104.364 7.94576C 103.932 7.54062 103.269 7.51312 102.805 7.88112C 102.341 8.24912 102.217 8.90151 102.513 9.41434L 103.547 8.81699ZM 105.23 16.3744L 106.383 16.6854L 106.385 16.6789L 105.23 16.3744ZM 78.9968 25.8696L 78.9968 24.6751C 78.4719 24.6751 78.0086 25.0177 77.8548 25.5196L 78.9968 25.8696ZM 78.6998 26.8385L 77.5578 26.4885C 77.4468 26.8507 77.5141 27.2441 77.7394 27.5487C 77.9646 27.8533 78.321 28.033 78.6998 28.033L 78.6998 26.8385ZM 106.22 16.5682L 107.37 16.8927L 107.372 16.8844L 106.22 16.5682ZM 97.8056 6.29785L 97.823 5.10348C 97.8172 5.10339 97.8114 5.10335 97.8056 5.10335L 97.8056 6.29785ZM 93.5489 6.68541L 93.3037 5.51634C 92.858 5.60982 92.5042 5.94857 92.3915 6.38979L 93.5489 6.68541ZM 92.5589 10.2703L 91.4016 9.97472C 91.3022 10.3639 91.405 10.7769 91.6752 11.074C 91.9455 11.3712 92.3469 11.5126 92.7437 11.4505L 92.5589 10.2703ZM 98.2016 12.6926L 97.4947 13.6555C 97.9348 13.9786 98.538 13.9621 98.9598 13.6155C 99.3817 13.2689 99.5149 12.6804 99.2833 12.186L 98.2016 12.6926ZM 97.0136 11.9175L 96.5174 13.004C 96.5374 13.0131 96.5577 13.0217 96.5782 13.0298L 97.0136 11.9175ZM 92.064 11.8206L 91.7801 10.6603C 91.3712 10.7603 91.0452 11.0681 90.9219 11.4705L 92.064 11.8206ZM 91.767 12.7895L 90.6249 12.4394C 90.5026 12.8383 90.5974 13.2721 90.8748 13.5838C 91.1523 13.8954 91.5722 14.0397 91.9826 13.9644L 91.767 12.7895ZM 96.6177 12.7895L 96.0649 13.8484C 96.0741 13.8532 96.0833 13.8578 96.0926 13.8624L 96.6177 12.7895ZM 97.9046 16.0837L 96.7579 15.749L 96.7546 15.7606L 97.9046 16.0837ZM 88.4012 20.5407L 87.2494 20.2243C 87.1506 20.5836 87.2253 20.9685 87.4512 21.2649C 87.6772 21.5612 88.0285 21.7352 88.4012 21.7352L 88.4012 20.5407ZM 94.0438 7.39212e-07L 95.1957 0.316415C 95.2944 -0.042951 95.2197 -0.427801 94.9938 -0.724179C 94.7678 -1.02056 94.4165 -1.1945 94.0438 -1.1945L 94.0438 7.39212e-07ZM 93.0539 7.39212e-07L 93.0539 -1.1945C 92.5161 -1.1945 92.0445 -0.835045 91.9021 -0.316414L 93.0539 7.39212e-07ZM 87.4113 20.5407L 87.4113 21.7352C 87.9491 21.7352 88.4206 21.3757 88.5631 20.8571L 87.4113 20.5407ZM 86.0254 20.5407L 84.8735 20.2243C 84.7748 20.5836 84.8495 20.9685 85.0754 21.2649C 85.3014 21.5612 85.6527 21.7352 86.0254 21.7352L 86.0254 20.5407ZM 91.668 7.39212e-07L 92.8198 0.316414C 92.9185 -0.0429517 92.8439 -0.427801 92.6179 -0.72418C 92.392 -1.02056 92.0407 -1.1945 91.668 -1.1945L 91.668 7.39212e-07ZM 86.0254 7.39212e-07L 86.0254 -1.1945C 85.3656 -1.1945 84.8308 -0.659703 84.8308 7.39212e-07L 86.0254 7.39212e-07ZM 76.126 0.0968892L 76.126 -1.09761C 75.5898 -1.09761 75.1193 -0.740284 74.9753 -0.223742L 76.126 0.0968892ZM 74.0471 7.55742L 74.0471 8.75192C 74.5834 8.75192 75.0539 8.39459 75.1978 7.87805L 74.0471 7.55742ZM 66.5236 7.55742L 66.5236 6.36292C 65.9855 6.36292 65.5139 6.72269 65.3716 7.24163L 66.5236 7.55742ZM 65.4347 11.5299L 64.2827 11.2141C 64.1842 11.5734 64.259 11.9581 64.485 12.2543C 64.7109 12.5506 65.0621 12.7244 65.4347 12.7244L 65.4347 11.5299ZM 72.9582 11.5299L 74.1049 11.8646C 74.2102 11.5037 74.1395 11.1142 73.9139 10.8133C 73.6883 10.5125 73.3342 10.3354 72.9582 10.3354L 72.9582 11.5299ZM 72.5622 12.8864L 72.5622 14.0809C 73.093 14.0809 73.5601 13.7306 73.7089 13.2211L 72.5622 12.8864ZM 65.0387 12.8864L 65.0387 11.6919C 64.5139 11.6919 64.0505 12.0345 63.8967 12.5363L 65.0387 12.8864ZM 64.7418 13.8553L 63.5997 13.5052C 63.4887 13.8674 63.5561 14.2608 63.7813 14.5654C 64.0065 14.8701 64.3629 15.0498 64.7418 15.0498L 64.7418 13.8553ZM 72.2653 13.8553L 73.4167 14.1732C 73.5159 13.8137 73.4416 13.4285 73.2157 13.1317C 72.9898 12.835 72.6382 12.6608 72.2653 12.6608L 72.2653 13.8553ZM 69.2955 24.61L 68.1441 24.2921C 68.0448 24.6516 68.1191 25.0368 68.345 25.3336C 68.5709 25.6303 68.9225 25.8045 69.2955 25.8045L 69.2955 24.61ZM 74.9381 24.61L 74.9381 25.8045C 75.476 25.8045 75.9475 25.445 76.0899 24.9264L 74.9381 24.61ZM 81.6696 0.0968892L 82.8215 0.413201C 82.9202 0.0538442 82.8455 -0.330979 82.6196 -0.627333C 82.3936 -0.923687 82.0423 -1.09761 81.6696 -1.09761L 81.6696 0.0968892ZM 59.3961 0.0968892L 59.3961 -1.09761C 58.8582 -1.09761 58.3867 -0.738105 58.2442 -0.219423L 59.3961 0.0968892ZM 52.6645 24.61L 51.5127 24.2937C 51.414 24.6531 51.4887 25.0379 51.7146 25.3343C 51.9406 25.6306 52.2919 25.8045 52.6645 25.8045L 52.6645 24.61ZM 58.3072 24.61L 58.3072 25.8045C 58.8451 25.8045 59.3166 25.445 59.459 24.9264L 58.3072 24.61ZM 65.0387 0.0968892L 66.1906 0.413201C 66.2893 0.0538442 66.2146 -0.330979 65.9886 -0.627333C 65.7627 -0.923687 65.4114 -1.09761 65.0387 -1.09761L 65.0387 0.0968892ZM 53.7535 8.13875L 54.9055 8.45454C 55.004 8.09523 54.9292 7.71054 54.7032 7.41431C 54.4773 7.11809 54.126 6.94425 53.7535 6.94425L 53.7535 8.13875ZM 45.636 8.13875L 45.636 6.94425C 45.0979 6.94425 44.6262 7.30403 44.484 7.82297L 45.636 8.13875ZM 44.5471 12.1112L 43.3951 11.7955C 43.2966 12.1548 43.3714 12.5395 43.5973 12.8357C 43.8233 13.1319 44.1745 13.3057 44.5471 13.3057L 44.5471 12.1112ZM 52.6645 12.1112L 52.6645 13.3057C 53.2026 13.3057 53.6743 12.946 53.8166 12.427L 52.6645 12.1112ZM 54.3474 0.0968892L 55.4974 0.419998C 55.5985 0.0600365 55.5253 -0.326517 55.2995 -0.624525C 55.0737 -0.922533 54.7213 -1.09761 54.3474 -1.09761L 54.3474 0.0968892ZM 38.7065 0.0968892L 38.7065 -1.09761C 38.1686 -1.09761 37.697 -0.738105 37.5546 -0.219422L 38.7065 0.0968892ZM 31.9749 24.61L 30.823 24.2937C 30.7244 24.6531 30.799 25.0379 31.025 25.3343C 31.2509 25.6306 31.6022 25.8045 31.9749 25.8045L 31.9749 24.61ZM 48.3088 24.61L 48.3088 25.8045C 48.8469 25.8045 49.3186 25.4448 49.4608 24.9258L 48.3088 24.61ZM 49.3978 20.6376L 50.5498 20.9533C 50.6483 20.594 50.5735 20.2093 50.3475 19.9131C 50.1216 19.6169 49.7703 19.4431 49.3978 19.4431L 49.3978 20.6376ZM 41.0823 20.6376L 39.9309 20.3196C 39.8316 20.6791 39.906 21.0644 40.1319 21.3611C 40.3578 21.6579 40.7094 21.8321 41.0823 21.8321L 41.0823 20.6376ZM 45.042 6.29785L 45.042 5.10335C 44.5048 5.10335 44.0336 5.46203 43.8906 5.9799L 45.042 6.29785ZM 55.0404 6.29785L 55.0404 7.49235C 55.5796 7.49235 56.052 7.1311 56.1932 6.61071L 55.0404 6.29785ZM 56.7233 0.0968892L 57.8761 0.409749C 57.9735 0.0507054 57.8981 -0.33324 57.6721 -0.628755C 57.4461 -0.92427 57.0953 -1.09761 56.7233 -1.09761L 56.7233 0.0968892ZM 55.6343 0.0968892L 55.6343 -1.09761C 55.1003 -1.09761 54.6311 -0.743049 54.4852 -0.22924L 55.6343 0.0968892ZM 54.1494 5.32895L 54.1494 6.52345C 54.6836 6.52345 55.1527 6.16889 55.2986 5.65508L 54.1494 5.32895ZM 44.1511 5.32895L 44.1511 4.13445C 43.612 4.13445 43.1397 4.49559 42.9984 5.01587L 44.1511 5.32895ZM 39.9934 20.6376L 39.9934 21.8321C 40.5325 21.8321 41.0048 21.4709 41.1461 20.9506L 39.9934 20.6376ZM 38.6075 20.6376L 37.457 20.3164C 37.3565 20.6761 37.4302 21.0622 37.656 21.3598C 37.8819 21.6573 38.2339 21.8321 38.6075 21.8321L 38.6075 20.6376ZM 43.2602 3.97249L 43.2602 2.77799C 42.7242 2.77799 42.2538 3.13502 42.1097 3.65128L 43.2602 3.97249ZM 53.2585 3.97249L 53.2585 5.16699C 53.7938 5.16699 54.2637 4.81091 54.4085 4.2956L 53.2585 3.97249ZM 32.3709 0.0968892L 33.5227 0.413303C 33.6214 0.0539372 33.5468 -0.330912 33.3208 -0.627291C 33.0949 -0.923669 32.7436 -1.09761 32.3709 -1.09761L 32.3709 0.0968892ZM 5.34565 17.4402L 4.15139 17.4163C 4.14496 17.7372 4.26793 18.0471 4.49259 18.2763C 4.71725 18.5055 5.0247 18.6347 5.34565 18.6347L 5.34565 17.4402ZM 11.0873 17.4402L 11.0873 18.6347C 11.7082 18.6347 12.2256 18.1589 12.2776 17.5401L 11.0873 17.4402ZM 25.6393 3.97249L 26.786 4.30721C 26.8913 3.94625 26.8206 3.55675 26.595 3.2559C 26.3694 2.95505 26.0153 2.77799 25.6393 2.77799L 25.6393 3.97249ZM 25.2433 5.32895L 25.2433 6.52345C 25.7741 6.52345 26.2412 6.17319 26.39 5.66367L 25.2433 5.32895ZM 12.1762 18.7966L 12.1762 19.9911C 12.7966 19.9911 13.3138 19.5162 13.3664 18.898L 12.1762 18.7966ZM 5.34565 18.7966L 5.34565 17.6021C 4.68595 17.6021 4.15115 18.1369 4.15115 18.7966L 5.34565 18.7966ZM 5.34565 19.7655L 4.15115 19.7655C 4.15115 20.4253 4.68595 20.96 5.34565 20.96L 5.34565 19.7655ZM 13.0671 19.7655L 13.0671 20.96C 13.6798 20.96 14.1932 20.4965 14.2555 19.887L 13.0671 19.7655ZM 13.1661 18.7966L 14.3545 18.9181L 14.3555 18.9071L 13.1661 18.7966ZM 24.9464 6.29785L 26.0978 6.6158C 26.197 6.25629 26.1227 5.87105 25.8968 5.5743C 25.6709 5.27755 25.3193 5.10335 24.9464 5.10335L 24.9464 6.29785ZM 20.9866 20.6376L 20.9866 21.8321C 21.5239 21.8321 21.995 21.4734 22.138 20.9555L 20.9866 20.6376ZM 1.78188 20.6376L 1.78188 19.4431C 1.2438 19.4431 0.772133 19.8028 0.629882 20.3218L 1.78188 20.6376ZM 0.692958 24.61L -0.459045 24.2943C -0.557538 24.6536 -0.482741 25.0383 -0.256788 25.3345C -0.0308357 25.6307 0.320393 25.8045 0.692958 25.8045L 0.692958 24.61ZM 28.4111 24.61L 28.4111 25.8045C 28.9492 25.8045 29.4209 25.4448 29.5631 24.9258L 28.4111 24.61ZM 29.5001 20.6376L 30.6521 20.9533C 30.7506 20.594 30.6758 20.2093 30.4498 19.9131C 30.2239 19.6169 29.8726 19.4431 29.5001 19.4431L 29.5001 20.6376ZM 29.1041 20.6376L 27.9523 20.3211C 27.8535 20.6805 27.9282 21.0654 28.1541 21.3617C 28.3801 21.6581 28.7314 21.8321 29.1041 21.8321L 29.1041 20.6376ZM 34.7467 0.0968892L 35.8985 0.413303C 35.9973 0.0539368 35.9226 -0.330913 35.6967 -0.627291C 35.4707 -0.923669 35.1194 -1.09761 34.7467 -1.09761L 34.7467 0.0968892ZM 33.7568 0.0968892L 33.7568 -1.09761C 33.2189 -1.09761 32.7474 -0.738156 32.6049 -0.219524L 33.7568 0.0968892ZM 28.1142 20.6376L 28.1142 21.8321C 28.652 21.8321 29.1235 21.4726 29.266 20.954L 28.1142 20.6376ZM 26.7282 20.6376L 25.5764 20.3211C 25.4777 20.6805 25.5524 21.0654 25.7783 21.3617C 26.0042 21.6581 26.3556 21.8321 26.7282 21.8321L 26.7282 20.6376ZM 154.169 -0.220394C 151.794 8.40114 149.418 16.9275 147.042 25.5523L 149.345 26.1869C 151.72 17.5654 154.096 9.03905 156.472 0.414173L 154.169 -0.220394ZM 148.193 24.6751L 141.165 24.6751L 141.165 27.0641L 148.193 27.0641L 148.193 24.6751ZM 140.023 25.5196L 139.726 26.4885L 142.01 27.1886L 142.307 26.2197L 140.023 25.5196ZM 140.868 28.033L 148.985 28.033L 148.985 25.644L 140.868 25.644L 140.868 28.033ZM 150.136 27.1581L 157.561 0.416441L 155.259 -0.222663L 147.834 26.519L 150.136 27.1581ZM 156.41 -1.09761L 155.321 -1.09761L 155.321 1.29139L 156.41 1.29139L 156.41 -1.09761ZM 103.395 25.5196L 103.098 26.4885L 105.382 27.1886L 105.679 26.2197L 103.395 25.5196ZM 104.24 28.033L 112.358 28.033L 112.358 25.644L 104.24 25.644L 104.24 28.033ZM 113.509 27.1549L 119.152 6.61426L 116.848 5.98143L 111.206 26.5221L 113.509 27.1549ZM 118 7.49235L 128.791 7.49235L 128.791 5.10335L 118 5.10335L 118 7.49235ZM 129.943 6.61071L 131.626 0.409749L 129.321 -0.215971L 127.638 5.98499L 129.943 6.61071ZM 130.473 -1.09761L 129.483 -1.09761L 129.483 1.29139L 130.473 1.29139L 130.473 -1.09761ZM 128.334 -0.22924L 126.849 5.00282L 129.148 5.65508L 130.633 0.423018L 128.334 -0.22924ZM 127.999 4.13445L 117.208 4.13445L 117.208 6.52345L 127.999 6.52345L 127.999 4.13445ZM 116.056 5.01253L 110.414 25.5532L 112.718 26.186L 118.36 5.64536L 116.056 5.01253ZM 111.566 24.6751C 109.19 24.6751 106.913 24.6751 104.537 24.6751L 104.537 27.0641C 106.913 27.0641 109.19 27.0641 111.566 27.0641L 111.566 24.6751ZM 82.0033 -0.221503L 74.8757 25.5512L 77.1783 26.188L 84.3058 0.415281L 82.0033 -0.221503ZM 76.027 24.6751C 73.6512 24.6751 71.3743 24.6751 68.9985 24.6751L 68.9985 27.0641C 71.3743 27.0641 73.6512 27.0641 76.027 27.0641L 76.027 24.6751ZM 67.8564 25.5196L 67.5594 26.4885L 69.8435 27.1886L 70.1405 26.2197L 67.8564 25.5196ZM 68.7015 28.033L 76.819 28.033L 76.819 25.644L 68.7015 25.644L 68.7015 28.033ZM 77.9699 27.1581L 85.3944 0.416441L 83.0925 -0.222663L 75.668 26.519L 77.9699 27.1581ZM 84.2435 -1.09761L 83.1545 -1.09761L 83.1545 1.29139L 84.2435 1.29139L 84.2435 -1.09761ZM 65.273 -0.220394C 62.8977 8.40114 60.5218 16.9275 58.1455 25.5523L 60.4487 26.1869C 62.8241 17.5654 65.1999 9.03905 67.5762 0.414173L 65.273 -0.220394ZM 59.2971 24.6751C 56.9213 24.6751 54.6444 24.6751 52.2686 24.6751L 52.2686 27.0641C 54.6444 27.0641 56.9213 27.0641 59.2971 27.0641L 59.2971 24.6751ZM 51.1265 25.5196L 50.8295 26.4885L 53.1137 27.1886L 53.4106 26.2197L 51.1265 25.5196ZM 51.9716 28.033L 60.0891 28.033L 60.0891 25.644L 51.9716 25.644L 51.9716 28.033ZM 61.24 27.1581L 68.6645 0.416441L 66.3626 -0.222663L 58.9381 26.519L 61.24 27.1581ZM 67.5136 -1.09761L 66.4246 -1.09761L 66.4246 1.29139L 67.5136 1.29139L 67.5136 -1.09761ZM 53.9903 7.81263C 53.4953 9.55664 53.0003 11.3007 52.5054 13.0447L 54.8036 13.6969C 55.2986 11.9529 55.7935 10.2089 56.2885 8.46488L 53.9903 7.81263ZM 53.6545 12.1763C 50.4867 12.1763 47.3189 12.1763 44.1511 12.1763L 44.1511 14.5653C 47.3189 14.5653 50.4867 14.5653 53.6545 14.5653L 53.6545 12.1763ZM 43.009 13.0208L 42.7121 13.9897L 44.9962 14.6898L 45.2932 13.7209L 43.009 13.0208ZM 43.8541 15.5342L 54.4464 15.5342L 54.4464 13.1452L 43.8541 13.1452L 43.8541 15.5342ZM 55.5992 14.6526L 57.2821 8.45161L 54.9765 7.82589L 53.2936 14.0269L 55.5992 14.6526ZM 56.1293 6.94425L 55.1394 6.94425L 55.1394 9.33325L 56.1293 9.33325L 56.1293 6.94425ZM 49.6345 20.3114C 49.1396 22.0554 48.6446 23.7995 48.1496 25.5435L 50.4479 26.1957C 50.9428 24.4517 51.4378 22.7077 51.9328 20.9637L 49.6345 20.3114ZM 49.2988 24.6751C 43.3591 24.6751 37.4195 24.6751 31.4799 24.6751L 31.4799 27.0641C 37.4195 27.0641 43.3591 27.0641 49.2988 27.0641L 49.2988 24.6751ZM 30.3379 25.5196L 30.0409 26.4885L 32.325 27.1886L 32.622 26.2197L 30.3379 25.5196ZM 31.183 28.033L 49.9917 28.033L 49.9917 25.644L 31.183 25.644L 31.183 28.033ZM 51.1445 27.1514L 52.8274 20.9504L 50.5218 20.3247L 48.8389 26.5257L 51.1445 27.1514ZM 51.6746 19.4431L 50.7837 19.4431L 50.7837 21.8321L 51.6746 21.8321L 51.6746 19.4431ZM 29.8358 20.3114L 28.3509 25.5435L 30.6492 26.1957L 32.1341 20.9637L 29.8358 20.3114ZM 29.5001 24.6751C 19.7987 24.6751 10.0973 24.6751 0.296982 24.6751L 0.296982 27.0641C 10.0973 27.0641 19.7987 27.0641 29.5001 27.0641L 29.5001 24.6751ZM -0.845073 25.5196L -1.14206 26.4885L 1.14205 27.1886L 1.43904 26.2197L -0.845073 25.5196ZM -1.51052e-06 28.033L 30.193 28.033L 30.193 25.644L -1.51052e-06 25.644L -1.51052e-06 28.033ZM 31.3458 27.1514L 33.0287 20.9504L 30.7231 20.3247L 29.0402 26.5257L 31.3458 27.1514ZM 31.8759 19.4431L 30.985 19.4431L 30.985 21.8321L 31.8759 21.8321L 31.8759 19.4431ZM 130.41 -0.219422L 123.679 24.2937L 125.983 24.9264L 132.714 0.413201L 130.41 -0.219422ZM 124.831 25.8045L 130.473 25.8045L 130.473 23.4155L 124.831 23.4155L 124.831 25.8045ZM 131.624 24.9326L 134.395 15.0498L 132.095 14.4047L 129.323 24.2875L 131.624 24.9326ZM 134.12 15.5402C 137.964 11.3866 142.649 8.4973 147.76 5.80433L 146.646 3.69088C 141.462 6.42375 136.446 9.54161 132.37 13.9144L 134.12 15.5402ZM 146.053 4.42697L 145.459 6.55855L 147.76 7.19982L 148.354 5.06824L 146.053 4.42697ZM 146.031 5.83396C 141.426 8.38338 137.224 11.297 133.476 15.1555L 135.192 16.8182C 138.769 13.1192 142.686 10.4133 147.188 7.92441L 146.031 5.83396ZM 133.183 15.6672L 130.411 25.6468L 132.713 26.2862L 135.485 16.3065L 133.183 15.6672ZM 131.562 24.772L 124.534 24.772L 124.534 27.161L 131.562 27.161L 131.562 24.772ZM 123.392 25.6165L 123.095 26.5854L 125.379 27.2854L 125.676 26.3165L 123.392 25.6165ZM 124.237 28.1299L 132.354 28.1299L 132.354 25.7409L 124.237 25.7409L 124.237 28.1299ZM 133.506 27.2514L 136.377 16.7873L 134.073 16.1553L 131.202 26.6194L 133.506 27.2514ZM 136.085 17.3C 139.264 13.9912 142.791 11.5722 146.807 9.27209L 145.62 7.1992C 141.519 9.54983 137.719 12.1691 134.365 15.6426L 136.085 17.3ZM 145.062 7.91735L 140.508 24.3886L 142.811 25.0252L 147.365 8.55394L 145.062 7.91735ZM 141.66 25.9014L 147.302 25.9014L 147.302 23.5124L 141.66 23.5124L 141.66 25.9014ZM 148.454 25.0232L 155.186 0.510093L 152.882 -0.122531L 146.15 24.3906L 148.454 25.0232ZM 154.034 -1.00072L 147.797 -1.00072L 147.797 1.38828L 154.034 1.38828L 154.034 -1.00072ZM 147.342 -0.910614C 143.453 0.701228 140.237 3.02717 137.14 5.56836L 138.656 7.41489C 141.697 4.91781 144.618 2.78681 148.252 1.29818L 147.342 -0.910614ZM 139.047 6.81683L 140.829 0.518982L 138.53 -0.131419L 136.749 6.16643L 139.047 6.81683ZM 139.68 -1.00072L 138.69 -1.00072L 138.69 1.38828L 139.68 1.38828L 139.68 -1.00072ZM 137.539 -0.126848L 135.46 7.33368L 137.762 7.97493L 139.841 0.514411L 137.539 -0.126848ZM 135.776 6.80064C 135.255 7.31621 134.562 7.80066 133.895 8.44777L 135.566 10.1551C 136.087 9.63953 136.78 9.15508 137.447 8.50797L 135.776 6.80064ZM 135.88 9.62628L 138.453 0.518626L 136.154 -0.131064L 133.581 8.97659L 135.88 9.62628ZM 137.304 -1.00072L 131.562 -1.00072L 131.562 1.38828L 137.304 1.38828L 137.304 -1.00072ZM 132.757 0.193781L 132.757 0.0968892L 130.368 0.0968892L 130.368 0.193781L 132.757 0.193781ZM 104.834 25.8045L 110.477 25.8045L 110.477 23.4155L 104.834 23.4155L 104.834 25.8045ZM 111.629 24.9265L 117.271 4.38579L 114.968 3.75297L 109.325 24.2936L 111.629 24.9265ZM 116.119 5.26388L 126.91 5.26388L 126.91 2.87488L 116.119 2.87488L 116.119 5.26388ZM 128.062 4.38516L 129.151 0.412671L 126.847 -0.218892L 125.758 3.7536L 128.062 4.38516ZM 127.999 -1.09761L 111.566 -1.09761L 111.566 1.29139L 127.999 1.29139L 127.999 -1.09761ZM 110.414 -0.219423L 103.682 24.2937L 105.986 24.9264L 112.718 0.413201L 110.414 -0.219423ZM 84.8735 -0.219423L 78.1419 24.2937L 80.4456 24.9264L 87.1772 0.413201L 84.8735 -0.219423ZM 79.2938 25.8045L 90.0841 25.8045L 90.0841 23.4155L 79.2938 23.4155L 79.2938 25.8045ZM 90.0841 25.8045C 93.7268 25.8045 96.9931 25.1539 99.6381 23.5041C 102.312 21.8361 104.23 19.2223 105.289 15.5421L 102.993 14.8814C 102.073 18.0803 100.476 20.1657 98.3737 21.4771C 96.2422 22.8066 93.4699 23.4155 90.0841 23.4155L 90.0841 25.8045ZM 105.29 15.5403C 105.653 14.2633 105.854 13.0139 105.778 11.8547C 105.685 10.6951 105.282 9.44579 104.582 8.21963L 102.513 9.41434C 103.099 10.4166 103.34 11.1535 103.395 12.0286C 103.468 12.9041 103.322 13.7379 102.993 14.8832L 105.29 15.5403ZM 102.73 9.68821C 103.79 10.6613 104.227 11.4659 104.401 12.517C 104.605 13.5697 104.454 14.6428 104.075 16.0699L 106.385 16.6789C 106.798 15.1024 106.993 13.5111 106.752 12.0931C 106.481 10.6735 105.681 9.20112 104.364 7.94576L 102.73 9.68821ZM 104.077 16.0634C 103.206 19.2948 101.591 21.3992 99.4536 22.7225C 97.2841 24.0658 94.4609 24.6751 91.074 24.6751L 91.074 27.0641C 94.7157 27.0641 98.0301 26.4138 100.711 24.7536C 103.425 23.0733 105.374 20.4301 106.383 16.6854L 104.077 16.0634ZM 91.074 24.6751C 87.0153 24.6751 83.0555 24.6751 78.9968 24.6751L 78.9968 27.0641C 83.0555 27.0641 87.0153 27.0641 91.074 27.0641L 91.074 24.6751ZM 77.8548 25.5196L 77.5578 26.4885L 79.8419 27.1886L 80.1389 26.2197L 77.8548 25.5196ZM 78.6998 28.033L 91.074 28.033L 91.074 25.644L 78.6998 25.644L 78.6998 28.033ZM 91.074 28.033C 94.9782 28.033 98.4916 27.2802 101.33 25.4722C 104.194 23.6483 106.261 20.8205 107.37 16.8927L 105.07 16.2436C 104.1 19.6795 102.356 21.9868 100.047 23.4572C 97.7135 24.9435 94.6934 25.644 91.074 25.644L 91.074 28.033ZM 107.372 16.8844C 108.331 13.3917 107.911 10.3954 106.075 8.2569C 104.269 6.15414 101.325 5.15463 97.823 5.10348L 97.7881 7.49222C 100.919 7.53796 103.073 8.4278 104.262 9.81308C 105.42 11.1626 105.891 13.253 105.068 16.252L 107.372 16.8844ZM 97.8056 5.10335C 96.3808 5.10398 94.7729 5.21126 93.3037 5.51634L 93.7941 7.85447C 95.0967 7.57821 96.4586 7.49171 97.8056 7.49235L 97.8056 5.10335ZM 92.3915 6.38979C 92.103 7.52104 91.7071 8.78061 91.4016 9.97472L 93.7163 10.566C 94.0048 9.4347 94.4007 8.17513 94.7062 6.98102L 92.3915 6.38979ZM 92.7437 11.4505C 93.8736 11.2735 94.7814 11.3194 95.4791 11.582C 96.1337 11.8284 96.6986 12.2997 97.1198 13.1992L 99.2833 12.186C 98.6156 10.7601 97.5966 9.82646 96.3208 9.3462C 95.0882 8.88218 93.7191 8.87959 92.3741 9.09022L 92.7437 11.4505ZM 98.9084 11.7297C 98.5787 11.4914 98.1571 11.1081 97.4491 10.8052L 96.5782 13.0298C 96.8601 13.1144 97.0325 13.3125 97.4947 13.6555L 98.9084 11.7297ZM 97.5099 10.8309C 95.6406 9.97714 93.42 10.259 91.7801 10.6603L 92.3479 12.9808C 93.8757 12.607 95.4168 12.5013 96.5174 13.004L 97.5099 10.8309ZM 90.9219 11.4705L 90.6249 12.4394L 92.909 13.1395L 93.206 12.1706L 90.9219 11.4705ZM 91.9826 13.9644C 92.8008 13.8139 93.5784 13.6315 94.3165 13.5811C 95.049 13.5237 95.5395 13.5483 96.0649 13.8484L 97.1704 11.7306C 96.211 11.2556 95.068 11.1348 94.1424 11.1985C 93.2223 11.2692 92.317 11.4744 91.5514 11.6146L 91.9826 13.9644ZM 96.0926 13.8624C 96.5345 14.0786 96.7177 14.3348 96.8011 14.5747C 96.8947 14.8437 96.9087 15.2324 96.7579 15.749L 99.0512 16.4185C 99.2964 15.5786 99.3599 14.6593 99.0575 13.7899C 98.745 12.8913 98.0867 12.1785 97.1427 11.7166L 96.0926 13.8624ZM 96.7546 15.7606C 96.3123 17.3348 95.4343 18.1745 94.2885 18.6687C 93.0646 19.1966 91.4901 19.3462 89.6881 19.3462L 89.6881 21.7352C 91.5489 21.7352 93.5382 21.5941 95.2346 20.8624C 97.0091 20.097 98.4079 18.7083 99.0545 16.4068L 96.7546 15.7606ZM 89.6881 19.3462L 88.4012 19.3462L 88.4012 21.7352L 89.6881 21.7352L 89.6881 19.3462ZM 89.553 20.8571L 95.1957 0.316415L 92.892 -0.316414L 87.2494 20.2243L 89.553 20.8571ZM 94.0438 -1.1945L 93.0539 -1.1945L 93.0539 1.1945L 94.0438 1.1945L 94.0438 -1.1945ZM 91.9021 -0.316414L 86.2594 20.2243L 88.5631 20.8571L 94.2057 0.316415L 91.9021 -0.316414ZM 87.4113 19.3462L 86.0254 19.3462L 86.0254 21.7352L 87.4113 21.7352L 87.4113 19.3462ZM 87.1772 20.8571L 92.8198 0.316414L 90.5162 -0.316413L 84.8735 20.2243L 87.1772 20.8571ZM 91.668 -1.1945L 86.0254 -1.1945L 86.0254 1.1945L 91.668 1.1945L 91.668 -1.1945ZM 84.8308 7.39212e-07L 84.8308 0.0968892L 87.2198 0.0968892L 87.2198 7.39212e-07L 84.8308 7.39212e-07ZM 74.9753 -0.223742L 72.8965 7.23678L 75.1978 7.87805L 77.2767 0.417521L 74.9753 -0.223742ZM 74.0471 6.36292L 66.5236 6.36292L 66.5236 8.75192L 74.0471 8.75192L 74.0471 6.36292ZM 65.3716 7.24163L 64.2827 11.2141L 66.5867 11.8457L 67.6756 7.8732L 65.3716 7.24163ZM 65.4347 12.7244L 72.9582 12.7244L 72.9582 10.3354L 65.4347 10.3354L 65.4347 12.7244ZM 71.8116 11.1952L 71.4156 12.5516L 73.7089 13.2211L 74.1049 11.8646L 71.8116 11.1952ZM 72.5622 11.6919L 65.0387 11.6919L 65.0387 14.0809L 72.5622 14.0809L 72.5622 11.6919ZM 63.8967 12.5363L 63.5997 13.5052L 65.8838 14.2053L 66.1808 13.2364L 63.8967 12.5363ZM 64.7418 15.0498L 72.2653 15.0498L 72.2653 12.6608L 64.7418 12.6608L 64.7418 15.0498ZM 71.1139 13.5373L 68.1441 24.2921L 70.4469 24.928L 73.4167 14.1732L 71.1139 13.5373ZM 69.2955 25.8045L 74.9381 25.8045L 74.9381 23.4155L 69.2955 23.4155L 69.2955 25.8045ZM 76.0899 24.9264L 82.8215 0.413201L 80.5178 -0.219423L 73.7862 24.2937L 76.0899 24.9264ZM 81.6696 -1.09761L 76.126 -1.09761L 76.126 1.29139L 81.6696 1.29139L 81.6696 -1.09761ZM 58.2442 -0.219423L 51.5127 24.2937L 53.8164 24.9264L 60.548 0.413201L 58.2442 -0.219423ZM 52.6645 25.8045L 58.3072 25.8045L 58.3072 23.4155L 52.6645 23.4155L 52.6645 25.8045ZM 59.459 24.9264L 66.1906 0.413201L 63.8869 -0.219423L 57.1553 24.2937L 59.459 24.9264ZM 65.0387 -1.09761L 59.3961 -1.09761L 59.3961 1.29139L 65.0387 1.29139L 65.0387 -1.09761ZM 53.7535 6.94425L 45.636 6.94425L 45.636 9.33325L 53.7535 9.33325L 53.7535 6.94425ZM 44.484 7.82297L 43.3951 11.7955L 45.6991 12.427L 46.788 8.45454L 44.484 7.82297ZM 44.5471 13.3057L 52.6645 13.3057L 52.6645 10.9167L 44.5471 10.9167L 44.5471 13.3057ZM 53.8166 12.427L 54.9055 8.45454L 52.6015 7.82297L 51.5125 11.7955L 53.8166 12.427ZM 54.3474 -1.09761L 38.7065 -1.09761L 38.7065 1.29139L 54.3474 1.29139L 54.3474 -1.09761ZM 37.5546 -0.219422L 30.823 24.2937L 33.1268 24.9264L 39.8583 0.413201L 37.5546 -0.219422ZM 31.9749 25.8045L 48.3088 25.8045L 48.3088 23.4155L 31.9749 23.4155L 31.9749 25.8045ZM 49.4608 24.9258L 50.5498 20.9533L 48.2458 20.3218L 47.1568 24.2943L 49.4608 24.9258ZM 49.3978 19.4431L 41.0823 19.4431L 41.0823 21.8321L 49.3978 21.8321L 49.3978 19.4431ZM 42.2337 20.9555L 46.1935 6.6158L 43.8906 5.9799L 39.9309 20.3196L 42.2337 20.9555ZM 45.042 7.49235L 55.0404 7.49235L 55.0404 5.10335L 45.042 5.10335L 45.042 7.49235ZM 56.1932 6.61071L 57.8761 0.409749L 55.5705 -0.215971L 53.8876 5.98499L 56.1932 6.61071ZM 56.7233 -1.09761L 55.6343 -1.09761L 55.6343 1.29139L 56.7233 1.29139L 56.7233 -1.09761ZM 54.4852 -0.22924L 53.0003 5.00282L 55.2986 5.65508L 56.7835 0.423018L 54.4852 -0.22924ZM 54.1494 4.13445L 44.1511 4.13445L 44.1511 6.52345L 54.1494 6.52345L 54.1494 4.13445ZM 42.9984 5.01587L 38.8406 20.3245L 41.1461 20.9506L 45.3038 5.64203L 42.9984 5.01587ZM 39.9934 19.4431L 38.6075 19.4431L 38.6075 21.8321L 39.9934 21.8321L 39.9934 19.4431ZM 39.758 20.9588L 44.4107 4.29369L 42.1097 3.65128L 37.457 20.3164L 39.758 20.9588ZM 43.2602 5.16699L 53.2585 5.16699L 53.2585 2.77799L 43.2602 2.77799L 43.2602 5.16699ZM 54.4085 4.2956L 55.4974 0.419998L 53.1975 -0.22622L 52.1085 3.64938L 54.4085 4.2956ZM 32.3709 -1.09761L 22.4715 -1.09761L 22.4715 1.29139L 32.3709 1.29139L 32.3709 -1.09761ZM 22.4715 -1.09761C 16.8792 -1.09761 12.3224 0.880238 9.14292 4.24167C 5.974 7.59191 4.25532 12.2282 4.15139 17.4163L 6.53991 17.4641C 6.63396 12.7694 8.18207 8.73405 10.8785 5.88333C 13.5644 3.0438 17.4715 1.29139 22.4715 1.29139L 22.4715 -1.09761ZM 5.34565 18.6347L 11.0873 18.6347L 11.0873 16.2457L 5.34565 16.2457L 5.34565 18.6347ZM 12.2776 17.5401C 12.5686 14.0747 13.3116 10.9653 14.8836 8.74402C 16.3976 6.60483 18.7658 5.16699 22.6695 5.16699L 22.6695 2.77799C 18.0598 2.77799 14.9339 4.53751 12.9336 7.36393C 10.9913 10.1083 10.1999 13.7327 9.89696 17.3402L 12.2776 17.5401ZM 22.6695 5.16699L 25.6393 5.16699L 25.6393 2.77799L 22.6695 2.77799L 22.6695 5.16699ZM 24.4927 3.63776L 24.0967 4.99422L 26.39 5.66367L 26.786 4.30721L 24.4927 3.63776ZM 25.2433 4.13445L 23.5605 4.13445L 23.5605 6.52345L 25.2433 6.52345L 25.2433 4.13445ZM 23.5605 4.13445C 18.9413 4.13445 15.8605 5.92649 13.9128 8.7721C 12.0266 11.5279 11.2879 15.1493 10.986 18.6953L 13.3664 18.898C 13.6584 15.4679 14.3551 12.3555 15.8842 10.1214C 17.3519 7.97721 19.6662 6.52345 23.5605 6.52345L 23.5605 4.13445ZM 12.1762 17.6021L 5.34565 17.6021L 5.34565 19.9911L 12.1762 19.9911L 12.1762 17.6021ZM 4.15115 18.7966C 4.15115 19.0873 4.15115 19.4749 4.15115 19.7655L 6.54015 19.7655C 6.54015 19.4749 6.54015 19.0873 6.54015 18.7966L 4.15115 18.7966ZM 5.34565 20.96L 13.0671 20.96L 13.0671 18.571L 5.34565 18.571L 5.34565 20.96ZM 14.2555 19.887L 14.3545 18.9181L 11.9778 18.6752L 11.8788 19.6441L 14.2555 19.887ZM 14.3555 18.9071C 14.6482 15.7556 15.2718 12.8796 16.6479 10.8108C 17.9604 8.83769 20.0262 7.49235 23.5605 7.49235L 23.5605 5.10335C 19.2742 5.10335 16.4399 6.81004 14.6588 9.48766C 12.9413 12.0696 12.278 15.443 11.9768 18.6862L 14.3555 18.9071ZM 23.5605 7.49235L 24.9464 7.49235L 24.9464 5.10335L 23.5605 5.10335L 23.5605 7.49235ZM 23.795 5.9799L 19.8352 20.3196L 22.138 20.9555L 26.0978 6.6158L 23.795 5.9799ZM 20.9866 19.4431L 1.78188 19.4431L 1.78188 21.8321L 20.9866 21.8321L 20.9866 19.4431ZM 0.629882 20.3218L -0.459045 24.2943L 1.84496 24.9258L 2.93389 20.9533L 0.629882 20.3218ZM 0.692958 25.8045L 28.4111 25.8045L 28.4111 23.4155L 0.692958 23.4155L 0.692958 25.8045ZM 29.5631 24.9258L 30.6521 20.9533L 28.3481 20.3218L 27.2591 24.2943L 29.5631 24.9258ZM 29.5001 19.4431L 29.1041 19.4431L 29.1041 21.8321L 29.5001 21.8321L 29.5001 19.4431ZM 30.2559 20.954L 35.8985 0.413303L 33.5949 -0.219524L 27.9523 20.3211L 30.2559 20.954ZM 34.7467 -1.09761L 33.7568 -1.09761L 33.7568 1.29139L 34.7467 1.29139L 34.7467 -1.09761ZM 32.6049 -0.219524L 26.9623 20.3211L 29.266 20.954L 34.9086 0.413303L 32.6049 -0.219524ZM 28.1142 19.4431L 26.7282 19.4431L 26.7282 21.8321L 28.1142 21.8321L 28.1142 19.4431ZM 27.8801 20.954L 33.5227 0.413303L 31.219 -0.219525L 25.5764 20.3211L 27.8801 20.954Z"/>
<path id="path5_fill" fill-rule="evenodd" d="M 155.42 0.193779C 153.044 8.81699 150.668 17.3433 148.292 25.9665L 147.5 25.9665L 147.5 26.9354L 149.084 26.9354L 156.509 0.193779L 155.42 0.193779ZM 147.5 23.738L 147.5 0.290671C 147.599 0.290671 147.698 0.193779 147.797 0.193779L 154.034 0.193779L 147.5 23.738ZM 147.5 25.9665L 141.264 25.9665L 140.967 26.9354L 147.5 26.9354L 147.5 25.9665ZM 147.5 0.290671L 147.5 23.738L 147.203 24.61L 141.561 24.61L 146.114 8.13876C 142.056 10.4641 138.393 13.0801 135.126 16.3744L 132.255 26.8385L 127.405 26.8385L 127.405 25.8696L 131.463 25.8696L 134.235 15.89C 137.898 12.1112 141.858 9.39832 146.51 6.7823L 147.104 4.65072C 141.957 7.36364 137.205 10.4641 133.146 14.6304L 130.374 24.5132L 127.306 24.5132L 127.306 15.1148L 131.463 -1.47842e-06L 137.106 -1.47842e-06L 134.532 9.10766C 135.126 8.52632 135.72 8.04187 136.413 7.46053L 138.492 -1.47842e-06L 139.482 -1.47842e-06L 137.7 6.29785C 140.967 4.06938 143.937 1.84091 147.5 0.290671ZM 127.504 6.39474L 128.989 6.39474L 130.671 0.193779L 129.682 0.193779L 128.197 5.42584L 127.504 5.42584L 127.504 6.39474ZM 127.504 3.00359L 128.296 0.193779L 127.504 0.193779L 127.504 3.00359ZM 127.504 0.193779L 127.504 3.00359L 127.207 4.06938L 116.317 4.06938L 110.675 24.61L 105.428 24.61L 105.428 22.866L 111.665 0.193779L 127.504 0.193779ZM 127.504 5.42584L 117.307 5.42584L 111.665 25.9665L 105.428 25.9665L 105.428 26.9354L 112.358 26.9354L 118 6.39474L 127.306 6.39474L 127.306 5.42584L 127.504 5.42584ZM 127.504 15.3086L 124.93 24.7069L 127.504 24.7069L 127.504 15.3086ZM 127.504 25.9665L 127.504 26.9354L 124.237 26.9354L 124.534 25.9665L 127.504 25.9665ZM 105.428 18.6998C 105.725 18.1184 105.923 17.4402 106.121 16.762C 106.913 13.8553 106.616 11.433 105.428 9.68899L 105.428 12.1112C 105.626 13.0801 105.626 14.049 105.428 15.1148L 105.428 18.6998ZM 105.428 9.68899L 105.428 12.1112C 105.131 10.9486 104.537 9.88277 103.448 8.91387C 104.735 11.1423 104.735 12.8864 104.042 15.3086C 102.161 22.1878 97.0136 24.7069 89.9851 24.7069L 81.3727 24.7069L 81.3727 16.762L 85.9264 0.193779L 91.569 0.193779L 85.9264 20.7344L 87.3123 20.7344L 92.9549 0.193779L 93.9448 0.193779L 88.3022 20.7344L 89.5891 20.7344C 93.1529 20.7344 96.7167 20.1531 97.8056 16.2775C 98.2016 14.9211 97.8056 13.6615 96.5187 12.9833C 95.0338 12.305 93.2519 12.6926 91.668 12.9833L 91.965 12.0144C 93.4499 11.6268 95.4297 11.433 96.9146 12.1112C 97.4096 12.305 97.7066 12.5957 98.1026 12.8864C 97.0136 10.561 94.9348 10.0766 92.4599 10.4641C 92.7569 9.30144 93.1529 8.04187 93.4499 6.87919C 94.8358 6.58852 96.3207 6.49163 97.7066 6.49163C 101.369 6.49163 104.042 7.55741 105.428 9.68899ZM 105.428 15.1148C 105.329 15.5024 105.23 15.9868 105.131 16.3744C 103.25 23.3505 98.0036 25.8696 90.975 25.8696L 81.4717 25.8696L 81.4717 26.8385L 90.975 26.8385C 97.8056 26.8385 103.052 24.5132 105.428 18.506L 105.428 15.1148ZM 105.428 22.866L 104.933 24.61L 105.428 24.61L 105.428 22.866ZM 105.428 25.9665L 105.428 26.9354L 104.339 26.9354L 104.636 25.9665L 105.428 25.9665ZM 81.4717 10.3672L 84.3425 0.193779L 83.3525 0.193779L 81.5706 6.68541L 81.5706 10.3672L 81.4717 10.3672ZM 81.4717 1.55024L 81.8676 0.193779L 81.4717 0.193779L 81.4717 1.55024ZM 81.4717 0.193779L 81.4717 1.55024L 75.0371 24.61L 69.3945 24.61L 72.3643 13.8553L 66.1277 13.8553L 66.1277 12.8864L 72.5622 12.8864L 72.9582 11.5299L 66.1277 11.5299L 66.1277 9.01077L 66.5236 7.55742L 74.0471 7.55742L 76.126 0.0968907L 81.4717 0.0968907L 81.4717 0.193779ZM 81.4717 6.68541L 76.126 26.0634C 73.7502 26.0634 71.4733 26.0634 69.0975 26.0634L 68.8005 27.0323L 76.918 27.0323L 81.4717 10.4641L 81.4717 6.68541ZM 81.4717 16.762L 79.2938 24.7069L 81.4717 24.7069L 81.4717 16.762ZM 81.4717 25.9665L 81.4717 26.9354L 78.6998 26.9354L 78.9968 25.9665L 81.4717 25.9665ZM 66.2267 5.03828L 67.5136 0.193779L 66.5236 0.193779L 66.2267 1.25957L 66.2267 5.03828ZM 66.2267 1.25957L 66.2267 5.03828L 65.0387 9.49522L 65.0387 5.71651L 66.2267 1.25957ZM 66.2267 9.10766L 65.5337 11.6268L 66.2267 11.6268L 66.2267 9.10766ZM 66.2267 12.8864L 66.2267 13.8553L 65.0387 13.8553L 65.0387 13.4677L 65.2367 12.8864L 66.2267 12.8864ZM 65.0387 0.58134L 65.0387 0.193779L 65.1377 0.193779L 65.0387 0.58134ZM 65.0387 0.193779L 65.0387 0.58134L 58.4062 24.7069L 54.2484 24.7069L 54.2484 19.378L 59.5941 0.193779L 65.0387 0.193779ZM 65.0387 5.61962C 63.1579 12.4019 61.277 19.1842 59.3961 25.9665L 54.1494 25.9665L 54.1494 26.9354L 60.0891 26.9354L 64.9398 9.39832L 64.9398 5.61962L 65.0387 5.61962ZM 65.0387 13.4677L 64.9398 13.8553L 65.0387 13.8553L 65.0387 13.4677ZM 54.1494 14.5335L 54.5454 14.5335L 56.2283 8.33254L 55.2384 8.33254C 54.8424 9.59211 54.5454 10.8517 54.1494 12.2081L 54.1494 14.5335ZM 54.1494 6.39474L 55.1394 6.39474L 56.8223 0.193779L 55.7333 0.193779L 54.2484 5.42584L 54.0505 5.42584L 54.0505 6.39474L 54.1494 6.39474ZM 54.1494 1.06579L 54.4464 0.193779L 54.1494 0.193779L 54.1494 1.06579ZM 54.1494 0.193779L 54.1494 1.06579L 53.3575 4.06938L 52.9615 4.06938L 52.9615 0.0968907L 54.1494 0.0968907L 54.1494 0.193779ZM 54.1494 5.42584L 54.1494 6.39474L 52.9615 6.39474L 52.9615 5.42584L 54.1494 5.42584ZM 54.1494 12.1112L 54.1494 14.4366L 52.9615 14.4366L 52.9615 13.4677L 53.7535 13.4677L 54.1494 12.1112ZM 54.1494 19.378L 54.1494 24.7069L 52.9615 24.7069L 52.9615 23.8349L 54.1494 19.378ZM 54.1494 25.9665L 54.1494 26.9354L 52.9615 26.9354L 52.9615 25.9665L 54.1494 25.9665ZM 52.9615 11.433L 52.9615 8.23564L 53.8525 8.23564L 52.9615 11.433ZM 52.9615 0.193779L 52.9615 4.16627L 43.3592 4.16627L 41.9732 9.20454L 41.9732 0.290671L 52.9615 0.290671L 52.9615 0.193779ZM 52.9615 5.42584L 44.3491 5.42584L 41.9732 14.1459L 41.9732 17.9246L 45.141 6.39474L 52.9615 6.39474L 52.9615 5.42584ZM 52.9615 8.23564L 45.735 8.23564L 44.6461 12.2081L 52.7635 12.2081L 52.9615 11.433L 52.9615 8.23564ZM 52.9615 13.5646L 52.9615 14.5335L 44.0521 14.5335L 44.3491 13.5646L 52.9615 13.5646ZM 52.9615 23.738L 52.9615 24.61L 52.6645 24.61L 52.9615 23.738ZM 52.9615 25.9665L 52.9615 26.9354L 52.0706 26.9354L 52.3676 25.9665L 52.9615 25.9665ZM 41.9732 26.9354L 41.9732 25.9665L 49.3978 25.9665C 49.8927 24.2225 50.3877 22.4785 50.8827 20.7344L 51.8726 20.7344L 50.1897 26.9354L 41.9732 26.9354ZM 41.9732 24.7069L 48.4078 24.7069L 49.4968 20.7344L 41.9732 20.7344L 41.9732 24.7069ZM 41.9732 0.193779L 41.9732 9.10766L 38.7065 20.7344L 40.0924 20.7344L 41.8743 14.1459L 41.8743 17.9246L 41.0823 20.7344L 41.8743 20.7344L 41.8743 24.7069L 31.9749 24.7069L 31.9749 24.61L 38.7065 0.290671L 41.9732 0.290671L 41.9732 0.193779ZM 41.9732 25.9665L 41.9732 26.9354L 32.0739 26.9354L 32.0739 25.9665L 41.9732 25.9665ZM 32.0739 20.9282L 32.0739 20.8313L 32.0739 20.9282ZM 32.0739 10.6579L 34.9447 0.193779L 33.9548 0.193779L 32.0739 6.87919L 32.0739 10.6579ZM 32.0739 1.84091L 32.4699 0.193779L 32.0739 0.193779L 32.0739 1.84091ZM 32.0739 0.193779L 32.0739 1.84091L 31.7769 3.00359L 31.7769 0.290671L 32.0739 0.290671L 32.0739 0.193779ZM 32.0739 6.87919L 32.0739 10.6579L 31.7769 11.8206L 31.7769 8.04187L 32.0739 6.87919ZM 32.0739 20.7344L 32.0739 20.8313L 31.7769 21.994L 31.7769 20.7344L 32.0739 20.7344ZM 32.0739 24.5132L 32.0739 24.61L 32.0739 24.5132ZM 32.0739 25.9665L 32.0739 26.9354L 31.7769 26.9354L 31.7769 25.9665L 32.0739 25.9665ZM 31.6779 0.193779L 31.6779 2.9067L 26.7282 20.7344L 28.1142 20.7344L 31.6779 8.04187L 31.6779 11.8206L 29.2031 20.8313L 29.5991 20.8313L 28.5101 24.8038L 0.791951 24.8038L 1.88088 20.8313L 21.1846 20.8313L 25.1444 6.49163L 23.7584 6.49163C 15.938 6.49163 13.9581 12.5957 13.3641 18.9904L 13.2651 19.9593L 5.54363 19.9593C 5.54363 19.6687 5.54363 19.2811 5.54363 18.9904L 12.3742 18.9904C 12.9682 12.0144 15.344 5.52273 23.7584 5.52273L 25.4413 5.52273L 25.8373 4.16627L 22.8675 4.16627C 14.3541 4.16627 11.8792 10.561 11.2853 17.634L 5.44464 17.634C 5.64263 7.7512 11.8792 0.290671 22.5705 0.290671L 31.6779 0.290671L 31.6779 0.193779ZM 31.6779 20.7344L 30.985 20.7344L 29.5001 25.9665C 19.7987 25.9665 10.0973 25.9665 0.296984 25.9665L 0 26.9354L 30.193 26.9354L 31.5789 21.994L 31.5789 20.7344L 31.6779 20.7344ZM 31.6779 25.9665L 31.6779 26.9354L 31.2819 26.9354L 31.6779 25.9665Z"/>
<path id="path6_fill" fill-rule="evenodd" d="M 116.911 8.81699L 116.911 8.33254C 117.01 8.23565 117.208 8.13875 117.307 8.04186C 117.703 7.75119 118.099 7.36364 118.396 6.87919C 118.693 6.39474 118.891 6.00717 118.99 5.61961C 119.089 5.32894 119.188 4.94138 119.188 4.65071C 119.188 4.36004 119.188 4.06938 119.188 3.77871C 119.089 3.48804 118.99 3.29426 118.792 3.10048C 118.594 2.9067 118.297 2.80981 118 2.80981C 117.604 2.80981 117.307 2.9067 116.911 3.00359L 116.911 2.51914C 117.307 2.42225 117.703 2.32536 118.099 2.32536C 118.693 2.32536 119.188 2.42225 119.584 2.71292C 119.98 3.00359 120.178 3.29426 120.277 3.77871C 120.376 4.26316 120.277 4.8445 120.079 5.42584C 119.98 5.8134 119.782 6.20095 119.485 6.58851C 119.188 6.97607 118.891 7.36364 118.495 7.65431C 118.099 7.94498 117.703 8.23565 117.208 8.33254C 117.109 8.7201 117.01 8.81699 116.911 8.81699ZM 116.911 2.80981L 116.911 3.29426C 116.812 3.39115 116.614 3.39115 116.515 3.48804C 116.119 3.77871 115.723 4.16627 115.426 4.55383C 115.129 5.03828 114.931 5.42584 114.733 5.91029C 114.535 6.39474 114.535 6.7823 114.535 7.16986C 114.535 7.55742 114.634 7.84809 114.931 8.13876C 115.129 8.42943 115.525 8.52631 116.02 8.52631C 116.317 8.52631 116.614 8.42943 116.911 8.33254L 116.911 8.81699C 116.515 8.91388 116.119 9.01076 115.723 9.01076C 115.129 9.01076 114.634 8.91388 114.239 8.62321C 113.843 8.33254 113.546 7.94497 113.447 7.46053C 113.348 6.97608 113.348 6.39474 113.645 5.71651C 113.843 5.23206 114.041 4.8445 114.338 4.45694C 114.634 4.06938 114.931 3.77871 115.426 3.48804C 115.822 3.19737 116.218 3.00359 116.713 2.80981C 116.812 2.80981 116.812 2.80981 116.911 2.80981ZM 109.388 8.81699L 109.388 8.33254C 109.586 8.33254 109.784 8.23565 109.883 8.23565C 110.18 8.13876 110.378 8.04187 110.576 7.84809C 110.774 7.65431 110.873 7.46053 110.972 7.16986C 111.071 6.87919 111.071 6.58852 111.071 6.39474C 110.972 6.20096 110.873 6.10407 110.675 6.00718C 110.477 5.91029 110.18 5.91029 109.883 5.91029L 109.388 5.91029L 109.388 5.42584L 109.982 5.42584C 110.873 5.42584 111.368 5.03828 111.665 4.36005C 111.764 3.97249 111.764 3.77871 111.566 3.58493C 111.368 3.39115 111.17 3.29426 110.774 3.29426L 109.487 3.29426L 109.487 2.80981L 111.17 2.80981C 111.566 2.80981 111.962 2.9067 112.259 3.00359C 112.556 3.10048 112.754 3.29426 112.853 3.48804C 112.952 3.68182 112.952 3.97249 112.853 4.36005C 112.754 4.74761 112.556 5.03828 112.16 5.23206C 111.863 5.42584 111.467 5.61961 110.972 5.61961C 111.467 5.7165 111.863 5.91028 112.16 6.10406C 112.358 6.29784 112.457 6.68541 112.259 7.26675C 112.16 7.65431 111.962 7.94498 111.665 8.13876C 111.368 8.42943 111.071 8.62321 110.576 8.7201C 110.378 8.81699 110.18 8.81699 109.982 8.91388C 109.784 8.81699 109.586 8.81699 109.388 8.81699ZM 109.388 2.71292L 109.388 3.19737L 108.695 5.32895L 109.388 5.32895L 109.388 5.8134L 108.497 5.8134L 107.705 8.33254L 109.091 8.33254C 109.19 8.33254 109.289 8.33254 109.388 8.33254L 109.388 8.81699L 109.289 8.81699L 106.913 8.81699L 106.814 8.81699L 106.814 7.65431L 108.497 2.71292L 109.388 2.71292ZM 106.814 3.39115C 106.913 3.39115 106.913 3.39115 107.012 3.39115L 107.111 3.00359L 107.21 2.61603L 106.814 2.61603L 106.814 3.39115ZM 106.814 2.71292L 106.814 3.39115C 106.319 3.29426 105.626 3.29426 104.735 3.29426L 102.854 8.81699L 102.656 8.81699C 102.557 8.81699 102.557 8.81699 102.557 8.81699L 102.359 8.81699L 102.161 8.81699L 101.963 8.81699L 101.765 8.81699L 103.646 3.29426C 102.656 3.29426 101.864 3.29426 101.27 3.39115L 101.468 3.00359L 101.567 2.61603L 106.814 2.61603L 106.814 2.71292ZM 106.814 7.65431L 106.418 8.81699L 106.814 8.81699L 106.814 7.65431ZM 83.3525 8.81699L 83.3525 8.33254L 84.0455 6.29785L 83.3525 6.29785L 83.3525 5.8134C 83.4515 5.8134 83.5505 5.8134 83.5505 5.8134L 84.1445 5.8134L 84.9364 3.29426L 83.3525 3.29426L 83.2535 3.29426L 83.2535 2.80981L 86.1244 2.80981L 84.0455 8.91388L 83.8475 8.91388L 83.5505 8.91388C 83.4515 8.91388 83.4515 8.91388 83.3525 8.91388C 83.5505 8.81699 83.5505 8.81699 83.3525 8.81699ZM 90.2821 5.32895L 91.074 5.32895L 91.866 5.32895L 92.7569 2.71292L 93.0539 2.71292L 93.2519 2.71292C 93.4499 2.71292 93.5489 2.71292 93.8458 2.71292L 91.767 8.91388L 91.47 8.91388L 91.272 8.91388C 91.074 8.91388 90.876 8.91388 90.6781 8.91388L 91.668 5.91029L 90.975 5.91029L 89.9851 5.91029C 89.8861 5.91029 89.6881 5.91029 89.4901 5.91029C 89.2922 5.91029 89.0942 5.91029 89.0942 5.91029L 88.4012 5.91029L 87.4113 8.91388L 87.1143 8.91388L 86.9163 8.91388L 86.7183 8.91388L 86.5203 8.91388L 86.3223 8.91388L 88.4012 2.71292C 88.5002 2.71292 88.6982 2.71292 88.8962 2.71292C 89.0942 2.71292 89.2922 2.71292 89.4901 2.71292L 88.5992 5.32895L 89.3911 5.32895L 90.2821 5.32895ZM 100.874 3.10048L 100.28 3.97249L 100.181 3.97249C 100.082 3.77871 99.9835 3.58493 99.9835 3.58493C 99.8845 3.39115 99.7855 3.29426 99.4885 3.19737C 99.2905 3.10048 98.9935 3.10048 98.7955 3.10048C 98.1026 3.10048 97.4096 3.39115 96.8157 3.8756C 96.5187 4.16627 96.3207 4.45694 96.1227 4.74761C 95.9247 5.03828 95.7267 5.42584 95.6277 5.71651C 95.4297 6.29785 95.4297 6.7823 95.4297 7.16986C 95.5287 7.55742 95.6277 7.94498 95.9247 8.13876C 96.2217 8.33254 96.6177 8.52631 97.1126 8.52631C 97.4096 8.52631 97.8056 8.42943 98.1026 8.33254C 98.3996 8.23565 98.7955 7.94498 99.1915 7.65431L 99.2905 7.65431L 98.9935 8.23565C 98.2016 8.62321 97.5086 8.91388 96.7167 8.91388C 96.0237 8.91388 95.4298 8.81698 95.0338 8.52631C 94.6378 8.23564 94.3408 7.84809 94.2418 7.36364C 94.1428 6.87919 94.1428 6.29785 94.3408 5.71651C 94.5388 5.03828 94.8358 4.55383 95.3307 4.06938C 95.8257 3.58493 96.3207 3.19737 96.9146 3.00359C 97.5086 2.71292 98.2016 2.61603 98.7955 2.61603C 99.6865 2.61603 100.379 2.80981 100.874 3.10048ZM 83.3525 2.71292L 83.3525 3.19737C 83.0556 3.19737 82.7586 3.29426 82.4616 3.48804C 82.1646 3.68182 81.8676 4.06938 81.7686 4.45694C 81.6696 4.8445 81.6697 5.03828 81.8676 5.23206C 82.0656 5.42584 82.2636 5.52272 82.5606 5.61961C 82.8576 5.61961 83.0556 5.71651 83.3525 5.71651L 83.3525 6.20096L 83.0556 6.20096L 80.2837 8.7201L 80.0858 8.7201L 79.6898 8.7201C 79.5908 8.7201 79.5908 8.7201 79.4918 8.7201C 79.3928 8.7201 79.3928 8.7201 79.2938 8.7201L 79.0958 8.7201L 79.0958 8.62321L 81.8676 6.10406C 81.5707 6.10406 81.3727 6.00718 81.0757 5.91029C 80.7787 5.8134 80.6797 5.61962 80.5807 5.32895C 80.4817 5.03828 80.4817 4.65072 80.5807 4.26316C 80.7787 3.77871 81.0757 3.39115 81.4717 3.10048C 81.9666 2.80981 82.3626 2.61603 82.8576 2.61603L 83.3525 2.61603L 83.3525 2.71292ZM 83.3525 8.33254L 83.1546 8.91388L 83.3525 8.91388L 83.3525 8.33254ZM 79.1948 5.32895C 79.2938 4.8445 79.2938 4.45694 79.1948 4.06938C 79.1948 3.97249 79.1948 3.97249 79.1948 3.8756L 79.1948 5.32895ZM 79.1948 3.97249L 79.1948 5.32895C 79.1948 5.42584 79.0958 5.61962 79.0958 5.8134C 78.9968 6.20096 78.7988 6.58852 78.5019 6.97608C 78.2049 7.36364 77.9079 7.75119 77.5119 8.04186C 77.1159 8.33253 76.72 8.62321 76.225 8.7201C 76.126 8.7201 76.027 8.81699 75.829 8.81699L 75.829 8.33254C 75.928 8.23565 76.126 8.13875 76.225 8.04186C 76.621 7.75119 77.017 7.36364 77.3139 6.87919C 77.6109 6.39474 77.8089 6.00717 77.9079 5.61961C 78.0069 5.32894 78.1059 4.94138 78.1059 4.65071C 78.1059 4.36004 78.1059 4.06938 78.1059 3.77871C 78.0069 3.48804 77.9079 3.29426 77.7099 3.10048C 77.5119 2.9067 77.2149 2.80981 76.918 2.80981C 76.522 2.80981 76.225 2.9067 75.829 3.00359L 75.829 2.51914C 76.225 2.42225 76.621 2.32536 77.017 2.32536C 77.6109 2.32536 78.1059 2.42225 78.5019 2.71292C 78.8978 3.19737 79.0958 3.58493 79.1948 3.97249ZM 75.829 2.80981L 75.829 3.29426C 75.73 3.39115 75.5321 3.39115 75.4331 3.48804C 75.0371 3.77871 74.6411 4.16627 74.3441 4.55383C 74.0471 5.03828 73.8492 5.42584 73.6512 5.91029C 73.4532 6.39474 73.4532 6.7823 73.4532 7.16986C 73.4532 7.55742 73.5522 7.84809 73.8492 8.13876C 74.0471 8.42943 74.4431 8.52631 74.9381 8.52631C 75.2351 8.52631 75.5321 8.42943 75.829 8.33254L 75.829 8.81699C 75.4331 8.91388 75.0371 9.01076 74.6411 9.01076C 74.0471 9.01076 73.5522 8.91388 73.1562 8.62321C 72.9582 8.42943 72.7602 8.23564 72.5622 8.04186L 72.5622 5.71651C 72.7602 5.32895 72.9582 4.94139 73.1562 4.55383C 73.4532 4.16627 73.7502 3.8756 74.2451 3.58493C 74.6411 3.29426 75.0371 3.10048 75.5321 2.9067C 75.73 2.80981 75.829 2.80981 75.829 2.80981ZM 72.6612 3.39115L 72.7602 3.00359L 72.8592 2.61603L 72.6612 2.61603L 72.6612 3.39115ZM 72.6612 2.71292L 72.6612 3.39115C 72.1663 3.29426 71.4733 3.29426 70.3844 3.29426L 68.5035 8.81699L 68.3055 8.81699C 68.2065 8.81699 68.2065 8.81699 68.2065 8.81699L 68.0086 8.81699L 67.8106 8.81699L 67.6126 8.81699L 67.4146 8.81699L 69.2955 3.29426C 68.3055 3.29426 67.5136 3.29426 66.9196 3.39115L 67.1176 3.00359L 67.2166 2.61603L 72.6612 2.61603L 72.6612 2.71292ZM 72.6612 5.61961L 72.6612 5.71651C 72.4633 6.39474 72.3643 6.97608 72.4633 7.46053C 72.4633 7.6543 72.5622 7.84809 72.6612 7.94498L 72.6612 5.61961ZM 55.8323 8.81699L 55.8323 8.33254C 55.9313 8.23565 56.1293 8.13875 56.2283 8.04186C 56.6243 7.75119 57.0203 7.36364 57.3172 6.87919C 57.6142 6.39474 57.8122 6.00717 57.9112 5.61961C 58.0102 5.32894 58.1092 4.94138 58.1092 4.65071C 58.1092 4.36004 58.1092 4.06938 58.1092 3.77871C 58.0102 3.48804 57.9112 3.29426 57.7132 3.10048C 57.5152 2.9067 57.2183 2.80981 56.9213 2.80981C 56.5253 2.80981 56.2283 2.9067 55.8323 3.00359L 55.8323 2.51914C 56.2283 2.42225 56.6243 2.32536 57.0203 2.32536C 57.6142 2.32536 58.1092 2.42225 58.5052 2.71292C 58.9011 3.00359 59.0991 3.29426 59.1981 3.77871C 59.2971 4.26316 59.1981 4.8445 59.0001 5.42584C 58.9011 5.8134 58.7032 6.20095 58.4062 6.58851C 58.1092 6.97607 57.8122 7.36364 57.4162 7.65431C 57.0203 7.94498 56.6243 8.23565 56.1293 8.33254C 56.0303 8.7201 55.9313 8.81699 55.8323 8.81699ZM 66.5236 3.10048L 65.9297 3.97249L 65.8307 3.97249C 65.7317 3.77871 65.6327 3.58493 65.6327 3.58493C 65.5337 3.39115 65.4347 3.29426 65.1377 3.19737C 64.9397 3.10048 64.6428 3.10048 64.4448 3.10048C 63.7518 3.10048 63.0589 3.39115 62.4649 3.8756C 62.1679 4.16627 61.9699 4.45694 61.772 4.74761C 61.574 5.03828 61.376 5.42584 61.277 5.71651C 61.079 6.29785 61.079 6.7823 61.079 7.16986C 61.178 7.55742 61.277 7.94498 61.574 8.13876C 61.871 8.33254 62.2669 8.52631 62.7619 8.52631C 63.0589 8.52631 63.4548 8.42943 63.7518 8.33254C 64.0488 8.23565 64.4448 7.94498 64.8408 7.65431L 64.9397 7.65431L 64.7418 8.33254C 63.9498 8.7201 63.2569 9.01076 62.4649 9.01076C 61.772 9.01076 61.178 8.91388 60.782 8.62321C 60.386 8.33254 60.0891 7.94497 59.9901 7.46053C 59.8911 6.97608 59.8911 6.39474 60.0891 5.8134C 60.2871 5.13517 60.584 4.65071 61.079 4.16627C 61.574 3.68182 62.0689 3.29426 62.6629 3.10048C 63.2569 2.80981 63.9498 2.71292 64.5438 2.71292C 65.4347 2.61603 66.0287 2.80981 66.5236 3.10048ZM 55.8323 2.80981L 55.8323 3.29426C 55.7333 3.39115 55.5354 3.39115 55.4364 3.48804C 55.0404 3.77871 54.6444 4.16627 54.3474 4.55383C 54.0505 5.03828 53.8525 5.42584 53.6545 5.91029C 53.4565 6.39474 53.4565 6.7823 53.4565 7.16986C 53.4565 7.55742 53.5555 7.84809 53.8525 8.13876C 54.0505 8.42943 54.4464 8.52631 54.9414 8.52631C 55.2384 8.52631 55.5354 8.42943 55.8323 8.33254L 55.8323 8.81699C 55.4364 8.91388 55.0404 9.01076 54.6444 9.01076C 54.0505 9.01076 53.5555 8.91388 53.1595 8.62321C 52.7635 8.33254 52.4666 7.94497 52.3676 7.46053C 52.2686 6.97608 52.2686 6.39474 52.5656 5.71651C 52.7635 5.23206 52.9615 4.8445 53.2585 4.45694C 53.5555 4.06938 53.8525 3.77871 54.3474 3.48804C 54.7434 3.19737 55.1394 3.00359 55.6344 2.80981C 55.7334 2.80981 55.7333 2.80981 55.8323 2.80981ZM 31.5789 8.81699L 31.5789 8.42943C 31.6779 8.23565 31.7769 7.94498 31.9749 7.65431C 32.2719 7.16986 32.4699 6.68541 32.6679 6.29785L 33.4598 4.65071L 34.3508 2.71292L 34.7467 2.71292C 34.7467 3.00359 34.8457 3.29426 34.9447 3.48804C 35.0437 3.77871 35.0437 4.06938 35.1427 4.36005C 35.2417 4.94139 35.4397 5.52272 35.5387 6.10406C 35.6377 6.39473 35.7367 6.68541 35.7367 6.87919C 35.8357 7.16986 35.8356 7.36364 35.9346 7.46053C 37.1226 6.20096 38.5085 4.55382 40.1914 2.71292L 40.5873 2.71292L 40.2904 4.16627L 39.9934 5.61961L 39.5974 7.65431L 39.3004 8.91388L 39.1024 8.91388L 39.0034 8.91388L 38.9044 8.91388L 38.7065 8.91388L 38.5085 8.91388L 38.3105 8.91388L 38.1125 8.91388C 38.2115 8.7201 38.2115 8.52632 38.3105 8.33254C 38.4095 8.04187 38.4095 7.94498 38.4095 7.84809C 38.5085 7.65431 38.5085 7.55742 38.5085 7.46053C 38.5085 7.36364 38.6075 7.16986 38.6075 6.87919C 38.7065 6.68541 38.7065 6.58852 38.7065 6.39474C 38.7065 6.20096 38.8055 6.00718 38.8055 5.8134C 38.9045 5.42584 39.0034 5.03828 39.0034 4.74761C 37.8155 6.00718 36.5286 7.46053 35.2417 8.91388L 34.9447 8.91388C 34.9447 8.62321 34.8457 8.33254 34.7467 7.94498L 34.4497 6.7823L 34.1528 5.71651C 34.0538 5.32895 33.9548 5.03828 33.8558 4.74761L 33.3608 5.71651L 32.8659 6.87919L 32.3709 8.04186L 32.0739 8.91388L 31.9749 8.91388L 31.8759 8.91388L 31.7769 8.91388L 31.5789 8.81699ZM 31.5789 3.39115L 31.7769 2.71292L 31.5789 2.71292L 31.5789 3.39115ZM 49.2988 2.71292L 50.7837 2.71292L 51.9716 2.71292L 49.8927 8.81699L 49.5957 8.81699L 49.3978 8.81699L 49.1998 8.81699L 49.0018 8.81699L 48.8038 8.81699L 50.6847 3.29426L 47.4179 3.29426L 45.537 8.81699C 45.339 8.81699 45.1411 8.81699 45.0421 8.81699L 44.8441 8.81699L 44.6461 8.81699L 44.4481 8.81699L 46.527 2.71292L 47.7149 2.71292L 49.2988 2.71292ZM 31.5789 2.71292L 31.5789 3.39115L 29.797 8.81699L 29.5001 8.81699L 29.3021 8.81699L 29.1041 8.81699L 28.9061 8.81699L 28.7081 8.81699L 30.193 4.36005L 29.0051 5.32895L 27.5202 6.58851L 26.0353 7.84809C 25.8373 8.04187 25.6393 8.23565 25.4413 8.33254C 25.2433 8.52632 25.0454 8.7201 24.8474 8.91388L 24.3524 8.91388L 26.4313 2.71292C 26.5303 2.71292 26.7283 2.71292 26.9262 2.71292C 27.1242 2.71292 27.3222 2.71292 27.5202 2.71292L 26.0353 7.16986L 27.2232 6.20096L 28.6091 5.03828C 29.1041 4.55383 29.5991 4.16627 29.995 3.77871C 30.193 3.58493 30.391 3.39115 30.589 3.19737C 30.688 3.10048 30.886 2.9067 31.183 2.71292L 31.5789 2.71292ZM 31.5789 8.42943C 31.4799 8.62321 31.3809 8.7201 31.3809 8.81699L 31.5789 8.81699L 31.6779 8.81699L 31.6779 8.42943L 31.5789 8.42943ZM 13.8591 8.81699L 13.8591 8.33254C 14.3541 8.23565 14.948 7.94497 15.542 7.55741L 15.344 8.23565C 14.948 8.42943 14.4531 8.62321 14.0571 8.81699L 13.8591 8.81699ZM 13.8591 5.71651L 13.8591 5.23206L 15.542 5.23206C 15.641 4.94139 15.74 4.65072 15.74 4.36005C 15.74 4.06938 15.74 3.8756 15.641 3.68182C 15.542 3.29426 15.146 3.10048 14.552 3.10048C 14.2551 3.10048 14.0571 3.10048 13.7601 3.19737L 13.7601 2.71292C 14.0571 2.61603 14.3541 2.61603 14.651 2.61603C 15.047 2.61603 15.344 2.71292 15.641 2.80981C 15.9379 2.9067 16.1359 3.10048 16.3339 3.29426C 16.5319 3.48804 16.6309 3.8756 16.6309 4.16627C 16.6309 4.55382 16.6309 4.94139 16.4329 5.42584L 16.3339 5.61961L 16.2349 5.71651C 15.938 5.71651 15.443 5.71651 14.849 5.71651C 14.5521 5.71651 14.1561 5.71651 13.8591 5.71651ZM 20.7886 5.32895L 21.5806 5.32895L 22.3725 5.32895L 23.2635 2.71292L 23.5604 2.71292L 23.7584 2.71292C 23.9564 2.71292 24.0554 2.71292 24.3524 2.71292L 22.2735 8.91388L 21.9766 8.91388L 21.7786 8.91388C 21.5806 8.91388 21.3826 8.91388 21.1846 8.91388L 22.1745 5.91029L 21.4816 5.91029L 20.4917 5.91029C 20.3927 5.91029 20.1947 5.91029 19.9967 5.91029C 19.7987 5.91029 19.6007 5.91029 19.6007 5.91029L 18.9078 5.91029L 17.9178 8.91388L 17.6208 8.91388L 17.4229 8.91388L 17.2249 8.91388L 17.1259 8.91388L 16.9279 8.91388L 19.0068 2.71292C 19.1058 2.71292 19.3037 2.71292 19.5017 2.71292C 19.6997 2.71292 19.8977 2.71292 20.0957 2.71292L 19.2047 5.32895L 19.9967 5.32895L 20.7886 5.32895ZM 10.6913 1.47842e-06L 10.5923 0.484451L 10.5923 0.09689L 10.6913 1.47842e-06ZM 13.8591 2.71292L 13.8591 3.19737C 13.7601 3.19737 13.6611 3.29426 13.5621 3.39115C 13.2651 3.58493 12.8692 3.8756 12.6712 4.26316C 12.4732 4.45694 12.3742 4.65072 12.2752 4.8445C 12.1762 5.03828 12.0772 5.23206 12.0772 5.42584L 13.9581 5.42584L 13.9581 5.91029L 13.8591 5.91029L 11.9782 5.91029L 11.8792 6.20096C 11.7802 6.49163 11.6812 6.87919 11.6812 7.16986C 11.6812 7.46053 11.7802 7.7512 11.8792 7.94498C 11.9782 8.13876 12.1762 8.33254 12.4732 8.42943C 12.7702 8.52632 13.0671 8.62321 13.3641 8.62321C 13.5621 8.62321 13.7601 8.6232 13.9581 8.52631L 13.9581 9.01076C 13.7601 9.10765 13.5621 9.10766 13.4631 9.10766C 13.2651 9.10766 13.0671 9.20455 12.8692 9.20455C 12.2752 9.20455 11.7802 9.10766 11.3843 8.81699C 11.0873 8.62321 10.8893 8.33253 10.6913 8.04186L 10.6913 6.29785C 10.6913 6.20096 10.6913 6.10406 10.7903 6.10406C 10.9883 5.52272 11.2853 4.94139 11.6812 4.45694C 12.0772 3.97249 12.5722 3.58493 13.0671 3.29426C 13.2651 2.9067 13.5621 2.80981 13.8591 2.71292ZM 10.5923 0.387563L 8.01847 8.13876L 8.81042 8.13876L 8.71143 8.42943L 8.61244 8.62321L 8.61244 8.7201L 8.51344 9.01076L 8.41445 9.30144L 8.31545 9.30144C 8.21646 9.10766 8.11747 9.01077 7.91948 8.91388C 7.82049 8.91388 7.7215 8.81699 7.6225 8.81699C 7.52351 8.81699 7.32552 8.81699 7.22653 8.81699L 5.84062 8.81699L 3.95974 8.81699C 3.0688 8.81699 2.37584 8.81699 1.88088 8.81699C 1.38591 8.81699 0.692953 8.81699 -1.51052e-06 8.81699L 2.9698 1.47842e-06C 3.16779 1.47842e-06 3.36578 1.47842e-06 3.56376 1.47842e-06C 3.76175 1.47842e-06 3.95974 1.47842e-06 4.15773 1.47842e-06L 1.4849 8.13876L 7.02854 8.13876L 9.70137 1.47842e-06C 9.80036 1.47842e-06 9.99834 1.47842e-06 10.2953 1.47842e-06C 10.3943 1.47842e-06 10.5923 1.47842e-06 10.7903 1.47842e-06L 10.7903 0.387563L 10.5923 0.387563ZM 10.5923 6.00718C 10.3943 6.58852 10.3943 7.07297 10.4933 7.46053C 10.4933 7.55742 10.5923 7.65431 10.5923 7.7512L 10.5923 6.00718Z"/>
</defs>
</svg>
