<svg width="16" height="16" viewBox="0 0 16 16" version="1.1" xmlns="http://www.w3.org/2000/svg" xmlns:xlink="http://www.w3.org/1999/xlink">
<title>Group</title>
<desc>Created using Figma</desc>
<g id="Canvas" transform="translate(1446 -241)">
<rect x="-1446" y="241" width="16" height="16" fill="#E0E0E0"/>
<clipPath id="clip-0" clip-rule="evenodd">
<path d="M -3172 0L -1252 0L -1252 3414L -3172 3414L -3172 0Z" fill="#FFFFFF"/>
</clipPath>
<g id="Ui set" clip-path="url(#clip-0)">
<path d="M -3172 0L -1252 0L -1252 3414L -3172 3414L -3172 0Z" fill="#F2F2F2"/>
<clipPath id="clip-1" clip-rule="evenodd">
<path d="M -3172 200L -1252 200L -1252 298L -3172 298L -3172 200Z" fill="#FFFFFF"/>
</clipPath>
<g id="menu_2" clip-path="url(#clip-1)">
<path d="M -3172 200L -1252 200L -1252 298L -3172 298L -3172 200Z" fill="#FFFFFF"/>
<clipPath id="clip-2" clip-rule="evenodd">
<path d="M -1508 193L -1219 193L -1219 290L -1508 290L -1508 193Z" fill="#FFFFFF"/>
</clipPath>
<g id="Frame 13" clip-path="url(#clip-2)">
</g>
<clipPath id="clip-3" clip-rule="evenodd">
<path d="M -1582 201L -1291 201L -1291 298L -1582 298L -1582 201Z" fill="#FFFFFF"/>
</clipPath>
<g id="btn" clip-path="url(#clip-3)">
<path d="M -1582 201L -1291 201L -1291 298L -1582 298L -1582 201Z" fill="#FFFFFF"/>
<g id="Group">
<g id="Vector">
<use xlink:href="#path0_fill" transform="translate(-1446 241.926)" fill="#F03454"/>
</g>
<g id="Vector">
<use xlink:href="#path1_fill" transform="translate(-1437.73 243.902)" fill="#F03454"/>
</g>
<g id="Vector">
<use xlink:href="#path2_fill" transform="translate(-1437.6 241)" fill="#F03454"/>
</g>
</g>
</g>
</g>
</g>
</g>
<defs>
<path id="path0_fill" d="M 12.6518 8.98596C 12.3238 8.64489 11.9281 8.46254 11.5087 8.46254C 11.0928 8.46254 10.6937 8.64151 10.3522 8.98258L 9.2835 10.0463C 9.19557 9.99903 9.10765 9.95513 9.0231 9.91123C 8.90135 9.85045 8.78637 9.79304 8.6883 9.73226C 7.68728 9.0974 6.77757 8.27005 5.90506 7.19957C 5.48233 6.66602 5.19825 6.21689 4.99196 5.76101C 5.26927 5.50774 5.52629 5.24434 5.77655 4.99107C 5.87124 4.89652 5.96593 4.79859 6.06062 4.70404C 6.7708 3.99489 6.7708 3.07637 6.06062 2.36721L 5.13738 1.44532C 5.03254 1.34063 4.92433 1.23257 4.82287 1.12451C 4.61996 0.915143 4.40691 0.699021 4.18709 0.496406C 3.85905 0.172222 3.46676 4.63748e-09 3.05418 4.63748e-09C 2.64159 4.63748e-09 2.24254 0.172222 1.90436 0.496406C 1.90097 0.499783 1.90097 0.499783 1.89759 0.50316L 0.747772 1.66144C 0.314898 2.09368 0.0680249 2.62048 0.0139157 3.2317C -0.0672481 4.21776 0.223589 5.13628 0.446789 5.73737C 0.994645 7.21308 1.81305 8.58073 3.03389 10.0463C 4.51513 11.8124 6.29735 13.2071 8.33321 14.1898C 9.11103 14.5579 10.1492 14.9935 11.3092 15.0678C 11.3802 15.0712 11.4546 15.0745 11.5223 15.0745C 12.3035 15.0745 12.9595 14.7942 13.4736 14.2371C 13.477 14.2303 13.4837 14.2269 13.4871 14.2202C 13.663 14.0074 13.8659 13.8149 14.0789 13.609C 14.2243 13.4705 14.3731 13.3253 14.5186 13.1733C 14.8534 12.8255 15.0292 12.4203 15.0292 12.0049C 15.0292 11.5862 14.85 11.1843 14.5084 10.8466L 12.6518 8.98596Z"/>
<path id="path1_fill" d="M 0.375796 0.904362C 1.26183 1.05295 2.06671 1.47168 2.70926 2.1133C 3.3518 2.75491 3.76777 3.55861 3.91995 4.44336C 3.95715 4.66624 4.14991 4.82158 4.36973 4.82158C 4.39679 4.82158 4.42046 4.8182 4.44751 4.81482C 4.69777 4.7743 4.86348 4.53792 4.8229 4.28803C 4.64028 3.21755 4.133 2.24162 3.35857 1.46831C 2.58413 0.694993 1.60678 0.188457 0.534742 0.00610345C 0.284487 -0.0344195 0.0511411 0.131049 0.0071774 0.377564C -0.0367863 0.624078 0.125541 0.863839 0.375796 0.904362Z"/>
<path id="path2_fill" d="M 7.59154 7.05794C 7.29056 5.29519 6.45863 3.69116 5.1803 2.41469C 3.90197 1.13822 2.2956 0.307495 0.530291 0.00695018C 0.283418 -0.0369497 0.0500722 0.131896 0.00610849 0.37841C -0.0344734 0.628302 0.131236 0.861309 0.381491 0.905208C 1.95742 1.17198 3.3947 1.91828 4.53775 3.0563C 5.68081 4.1977 6.42481 5.63288 6.69198 7.20652C 6.72918 7.4294 6.92194 7.58474 7.14176 7.58474C 7.16881 7.58474 7.19249 7.58136 7.21954 7.57798C 7.46642 7.54084 7.63551 7.30445 7.59154 7.05794Z"/>
</defs>
</svg>
